<svg width="60" height="60" viewBox="0 0 60 60" fill="none" xmlns="http://www.w3.org/2000/svg">
<rect width="60" height="60" fill="white"/>
<rect x="0.517054" y="0.517054" width="58.9659" height="58.9659" stroke="white" stroke-opacity="0.2" stroke-width="1.03411"/>
<g clip-path="url(#clip0_566_1433)">
<path d="M50.6316 9.23926L31.9951 23.2478L35.4607 14.9922L50.6316 9.23926Z" fill="#E17726"/>
<path d="M9.25518 9.25586L24.3855 14.9933L27.6762 23.3571L9.25518 9.25586ZM43.1307 39.0316L51.3677 39.1909L48.489 49.1255L38.4379 46.3143L43.1307 39.0316ZM16.7113 39.0316L21.3866 46.3143L11.3525 49.1257L8.49121 39.1909L16.7113 39.0316Z" fill="#E27625"/>
<path d="M27.2293 21.2267L27.5659 32.2715L17.4932 31.806L20.3584 27.4148L20.3947 27.3726L27.2293 21.2267ZM32.5096 21.1035L39.4486 27.373L39.4846 27.415L42.3498 31.8062L32.2792 32.2715L32.5096 21.1035ZM21.6822 39.0637L27.1822 43.4171L20.7932 46.5507L21.6822 39.0637ZM38.1621 39.063L39.0326 46.5508L32.6615 43.4168L38.1621 39.063Z" fill="#E27625"/>
<path d="M32.8013 43.0068L39.2665 46.1871L33.2526 49.0905L33.3151 47.1715L32.8013 43.0068ZM27.0386 43.0082L26.545 47.1402L26.5856 49.0882L20.5576 46.1871L27.0386 43.0082Z" fill="#D5BFB2"/>
<path d="M25.1718 33.7129L26.8613 37.3199L21.1094 35.6081L25.1718 33.7129ZM34.6702 33.7132L38.7518 35.6081L32.981 37.3193L34.6702 33.7132Z" fill="#233447"/>
<path d="M22.1211 39.027L21.1914 46.7897L16.208 39.1968L22.1211 39.027ZM37.7212 39.0272L43.6345 39.1968L38.6324 46.79L37.7212 39.0272ZM42.4947 31.3672L38.1913 35.8226L34.8733 34.2823L33.2848 37.6749L32.2434 31.841L42.4947 31.3672ZM17.3451 31.3672L27.5984 31.841L26.5568 37.6749L24.968 34.2829L21.6676 35.8228L17.3451 31.3672Z" fill="#CC6228"/>
<path d="M17.0557 30.4533L21.9245 35.4723L22.0932 40.4273L17.0557 30.4533ZM42.7923 30.4443L37.7457 40.4361L37.9357 35.4723L42.7923 30.4443ZM27.3609 30.759L27.5568 32.012L28.041 35.1335L27.7297 44.7205L26.2579 37.019L26.2574 36.9394L27.3609 30.759ZM32.4796 30.7416L33.586 36.9394L33.5855 37.019L32.1099 44.7398L32.0516 42.8086L31.8214 35.0766L32.4796 30.7416Z" fill="#E27525"/>
<path d="M38.3683 35.2734L38.2035 39.5784L33.0673 43.6437L32.029 42.8984L33.1928 36.8084L38.3683 35.2734ZM21.4922 35.2734L26.6496 36.8084L27.8135 42.8984L26.7752 43.6437L21.6388 39.5781L21.4922 35.2734Z" fill="#F5841F"/>
<path d="M19.5752 45.2363L26.1464 48.3993L26.1186 47.0486L26.6684 46.5583H33.1721L33.7418 47.0469L33.6998 48.3966L40.2294 45.2443L37.052 47.9116L33.2101 50.5921H26.6157L22.7763 47.9005L19.5752 45.2363Z" fill="#C0AC9D"/>
<path d="M32.3315 42.5859L33.2605 43.2528L33.805 47.6656L33.0171 46.9899H26.8286L26.0557 47.6793L26.5823 43.2531L27.5117 42.5859H32.3315Z" fill="#161616"/>
<path d="M49.4005 9.62793L51.6376 16.4456L50.2405 23.3392L51.2353 24.1187L49.8891 25.1621L50.9009 25.956L49.5611 27.1953L50.3836 27.8005L48.2008 30.3902L39.248 27.742L39.1704 27.6998L32.7188 22.1711L49.4005 9.62793ZM10.4422 9.62793L27.124 22.1711L20.6722 27.6998L20.5947 27.742L11.6418 30.3902L9.45902 27.8005L10.2808 27.1959L8.9419 25.956L9.95171 25.163L8.58528 24.1166L9.61765 23.3366L8.20508 16.446L10.4422 9.62793Z" fill="#763E1A"/>
<path d="M38.8097 27.1622L48.2958 29.9679L51.3777 39.6172H43.247L37.6448 39.6889L41.719 31.6214L38.8097 27.1622ZM21.0323 27.1622L18.1224 31.6214L22.1971 39.6889L16.5976 39.6172H8.48145L11.546 29.9681L21.0323 27.1622ZM35.9242 14.9463L33.2709 22.2262L32.7078 32.0606L32.4923 35.1431L32.4752 43.0175H27.3666L27.35 35.1579L27.1338 32.058L26.5706 22.2262L23.9176 14.9463H35.9242Z" fill="#F5841F"/>
</g>
<defs>
<clipPath id="clip0_566_1433">
<rect width="43.4325" height="41.3643" fill="white" transform="translate(8.20508 9.23926)"/>
</clipPath>
</defs>
</svg>
