<svg width="60" height="60" viewBox="0 0 60 60" fill="none" xmlns="http://www.w3.org/2000/svg">
<rect width="60" height="60" fill="#3396FF"/>
<rect x="0.517054" y="0.517054" width="58.9659" height="58.9659" stroke="white" stroke-opacity="0.2" stroke-width="1.03411"/>
<g clip-path="url(#clip0_566_51)">
<path d="M18.1884 22.5319C24.7134 16.1469 35.2884 16.1469 41.8117 22.5319L42.5967 23.3002C42.6742 23.3753 42.7359 23.4652 42.778 23.5645C42.8201 23.6639 42.8417 23.7707 42.8417 23.8786C42.8417 23.9865 42.8201 24.0933 42.778 24.1926C42.7359 24.292 42.6742 24.3819 42.5967 24.4569L39.9117 27.0852C39.873 27.1241 39.827 27.1548 39.7764 27.1758C39.7258 27.1968 39.6715 27.2077 39.6167 27.2077C39.5619 27.2077 39.5076 27.1968 39.457 27.1758C39.4064 27.1548 39.3604 27.1241 39.3217 27.0852L38.24 26.0286C33.69 21.5736 26.3117 21.5736 21.7617 26.0286L20.605 27.1619C20.5257 27.2388 20.4196 27.2818 20.3092 27.2818C20.1988 27.2818 20.0927 27.2388 20.0134 27.1619L17.3284 24.5319C17.2505 24.4572 17.1885 24.3676 17.1462 24.2683C17.1038 24.1691 17.082 24.0623 17.082 23.9544C17.082 23.8465 17.1038 23.7397 17.1462 23.6405C17.1885 23.5412 17.2505 23.4516 17.3284 23.3769L18.1884 22.5319ZM47.365 27.9702L49.755 30.3102C49.8326 30.3853 49.8942 30.4752 49.9363 30.5745C49.9784 30.6739 50.0001 30.7807 50.0001 30.8886C50.0001 30.9965 49.9784 31.1033 49.9363 31.2026C49.8942 31.302 49.8326 31.3919 49.755 31.4669L38.9784 42.0186C38.8199 42.1718 38.608 42.2575 38.3875 42.2575C38.1671 42.2575 37.9552 42.1718 37.7967 42.0186L30.15 34.5302C30.1107 34.491 30.0573 34.4689 30.0017 34.4689C29.9461 34.4689 29.8927 34.491 29.8534 34.5302L22.205 42.0186C22.0465 42.1718 21.8347 42.2575 21.6142 42.2575C21.3937 42.2575 21.1819 42.1718 21.0234 42.0186L10.245 31.4669C10.1675 31.3919 10.1059 31.302 10.0638 31.2026C10.0217 31.1033 10 30.9965 10 30.8886C10 30.7807 10.0217 30.6739 10.0638 30.5745C10.1059 30.4752 10.1675 30.3853 10.245 30.3102L12.635 27.9702C12.7935 27.817 13.0054 27.7313 13.2259 27.7313C13.4464 27.7313 13.6582 27.817 13.8167 27.9702L21.465 35.4586C21.5484 35.5386 21.68 35.5386 21.7617 35.4586L29.41 27.9702C29.5685 27.817 29.7804 27.7313 30.0009 27.7313C30.2213 27.7313 30.4332 27.817 30.5917 27.9702L38.24 35.4586C38.3234 35.5386 38.4534 35.5386 38.5367 35.4586L46.185 27.9702C46.3429 27.8163 46.5546 27.7302 46.775 27.7302C46.9955 27.7302 47.2072 27.8163 47.365 27.9702Z" fill="white"/>
</g>
<defs>
<clipPath id="clip0_566_51">
<rect width="40" height="40" fill="white" transform="translate(10 10)"/>
</clipPath>
</defs>
</svg>
