<svg width="515" height="341" viewBox="0 0 515 341" fill="none" xmlns="http://www.w3.org/2000/svg">
<g opacity="0.2" filter="url(#filter0_f_1204_25153)">
<path d="M292.109 241H130L208.369 100H371L292.109 241Z" fill="#B0FF4A"/>
</g>
<path d="M88.0002 155.486L165.993 21H514.071" stroke="url(#paint0_linear_1204_25153)" stroke-opacity="0.08" stroke-width="25"/>
<path d="M84.1672 160.809L77.0002 148.583L91.3341 149.005L98.5011 160.809H84.1672Z" fill="#B0FF4A"/>
<path d="M84.1672 136.357L77.0002 148.583L98.5011 160.809L105.668 148.583L98.5011 136.357H84.1672Z" fill="url(#paint1_linear_1204_25153)" fill-opacity="0.5"/>
<path d="M414.032 182.681L341.098 310L-0.00012207 310" stroke="url(#paint2_linear_1204_25153)" stroke-opacity="0.08" stroke-width="25"/>
<path d="M417.826 176.358L424.993 188.583L410.659 188.162L403.492 176.358L417.826 176.358Z" fill="#B0FF4A"/>
<path d="M417.826 200.81L424.993 188.584L403.492 176.358L396.325 188.584L403.492 200.81L417.826 200.81Z" fill="#B0FF4A" fill-opacity="0.5"/>
<path d="M291 91H383.749L310.815 218.319" stroke="url(#paint3_linear_1204_25153)" stroke-opacity="0.12" stroke-width="28.4"/>
<path d="M211.749 247.319L119 247.319L191.934 120" stroke="url(#paint4_linear_1204_25153)" stroke-opacity="0.12" stroke-width="28.4"/>
<path d="M225.28 214.536L199.564 169.005L275.871 124.317L301.587 169.848L225.28 214.536Z" fill="url(#paint5_linear_1204_25153)" fill-opacity="0.3"/>
<path d="M224.859 124.317H275.871L250.154 169.005H199.564L224.859 124.317Z" fill="#B0FF4A"/>
<path d="M250.575 169.848H301.587L275.87 214.536H225.28L250.575 169.848Z" fill="#FFCC4A"/>
<path d="M197.455 232.243H213.897V260.911H197.455L189.024 246.577L197.455 232.243Z" fill="#B0FF4A"/>
<path d="M205.466 246.577L213.897 232.243L222.329 246.577L213.897 260.911L205.466 246.577Z" fill="#FFCC4A"/>
<path d="M286.832 77.0996H303.274V105.767H286.832L278.4 91.4335L286.832 77.0996Z" fill="#B0FF4A"/>
<path d="M294.842 91.4335L303.274 77.0996L311.705 91.4335L303.274 105.767L294.842 91.4335Z" fill="#FFCC4A"/>
<defs>
<filter id="filter0_f_1204_25153" x="30" y="0" width="441" height="341" filterUnits="userSpaceOnUse" color-interpolation-filters="sRGB">
<feFlood flood-opacity="0" result="BackgroundImageFix"/>
<feBlend mode="normal" in="SourceGraphic" in2="BackgroundImageFix" result="shape"/>
<feGaussianBlur stdDeviation="50" result="effect1_foregroundBlur_1204_25153"/>
</filter>
<linearGradient id="paint0_linear_1204_25153" x1="394.071" y1="21.0003" x2="95.5889" y2="128.926" gradientUnits="userSpaceOnUse">
<stop stop-color="#B0FF4A" stop-opacity="0"/>
<stop offset="0.544925" stop-color="#B0FF4A" stop-opacity="0.5"/>
<stop offset="1" stop-color="#B0FF4A"/>
</linearGradient>
<linearGradient id="paint1_linear_1204_25153" x1="98.5011" y1="136.357" x2="86.6967" y2="154.907" gradientUnits="userSpaceOnUse">
<stop stop-color="#B0FF4A"/>
<stop offset="1" stop-color="#B0FF4A"/>
</linearGradient>
<linearGradient id="paint2_linear_1204_25153" x1="113.02" y1="310" x2="411.503" y2="202.074" gradientUnits="userSpaceOnUse">
<stop stop-color="#B0FF4A" stop-opacity="0"/>
<stop offset="0.549704" stop-color="#B0FF4A" stop-opacity="0.5"/>
<stop offset="1" stop-color="#B0FF4A"/>
</linearGradient>
<linearGradient id="paint3_linear_1204_25153" x1="326.413" y1="80.0388" x2="316.295" y2="211.152" gradientUnits="userSpaceOnUse">
<stop stop-color="#B0FF4A"/>
<stop offset="0.993435" stop-color="#B0FF4A" stop-opacity="0"/>
</linearGradient>
<linearGradient id="paint4_linear_1204_25153" x1="188.14" y1="257.858" x2="180.973" y2="127.589" gradientUnits="userSpaceOnUse">
<stop stop-color="#B0FF4A"/>
<stop offset="1" stop-color="#B0FF4A" stop-opacity="0"/>
</linearGradient>
<linearGradient id="paint5_linear_1204_25153" x1="234.977" y1="148.347" x2="270.812" y2="203.153" gradientUnits="userSpaceOnUse">
<stop stop-color="#B0FF4A"/>
<stop offset="1" stop-color="#B0FF4A" stop-opacity="0.72"/>
</linearGradient>
</defs>
</svg>
