<svg width="126" height="136" viewBox="0 0 126 136" fill="none" xmlns="http://www.w3.org/2000/svg">
<path opacity="0.15" d="M50.9023 0.5V90.8311" stroke="white" stroke-linecap="square"/>
<path d="M50.9023 85.7817V135.385" stroke="url(#paint0_linear_1560_28113)" stroke-linecap="square"/>
<path opacity="0.15" d="M51.4956 85.1877L125.5 85.1877" stroke="white" stroke-linecap="square"/>
<path d="M50.9023 85.1877L100.506 85.1877" stroke="url(#paint1_linear_1560_28113)" stroke-linecap="square"/>
<path d="M50.9023 86.0789L50.9023 36.4751" stroke="url(#paint2_linear_1560_28113)" stroke-linecap="square"/>
<path d="M50.6035 85.1877L0.999779 85.1877" stroke="url(#paint3_linear_1560_28113)" stroke-linecap="square"/>
<path fill-rule="evenodd" clip-rule="evenodd" d="M41.4834 85.1878C46.6914 85.1395 50.8984 80.9027 50.8984 75.6833C50.8984 75.6831 50.8984 75.683 50.8984 75.6829C50.8984 75.6829 50.8984 75.6829 50.8984 75.6829H50.8993V75.6833C50.8993 80.9027 55.1063 85.1395 60.3144 85.1878C55.1063 85.236 50.8993 89.4728 50.8993 94.6923V94.6927H50.8984H50.8984V94.6923C50.8984 89.4728 46.6914 85.236 41.4834 85.1878Z" fill="#B0FF4A"/>
<defs>
<linearGradient id="paint0_linear_1560_28113" x1="51.4023" y1="85.7817" x2="51.4023" y2="135.385" gradientUnits="userSpaceOnUse">
<stop stop-color="white" stop-opacity="0"/>
<stop offset="1" stop-color="white" stop-opacity="0.5"/>
</linearGradient>
<linearGradient id="paint1_linear_1560_28113" x1="50.9023" y1="84.6877" x2="100.506" y2="84.6877" gradientUnits="userSpaceOnUse">
<stop stop-color="white" stop-opacity="0"/>
<stop offset="1" stop-color="white" stop-opacity="0.5"/>
</linearGradient>
<linearGradient id="paint2_linear_1560_28113" x1="50.4023" y1="86.0789" x2="50.4023" y2="36.4751" gradientUnits="userSpaceOnUse">
<stop stop-color="white" stop-opacity="0"/>
<stop offset="1" stop-color="white" stop-opacity="0.5"/>
</linearGradient>
<linearGradient id="paint3_linear_1560_28113" x1="50.6035" y1="85.6877" x2="0.999779" y2="85.6877" gradientUnits="userSpaceOnUse">
<stop stop-color="white" stop-opacity="0"/>
<stop offset="1" stop-color="white" stop-opacity="0.5"/>
</linearGradient>
</defs>
</svg>
