<svg width="627" height="113" viewBox="0 0 627 113" fill="none" xmlns="http://www.w3.org/2000/svg">
<path opacity="0.15" d="M132 96.5923L626 96.5923" stroke="white" stroke-linecap="square"/>
<path fill-rule="evenodd" clip-rule="evenodd" d="M84 96.5923C92.8366 96.5923 100 89.4288 100 80.5923C100 89.4288 107.163 96.5923 116 96.5923C107.163 96.5923 100 103.756 100 112.592C100 103.756 92.8366 96.5923 84 96.5923Z" fill="white"/>
<rect x="251" y="70.4126" width="300.5" height="9.83297" transform="rotate(-5.67267 251 70.4126)" fill="#B0FF4A"/>
<circle cx="285.065" cy="44.6076" r="22.1211" transform="rotate(5.75966 285.065 44.6076)" fill="#B0FF4A"/>
<circle cx="276.92" cy="50.4981" r="11.2692" transform="rotate(5.75966 276.92 50.4981)" fill="#FFCC4A"/>
<path d="M412.955 63.5195L431.389 95.4491H394.52L412.955 63.5195Z" fill="#FFCC4A"/>
<path d="M510.367 3.69079L533.714 1.25115L537.967 41.9579L514.621 44.3975L500.521 25.2953L510.367 3.69079Z" fill="#B0FF4A"/>
<path d="M523.868 22.8558L533.713 1.25134L547.813 20.3536L537.967 41.9581L523.868 22.8558Z" fill="#FFCC4A"/>
<path opacity="0.15" d="M1 96.5923L67.5 96.5923" stroke="white" stroke-linecap="square"/>
</svg>
