<svg width="224" height="1010" viewBox="0 0 224 1010" fill="none" xmlns="http://www.w3.org/2000/svg">
<path opacity="0.15" d="M85 305V1009.5" stroke="white" stroke-linecap="square"/>
<path opacity="0.15" d="M85 0.5L85 83" stroke="white" stroke-linecap="square"/>
<path d="M85 166V249.5" stroke="url(#paint0_linear_288_143)" stroke-linecap="square"/>
<path opacity="0.15" d="M169.5 165H223.5" stroke="white" stroke-linecap="square"/>
<path d="M85 165L168.5 165" stroke="url(#paint1_linear_288_143)" stroke-linecap="square"/>
<path d="M85 166.5L85 83" stroke="url(#paint2_linear_288_143)" stroke-linecap="square"/>
<path d="M84.5 165L1 165" stroke="url(#paint3_linear_288_143)" stroke-linecap="square"/>
<path fill-rule="evenodd" clip-rule="evenodd" d="M69 165C77.8366 165 85 157.837 85 149C85 157.837 92.1634 165 101 165C92.1634 165 85 172.163 85 181C85 172.163 77.8366 165 69 165Z" fill="#B0FF4A"/>
<defs>
<linearGradient id="paint0_linear_288_143" x1="85.5" y1="166" x2="85.5" y2="249.5" gradientUnits="userSpaceOnUse">
<stop stop-color="white" stop-opacity="0"/>
<stop offset="1" stop-color="white" stop-opacity="0.5"/>
</linearGradient>
<linearGradient id="paint1_linear_288_143" x1="85" y1="164.5" x2="168.5" y2="164.5" gradientUnits="userSpaceOnUse">
<stop stop-color="white" stop-opacity="0"/>
<stop offset="1" stop-color="white" stop-opacity="0.5"/>
</linearGradient>
<linearGradient id="paint2_linear_288_143" x1="84.5" y1="166.5" x2="84.5" y2="83" gradientUnits="userSpaceOnUse">
<stop stop-color="white" stop-opacity="0"/>
<stop offset="1" stop-color="white" stop-opacity="0.5"/>
</linearGradient>
<linearGradient id="paint3_linear_288_143" x1="84.5" y1="165.5" x2="1" y2="165.5" gradientUnits="userSpaceOnUse">
<stop stop-color="white" stop-opacity="0"/>
<stop offset="1" stop-color="white" stop-opacity="0.5"/>
</linearGradient>
</defs>
</svg>
