<svg width="1440" height="101" viewBox="0 0 1440 101" fill="none" xmlns="http://www.w3.org/2000/svg">
<path d="M681 17V100.5" stroke="url(#paint0_linear_288_143)" stroke-linecap="square"/>
<path opacity="0.15" d="M-227 16H1268.5" stroke="white" stroke-linecap="square"/>
<path fill-rule="evenodd" clip-rule="evenodd" d="M665 16C673.837 16 681 8.83656 681 0C681 8.83656 688.163 16 697 16C688.163 16 681 23.1634 681 32C681 23.1634 673.837 16 665 16Z" fill="#B0FF4A"/>
<path fill-rule="evenodd" clip-rule="evenodd" d="M1285 16C1293.84 16 1301 8.83656 1301 0C1301 8.83656 1308.16 16 1317 16C1308.16 16 1301 23.1634 1301 32C1301 23.1634 1293.84 16 1285 16Z" fill="white"/>
<path opacity="0.15" d="M1333 16H1440" stroke="white" stroke-linecap="square"/>
<defs>
<linearGradient id="paint0_linear_288_143" x1="681.5" y1="17" x2="681.5" y2="100.5" gradientUnits="userSpaceOnUse">
<stop stop-color="white" stop-opacity="0"/>
<stop offset="1" stop-color="white" stop-opacity="0.5"/>
</linearGradient>
</defs>
</svg>
