<svg width="39" height="43" viewBox="0 0 39 43" fill="none" xmlns="http://www.w3.org/2000/svg">
<mask id="path-1-outside-1_981_276740" maskUnits="userSpaceOnUse" x="0.563477" y="0" width="39" height="43" fill="black">
<rect fill="white" x="0.563477" width="39" height="43"/>
<path d="M13.7911 3V8.35099H17.3594V3H13.7911Z"/>
<path fill-rule="evenodd" clip-rule="evenodd" d="M9.61941 33.3023H7.96779V32.2012H7.14198V34.4034H8.51833V35.5045H9.61941V37.7066H8.51833V38.8077H7.14198V39.9088H5.49036V38.8077H4.66455V37.7066H3.56348V36.6055H5.21509V37.7066H5.49036V35.5045H4.66455V34.4034H3.56348V32.2012H4.66455V31.1001H5.49036V29.9991H7.14198V31.1001H8.51833V32.2012H9.61941V33.3023ZM5.49036 34.4034V32.2012H5.21509V34.4034H5.49036ZM7.14198 35.5045V37.7066H7.96779V35.5045H7.14198Z"/>
<path d="M13.4775 37.7066H14.5786V38.8077H10.7248V37.7066H11.8259V33.3023H10.7248V32.2012H11.8259V31.1001H13.4775V37.7066Z"/>
<path fill-rule="evenodd" clip-rule="evenodd" d="M20.6366 32.2012H21.7377V37.7066H20.6366V38.8077H16.7829V37.7066H15.6818V32.2012H16.7829V31.1001H20.6366V32.2012ZM20.0861 32.2012H17.3334V37.7066H20.0861V32.2012Z"/>
<path fill-rule="evenodd" clip-rule="evenodd" d="M27.7979 32.2012H28.899V37.7066H27.7979V38.8077H23.9442V37.7066H22.8431V32.2012H23.9442V31.1001H27.7979V32.2012ZM27.2474 32.2012H24.4947V37.7066H27.2474V32.2012Z"/>
<path fill-rule="evenodd" clip-rule="evenodd" d="M34.9593 32.2012H36.0603V37.7066H34.9593V38.8077H31.1055V37.7066H30.0044V32.2012H31.1055V31.1001H34.9593V32.2012ZM34.4087 32.2012H31.656V37.7066H34.4087V32.2012Z"/>
<path d="M19.1439 3H17.3594V8.35099H19.1439V3Z"/>
<path d="M19.1439 3H20.9284V8.35099H19.1439V3Z"/>
<path d="M22.7128 3H20.9284V8.35099H24.4969V6.56678H22.7128V3Z"/>
<path d="M13.7911 8.35231V11.9206H17.3594V8.35231H13.7911Z"/>
<path d="M19.1439 8.35231H17.3594V11.9206H19.1439V8.35231Z"/>
<path d="M19.1439 8.35231H20.9284V11.9206H19.1439V8.35231Z"/>
<path d="M22.7128 8.35231H20.9284V11.9206H24.4969V10.1364H22.7128V8.35231Z"/>
<path d="M24.4969 10.1364H26.2817V11.9206H24.4969V10.1364Z"/>
<path d="M26.2817 10.1364V11.9206H29.8499V10.1364H26.2817Z"/>
<path d="M31.6348 10.1364H29.8499V11.9206H31.6348V10.1364Z"/>
<path d="M13.7911 11.922H17.3594V22.6267H13.7911V19.0585V15.4903V13.7062V11.922Z"/>
<path d="M17.3594 11.922H19.1439V22.6267H17.3594V11.922Z"/>
<path d="M20.9284 11.922H19.1439V22.6267H20.9284V11.922Z"/>
<path d="M20.9284 11.922H24.4969V22.6267H20.9284V11.922Z"/>
<path d="M24.4969 11.922H26.2817V22.6267H24.4969V11.922Z"/>
<path d="M26.2817 11.922V22.6267H29.8499V20.8426V15.4903V13.7062V11.922H26.2817Z"/>
<path d="M31.6348 11.922H29.8499V13.7062H31.6348V11.922Z"/>
<path d="M12.0067 13.7061L13.7911 13.7062V15.4903H12.0067V13.7061Z"/>
<path d="M31.6348 15.4902L29.8499 15.4903V20.8426H31.6348V15.4902Z"/>
<path d="M8.43809 19.0584H10.2223V22.6267H8.43809V19.0584Z"/>
<path d="M10.2223 19.0584V22.6267H13.7911V19.0585L10.2223 19.0584Z"/>
<path d="M8.43784 22.628H6.65363V26.1949H8.43784V22.628Z"/>
<path d="M8.43784 22.628H10.2223V26.1949H8.43784V22.628Z"/>
<path d="M10.2223 22.628V26.1949H13.7909V22.628H10.2223Z"/>
<path d="M13.7909 22.628V26.1949H17.3594V22.628H13.7909Z"/>
<path d="M19.1439 22.628H17.3594V26.1949H19.1439V22.628Z"/>
<path d="M19.1439 22.628H20.9284V26.1949H19.1439V22.628Z"/>
<path d="M20.9284 22.628V26.1949H24.4969V22.628H20.9284Z"/>
<path d="M26.2817 22.628H24.4969V26.1949H26.2817V22.628Z"/>
<path d="M26.2817 22.628H29.8499V26.1949H26.2817V22.628Z"/>
<path d="M29.8499 22.628H31.6348V26.1949H29.8499V22.628Z"/>
</mask>
<path d="M13.7911 3V8.35099H17.3594V3H13.7911Z" fill="#D79734"/>
<path fill-rule="evenodd" clip-rule="evenodd" d="M9.61941 33.3023H7.96779V32.2012H7.14198V34.4034H8.51833V35.5045H9.61941V37.7066H8.51833V38.8077H7.14198V39.9088H5.49036V38.8077H4.66455V37.7066H3.56348V36.6055H5.21509V37.7066H5.49036V35.5045H4.66455V34.4034H3.56348V32.2012H4.66455V31.1001H5.49036V29.9991H7.14198V31.1001H8.51833V32.2012H9.61941V33.3023ZM5.49036 34.4034V32.2012H5.21509V34.4034H5.49036ZM7.14198 35.5045V37.7066H7.96779V35.5045H7.14198Z" fill="#D79734"/>
<path d="M13.4775 37.7066H14.5786V38.8077H10.7248V37.7066H11.8259V33.3023H10.7248V32.2012H11.8259V31.1001H13.4775V37.7066Z" fill="#D79734"/>
<path fill-rule="evenodd" clip-rule="evenodd" d="M20.6366 32.2012H21.7377V37.7066H20.6366V38.8077H16.7829V37.7066H15.6818V32.2012H16.7829V31.1001H20.6366V32.2012ZM20.0861 32.2012H17.3334V37.7066H20.0861V32.2012Z" fill="#D79734"/>
<path fill-rule="evenodd" clip-rule="evenodd" d="M27.7979 32.2012H28.899V37.7066H27.7979V38.8077H23.9442V37.7066H22.8431V32.2012H23.9442V31.1001H27.7979V32.2012ZM27.2474 32.2012H24.4947V37.7066H27.2474V32.2012Z" fill="#D79734"/>
<path fill-rule="evenodd" clip-rule="evenodd" d="M34.9593 32.2012H36.0603V37.7066H34.9593V38.8077H31.1055V37.7066H30.0044V32.2012H31.1055V31.1001H34.9593V32.2012ZM34.4087 32.2012H31.656V37.7066H34.4087V32.2012Z" fill="#D79734"/>
<path d="M19.1439 3H17.3594V8.35099H19.1439V3Z" fill="#D79734"/>
<path d="M19.1439 3H20.9284V8.35099H19.1439V3Z" fill="#D79734"/>
<path d="M22.7128 3H20.9284V8.35099H24.4969V6.56678H22.7128V3Z" fill="#D79734"/>
<path d="M13.7911 8.35231V11.9206H17.3594V8.35231H13.7911Z" fill="#D79734"/>
<path d="M19.1439 8.35231H17.3594V11.9206H19.1439V8.35231Z" fill="#D79734"/>
<path d="M19.1439 8.35231H20.9284V11.9206H19.1439V8.35231Z" fill="#D79734"/>
<path d="M22.7128 8.35231H20.9284V11.9206H24.4969V10.1364H22.7128V8.35231Z" fill="#D79734"/>
<path d="M24.4969 10.1364H26.2817V11.9206H24.4969V10.1364Z" fill="#D79734"/>
<path d="M26.2817 10.1364V11.9206H29.8499V10.1364H26.2817Z" fill="#D79734"/>
<path d="M31.6348 10.1364H29.8499V11.9206H31.6348V10.1364Z" fill="#D79734"/>
<path d="M13.7911 11.922H17.3594V22.6267H13.7911V19.0585V15.4903V13.7062V11.922Z" fill="#D79734"/>
<path d="M17.3594 11.922H19.1439V22.6267H17.3594V11.922Z" fill="#D79734"/>
<path d="M20.9284 11.922H19.1439V22.6267H20.9284V11.922Z" fill="#D79734"/>
<path d="M20.9284 11.922H24.4969V22.6267H20.9284V11.922Z" fill="#D79734"/>
<path d="M24.4969 11.922H26.2817V22.6267H24.4969V11.922Z" fill="#D79734"/>
<path d="M26.2817 11.922V22.6267H29.8499V20.8426V15.4903V13.7062V11.922H26.2817Z" fill="#D79734"/>
<path d="M31.6348 11.922H29.8499V13.7062H31.6348V11.922Z" fill="#D79734"/>
<path d="M12.0067 13.7061L13.7911 13.7062V15.4903H12.0067V13.7061Z" fill="#D79734"/>
<path d="M31.6348 15.4902L29.8499 15.4903V20.8426H31.6348V15.4902Z" fill="#D79734"/>
<path d="M8.43809 19.0584H10.2223V22.6267H8.43809V19.0584Z" fill="#D79734"/>
<path d="M10.2223 19.0584V22.6267H13.7911V19.0585L10.2223 19.0584Z" fill="#D79734"/>
<path d="M8.43784 22.628H6.65363V26.1949H8.43784V22.628Z" fill="#D79734"/>
<path d="M8.43784 22.628H10.2223V26.1949H8.43784V22.628Z" fill="#D79734"/>
<path d="M10.2223 22.628V26.1949H13.7909V22.628H10.2223Z" fill="#D79734"/>
<path d="M13.7909 22.628V26.1949H17.3594V22.628H13.7909Z" fill="#D79734"/>
<path d="M19.1439 22.628H17.3594V26.1949H19.1439V22.628Z" fill="#D79734"/>
<path d="M19.1439 22.628H20.9284V26.1949H19.1439V22.628Z" fill="#D79734"/>
<path d="M20.9284 22.628V26.1949H24.4969V22.628H20.9284Z" fill="#D79734"/>
<path d="M26.2817 22.628H24.4969V26.1949H26.2817V22.628Z" fill="#D79734"/>
<path d="M26.2817 22.628H29.8499V26.1949H26.2817V22.628Z" fill="#D79734"/>
<path d="M29.8499 22.628H31.6348V26.1949H29.8499V22.628Z" fill="#D79734"/>
<path d="M23.0354 10.1364V11.9206H25.9585V10.1364H23.0354ZM27.7433 11.9206V10.1364H24.8202V11.9206H27.7433ZM28.3884 10.1364V11.9206H31.3115V10.1364H28.3884ZM12.3296 13.7062V15.4903H15.2527V13.7062H12.3296ZM28.3884 11.922V13.7062H31.3115V11.922H28.3884ZM15.8979 3V8.35099H18.821V3H15.8979ZM17.6824 3V8.35099H20.6054V3H17.6824ZM22.3899 8.35099V3H19.4668V8.35099H22.3899ZM15.8979 8.35231V11.9206H18.821V8.35231H15.8979ZM17.6824 8.35231V11.9206H20.6054V8.35231H17.6824ZM22.3899 11.9206V8.35231H19.4668V11.9206H22.3899ZM18.821 22.6267V11.922H15.8979V22.6267H18.821ZM12.3296 19.0585V22.6267H15.2527V19.0585H12.3296ZM20.6054 22.6267V11.922H17.6824V22.6267H20.6054ZM19.4668 11.922V22.6267H22.3899V11.922H19.4668ZM25.9585 22.6267V11.922H23.0354V22.6267H25.9585ZM27.7433 22.6267V11.922H24.8202V22.6267H27.7433ZM28.3884 15.4903V20.8426H31.3115V15.4903H28.3884ZM11.6838 22.6267V19.0584H8.76076V22.6267H11.6838ZM6.9763 22.628V26.1949H9.89938V22.628H6.9763ZM11.6838 26.1949V22.628H8.76076V26.1949H11.6838ZM12.3293 22.628V26.1949H15.2524V22.628H12.3293ZM15.8979 22.628V26.1949H18.821V22.628H15.8979ZM17.6824 22.628V26.1949H20.6054V22.628H17.6824ZM22.3899 26.1949V22.628H19.4668V26.1949H22.3899ZM23.0354 22.628V26.1949H25.9585V22.628H23.0354ZM24.8202 22.628V26.1949H27.7433V22.628H24.8202ZM31.3115 26.1949V22.628H28.3884V26.1949H31.3115ZM13.7911 3V0.0769231H10.868V3H13.7911ZM13.7911 8.35099H10.868V11.2741H13.7911V8.35099ZM7.96779 33.3023H5.04471V36.2254H7.96779V33.3023ZM9.61941 33.3023V36.2254H12.5425V33.3023H9.61941ZM7.96779 32.2012H10.8909V29.2781H7.96779V32.2012ZM7.14198 32.2012V29.2781H4.2189V32.2012H7.14198ZM7.14198 34.4034H4.2189V37.3265H7.14198V34.4034ZM8.51833 34.4034H11.4414V31.4803H8.51833V34.4034ZM8.51833 35.5045H5.59525V38.4275H8.51833V35.5045ZM9.61941 35.5045H12.5425V32.5814H9.61941V35.5045ZM9.61941 37.7066V40.6297H12.5425V37.7066H9.61941ZM8.51833 37.7066V34.7835H5.59525V37.7066H8.51833ZM8.51833 38.8077V41.7308H11.4414V38.8077H8.51833ZM7.14198 38.8077V35.8846H4.2189V38.8077H7.14198ZM7.14198 39.9088V42.8318H10.0651V39.9088H7.14198ZM5.49036 39.9088H2.56729V42.8318H5.49036V39.9088ZM5.49036 38.8077H8.41344V35.8846H5.49036V38.8077ZM4.66455 38.8077H1.74148V41.7308H4.66455V38.8077ZM4.66455 37.7066H7.58763V34.7835H4.66455V37.7066ZM3.56348 37.7066H0.6404V40.6297H3.56348V37.7066ZM3.56348 36.6055V33.6825H0.6404V36.6055H3.56348ZM5.21509 36.6055H8.13817V33.6825H5.21509V36.6055ZM5.21509 37.7066H2.29202V40.6297H5.21509V37.7066ZM5.49036 37.7066V40.6297H8.41344V37.7066H5.49036ZM5.49036 35.5045H8.41344V32.5814H5.49036V35.5045ZM4.66455 35.5045H1.74148V38.4275H4.66455V35.5045ZM4.66455 34.4034H7.58763V31.4803H4.66455V34.4034ZM3.56348 34.4034H0.6404V37.3265H3.56348V34.4034ZM3.56348 32.2012V29.2781H0.6404V32.2012H3.56348ZM4.66455 32.2012V35.1243H7.58763V32.2012H4.66455ZM4.66455 31.1001V28.1771H1.74148V31.1001H4.66455ZM5.49036 31.1001V34.0232H8.41344V31.1001H5.49036ZM5.49036 29.9991V27.076H2.56729V29.9991H5.49036ZM7.14198 29.9991H10.0651V27.076H7.14198V29.9991ZM7.14198 31.1001H4.2189V34.0232H7.14198V31.1001ZM8.51833 31.1001H11.4414V28.1771H8.51833V31.1001ZM8.51833 32.2012H5.59525V35.1243H8.51833V32.2012ZM9.61941 32.2012H12.5425V29.2781H9.61941V32.2012ZM5.49036 32.2012H8.41344V29.2781H5.49036V32.2012ZM5.49036 34.4034V37.3265H8.41344V34.4034H5.49036ZM5.21509 32.2012V29.2781H2.29202V32.2012H5.21509ZM5.21509 34.4034H2.29202V37.3265H5.21509V34.4034ZM7.14198 37.7066H4.2189V40.6297H7.14198V37.7066ZM7.14198 35.5045V32.5814H4.2189V35.5045H7.14198ZM7.96779 37.7066V40.6297H10.8909V37.7066H7.96779ZM7.96779 35.5045H10.8909V32.5814H7.96779V35.5045ZM14.5786 37.7066H17.5016V34.7835H14.5786V37.7066ZM13.4775 37.7066H10.5544V40.6297H13.4775V37.7066ZM14.5786 38.8077V41.7308H17.5016V38.8077H14.5786ZM10.7248 38.8077H7.80171V41.7308H10.7248V38.8077ZM10.7248 37.7066V34.7835H7.80171V37.7066H10.7248ZM11.8259 37.7066V40.6297H14.7489V37.7066H11.8259ZM11.8259 33.3023H14.7489V30.3792H11.8259V33.3023ZM10.7248 33.3023H7.80171V36.2254H10.7248V33.3023ZM10.7248 32.2012V29.2781H7.80171V32.2012H10.7248ZM11.8259 32.2012V35.1243H14.7489V32.2012H11.8259ZM11.8259 31.1001V28.1771H8.90278V31.1001H11.8259ZM13.4775 31.1001H16.4006V28.1771H13.4775V31.1001ZM21.7377 32.2012H24.6608V29.2781H21.7377V32.2012ZM20.6366 32.2012H17.7136V35.1243H20.6366V32.2012ZM21.7377 37.7066V40.6297H24.6608V37.7066H21.7377ZM20.6366 37.7066V34.7835H17.7136V37.7066H20.6366ZM20.6366 38.8077V41.7308H23.5597V38.8077H20.6366ZM16.7829 38.8077H13.8598V41.7308H16.7829V38.8077ZM16.7829 37.7066H19.7059V34.7835H16.7829V37.7066ZM15.6818 37.7066H12.7587V40.6297H15.6818V37.7066ZM15.6818 32.2012V29.2781H12.7587V32.2012H15.6818ZM16.7829 32.2012V35.1243H19.7059V32.2012H16.7829ZM16.7829 31.1001V28.1771H13.8598V31.1001H16.7829ZM20.6366 31.1001H23.5597V28.1771H20.6366V31.1001ZM17.3334 32.2012V29.2781H14.4103V32.2012H17.3334ZM20.0861 32.2012H23.0092V29.2781H20.0861V32.2012ZM17.3334 37.7066H14.4103V40.6297H17.3334V37.7066ZM20.0861 37.7066V40.6297H23.0092V37.7066H20.0861ZM28.899 32.2012H31.8221V29.2781H28.899V32.2012ZM27.7979 32.2012H24.8749V35.1243H27.7979V32.2012ZM28.899 37.7066V40.6297H31.8221V37.7066H28.899ZM27.7979 37.7066V34.7835H24.8749V37.7066H27.7979ZM27.7979 38.8077V41.7308H30.721V38.8077H27.7979ZM23.9442 38.8077H21.0211V41.7308H23.9442V38.8077ZM23.9442 37.7066H26.8672V34.7835H23.9442V37.7066ZM22.8431 37.7066H19.92V40.6297H22.8431V37.7066ZM22.8431 32.2012V29.2781H19.92V32.2012H22.8431ZM23.9442 32.2012V35.1243H26.8672V32.2012H23.9442ZM23.9442 31.1001V28.1771H21.0211V31.1001H23.9442ZM27.7979 31.1001H30.721V28.1771H27.7979V31.1001ZM24.4947 32.2012V29.2781H21.5716V32.2012H24.4947ZM27.2474 32.2012H30.1705V29.2781H27.2474V32.2012ZM24.4947 37.7066H21.5716V40.6297H24.4947V37.7066ZM27.2474 37.7066V40.6297H30.1705V37.7066H27.2474ZM36.0603 32.2012H38.9834V29.2781H36.0603V32.2012ZM34.9593 32.2012H32.0362V35.1243H34.9593V32.2012ZM36.0603 37.7066V40.6297H38.9834V37.7066H36.0603ZM34.9593 37.7066V34.7835H32.0362V37.7066H34.9593ZM34.9593 38.8077V41.7308H37.8823V38.8077H34.9593ZM31.1055 38.8077H28.1824V41.7308H31.1055V38.8077ZM31.1055 37.7066H34.0286V34.7835H31.1055V37.7066ZM30.0044 37.7066H27.0813V40.6297H30.0044V37.7066ZM30.0044 32.2012V29.2781H27.0813V32.2012H30.0044ZM31.1055 32.2012V35.1243H34.0286V32.2012H31.1055ZM31.1055 31.1001V28.1771H28.1824V31.1001H31.1055ZM34.9593 31.1001H37.8823V28.1771H34.9593V31.1001ZM31.656 32.2012V29.2781H28.7329V32.2012H31.656ZM34.4087 32.2012H37.3318V29.2781H34.4087V32.2012ZM31.656 37.7066H28.7329V40.6297H31.656V37.7066ZM34.4087 37.7066V40.6297H37.3318V37.7066H34.4087ZM22.7128 3H25.6359V0.0769231H22.7128V3ZM24.4969 8.35099V11.2741H27.42V8.35099H24.4969ZM24.4969 6.56678H27.42V3.6437H24.4969V6.56678ZM22.7128 6.56678H19.7897V9.48986H22.7128V6.56678ZM13.7911 8.35231V5.42924H10.868V8.35231H13.7911ZM13.7911 11.9206H10.868V14.8437H13.7911V11.9206ZM22.7128 8.35231H25.6359V5.42924H22.7128V8.35231ZM22.7128 10.1364H19.7897V13.0595H22.7128V10.1364ZM31.6348 10.1364H34.5578V7.21334H31.6348V10.1364ZM31.6348 11.9206V14.8437H34.5578V11.9206H31.6348ZM13.7911 11.922V8.99887H10.868V11.922H13.7911ZM13.7911 19.0585L13.791 21.9816L16.7142 21.9816V19.0585H13.7911ZM13.7911 15.4903H16.7142V12.5672H13.7911V15.4903ZM13.7911 13.7062L13.7909 16.6292L16.7142 16.6294V13.7062H13.7911ZM29.8499 22.6267V25.5498H32.773V22.6267H29.8499ZM29.8499 20.8426V17.9195H26.9269V20.8426H29.8499ZM29.8499 15.4903H26.9269V18.4135L29.8501 18.4133L29.8499 15.4903ZM29.8499 13.7062V10.7831H26.9269V13.7062H29.8499ZM31.6348 11.922H34.5578V8.99887H31.6348V11.922ZM31.6348 13.7062V16.6292H34.5578V13.7062H31.6348ZM12.0067 13.7061L12.0068 10.783L9.08358 10.7828V13.7061H12.0067ZM12.0067 15.4903H9.08358V18.4133H12.0067V15.4903ZM31.6348 15.4902H34.5578V12.5669L31.6346 12.5671L31.6348 15.4902ZM31.6348 20.8426V23.7657H34.5578V20.8426H31.6348ZM10.2223 19.0584L10.2224 16.1353H10.2223V19.0584ZM8.43809 19.0584V16.1353H5.51501V19.0584H8.43809ZM8.43809 22.6267H5.51501V25.5498H8.43809V22.6267ZM6.65363 22.628V19.7049H3.73055V22.628H6.65363ZM6.65363 26.1949H3.73055V29.118H6.65363V26.1949ZM31.6348 22.628H34.5578V19.7049H31.6348V22.628ZM31.6348 26.1949V29.118H34.5578V26.1949H31.6348ZM7.96779 36.2254H9.61941V30.3792H7.96779V36.2254ZM5.04471 32.2012V33.3023H10.8909V32.2012H5.04471ZM7.14198 35.1243H7.96779V29.2781H7.14198V35.1243ZM10.0651 34.4034V32.2012H4.2189V34.4034H10.0651ZM8.51833 31.4803H7.14198V37.3265H8.51833V31.4803ZM11.4414 35.5045V34.4034H5.59525V35.5045H11.4414ZM9.61941 32.5814H8.51833V38.4275H9.61941V32.5814ZM12.5425 37.7066V35.5045H6.69633V37.7066H12.5425ZM8.51833 40.6297H9.61941V34.7835H8.51833V40.6297ZM11.4414 38.8077V37.7066H5.59525V38.8077H11.4414ZM7.14198 41.7308H8.51833V35.8846H7.14198V41.7308ZM10.0651 39.9088V38.8077H4.2189V39.9088H10.0651ZM5.49036 42.8318H7.14198V36.9857H5.49036V42.8318ZM2.56729 38.8077V39.9088H8.41344V38.8077H2.56729ZM4.66455 41.7308H5.49036V35.8846H4.66455V41.7308ZM1.74148 37.7066V38.8077H7.58763V37.7066H1.74148ZM3.56348 40.6297H4.66455V34.7835H3.56348V40.6297ZM0.6404 36.6055V37.7066H6.48655V36.6055H0.6404ZM5.21509 33.6825H3.56348V39.5286H5.21509V33.6825ZM8.13817 37.7066V36.6055H2.29202V37.7066H8.13817ZM5.49036 34.7835H5.21509V40.6297H5.49036V34.7835ZM2.56729 35.5045V37.7066H8.41344V35.5045H2.56729ZM4.66455 38.4275H5.49036V32.5814H4.66455V38.4275ZM1.74148 34.4034V35.5045H7.58763V34.4034H1.74148ZM3.56348 37.3265H4.66455V31.4803H3.56348V37.3265ZM0.6404 32.2012V34.4034H6.48655V32.2012H0.6404ZM4.66455 29.2781H3.56348V35.1243H4.66455V29.2781ZM1.74148 31.1001V32.2012H7.58763V31.1001H1.74148ZM5.49036 28.1771H4.66455V34.0232H5.49036V28.1771ZM2.56729 29.9991V31.1001H8.41344V29.9991H2.56729ZM7.14198 27.076H5.49036V32.9221H7.14198V27.076ZM10.0651 31.1001V29.9991H4.2189V31.1001H10.0651ZM8.51833 28.1771H7.14198V34.0232H8.51833V28.1771ZM11.4414 32.2012V31.1001H5.59525V32.2012H11.4414ZM9.61941 29.2781H8.51833V35.1243H9.61941V29.2781ZM12.5425 33.3023V32.2012H6.69633V33.3023H12.5425ZM2.56729 32.2012V34.4034H8.41344V32.2012H2.56729ZM5.21509 35.1243H5.49036V29.2781H5.21509V35.1243ZM8.13817 34.4034V32.2012H2.29202V34.4034H8.13817ZM5.49036 31.4803H5.21509V37.3265H5.49036V31.4803ZM10.0651 37.7066V35.5045H4.2189V37.7066H10.0651ZM7.96779 34.7835H7.14198V40.6297H7.96779V34.7835ZM5.04471 35.5045V37.7066H10.8909V35.5045H5.04471ZM7.14198 38.4275H7.96779V32.5814H7.14198V38.4275ZM14.5786 34.7835H13.4775V40.6297H14.5786V34.7835ZM17.5016 38.8077V37.7066H11.6555V38.8077H17.5016ZM10.7248 41.7308H14.5786V35.8846H10.7248V41.7308ZM7.80171 37.7066V38.8077H13.6479V37.7066H7.80171ZM11.8259 34.7835H10.7248V40.6297H11.8259V34.7835ZM8.90278 33.3023V37.7066H14.7489V33.3023H8.90278ZM10.7248 36.2254H11.8259V30.3792H10.7248V36.2254ZM7.80171 32.2012V33.3023H13.6479V32.2012H7.80171ZM11.8259 29.2781H10.7248V35.1243H11.8259V29.2781ZM8.90278 31.1001V32.2012H14.7489V31.1001H8.90278ZM13.4775 28.1771H11.8259V34.0232H13.4775V28.1771ZM16.4006 37.7066V31.1001H10.5544V37.7066H16.4006ZM21.7377 29.2781H20.6366V35.1243H21.7377V29.2781ZM24.6608 37.7066V32.2012H18.8146V37.7066H24.6608ZM20.6366 40.6297H21.7377V34.7835H20.6366V40.6297ZM23.5597 38.8077V37.7066H17.7136V38.8077H23.5597ZM16.7829 41.7308H20.6366V35.8846H16.7829V41.7308ZM13.8598 37.7066V38.8077H19.7059V37.7066H13.8598ZM15.6818 40.6297H16.7829V34.7835H15.6818V40.6297ZM12.7587 32.2012V37.7066H18.6049V32.2012H12.7587ZM16.7829 29.2781H15.6818V35.1243H16.7829V29.2781ZM13.8598 31.1001V32.2012H19.7059V31.1001H13.8598ZM20.6366 28.1771H16.7829V34.0232H20.6366V28.1771ZM23.5597 32.2012V31.1001H17.7136V32.2012H23.5597ZM17.3334 35.1243H20.0861V29.2781H17.3334V35.1243ZM20.2565 37.7066V32.2012H14.4103V37.7066H20.2565ZM20.0861 34.7835H17.3334V40.6297H20.0861V34.7835ZM17.163 32.2012V37.7066H23.0092V32.2012H17.163ZM28.899 29.2781H27.7979V35.1243H28.899V29.2781ZM31.8221 37.7066V32.2012H25.9759V37.7066H31.8221ZM27.7979 40.6297H28.899V34.7835H27.7979V40.6297ZM30.721 38.8077V37.7066H24.8749V38.8077H30.721ZM23.9442 41.7308H27.7979V35.8846H23.9442V41.7308ZM21.0211 37.7066V38.8077H26.8672V37.7066H21.0211ZM22.8431 40.6297H23.9442V34.7835H22.8431V40.6297ZM19.92 32.2012V37.7066H25.7662V32.2012H19.92ZM23.9442 29.2781H22.8431V35.1243H23.9442V29.2781ZM21.0211 31.1001V32.2012H26.8672V31.1001H21.0211ZM27.7979 28.1771H23.9442V34.0232H27.7979V28.1771ZM30.721 32.2012V31.1001H24.8749V32.2012H30.721ZM24.4947 35.1243H27.2474V29.2781H24.4947V35.1243ZM27.4178 37.7066V32.2012H21.5716V37.7066H27.4178ZM27.2474 34.7835H24.4947V40.6297H27.2474V34.7835ZM24.3243 32.2012V37.7066H30.1705V32.2012H24.3243ZM36.0603 29.2781H34.9593V35.1243H36.0603V29.2781ZM38.9834 37.7066V32.2012H33.1373V37.7066H38.9834ZM34.9593 40.6297H36.0603V34.7835H34.9593V40.6297ZM37.8823 38.8077V37.7066H32.0362V38.8077H37.8823ZM31.1055 41.7308H34.9593V35.8846H31.1055V41.7308ZM28.1824 37.7066V38.8077H34.0286V37.7066H28.1824ZM30.0044 40.6297H31.1055V34.7835H30.0044V40.6297ZM27.0813 32.2012V37.7066H32.9275V32.2012H27.0813ZM31.1055 29.2781H30.0044V35.1243H31.1055V29.2781ZM28.1824 31.1001V32.2012H34.0286V31.1001H28.1824ZM34.9593 28.1771H31.1055V34.0232H34.9593V28.1771ZM37.8823 32.2012V31.1001H32.0362V32.2012H37.8823ZM31.656 35.1243H34.4087V29.2781H31.656V35.1243ZM34.5791 37.7066V32.2012H28.7329V37.7066H34.5791ZM34.4087 34.7835H31.656V40.6297H34.4087V34.7835ZM31.4856 32.2012V37.7066H37.3318V32.2012H31.4856ZM17.3594 5.92308H19.1439V0.0769231H17.3594V5.92308ZM19.1439 5.42791H17.3594V11.2741H19.1439V5.42791ZM20.9284 0.0769231H19.1439V5.92308H20.9284V0.0769231ZM19.1439 11.2741H20.9284V5.42791H19.1439V11.2741ZM20.9284 5.92308H22.7128V0.0769231H20.9284V5.92308ZM21.5738 6.56678V8.35099H27.42V6.56678H21.5738ZM22.7128 9.48986H24.4969V3.6437H22.7128V9.48986ZM17.3594 11.2754H19.1439V5.42924H17.3594V11.2754ZM19.1439 8.99755H17.3594V14.8437H19.1439V8.99755ZM20.9284 5.42924H19.1439V11.2754H20.9284V5.42924ZM19.1439 14.8437H20.9284V8.99755H19.1439V14.8437ZM20.9284 11.2754H22.7128V5.42924H20.9284V11.2754ZM22.7128 13.0595H24.4969V7.21334H22.7128V13.0595ZM19.7897 8.35231V10.1364H25.6359V8.35231H19.7897ZM26.2817 7.21334H24.4969V13.0595H26.2817V7.21334ZM24.4969 14.8437H26.2817V8.99755H24.4969V14.8437ZM29.8499 13.0595H31.6348V7.21334H29.8499V13.0595ZM31.6348 8.99755H29.8499V14.8437H31.6348V8.99755ZM28.7117 10.1364V11.9206H34.5578V10.1364H28.7117ZM10.868 11.922V13.7062H16.7142V11.922H10.868ZM19.1439 8.99887H17.3594V14.845H19.1439V8.99887ZM17.3594 25.5498H19.1439V19.7036H17.3594V25.5498ZM19.1439 14.845H20.9284V8.99887H19.1439V14.845ZM20.9284 19.7036H19.1439V25.5498H20.9284V19.7036ZM26.2817 8.99887H24.4969V14.845H26.2817V8.99887ZM24.4969 25.5498H26.2817V19.7036H24.4969V25.5498ZM26.9269 20.8426V22.6267H32.773V20.8426H26.9269ZM26.9269 13.7062V15.4903H32.773V13.7062H26.9269ZM29.8499 14.845H31.6348V8.99887H29.8499V14.845ZM31.6348 10.7831H29.8499V16.6292H31.6348V10.7831ZM28.7117 11.922V13.7062H34.5578V11.922H28.7117ZM13.7913 10.7831L12.0068 10.783L12.0065 16.6291L13.7909 16.6292L13.7913 10.7831ZM12.0067 18.4133H13.7911V12.5672H12.0067V18.4133ZM9.08358 13.7061V15.4903H14.9297V13.7061H9.08358ZM29.8501 18.4133L31.6349 18.4132L31.6346 12.5671L29.8498 12.5672L29.8501 18.4133ZM31.6348 17.9195H29.8499V23.7657H31.6348V17.9195ZM10.2223 16.1353H8.43809V21.9814H10.2223V16.1353ZM8.43809 25.5498H10.2223V19.7036H8.43809V25.5498ZM6.65363 25.5511H8.43784V19.7049H6.65363V25.5511ZM8.43784 23.2718H6.65363V29.118H8.43784V23.2718ZM10.2223 19.7049H8.43784V25.5511H10.2223V19.7049ZM8.43784 29.118H10.2223V23.2718H8.43784V29.118ZM17.3594 25.5511H19.1439V19.7049H17.3594V25.5511ZM19.1439 23.2718H17.3594V29.118H19.1439V23.2718ZM20.9284 19.7049H19.1439V25.5511H20.9284V19.7049ZM19.1439 29.118H20.9284V23.2718H19.1439V29.118ZM24.4969 25.5511H26.2817V19.7049H24.4969V25.5511ZM26.2817 23.2718H24.4969V29.118H26.2817V23.2718ZM31.6348 19.7049H29.8499V25.5511H31.6348V19.7049ZM29.8499 29.118H31.6348V23.2718H29.8499V29.118ZM13.7911 5.92308H17.3594V0.0769231H13.7911V5.92308ZM16.7142 8.35099V3H10.868V8.35099H16.7142ZM17.3594 5.42791H13.7911V11.2741H17.3594V5.42791ZM24.4969 5.42791H20.9284V11.2741H24.4969V5.42791ZM19.7897 3V6.56678H25.6359V3H19.7897ZM13.7911 11.2754H17.3594V5.42924H13.7911V11.2754ZM16.7142 11.9206V8.35231H10.868V11.9206H16.7142ZM17.3594 8.99755H13.7911V14.8437H17.3594V8.99755ZM24.4969 8.99755H20.9284V14.8437H24.4969V8.99755ZM26.2817 13.0595H29.8499V7.21334H26.2817V13.0595ZM29.8499 8.99755H26.2817V14.8437H29.8499V8.99755ZM17.3594 8.99887H13.7911V14.845H17.3594V8.99887ZM13.7911 25.5498H17.3594V19.7036H13.7911V25.5498ZM10.868 15.4903V19.0585H16.7142V15.4903H10.868ZM24.4969 8.99887H20.9284V14.845H24.4969V8.99887ZM20.9284 25.5498H24.4969V19.7036H20.9284V25.5498ZM26.2817 14.845H29.8499V8.99887H26.2817V14.845ZM29.8499 19.7036H26.2817V25.5498H29.8499V19.7036ZM28.7117 15.4902V20.8426H34.5578V15.4902H28.7117ZM5.51501 19.0584V22.6267H11.3612V19.0584H5.51501ZM10.2222 21.9814L13.791 21.9816L13.7912 16.1354L10.2224 16.1353L10.2222 21.9814ZM13.7911 19.7036H10.2223V25.5498H13.7911V19.7036ZM9.57671 26.1949V22.628H3.73055V26.1949H9.57671ZM10.2223 25.5511H13.7909V19.7049H10.2223V25.5511ZM13.7909 23.2718H10.2223V29.118H13.7909V23.2718ZM13.7909 25.5511H17.3594V19.7049H13.7909V25.5511ZM17.3594 23.2718H13.7909V29.118H17.3594V23.2718ZM20.9284 25.5511H24.4969V19.7049H20.9284V25.5511ZM24.4969 23.2718H20.9284V29.118H24.4969V23.2718ZM29.8499 19.7049H26.2817V25.5511H29.8499V19.7049ZM26.2817 29.118H29.8499V23.2718H26.2817V29.118ZM34.5578 26.1949V22.628H28.7117V26.1949H34.5578Z" fill="white" mask="url(#path-1-outside-1_981_276740)"/>
<mask id="path-3-outside-2_981_276740" maskUnits="userSpaceOnUse" x="2" y="28.0381" width="36" height="14" fill="black">
<rect fill="white" x="2" y="28.0381" width="36" height="14"/>
<path d="M9.61962 33.5327H7.96801V32.4316H7.1422V34.6338H8.51855V35.7349H9.61962V37.937H8.51855V39.0381H7.1422V40.1392H5.49058V39.0381H4.66477V37.937H3.5637V36.8359H5.21531V37.937H5.49058V35.7349H4.66477V34.6338H3.5637V32.4316H4.66477V31.3305H5.49058V30.2295H7.1422V31.3305H8.51855V32.4316H9.61962V33.5327ZM5.49058 34.6338V32.4316H5.21531V34.6338H5.49058ZM7.1422 35.7349V37.937H7.96801V35.7349H7.1422ZM13.4777 37.937H14.5788V39.0381H10.725V37.937H11.8261V33.5327H10.725V32.4316H11.8261V31.3305H13.4777V37.937ZM20.6369 32.4316H21.7379V37.937H20.6369V39.0381H16.7831V37.937H15.682V32.4316H16.7831V31.3305H20.6369V32.4316ZM20.0863 32.4316H17.3336V37.937H20.0863V32.4316ZM27.7982 32.4316H28.8992V37.937H27.7982V39.0381H23.9444V37.937H22.8433V32.4316H23.9444V31.3305H27.7982V32.4316ZM27.2476 32.4316H24.4949V37.937H27.2476V32.4316ZM34.9595 32.4316H36.0605V37.937H34.9595V39.0381H31.1057V37.937H30.0046V32.4316H31.1057V31.3305H34.9595V32.4316ZM34.4089 32.4316H31.6562V37.937H34.4089V32.4316Z"/>
</mask>
<path d="M9.61962 33.5327H7.96801V32.4316H7.1422V34.6338H8.51855V35.7349H9.61962V37.937H8.51855V39.0381H7.1422V40.1392H5.49058V39.0381H4.66477V37.937H3.5637V36.8359H5.21531V37.937H5.49058V35.7349H4.66477V34.6338H3.5637V32.4316H4.66477V31.3305H5.49058V30.2295H7.1422V31.3305H8.51855V32.4316H9.61962V33.5327ZM5.49058 34.6338V32.4316H5.21531V34.6338H5.49058ZM7.1422 35.7349V37.937H7.96801V35.7349H7.1422ZM13.4777 37.937H14.5788V39.0381H10.725V37.937H11.8261V33.5327H10.725V32.4316H11.8261V31.3305H13.4777V37.937ZM20.6369 32.4316H21.7379V37.937H20.6369V39.0381H16.7831V37.937H15.682V32.4316H16.7831V31.3305H20.6369V32.4316ZM20.0863 32.4316H17.3336V37.937H20.0863V32.4316ZM27.7982 32.4316H28.8992V37.937H27.7982V39.0381H23.9444V37.937H22.8433V32.4316H23.9444V31.3305H27.7982V32.4316ZM27.2476 32.4316H24.4949V37.937H27.2476V32.4316ZM34.9595 32.4316H36.0605V37.937H34.9595V39.0381H31.1057V37.937H30.0046V32.4316H31.1057V31.3305H34.9595V32.4316ZM34.4089 32.4316H31.6562V37.937H34.4089V32.4316Z" fill="#FFC729"/>
<path d="M9.61962 33.5327V34.7663H10.8532V33.5327H9.61962ZM7.96801 33.5327H6.73442V34.7663H7.96801V33.5327ZM7.96801 32.4316H9.2016V31.198H7.96801V32.4316ZM7.1422 32.4316V31.198H5.90861V32.4316H7.1422ZM7.1422 34.6338H5.90861V35.8674H7.1422V34.6338ZM8.51855 34.6338H9.75214V33.4002H8.51855V34.6338ZM8.51855 35.7349H7.28495V36.9684H8.51855V35.7349ZM9.61962 35.7349H10.8532V34.5013H9.61962V35.7349ZM9.61962 37.937V39.1706H10.8532V37.937H9.61962ZM8.51855 37.937V36.7034H7.28495V37.937H8.51855ZM8.51855 39.0381V40.2717H9.75214V39.0381H8.51855ZM7.1422 39.0381V37.8045H5.90861V39.0381H7.1422ZM7.1422 40.1392V41.3728H8.37579V40.1392H7.1422ZM5.49058 40.1392H4.25699V41.3728H5.49058V40.1392ZM5.49058 39.0381H6.72417V37.8045H5.49058V39.0381ZM4.66477 39.0381H3.43118V40.2717H4.66477V39.0381ZM4.66477 37.937H5.89837V36.7034H4.66477V37.937ZM3.5637 37.937H2.3301V39.1706H3.5637V37.937ZM3.5637 36.8359V35.6023H2.3301V36.8359H3.5637ZM5.21531 36.8359H6.4489V35.6023H5.21531V36.8359ZM5.21531 37.937H3.98172V39.1706H5.21531V37.937ZM5.49058 37.937V39.1706H6.72417V37.937H5.49058ZM5.49058 35.7349H6.72417V34.5013H5.49058V35.7349ZM4.66477 35.7349H3.43118V36.9684H4.66477V35.7349ZM4.66477 34.6338H5.89837V33.4002H4.66477V34.6338ZM3.5637 34.6338H2.3301V35.8674H3.5637V34.6338ZM3.5637 32.4316V31.198H2.3301V32.4316H3.5637ZM4.66477 32.4316V33.6652H5.89837V32.4316H4.66477ZM4.66477 31.3305V30.0969H3.43118V31.3305H4.66477ZM5.49058 31.3305V32.5641H6.72417V31.3305H5.49058ZM5.49058 30.2295V28.9959H4.25699V30.2295H5.49058ZM7.1422 30.2295H8.37579V28.9959H7.1422V30.2295ZM7.1422 31.3305H5.90861V32.5641H7.1422V31.3305ZM8.51855 31.3305H9.75214V30.0969H8.51855V31.3305ZM8.51855 32.4316H7.28495V33.6652H8.51855V32.4316ZM9.61962 32.4316H10.8532V31.198H9.61962V32.4316ZM5.49058 34.6338V35.8674H6.72417V34.6338H5.49058ZM5.49058 32.4316H6.72417V31.198H5.49058V32.4316ZM5.21531 32.4316V31.198H3.98172V32.4316H5.21531ZM5.21531 34.6338H3.98172V35.8674H5.21531V34.6338ZM7.1422 35.7349V34.5013H5.90861V35.7349H7.1422ZM7.1422 37.937H5.90861V39.1706H7.1422V37.937ZM7.96801 37.937V39.1706H9.2016V37.937H7.96801ZM7.96801 35.7349H9.2016V34.5013H7.96801V35.7349ZM9.61962 32.2991H7.96801V34.7663H9.61962V32.2991ZM9.2016 33.5327V32.4316H6.73442V33.5327H9.2016ZM7.96801 31.198H7.1422V33.6652H7.96801V31.198ZM5.90861 32.4316V34.6338H8.37579V32.4316H5.90861ZM7.1422 35.8674H8.51855V33.4002H7.1422V35.8674ZM7.28495 34.6338V35.7349H9.75214V34.6338H7.28495ZM8.51855 36.9684H9.61962V34.5013H8.51855V36.9684ZM8.38603 35.7349V37.937H10.8532V35.7349H8.38603ZM9.61962 36.7034H8.51855V39.1706H9.61962V36.7034ZM7.28495 37.937V39.0381H9.75214V37.937H7.28495ZM8.51855 37.8045H7.1422V40.2717H8.51855V37.8045ZM5.90861 39.0381V40.1392H8.37579V39.0381H5.90861ZM7.1422 38.9056H5.49058V41.3728H7.1422V38.9056ZM6.72417 40.1392V39.0381H4.25699V40.1392H6.72417ZM5.49058 37.8045H4.66477V40.2717H5.49058V37.8045ZM5.89837 39.0381V37.937H3.43118V39.0381H5.89837ZM4.66477 36.7034H3.5637V39.1706H4.66477V36.7034ZM4.79729 37.937V36.8359H2.3301V37.937H4.79729ZM3.5637 38.0695H5.21531V35.6023H3.5637V38.0695ZM3.98172 36.8359V37.937H6.4489V36.8359H3.98172ZM5.21531 39.1706H5.49058V36.7034H5.21531V39.1706ZM6.72417 37.937V35.7349H4.25699V37.937H6.72417ZM5.49058 34.5013H4.66477V36.9684H5.49058V34.5013ZM5.89837 35.7349V34.6338H3.43118V35.7349H5.89837ZM4.66477 33.4002H3.5637V35.8674H4.66477V33.4002ZM4.79729 34.6338V32.4316H2.3301V34.6338H4.79729ZM3.5637 33.6652H4.66477V31.198H3.5637V33.6652ZM5.89837 32.4316V31.3305H3.43118V32.4316H5.89837ZM4.66477 32.5641H5.49058V30.0969H4.66477V32.5641ZM6.72417 31.3305V30.2295H4.25699V31.3305H6.72417ZM5.49058 31.4631H7.1422V28.9959H5.49058V31.4631ZM5.90861 30.2295V31.3305H8.37579V30.2295H5.90861ZM7.1422 32.5641H8.51855V30.0969H7.1422V32.5641ZM7.28495 31.3305V32.4316H9.75214V31.3305H7.28495ZM8.51855 33.6652H9.61962V31.198H8.51855V33.6652ZM8.38603 32.4316V33.5327H10.8532V32.4316H8.38603ZM6.72417 34.6338V32.4316H4.25699V34.6338H6.72417ZM5.49058 31.198H5.21531V33.6652H5.49058V31.198ZM3.98172 32.4316V34.6338H6.4489V32.4316H3.98172ZM5.21531 35.8674H5.49058V33.4002H5.21531V35.8674ZM5.90861 35.7349V37.937H8.37579V35.7349H5.90861ZM7.1422 39.1706H7.96801V36.7034H7.1422V39.1706ZM9.2016 37.937V35.7349H6.73442V37.937H9.2016ZM7.96801 34.5013H7.1422V36.9684H7.96801V34.5013ZM13.4777 37.937H12.2441V39.1706H13.4777V37.937ZM14.5788 37.937H15.8124V36.7034H14.5788V37.937ZM14.5788 39.0381V40.2717H15.8124V39.0381H14.5788ZM10.725 39.0381H9.49141V40.2717H10.725V39.0381ZM10.725 37.937V36.7034H9.49141V37.937H10.725ZM11.8261 37.937V39.1706H13.0597V37.937H11.8261ZM11.8261 33.5327H13.0597V32.2991H11.8261V33.5327ZM10.725 33.5327H9.49141V34.7663H10.725V33.5327ZM10.725 32.4316V31.198H9.49141V32.4316H10.725ZM11.8261 32.4316V33.6652H13.0597V32.4316H11.8261ZM11.8261 31.3305V30.0969H10.5925V31.3305H11.8261ZM13.4777 31.3305H14.7113V30.0969H13.4777V31.3305ZM13.4777 39.1706H14.5788V36.7034H13.4777V39.1706ZM13.3452 37.937V39.0381H15.8124V37.937H13.3452ZM14.5788 37.8045H10.725V40.2717H14.5788V37.8045ZM11.9586 39.0381V37.937H9.49141V39.0381H11.9586ZM10.725 39.1706H11.8261V36.7034H10.725V39.1706ZM13.0597 37.937V33.5327H10.5925V37.937H13.0597ZM11.8261 32.2991H10.725V34.7663H11.8261V32.2991ZM11.9586 33.5327V32.4316H9.49141V33.5327H11.9586ZM10.725 33.6652H11.8261V31.198H10.725V33.6652ZM13.0597 32.4316V31.3305H10.5925V32.4316H13.0597ZM11.8261 32.5641H13.4777V30.0969H11.8261V32.5641ZM12.2441 31.3305V37.937H14.7113V31.3305H12.2441ZM20.6369 32.4316H19.4033V33.6652H20.6369V32.4316ZM21.7379 32.4316H22.9715V31.198H21.7379V32.4316ZM21.7379 37.937V39.1706H22.9715V37.937H21.7379ZM20.6369 37.937V36.7034H19.4033V37.937H20.6369ZM20.6369 39.0381V40.2717H21.8704V39.0381H20.6369ZM16.7831 39.0381H15.5495V40.2717H16.7831V39.0381ZM16.7831 37.937H18.0167V36.7034H16.7831V37.937ZM15.682 37.937H14.4484V39.1706H15.682V37.937ZM15.682 32.4316V31.198H14.4484V32.4316H15.682ZM16.7831 32.4316V33.6652H18.0167V32.4316H16.7831ZM16.7831 31.3305V30.0969H15.5495V31.3305H16.7831ZM20.6369 31.3305H21.8704V30.0969H20.6369V31.3305ZM20.0863 32.4316H21.3199V31.198H20.0863V32.4316ZM17.3336 32.4316V31.198H16.1V32.4316H17.3336ZM17.3336 37.937H16.1V39.1706H17.3336V37.937ZM20.0863 37.937V39.1706H21.3199V37.937H20.0863ZM20.6369 33.6652H21.7379V31.198H20.6369V33.6652ZM20.5043 32.4316V37.937H22.9715V32.4316H20.5043ZM21.7379 36.7034H20.6369V39.1706H21.7379V36.7034ZM19.4033 37.937V39.0381H21.8704V37.937H19.4033ZM20.6369 37.8045H16.7831V40.2717H20.6369V37.8045ZM18.0167 39.0381V37.937H15.5495V39.0381H18.0167ZM16.7831 36.7034H15.682V39.1706H16.7831V36.7034ZM16.9156 37.937V32.4316H14.4484V37.937H16.9156ZM15.682 33.6652H16.7831V31.198H15.682V33.6652ZM18.0167 32.4316V31.3305H15.5495V32.4316H18.0167ZM16.7831 32.5641H20.6369V30.0969H16.7831V32.5641ZM19.4033 31.3305V32.4316H21.8704V31.3305H19.4033ZM20.0863 31.198H17.3336V33.6652H20.0863V31.198ZM16.1 32.4316V37.937H18.5672V32.4316H16.1ZM17.3336 39.1706H20.0863V36.7034H17.3336V39.1706ZM21.3199 37.937V32.4316H18.8527V37.937H21.3199ZM27.7982 32.4316H26.5646V33.6652H27.7982V32.4316ZM28.8992 32.4316H30.1328V31.198H28.8992V32.4316ZM28.8992 37.937V39.1706H30.1328V37.937H28.8992ZM27.7982 37.937V36.7034H26.5646V37.937H27.7982ZM27.7982 39.0381V40.2717H29.0318V39.0381H27.7982ZM23.9444 39.0381H22.7108V40.2717H23.9444V39.0381ZM23.9444 37.937H25.178V36.7034H23.9444V37.937ZM22.8433 37.937H21.6097V39.1706H22.8433V37.937ZM22.8433 32.4316V31.198H21.6097V32.4316H22.8433ZM23.9444 32.4316V33.6652H25.178V32.4316H23.9444ZM23.9444 31.3305V30.0969H22.7108V31.3305H23.9444ZM27.7982 31.3305H29.0318V30.0969H27.7982V31.3305ZM27.2476 32.4316H28.4812V31.198H27.2476V32.4316ZM24.4949 32.4316V31.198H23.2613V32.4316H24.4949ZM24.4949 37.937H23.2613V39.1706H24.4949V37.937ZM27.2476 37.937V39.1706H28.4812V37.937H27.2476ZM27.7982 33.6652H28.8992V31.198H27.7982V33.6652ZM27.6656 32.4316V37.937H30.1328V32.4316H27.6656ZM28.8992 36.7034H27.7982V39.1706H28.8992V36.7034ZM26.5646 37.937V39.0381H29.0318V37.937H26.5646ZM27.7982 37.8045H23.9444V40.2717H27.7982V37.8045ZM25.178 39.0381V37.937H22.7108V39.0381H25.178ZM23.9444 36.7034H22.8433V39.1706H23.9444V36.7034ZM24.0769 37.937V32.4316H21.6097V37.937H24.0769ZM22.8433 33.6652H23.9444V31.198H22.8433V33.6652ZM25.178 32.4316V31.3305H22.7108V32.4316H25.178ZM23.9444 32.5641H27.7982V30.0969H23.9444V32.5641ZM26.5646 31.3305V32.4316H29.0318V31.3305H26.5646ZM27.2476 31.198H24.4949V33.6652H27.2476V31.198ZM23.2613 32.4316V37.937H25.7285V32.4316H23.2613ZM24.4949 39.1706H27.2476V36.7034H24.4949V39.1706ZM28.4812 37.937V32.4316H26.014V37.937H28.4812ZM34.9595 32.4316H33.7259V33.6652H34.9595V32.4316ZM36.0605 32.4316H37.2941V31.198H36.0605V32.4316ZM36.0605 37.937V39.1706H37.2941V37.937H36.0605ZM34.9595 37.937V36.7034H33.7259V37.937H34.9595ZM34.9595 39.0381V40.2717H36.1931V39.0381H34.9595ZM31.1057 39.0381H29.8721V40.2717H31.1057V39.0381ZM31.1057 37.937H32.3393V36.7034H31.1057V37.937ZM30.0046 37.937H28.771V39.1706H30.0046V37.937ZM30.0046 32.4316V31.198H28.771V32.4316H30.0046ZM31.1057 32.4316V33.6652H32.3393V32.4316H31.1057ZM31.1057 31.3305V30.0969H29.8721V31.3305H31.1057ZM34.9595 31.3305H36.1931V30.0969H34.9595V31.3305ZM34.4089 32.4316H35.6425V31.198H34.4089V32.4316ZM31.6562 32.4316V31.198H30.4226V32.4316H31.6562ZM31.6562 37.937H30.4226V39.1706H31.6562V37.937ZM34.4089 37.937V39.1706H35.6425V37.937H34.4089ZM34.9595 33.6652H36.0605V31.198H34.9595V33.6652ZM34.827 32.4316V37.937H37.2941V32.4316H34.827ZM36.0605 36.7034H34.9595V39.1706H36.0605V36.7034ZM33.7259 37.937V39.0381H36.1931V37.937H33.7259ZM34.9595 37.8045H31.1057V40.2717H34.9595V37.8045ZM32.3393 39.0381V37.937H29.8721V39.0381H32.3393ZM31.1057 36.7034H30.0046V39.1706H31.1057V36.7034ZM31.2382 37.937V32.4316H28.771V37.937H31.2382ZM30.0046 33.6652H31.1057V31.198H30.0046V33.6652ZM32.3393 32.4316V31.3305H29.8721V32.4316H32.3393ZM31.1057 32.5641H34.9595V30.0969H31.1057V32.5641ZM33.7259 31.3305V32.4316H36.1931V31.3305H33.7259ZM34.4089 31.198H31.6562V33.6652H34.4089V31.198ZM30.4226 32.4316V37.937H32.8898V32.4316H30.4226ZM31.6562 39.1706H34.4089V36.7034H31.6562V39.1706ZM35.6425 37.937V32.4316H33.1753V37.937H35.6425Z" fill="black" mask="url(#path-3-outside-2_981_276740)"/>
<path d="M15.5752 3H13.791V4.78421H15.5752V3Z" fill="#B4642D"/>
<path d="M17.3594 3H15.5752V4.78421H17.3594V3Z" fill="#D79734"/>
<path d="M19.1441 3H17.3599V4.78421H19.1441V3Z" fill="#D79734"/>
<path d="M20.9287 3H19.1445V4.78421H20.9287V3Z" fill="#EAC641"/>
<path d="M22.7129 3H20.9287V4.78421H22.7129V3Z" fill="#D79734"/>
<path d="M15.5752 4.78418H13.791V6.56839H15.5752V4.78418Z" fill="#B4642D"/>
<path d="M17.3594 4.78418H15.5752V6.56839H17.3594V4.78418Z" fill="#B4642D"/>
<path d="M19.1441 4.78418H17.3599V6.56839H19.1441V4.78418Z" fill="#D79734"/>
<path d="M20.9287 4.78418H19.1445V6.56839H20.9287V4.78418Z" fill="#EAC641"/>
<path d="M22.7129 4.78418H20.9287V6.56839H22.7129V4.78418Z" fill="#D79734"/>
<path d="M15.5752 6.56641H13.791V8.35062H15.5752V6.56641Z" fill="#D79734"/>
<path d="M17.3594 6.56641H15.5752V8.35062H17.3594V6.56641Z" fill="#D79734"/>
<path d="M19.1441 6.56641H17.3599V8.35062H19.1441V6.56641Z" fill="#EAC641"/>
<path d="M20.9287 6.56641H19.1445V8.35062H20.9287V6.56641Z" fill="#F1E39F"/>
<path d="M22.7129 6.56641H20.9287V8.35062H22.7129V6.56641Z" fill="#EAC641"/>
<path d="M24.4971 6.56641H22.7129V8.35062H24.4971V6.56641Z" fill="#D79734"/>
<path d="M15.5752 8.35254H13.791V10.1367H15.5752V8.35254Z" fill="#B4642D"/>
<path d="M17.3594 8.35254H15.5752V10.1367H17.3594V8.35254Z" fill="#D79734"/>
<path d="M19.1441 8.35254H17.3599V10.1367H19.1441V8.35254Z" fill="#D79734"/>
<path d="M20.9287 8.35254H19.1445V10.1367H20.9287V8.35254Z" fill="#F1E39F"/>
<path d="M22.7129 8.35254H20.9287V10.1367H22.7129V8.35254Z" fill="#D79734"/>
<path d="M15.5752 10.1367H13.791V11.9209H15.5752V10.1367Z" fill="#B4642D"/>
<path d="M17.3594 10.1367H15.5752V11.9209H17.3594V10.1367Z" fill="#B4642D"/>
<path d="M19.1441 10.1367H17.3599V11.9209H19.1441V10.1367Z" fill="#D79734"/>
<path d="M20.9287 10.1367H19.1445V11.9209H20.9287V10.1367Z" fill="#EAC641"/>
<path d="M22.7129 10.1367H20.9287V11.9209H22.7129V10.1367Z" fill="#D79734"/>
<path d="M24.4971 10.1367H22.7129V11.9209H24.4971V10.1367Z" fill="#B4642D"/>
<path d="M26.2818 10.1367H24.4976V11.9209H26.2818V10.1367Z" fill="#D79734"/>
<path d="M28.0664 10.1367H26.2822V11.9209H28.0664V10.1367Z" fill="#D79734"/>
<path d="M29.8501 10.1367H28.0659V11.9209H29.8501V10.1367Z" fill="#EAC641"/>
<path d="M31.6348 10.1367H29.8506V11.9209H31.6348V10.1367Z" fill="#D79734"/>
<path d="M15.5752 11.9219H13.791V13.7061H15.5752V11.9219Z" fill="#B4642D"/>
<path d="M17.3594 11.9219H15.5752V13.7061H17.3594V11.9219Z" fill="#D79734"/>
<path d="M19.1441 11.9219H17.3599V13.7061H19.1441V11.9219Z" fill="#EAC641"/>
<path d="M20.9287 11.9219H19.1445V13.7061H20.9287V11.9219Z" fill="#EAC641"/>
<path d="M22.7129 11.9219H20.9287V13.7061H22.7129V11.9219Z" fill="#EAC641"/>
<path d="M24.4971 11.9219H22.7129V13.7061H24.4971V11.9219Z" fill="#B4642D"/>
<path d="M26.2818 11.9219H24.4976V13.7061H26.2818V11.9219Z" fill="#B4642D"/>
<path d="M28.0664 11.9219H26.2822V13.7061H28.0664V11.9219Z" fill="#D79734"/>
<path d="M29.8501 11.9219H28.0659V13.7061H29.8501V11.9219Z" fill="#EAC641"/>
<path d="M31.6348 11.9219H29.8506V13.7061H31.6348V11.9219Z" fill="#D79734"/>
<path d="M13.791 13.7061H12.0068V15.4903H13.791V13.7061Z" fill="#D79734"/>
<path d="M15.5752 13.7061H13.791V15.4903H15.5752V13.7061Z" fill="#B4642D"/>
<path d="M17.3594 13.7061H15.5752V15.4903H17.3594V13.7061Z" fill="#D79734"/>
<path d="M19.1441 13.7061H17.3599V15.4903H19.1441V13.7061Z" fill="#EAC641"/>
<path d="M20.9287 13.7061H19.1445V15.4903H20.9287V13.7061Z" fill="#F1E39F"/>
<path d="M22.7129 13.7061H20.9287V15.4903H22.7129V13.7061Z" fill="#D79734"/>
<path d="M24.4971 13.7061H22.7129V15.4903H24.4971V13.7061Z" fill="#D79734"/>
<path d="M26.2818 13.7061H24.4976V15.4903H26.2818V13.7061Z" fill="#D79734"/>
<path d="M28.0664 13.7061H26.2822V15.4903H28.0664V13.7061Z" fill="#EAC641"/>
<path d="M29.8501 13.7061H28.0659V15.4903H29.8501V13.7061Z" fill="#F1E39F"/>
<path d="M15.5752 15.4902H13.791V17.2744H15.5752V15.4902Z" fill="#B4642D"/>
<path d="M17.3594 15.4902H15.5752V17.2744H17.3594V15.4902Z" fill="#D79734"/>
<path d="M19.1441 15.4902H17.3599V17.2744H19.1441V15.4902Z" fill="#B4642D"/>
<path d="M20.9287 15.4902H19.1445V17.2744H20.9287V15.4902Z" fill="#F1E39F"/>
<path d="M22.7129 15.4902H20.9287V17.2744H22.7129V15.4902Z" fill="#D79734"/>
<path d="M24.4971 15.4902H22.7129V17.2744H24.4971V15.4902Z" fill="#B4642D"/>
<path d="M26.2818 15.4902H24.4976V17.2744H26.2818V15.4902Z" fill="#D79734"/>
<path d="M28.0664 15.4902H26.2822V17.2744H28.0664V15.4902Z" fill="#D79734"/>
<path d="M29.8501 15.4902H28.0659V17.2744H29.8501V15.4902Z" fill="#F1E39F"/>
<path d="M31.6348 15.4902H29.8506V17.2744H31.6348V15.4902Z" fill="#D79734"/>
<path d="M15.5752 17.2744H13.791V19.0586H15.5752V17.2744Z" fill="#B4642D"/>
<path d="M17.3594 17.2744H15.5752V19.0586H17.3594V17.2744Z" fill="#D79734"/>
<path d="M19.1441 17.2744H17.3599V19.0586H19.1441V17.2744Z" fill="#D79734"/>
<path d="M20.9287 17.2744H19.1445V19.0586H20.9287V17.2744Z" fill="#EAC641"/>
<path d="M22.7129 17.2744H20.9287V19.0586H22.7129V17.2744Z" fill="#D79734"/>
<path d="M24.4971 17.2744H22.7129V19.0586H24.4971V17.2744Z" fill="#B4642D"/>
<path d="M26.2818 17.2744H24.4976V19.0586H26.2818V17.2744Z" fill="#B4642D"/>
<path d="M28.0664 17.2744H26.2822V19.0586H28.0664V17.2744Z" fill="#D79734"/>
<path d="M29.8501 17.2744H28.0659V19.0586H29.8501V17.2744Z" fill="#EAC641"/>
<path d="M31.6348 17.2744H29.8506V19.0586H31.6348V17.2744Z" fill="#D79734"/>
<path d="M10.2227 19.0586H8.43848V20.8428H10.2227V19.0586Z" fill="#B4642D"/>
<path d="M12.0069 19.0586H10.2227V20.8428H12.0069V19.0586Z" fill="#D79734"/>
<path d="M13.791 19.0586H12.0068V20.8428H13.791V19.0586Z" fill="#F1E39F"/>
<path d="M15.5752 19.0586H13.791V20.8428H15.5752V19.0586Z" fill="#D79734"/>
<path d="M17.3594 19.0586H15.5752V20.8428H17.3594V19.0586Z" fill="#B4642D"/>
<path d="M19.1441 19.0586H17.3599V20.8428H19.1441V19.0586Z" fill="#EAC641"/>
<path d="M20.9287 19.0586H19.1445V20.8428H20.9287V19.0586Z" fill="#EAC641"/>
<path d="M22.7129 19.0586H20.9287V20.8428H22.7129V19.0586Z" fill="#F1E39F"/>
<path d="M24.4971 19.0586H22.7129V20.8428H24.4971V19.0586Z" fill="#B4642D"/>
<path d="M26.2818 19.0586H24.4976V20.8428H26.2818V19.0586Z" fill="#D79734"/>
<path d="M28.0664 19.0586H26.2822V20.8428H28.0664V19.0586Z" fill="#D79734"/>
<path d="M29.8501 19.0586H28.0659V20.8428H29.8501V19.0586Z" fill="#EAC641"/>
<path d="M31.6348 19.0586H29.8506V20.8428H31.6348V19.0586Z" fill="#D79734"/>
<path d="M10.2227 20.8428H8.43848V22.627H10.2227V20.8428Z" fill="#B4642D"/>
<path d="M12.0069 20.8428H10.2227V22.627H12.0069V20.8428Z" fill="#EAC641"/>
<path d="M13.791 20.8428H12.0068V22.627H13.791V20.8428Z" fill="#EAC641"/>
<path d="M15.5752 20.8428H13.791V22.627H15.5752V20.8428Z" fill="#D79734"/>
<path d="M17.3594 20.8428H15.5752V22.627H17.3594V20.8428Z" fill="#B4642D"/>
<path d="M19.1441 20.8428H17.3599V22.627H19.1441V20.8428Z" fill="#D79734"/>
<path d="M20.9287 20.8428H19.1445V22.627H20.9287V20.8428Z" fill="#EAC641"/>
<path d="M22.7129 20.8428H20.9287V22.627H22.7129V20.8428Z" fill="#D79734"/>
<path d="M24.4971 20.8428H22.7129V22.627H24.4971V20.8428Z" fill="#B4642D"/>
<path d="M26.2818 20.8428H24.4976V22.627H26.2818V20.8428Z" fill="#D79734"/>
<path d="M28.0664 20.8428H26.2822V22.627H28.0664V20.8428Z" fill="#EAC641"/>
<path d="M29.8501 20.8428H28.0659V22.627H29.8501V20.8428Z" fill="#F1E39F"/>
<path d="M8.43802 22.6279H6.65381V24.4121H8.43802V22.6279Z" fill="#B4642D"/>
<path d="M10.2227 22.6279H8.43848V24.4121H10.2227V22.6279Z" fill="#D79734"/>
<path d="M12.0069 22.6279H10.2227V24.4121H12.0069V22.6279Z" fill="#D79734"/>
<path d="M13.791 22.6279H12.0068V24.4121H13.791V22.6279Z" fill="#EAC641"/>
<path d="M15.5752 22.6279H13.791V24.4121H15.5752V22.6279Z" fill="#D79734"/>
<path d="M17.3594 22.6279H15.5752V24.4121H17.3594V22.6279Z" fill="#B4642D"/>
<path d="M19.1441 22.6279H17.3599V24.4121H19.1441V22.6279Z" fill="#EAC641"/>
<path d="M20.9287 22.6279H19.1445V24.4121H20.9287V22.6279Z" fill="#EAC641"/>
<path d="M22.7129 22.6279H20.9287V24.4121H22.7129V22.6279Z" fill="#D79734"/>
<path d="M24.4971 22.6279H22.7129V24.4121H24.4971V22.6279Z" fill="#B4642D"/>
<path d="M26.2818 22.6279H24.4976V24.4121H26.2818V22.6279Z" fill="#D79734"/>
<path d="M28.0664 22.6279H26.2822V24.4121H28.0664V22.6279Z" fill="#B4642D"/>
<path d="M29.8501 22.6279H28.0659V24.4121H29.8501V22.6279Z" fill="#F1E39F"/>
<path d="M31.6348 22.6279H29.8506V24.4121H31.6348V22.6279Z" fill="#D79734"/>
<path d="M8.43802 24.4111H6.65381V26.1953H8.43802V24.4111Z" fill="#B4642D"/>
<path d="M10.2227 24.4111H8.43848V26.1953H10.2227V24.4111Z" fill="#D79734"/>
<path d="M12.0069 24.4111H10.2227V26.1953H12.0069V24.4111Z" fill="#EAC641"/>
<path d="M13.791 24.4111H12.0068V26.1953H13.791V24.4111Z" fill="#F1E39F"/>
<path d="M15.5752 24.4111H13.791V26.1953H15.5752V24.4111Z" fill="#D79734"/>
<path d="M17.3594 24.4111H15.5752V26.1953H17.3594V24.4111Z" fill="#B4642D"/>
<path d="M19.1441 24.4111H17.3599V26.1953H19.1441V24.4111Z" fill="#D79734"/>
<path d="M20.9287 24.4111H19.1445V26.1953H20.9287V24.4111Z" fill="#EAC641"/>
<path d="M22.7129 24.4111H20.9287V26.1953H22.7129V24.4111Z" fill="#D79734"/>
<path d="M24.4971 24.4111H22.7129V26.1953H24.4971V24.4111Z" fill="#B4642D"/>
<path d="M26.2818 24.4111H24.4976V26.1953H26.2818V24.4111Z" fill="#D79734"/>
<path d="M28.0664 24.4111H26.2822V26.1953H28.0664V24.4111Z" fill="#D79734"/>
<path d="M29.8501 24.4111H28.0659V26.1953H29.8501V24.4111Z" fill="#EAC641"/>
<path d="M31.6348 24.4111H29.8506V26.1953H31.6348V24.4111Z" fill="#D79734"/>
</svg>
