<svg width="246" height="48" viewBox="0 0 246 48" fill="none" xmlns="http://www.w3.org/2000/svg">
<rect y="4" width="4" height="40" fill="white"/>
<mask id="path-2-inside-1_8_569" fill="white">
<path d="M4 0H242V48H4V0Z"/>
</mask>
<path d="M4 4H242V-4H4V4ZM242 44H4V52H242V44Z" fill="white" mask="url(#path-2-inside-1_8_569)"/>
<path d="M32.533 13.864V16.12H23.509V13.864H32.533ZM32.533 18.376V16.12H34.789V18.376H32.533ZM34.789 28.744H32.533V26.488H34.789V28.744ZM23.509 31V28.744H32.533V31H23.509ZM21.253 16.12H23.509V28.744H21.253V16.12ZM41.5859 28.744H39.3299V26.488H41.5859V28.744ZM48.3539 31H41.5859V28.744H48.3539V31ZM39.3299 26.488H37.0499V18.376H39.3299V26.488ZM48.3539 28.744V26.488H50.6339V28.744H48.3539ZM50.6339 26.488V18.376H52.8899V26.488H50.6339ZM48.3539 16.12H50.6339V18.376H48.3539V16.12ZM41.5859 13.864H48.3539V16.12H41.5859V13.864ZM41.5859 16.12V18.376H39.3299V16.12H41.5859ZM59.6556 16.12V18.376H57.3996V31H55.1436V13.864H57.3996V16.12H59.6556ZM68.6796 13.864V31H66.4236V28.744H64.1676V26.488H66.4236V13.864H68.6796ZM59.6556 20.632V18.376H61.9116V20.632H59.6556ZM61.9116 26.488V20.632H64.1676V26.488H61.9116ZM75.4525 16.12V18.376H73.1965V31H70.9405V13.864H73.1965V16.12H75.4525ZM84.4765 13.864V31H82.2205V28.744H79.9645V26.488H82.2205V13.864H84.4765ZM75.4525 20.632V18.376H77.7085V20.632H75.4525ZM77.7085 26.488V20.632H79.9645V26.488H77.7085ZM88.9934 16.12V21.256H95.7854V23.512H88.9934V28.744H86.7374V16.12H88.9934ZM98.0414 31H88.9934V28.744H98.0414V31ZM98.0414 16.12H88.9934V13.864H98.0414V16.12ZM111.588 13.864V16.12H102.564V13.864H111.588ZM111.588 18.376V16.12H113.844V18.376H111.588ZM113.844 28.744H111.588V26.488H113.844V28.744ZM102.564 31V28.744H111.588V31H102.564ZM100.308 16.12H102.564V28.744H100.308V16.12ZM124.073 31H121.817V16.12H116.105V13.864H129.809V16.12H124.073V31ZM145.637 24.328V18.376H147.893V24.328H145.637ZM147.893 26.584V24.328H150.149V13.864H152.405V31H150.149V26.584H147.893ZM141.101 18.376H143.381V24.328H141.101V18.376ZM138.845 31H136.589V13.864H138.845V24.328H141.101V26.584H138.845V31ZM143.381 18.376V16.12H145.637V18.376H143.381ZM159.171 16.12V13.864H163.683V16.12H159.171ZM159.171 18.376H156.915V16.12H159.171V18.376ZM165.939 18.376H163.683V16.12H165.939V18.376ZM165.939 18.376H168.195V31H165.939V25.84H156.915V31H154.659V18.376H156.915V23.584H165.939V18.376ZM181.76 28.744V31H172.712V28.744H181.76ZM170.456 13.864H172.712V28.744H170.456V13.864ZM195.33 28.744V31H186.282V28.744H195.33ZM184.026 13.864H186.282V28.744H184.026V13.864ZM199.853 16.12V21.256H206.645V23.512H199.853V28.744H197.597V16.12H199.853ZM208.901 31H199.853V28.744H208.901V31ZM208.901 16.12H199.853V13.864H208.901V16.12ZM219.135 31H216.879V16.12H211.167V13.864H224.871V16.12H219.135V31Z" fill="white"/>
<rect x="242" y="4" width="4" height="40" fill="white"/>
</svg>
