<svg width="333" height="175" viewBox="0 0 333 175" fill="none" xmlns="http://www.w3.org/2000/svg">
<g clip-path="url(#clip0_1017_7250)">
<path fill-rule="evenodd" clip-rule="evenodd" d="M166 54.75V51H177.25V54.75H166Z" fill="black"/>
<path fill-rule="evenodd" clip-rule="evenodd" d="M166 54.752V58.502H154.75H143.5H128.5H124.75H121V62.252V66.002V69.752V73.502V77.2519V81.0019V84.7519H124.75V88.5019H121H117.25V84.7519V81.0019V77.2519V73.502V69.752V66.002V62.252V58.502V54.752H121H124.75H132.25H143.5H154.75H166Z" fill="black"/>
<path fill-rule="evenodd" clip-rule="evenodd" d="M177.25 58.502V54.752H181H184.75H196H199.75H203.5H207.25H211H214.75H218.5H222.25V58.502V62.252V66.002V81.002V84.752V88.502V92.252V96.002H226V99.752H214.75H211V96.002H214.75H218.5V92.252V88.502V77.252V66.002V62.252V58.502H214.75H211H207.25H203.5H199.75H196H192.25H188.5H184.75H181H177.25Z" fill="black"/>
<path fill-rule="evenodd" clip-rule="evenodd" d="M166 58.502H177.25V62.252H173.5H169.75H166V58.502Z" fill="black"/>
<path fill-rule="evenodd" clip-rule="evenodd" d="M166 81V77.25H169.75H173.5H177.25H181V81H166Z" fill="black"/>
<path fill-rule="evenodd" clip-rule="evenodd" d="M124.75 84.75V81H128.5H132.25H136V84.75H124.75Z" fill="black"/>
<path fill-rule="evenodd" clip-rule="evenodd" d="M154.75 84.75V81H158.5H162.25H166V84.75H154.75Z" fill="black"/>
<path fill-rule="evenodd" clip-rule="evenodd" d="M181 81H184.75H188.5H192.25H196H199.75V84.75H196H192.25H188.5H184.75H181V81Z" fill="black"/>
<path fill-rule="evenodd" clip-rule="evenodd" d="M136 84.752H139.75V88.502H136V84.752Z" fill="black"/>
<path fill-rule="evenodd" clip-rule="evenodd" d="M154.75 84.752V88.502V92.252H151V88.502V84.752H154.75Z" fill="black"/>
<path fill-rule="evenodd" clip-rule="evenodd" d="M199.75 84.752H203.5V88.502V92.252H199.75V88.502V84.752Z" fill="black"/>
<path fill-rule="evenodd" clip-rule="evenodd" d="M113.5 92.25V88.5H117.25V92.25H113.5Z" fill="black"/>
<path fill-rule="evenodd" clip-rule="evenodd" d="M139.75 88.5H143.5H147.25V92.25H143.5H139.75V88.5Z" fill="black"/>
<path fill-rule="evenodd" clip-rule="evenodd" d="M109.75 96.002V92.252H113.5V96.002H109.75Z" fill="black"/>
<path fill-rule="evenodd" clip-rule="evenodd" d="M147.25 92.252H151V96.002H147.25V92.252Z" fill="black"/>
<path fill-rule="evenodd" clip-rule="evenodd" d="M203.5 92.252H207.25H211V96.002H207.25H203.5V92.252Z" fill="black"/>
<path fill-rule="evenodd" clip-rule="evenodd" d="M109.75 96V99.75H106V96H109.75Z" fill="black"/>
<path fill-rule="evenodd" clip-rule="evenodd" d="M109.75 99.75H113.5V103.5V107.25V111H109.75V99.75Z" fill="black"/>
<path fill-rule="evenodd" clip-rule="evenodd" d="M226 99.75H229.75V103.5H226V99.75Z" fill="black"/>
<path fill-rule="evenodd" clip-rule="evenodd" d="M229.75 103.5H233.5V107.25V111V114.75V126H229.75V122.25V118.5V114.75V103.5Z" fill="black"/>
<path fill-rule="evenodd" clip-rule="evenodd" d="M233.5 155.998H226V159.748H151V163.498H147.25V159.748H143.5V155.998H222.25V152.248H143.5V155.998H132.25V152.248H121V155.998H132.25V159.748H124.75V163.498H121V159.748H117.25V155.998H109.75V152.248H117.25V107.248H226V152.248H233.5V155.998ZM158.5 118.498H132.25V148.498H211V118.498H184.75V114.748H222.25V110.998H121V114.748H158.5V118.498ZM121 118.498V148.498H128.5V118.498H121ZM214.75 118.498V148.498H222.25V118.498H214.75Z" fill="black"/>
<path fill-rule="evenodd" clip-rule="evenodd" d="M109.75 111.002V118.502H106V114.752V111.002H109.75Z" fill="black"/>
<path fill-rule="evenodd" clip-rule="evenodd" d="M169.75 118.5V114.75H173.5V118.5H169.75Z" fill="black"/>
<path fill-rule="evenodd" clip-rule="evenodd" d="M109.75 118.5H113.5V122.25V126V129.75H109.75V118.5Z" fill="black"/>
<path fill-rule="evenodd" clip-rule="evenodd" d="M158.5 118.5H162.25H166V122.25H162.25H158.5V118.5Z" fill="black"/>
<path fill-rule="evenodd" clip-rule="evenodd" d="M177.25 122.25V118.5H181H184.75V122.25H181H177.25Z" fill="black"/>
<path fill-rule="evenodd" clip-rule="evenodd" d="M166 122.25H177.25V126H173.5H169.75H166V122.25Z" fill="black"/>
<path fill-rule="evenodd" clip-rule="evenodd" d="M233.5 126.002H237.25V129.752H233.5V126.002Z" fill="black"/>
<path fill-rule="evenodd" clip-rule="evenodd" d="M109.75 129.75V133.5H106V129.75H109.75Z" fill="black"/>
<path fill-rule="evenodd" clip-rule="evenodd" d="M237.25 133.5V129.75H241V133.5H237.25Z" fill="black"/>
<path fill-rule="evenodd" clip-rule="evenodd" d="M91 137.252H87.25V141.002V144.752H83.5H79.75V141.002H83.5V137.252V133.502H87.25H91V137.252Z" fill="black"/>
<path fill-rule="evenodd" clip-rule="evenodd" d="M109.75 137.252V133.502H113.5V137.252H109.75Z" fill="black"/>
<path fill-rule="evenodd" clip-rule="evenodd" d="M237.25 133.502V141.002H233.5V137.252V133.502H237.25Z" fill="black"/>
<path fill-rule="evenodd" clip-rule="evenodd" d="M90.9998 137.25H94.7498H98.4998V141H94.7498H90.9998V137.25Z" fill="black"/>
<path fill-rule="evenodd" clip-rule="evenodd" d="M109.75 137.25V141V144.75H106V141V137.25H109.75Z" fill="black"/>
<path fill-rule="evenodd" clip-rule="evenodd" d="M64.75 144.75V141H68.5H72.25V144.75H64.75Z" fill="black"/>
<path fill-rule="evenodd" clip-rule="evenodd" d="M98.5 144.75V141H102.25V144.75H98.5Z" fill="black"/>
<path fill-rule="evenodd" clip-rule="evenodd" d="M233.5 141V144.75H229.75V141H233.5Z" fill="black"/>
<path fill-rule="evenodd" clip-rule="evenodd" d="M237.25 144.75V141H241H244.75H248.5V144.75H237.25Z" fill="black"/>
<path fill-rule="evenodd" clip-rule="evenodd" d="M60.9998 144.752H64.7498V148.502H68.4998H72.2498V152.252H68.4998H64.7498H60.9998V144.752Z" fill="black"/>
<path fill-rule="evenodd" clip-rule="evenodd" d="M72.2502 148.502V144.752H79.7502V148.502H72.2502Z" fill="black"/>
<path fill-rule="evenodd" clip-rule="evenodd" d="M90.9998 148.502V144.752H94.7498H98.4998V148.502H90.9998Z" fill="black"/>
<path fill-rule="evenodd" clip-rule="evenodd" d="M102.25 148.502V144.752H106V148.502H102.25Z" fill="black"/>
<path fill-rule="evenodd" clip-rule="evenodd" d="M233.5 144.752H237.25V148.502H233.5V144.752Z" fill="black"/>
<path fill-rule="evenodd" clip-rule="evenodd" d="M248.5 144.752H252.25H256V148.502H252.25H248.5V144.752Z" fill="black"/>
<path fill-rule="evenodd" clip-rule="evenodd" d="M79.75 148.5H83.5H91V152.25H87.25H83.5H79.75V148.5Z" fill="black"/>
<path fill-rule="evenodd" clip-rule="evenodd" d="M98.5 152.25V148.5H102.25V152.25H98.5Z" fill="black"/>
<path fill-rule="evenodd" clip-rule="evenodd" d="M256 148.5H259.75V152.25H263.5H271V159.75H267.25V156H263.5H259.75H256V148.5Z" fill="black"/>
<path fill-rule="evenodd" clip-rule="evenodd" d="M98.5 152.25V156H102.25H109.75V159.75H106H102.25H94.75V156V152.25H98.5Z" fill="black"/>
<path fill-rule="evenodd" clip-rule="evenodd" d="M244.75 156V152.25H248.5H252.25V156H244.75Z" fill="black"/>
<path fill-rule="evenodd" clip-rule="evenodd" d="M233.5 156H244.75V159.75H241H237.25H233.5V156Z" fill="black"/>
<path fill-rule="evenodd" clip-rule="evenodd" d="M252.25 156H256V159.75H259.75H263.5H267.25V163.5H263.5H259.75H256H252.25V159.75V156Z" fill="black"/>
<path fill-rule="evenodd" clip-rule="evenodd" d="M124.75 167.25V163.5H128.5V167.25H124.75Z" fill="black"/>
<path fill-rule="evenodd" clip-rule="evenodd" d="M143.5 167.25V163.5H147.25V167.25H143.5Z" fill="black"/>
<path fill-rule="evenodd" clip-rule="evenodd" d="M218.5 167.25H203.5H199.75H196V171H192.25V167.25V163.5H196H211H214.75H218.5V167.25Z" fill="black"/>
<path fill-rule="evenodd" clip-rule="evenodd" d="M124.75 167.25V171H121V167.25H124.75Z" fill="black"/>
<path fill-rule="evenodd" clip-rule="evenodd" d="M132.25 171V167.25H136H139.75H143.5V171H139.75H136H132.25Z" fill="black"/>
<path fill-rule="evenodd" clip-rule="evenodd" d="M218.5 171V167.25H222.25V171H218.5Z" fill="black"/>
<path fill-rule="evenodd" clip-rule="evenodd" d="M124.75 174.75V171H132.25V174.75H124.75Z" fill="black"/>
<path fill-rule="evenodd" clip-rule="evenodd" d="M196 174.75V171H218.5V174.75H196Z" fill="black"/>
<path fill-rule="evenodd" clip-rule="evenodd" d="M169.75 54.752H177.25V58.502H173.5H169.75V54.752Z" fill="#303030"/>
<path fill-rule="evenodd" clip-rule="evenodd" d="M222.25 111.002V114.752H218.5H214.75H211H207.25H203.5V111.002H211H222.25Z" fill="#303030"/>
<path fill-rule="evenodd" clip-rule="evenodd" d="M158.5 118.5V114.75H162.25V118.5H158.5Z" fill="#303030"/>
<path fill-rule="evenodd" clip-rule="evenodd" d="M184.75 114.75V118.5H181H177.25V122.25H173.5H169.75V118.5H173.5V114.75H177.25H181H184.75Z" fill="#303030"/>
<path fill-rule="evenodd" clip-rule="evenodd" d="M121 122.25V118.5H124.75H128.5V122.25V126V129.75V141V144.75V148.5H124.75H121V144.75H124.75V141V137.25V133.5V129.75V126V122.25H121Z" fill="#303030"/>
<path fill-rule="evenodd" clip-rule="evenodd" d="M222.25 118.5V148.5H218.5H214.75V144.75V141H218.5V137.25V133.5V129.75V126V122.25H214.75V118.5H218.5H222.25Z" fill="#303030"/>
<path fill-rule="evenodd" clip-rule="evenodd" d="M124.75 156V152.25H128.5H132.25V156H124.75Z" fill="#303030"/>
<path fill-rule="evenodd" clip-rule="evenodd" d="M143.5 156V152.25H147.25H151V156H143.5Z" fill="#303030"/>
<path fill-rule="evenodd" clip-rule="evenodd" d="M203.5 156V152.25H207.25H211H214.75H222.25V156H211H203.5Z" fill="#303030"/>
<path fill-rule="evenodd" clip-rule="evenodd" d="M166 54.752H169.75V58.502H166V54.752Z" fill="#8C8C8C"/>
<path fill-rule="evenodd" clip-rule="evenodd" d="M121 114.752V111.002H128.5H139.75H151H162.25H169.75H181H203.5V114.752H199.75H188.5H184.75H181H177.25H173.5H169.75V118.502V122.252H166V118.502H162.25V114.752H158.5H154.75H151H147.25H143.5H136H121Z" fill="#8C8C8C"/>
<path fill-rule="evenodd" clip-rule="evenodd" d="M121 122.25H124.75V126V129.75V133.5V137.25V141V144.75H121V122.25Z" fill="#8C8C8C"/>
<path fill-rule="evenodd" clip-rule="evenodd" d="M218.5 122.25V133.5V141H214.75V137.25V133.5V129.75V126V122.25H218.5Z" fill="#8C8C8C"/>
<path fill-rule="evenodd" clip-rule="evenodd" d="M121 152.25H124.75V156H121V152.25Z" fill="#8C8C8C"/>
<path fill-rule="evenodd" clip-rule="evenodd" d="M151 156V152.25H154.75H158.5H162.25H166H177.25H188.5H192.25H196H199.75H203.5V156H177.25H162.25H151Z" fill="#8C8C8C"/>
<path fill-rule="evenodd" clip-rule="evenodd" d="M166 58.502V62.252H169.75H173.5H177.25V58.502H218.5V66.002V77.252V96.0019H214.75H211V92.2519H207.25H203.5V88.5019V84.7519H199.75V81.0019H196H192.25H188.5H184.75H181V77.252H177.25H173.5H169.75H166V81.0019H162.25H158.5H154.75V84.7519H151V88.5019V92.2519H147.25V88.5019H143.5H139.75V84.7519H136V81.0019H132.25H128.5H124.75V84.7519H121V73.502V58.502H128.5H139.75H158.5H166Z" fill="#8E3F00"/>
<path fill-rule="evenodd" clip-rule="evenodd" d="M132.25 129.752V126.002H136H139.75V129.752H136H132.25Z" fill="#462912"/>
<path fill-rule="evenodd" clip-rule="evenodd" d="M173.5 126.002H177.25H181V129.752H169.75H166V126.002H169.75H173.5Z" fill="#462912"/>
<path fill-rule="evenodd" clip-rule="evenodd" d="M199.75 126.002H203.5H207.25H211V129.752H207.25H203.5H199.75V126.002Z" fill="#462912"/>
<path fill-rule="evenodd" clip-rule="evenodd" d="M132.25 141V137.25H136H139.75V141H132.25Z" fill="#462912"/>
<path fill-rule="evenodd" clip-rule="evenodd" d="M188.5 141V137.25H192.25H196H199.75H203.5H207.25H211V141H188.5Z" fill="#462912"/>
<path fill-rule="evenodd" clip-rule="evenodd" d="M139.75 129.752V126.002H143.5H147.25H151H154.75H166V129.752H151H143.5H139.75Z" fill="#7C4920"/>
<path fill-rule="evenodd" clip-rule="evenodd" d="M181 126.002H188.5H192.25H196H199.75V129.752H196H192.25H188.5H184.75H181V126.002Z" fill="#7C4920"/>
<path fill-rule="evenodd" clip-rule="evenodd" d="M139.75 137.25H147.25H158.5H169.75H173.5H177.25H181H184.75H188.5V141H173.5H166H162.25H158.5H154.75H151H147.25H143.5H139.75V137.25Z" fill="#7C4920"/>
<path fill-rule="evenodd" clip-rule="evenodd" d="M158.5 118.5V122.25H143.5H139.75H136V126H132.25V122.25V118.5H136H158.5Z" fill="#8E3F00"/>
<path fill-rule="evenodd" clip-rule="evenodd" d="M184.75 118.5H199.75H203.5H207.25H211V122.25V126H207.25H203.5H199.75V122.25H196H192.25H188.5V126H184.75H181H177.25V122.25H181H184.75V118.5Z" fill="#8E3F00"/>
<path fill-rule="evenodd" clip-rule="evenodd" d="M158.5 122.25H162.25H166V126H162.25H158.5V122.25Z" fill="#8E3F00"/>
<path fill-rule="evenodd" clip-rule="evenodd" d="M132.25 129.75H136V133.5V137.25H132.25V129.75Z" fill="#8E3F00"/>
<path fill-rule="evenodd" clip-rule="evenodd" d="M211 129.75V137.25H207.25H203.5H199.75H196V133.5H199.75H203.5V129.75H207.25H211Z" fill="#8E3F00"/>
<path fill-rule="evenodd" clip-rule="evenodd" d="M132.25 141H136V144.75H139.75H154.75H162.25H166H169.75H173.5H177.25H181H184.75H188.5H192.25H196H199.75H203.5V141H207.25H211V144.75V148.5H207.25H203.5H199.75H196H192.25H188.5H184.75H181H173.5H169.75H166H162.25H158.5H151H147.25H143.5H139.75H136H132.25V144.75V141Z" fill="#8E3F00"/>
<path fill-rule="evenodd" clip-rule="evenodd" d="M136 126V122.25H139.75H143.5H158.5V126H147.25H139.75H136Z" fill="#A36C40"/>
<path fill-rule="evenodd" clip-rule="evenodd" d="M188.5 122.25H199.75V126H196H192.25H188.5V122.25Z" fill="#A36C40"/>
<path fill-rule="evenodd" clip-rule="evenodd" d="M136 129.75H139.75H154.75H169.75H203.5V133.5H199.75H196V137.25H136V129.75Z" fill="#A36C40"/>
<path fill-rule="evenodd" clip-rule="evenodd" d="M136 141H139.75H147.25H162.25H169.75H203.5V144.75H192.25H184.75H169.75H166H162.25H158.5H154.75H151H147.25H143.5H139.75H136V141Z" fill="#A36C40"/>
<path fill-rule="evenodd" clip-rule="evenodd" d="M173.5 84.752H181V88.502H177.25H173.5V84.752Z" fill="#FFA12B"/>
<path fill-rule="evenodd" clip-rule="evenodd" d="M132.25 92.25V88.5H136H139.75V92.25H136H132.25Z" fill="#FFA12B"/>
<path fill-rule="evenodd" clip-rule="evenodd" d="M181 88.5H184.75H188.5V92.25H184.75H181V88.5Z" fill="#FFA12B"/>
<path fill-rule="evenodd" clip-rule="evenodd" d="M121 92.252H124.75H128.5V96.002H132.25H136V99.752H132.25H128.5H124.75V96.002H121V92.252Z" fill="#FFA12B"/>
<path fill-rule="evenodd" clip-rule="evenodd" d="M177.25 96.002V99.752H173.5H169.75H166H162.25V96.002H166V92.252H169.75V96.002H177.25Z" fill="#FFA12B"/>
<path fill-rule="evenodd" clip-rule="evenodd" d="M199.75 96.002V92.252H203.5V96.002H199.75Z" fill="#FFA12B"/>
<path fill-rule="evenodd" clip-rule="evenodd" d="M151 99.75V96H154.75H158.5V99.75H154.75H151Z" fill="#FFA12B"/>
<path fill-rule="evenodd" clip-rule="evenodd" d="M181 99.75V96H184.75V99.75H181Z" fill="#FFA12B"/>
<path fill-rule="evenodd" clip-rule="evenodd" d="M196 99.75H192.25H188.5V96H192.25H196V99.75Z" fill="#FFA12B"/>
<path fill-rule="evenodd" clip-rule="evenodd" d="M151 99.75V103.5H154.75V107.25H151H147.25H143.5H139.75V103.5H143.5V99.75H147.25H151Z" fill="#FFA12B"/>
<path fill-rule="evenodd" clip-rule="evenodd" d="M196 99.75H203.5V103.5V107.25H199.75H196H192.25H188.5H184.75H181H177.25V103.5H188.5H192.25H196V99.75Z" fill="#FFA12B"/>
<path fill-rule="evenodd" clip-rule="evenodd" d="M207.25 103.5V99.75H211H214.75V103.5H211V107.25H207.25V103.5Z" fill="#FFA12B"/>
<path fill-rule="evenodd" clip-rule="evenodd" d="M117.25 107.25V103.5H121V107.25H117.25Z" fill="#FFA12B"/>
<path fill-rule="evenodd" clip-rule="evenodd" d="M166 103.5H169.75H173.5V107.25H162.25H158.5V103.5H162.25H166Z" fill="#FFA12B"/>
<path fill-rule="evenodd" clip-rule="evenodd" d="M113.5 114.752V111.002H117.25V114.752H113.5Z" fill="#FFA12B"/>
<path fill-rule="evenodd" clip-rule="evenodd" d="M113.5 126V122.25H117.25V126H113.5Z" fill="#FFA12B"/>
<path fill-rule="evenodd" clip-rule="evenodd" d="M229.75 129.75V137.25V141V144.75H226V137.25V133.5V129.75H229.75Z" fill="#FFA12B"/>
<path fill-rule="evenodd" clip-rule="evenodd" d="M113.5 144.75V141H117.25V144.75H113.5Z" fill="#FFA12B"/>
<path fill-rule="evenodd" clip-rule="evenodd" d="M87.25 148.502V144.752H91V148.502H87.25Z" fill="#FFA12B"/>
<path fill-rule="evenodd" clip-rule="evenodd" d="M113.5 152.25V148.5H117.25V152.25H113.5Z" fill="#FFA12B"/>
<path fill-rule="evenodd" clip-rule="evenodd" d="M226 152.25V148.5H229.75V152.25H226Z" fill="#FFA12B"/>
<path fill-rule="evenodd" clip-rule="evenodd" d="M244.75 152.25V148.5H248.5V152.25H244.75Z" fill="#FFA12B"/>
<path fill-rule="evenodd" clip-rule="evenodd" d="M102.25 156V152.25H106H109.75V156H106H102.25Z" fill="#FFA12B"/>
<path fill-rule="evenodd" clip-rule="evenodd" d="M244.75 152.25V156H241H237.25V152.25H241H244.75Z" fill="#FFA12B"/>
<path fill-rule="evenodd" clip-rule="evenodd" d="M139.75 167.25V163.5H143.5V167.25H139.75Z" fill="#FFA12B"/>
<path fill-rule="evenodd" clip-rule="evenodd" d="M211 171V167.25H214.75V171H211Z" fill="#FFA12B"/>
<path fill-rule="evenodd" clip-rule="evenodd" d="M162.25 84.752H173.5V88.502H169.75V92.252H166H162.25H158.5H154.75V88.502H158.5H162.25V84.752Z" fill="#FAF1D4"/>
<path fill-rule="evenodd" clip-rule="evenodd" d="M188.5 84.752H196V88.502H192.25H188.5V84.752Z" fill="#FAF1D4"/>
<path fill-rule="evenodd" clip-rule="evenodd" d="M136 96H132.25H128.5V92.25H124.75V88.5H128.5H132.25V92.25H136V96Z" fill="#FAF1D4"/>
<path fill-rule="evenodd" clip-rule="evenodd" d="M177.25 92.25V88.5H181V92.25H177.25Z" fill="#FAF1D4"/>
<path fill-rule="evenodd" clip-rule="evenodd" d="M113.5 96.002V92.252H117.25H121V96.002H117.25H113.5Z" fill="#FAF1D4"/>
<path fill-rule="evenodd" clip-rule="evenodd" d="M169.75 92.252H177.25V96.002H173.5H169.75V92.252Z" fill="#FAF1D4"/>
<path fill-rule="evenodd" clip-rule="evenodd" d="M181 96.002V92.252H192.25H196H199.75V96.002H203.5V99.752H196V96.002H192.25H188.5V99.752H184.75V96.002H181Z" fill="#FAF1D4"/>
<path fill-rule="evenodd" clip-rule="evenodd" d="M136 96H147.25H151V99.75H147.25H143.5V103.5H139.75V99.75H136V96Z" fill="#FAF1D4"/>
<path fill-rule="evenodd" clip-rule="evenodd" d="M162.25 99.75H158.5V96H162.25V99.75Z" fill="#FAF1D4"/>
<path fill-rule="evenodd" clip-rule="evenodd" d="M177.25 96H181V99.75H177.25V96Z" fill="#FAF1D4"/>
<path fill-rule="evenodd" clip-rule="evenodd" d="M124.75 103.5H121H117.25H113.5V99.75H124.75V103.5Z" fill="#FAF1D4"/>
<path fill-rule="evenodd" clip-rule="evenodd" d="M162.25 99.75H166V103.5H162.25V99.75Z" fill="#FAF1D4"/>
<path fill-rule="evenodd" clip-rule="evenodd" d="M181 99.75H184.75V103.5H181V99.75Z" fill="#FAF1D4"/>
<path fill-rule="evenodd" clip-rule="evenodd" d="M196 99.75V103.5H192.25V99.75H196Z" fill="#FAF1D4"/>
<path fill-rule="evenodd" clip-rule="evenodd" d="M203.5 99.75H207.25V103.5H203.5V99.75Z" fill="#FAF1D4"/>
<path fill-rule="evenodd" clip-rule="evenodd" d="M218.5 103.5H214.75V99.75H218.5V103.5Z" fill="#FAF1D4"/>
<path fill-rule="evenodd" clip-rule="evenodd" d="M124.75 103.5H128.5H132.25V107.25H128.5H124.75V103.5Z" fill="#FAF1D4"/>
<path fill-rule="evenodd" clip-rule="evenodd" d="M139.75 103.5V107.25H136V103.5H139.75Z" fill="#FAF1D4"/>
<path fill-rule="evenodd" clip-rule="evenodd" d="M154.75 107.25V103.5H158.5V107.25H154.75Z" fill="#FAF1D4"/>
<path fill-rule="evenodd" clip-rule="evenodd" d="M173.5 107.25V103.5H177.25V107.25H173.5Z" fill="#FAF1D4"/>
<path fill-rule="evenodd" clip-rule="evenodd" d="M218.5 103.5H222.25H226V107.25H222.25H218.5V103.5Z" fill="#FAF1D4"/>
<path fill-rule="evenodd" clip-rule="evenodd" d="M113.5 110.998V107.248H117.25V110.998H113.5Z" fill="#FAF1D4"/>
<path fill-rule="evenodd" clip-rule="evenodd" d="M226 114.752V111.002H229.75V114.752H226Z" fill="#FAF1D4"/>
<path fill-rule="evenodd" clip-rule="evenodd" d="M113.5 122.25V118.5H117.25V122.25H113.5Z" fill="#FAF1D4"/>
<path fill-rule="evenodd" clip-rule="evenodd" d="M229.75 129.75H226V126V122.25H229.75V126V129.75Z" fill="#FAF1D4"/>
<path fill-rule="evenodd" clip-rule="evenodd" d="M113.5 133.5V129.75H117.25V133.5V137.25H113.5V133.5Z" fill="#FAF1D4"/>
<path fill-rule="evenodd" clip-rule="evenodd" d="M229.75 129.75H233.5V133.5H229.75V129.75Z" fill="#FAF1D4"/>
<path fill-rule="evenodd" clip-rule="evenodd" d="M229.75 141V137.25H233.5V141H229.75Z" fill="#FAF1D4"/>
<path fill-rule="evenodd" clip-rule="evenodd" d="M87.25 144.75V141H91V144.75H87.25Z" fill="#FAF1D4"/>
<path fill-rule="evenodd" clip-rule="evenodd" d="M113.5 144.75H109.75V141H113.5V144.75Z" fill="#FAF1D4"/>
<path fill-rule="evenodd" clip-rule="evenodd" d="M68.5 148.502V144.752H72.25V148.502H68.5Z" fill="#FAF1D4"/>
<path fill-rule="evenodd" clip-rule="evenodd" d="M87.25 144.752V148.502H83.5V144.752H87.25Z" fill="#FAF1D4"/>
<path fill-rule="evenodd" clip-rule="evenodd" d="M113.5 144.752H117.25V148.502H113.5V144.752Z" fill="#FAF1D4"/>
<path fill-rule="evenodd" clip-rule="evenodd" d="M229.75 148.502H226V144.752H229.75V148.502Z" fill="#FAF1D4"/>
<path fill-rule="evenodd" clip-rule="evenodd" d="M244.75 148.502V152.252H241V148.502H237.25V144.752H241H244.75V148.502Z" fill="#FAF1D4"/>
<path fill-rule="evenodd" clip-rule="evenodd" d="M106 152.25V148.5H109.75V152.25H106Z" fill="#FAF1D4"/>
<path fill-rule="evenodd" clip-rule="evenodd" d="M229.75 148.5H233.5V152.25H229.75V148.5Z" fill="#FAF1D4"/>
<path fill-rule="evenodd" clip-rule="evenodd" d="M233.5 152.25H237.25V156H233.5V152.25Z" fill="#FAF1D4"/>
<path fill-rule="evenodd" clip-rule="evenodd" d="M256 156H252.25V152.25H256V156Z" fill="#FAF1D4"/>
<path fill-rule="evenodd" clip-rule="evenodd" d="M256 156H259.75V159.75H256V156Z" fill="#FAF1D4"/>
<path fill-rule="evenodd" clip-rule="evenodd" d="M267.25 156V159.75H263.5V156H267.25Z" fill="#FAF1D4"/>
<path fill-rule="evenodd" clip-rule="evenodd" d="M136 163.502H132.25H128.5V159.752H132.25H136V163.502Z" fill="#FAF1D4"/>
<path fill-rule="evenodd" clip-rule="evenodd" d="M139.75 163.502V159.752H143.5H147.25V163.502H143.5H139.75Z" fill="#FAF1D4"/>
<path fill-rule="evenodd" clip-rule="evenodd" d="M136 163.5H139.75V167.25H136V163.5Z" fill="#FAF1D4"/>
<path fill-rule="evenodd" clip-rule="evenodd" d="M128.5 171V167.25H132.25V171H128.5Z" fill="#FAF1D4"/>
<path fill-rule="evenodd" clip-rule="evenodd" d="M203.5 171V167.25H207.25H211V171H203.5Z" fill="#FAF1D4"/>
<path fill-rule="evenodd" clip-rule="evenodd" d="M166 81H181V84.75H169.75H166V81Z" fill="#FFC729"/>
<path fill-rule="evenodd" clip-rule="evenodd" d="M124.75 88.502V84.752H128.5H132.25H136V88.502H124.75Z" fill="#FFC729"/>
<path fill-rule="evenodd" clip-rule="evenodd" d="M154.75 88.502V84.752H158.5H162.25V88.502H158.5H154.75Z" fill="#FFC729"/>
<path fill-rule="evenodd" clip-rule="evenodd" d="M181 84.752H184.75H188.5V88.502H184.75H181V84.752Z" fill="#FFC729"/>
<path fill-rule="evenodd" clip-rule="evenodd" d="M188.5 88.502H192.25H196V84.752H199.75V88.502V92.252H196H192.25H188.5V88.502Z" fill="#FFC729"/>
<path fill-rule="evenodd" clip-rule="evenodd" d="M124.75 88.5V92.25H121H117.25V88.5H121H124.75Z" fill="#FFC729"/>
<path fill-rule="evenodd" clip-rule="evenodd" d="M177.25 92.25H173.5H169.75V88.5H173.5H177.25V92.25Z" fill="#FFC729"/>
<path fill-rule="evenodd" clip-rule="evenodd" d="M136 92.252H139.75H143.5H147.25V96.002H143.5H139.75H136V92.252Z" fill="#FFC729"/>
<path fill-rule="evenodd" clip-rule="evenodd" d="M158.5 92.252H162.25H166V96.002H154.75H151V92.252H154.75H158.5Z" fill="#FFC729"/>
<path fill-rule="evenodd" clip-rule="evenodd" d="M177.25 92.252H181V96.002H177.25V92.252Z" fill="#FFC729"/>
<path fill-rule="evenodd" clip-rule="evenodd" d="M124.75 99.75H121H117.25H113.5H109.75V96H124.75V99.75Z" fill="#FFC729"/>
<path fill-rule="evenodd" clip-rule="evenodd" d="M203.5 99.75V96H207.25H211V99.75H207.25H203.5Z" fill="#FFC729"/>
<path fill-rule="evenodd" clip-rule="evenodd" d="M124.75 103.5V99.75H136H139.75V103.5H136V107.25H132.25V103.5H128.5H124.75Z" fill="#FFC729"/>
<path fill-rule="evenodd" clip-rule="evenodd" d="M151 99.75H154.75H158.5H162.25V103.5H158.5H154.75H151V99.75Z" fill="#FFC729"/>
<path fill-rule="evenodd" clip-rule="evenodd" d="M173.5 99.75H177.25H181V103.5H169.75H166V99.75H169.75H173.5Z" fill="#FFC729"/>
<path fill-rule="evenodd" clip-rule="evenodd" d="M184.75 103.5V99.75H188.5H192.25V103.5H188.5H184.75Z" fill="#FFC729"/>
<path fill-rule="evenodd" clip-rule="evenodd" d="M218.5 103.5V99.75H222.25H226V103.5H218.5Z" fill="#FFC729"/>
<path fill-rule="evenodd" clip-rule="evenodd" d="M113.5 107.25V103.5H117.25V107.25H113.5Z" fill="#FFC729"/>
<path fill-rule="evenodd" clip-rule="evenodd" d="M124.75 103.5V107.25H121V103.5H124.75Z" fill="#FFC729"/>
<path fill-rule="evenodd" clip-rule="evenodd" d="M203.5 107.25V103.5H207.25V107.25H203.5Z" fill="#FFC729"/>
<path fill-rule="evenodd" clip-rule="evenodd" d="M218.5 103.5V107.25H214.75H211V103.5H214.75H218.5Z" fill="#FFC729"/>
<path fill-rule="evenodd" clip-rule="evenodd" d="M226 103.5H229.75V107.25V111H226V107.25V103.5Z" fill="#FFC729"/>
<path fill-rule="evenodd" clip-rule="evenodd" d="M109.75 114.752V111.002H113.5V114.752H117.25V118.502H113.5H109.75V114.752Z" fill="#FFC729"/>
<path fill-rule="evenodd" clip-rule="evenodd" d="M226 118.5V114.75H229.75V118.5V122.25H226V118.5Z" fill="#FFC729"/>
<path fill-rule="evenodd" clip-rule="evenodd" d="M113.5 129.752V126.002H117.25V129.752H113.5Z" fill="#FFC729"/>
<path fill-rule="evenodd" clip-rule="evenodd" d="M233.5 129.752H229.75V126.002H233.5V129.752Z" fill="#FFC729"/>
<path fill-rule="evenodd" clip-rule="evenodd" d="M113.5 129.75V133.5H109.75V129.75H113.5Z" fill="#FFC729"/>
<path fill-rule="evenodd" clip-rule="evenodd" d="M233.5 133.5V129.75H237.25V133.5H233.5Z" fill="#FFC729"/>
<path fill-rule="evenodd" clip-rule="evenodd" d="M233.5 133.502V137.252H229.75V133.502H233.5Z" fill="#FFC729"/>
<path fill-rule="evenodd" clip-rule="evenodd" d="M91 141H87.25V137.25H91V141Z" fill="#FFC729"/>
<path fill-rule="evenodd" clip-rule="evenodd" d="M109.75 141V137.25H113.5H117.25V141H113.5H109.75Z" fill="#FFC729"/>
<path fill-rule="evenodd" clip-rule="evenodd" d="M90.9998 141H94.7498H98.4998V144.75H94.7498H90.9998V141Z" fill="#FFC729"/>
<path fill-rule="evenodd" clip-rule="evenodd" d="M64.75 148.502V144.752H68.5V148.502H64.75Z" fill="#FFC729"/>
<path fill-rule="evenodd" clip-rule="evenodd" d="M79.75 148.502V144.752H83.5V148.502H79.75Z" fill="#FFC729"/>
<path fill-rule="evenodd" clip-rule="evenodd" d="M106 148.502V144.752H109.75H113.5V148.502V152.252H109.75V148.502H106Z" fill="#FFC729"/>
<path fill-rule="evenodd" clip-rule="evenodd" d="M233.5 148.502H229.75V144.752H233.5V148.502Z" fill="#FFC729"/>
<path fill-rule="evenodd" clip-rule="evenodd" d="M248.5 148.502H244.75V144.752H248.5V148.502Z" fill="#FFC729"/>
<path fill-rule="evenodd" clip-rule="evenodd" d="M102.25 152.25V148.5H106V152.25H102.25Z" fill="#FFC729"/>
<path fill-rule="evenodd" clip-rule="evenodd" d="M233.5 148.5H237.25H241V152.25H237.25H233.5V148.5Z" fill="#FFC729"/>
<path fill-rule="evenodd" clip-rule="evenodd" d="M248.5 148.5H252.25H256V152.25H252.25H248.5V148.5Z" fill="#FFC729"/>
<path fill-rule="evenodd" clip-rule="evenodd" d="M102.25 152.25V156H98.5V152.25H102.25Z" fill="#FFC729"/>
<path fill-rule="evenodd" clip-rule="evenodd" d="M136 163.5V159.75H132.25V156H136H143.5V159.75H139.75V163.5H136Z" fill="#FFC729"/>
<path fill-rule="evenodd" clip-rule="evenodd" d="M263.5 156V159.75H259.75V156H263.5Z" fill="#FFC729"/>
<path fill-rule="evenodd" clip-rule="evenodd" d="M128.5 163.502H124.75V159.752H128.5V163.502Z" fill="#FFC729"/>
<path fill-rule="evenodd" clip-rule="evenodd" d="M128.5 167.25V163.5H136V167.25H132.25H128.5Z" fill="#FFC729"/>
<path fill-rule="evenodd" clip-rule="evenodd" d="M124.75 171V167.25H128.5V171H124.75Z" fill="#FFC729"/>
<path fill-rule="evenodd" clip-rule="evenodd" d="M196 171V167.25H199.75H203.5V171H196Z" fill="#FFC729"/>
<path fill-rule="evenodd" clip-rule="evenodd" d="M214.75 171V167.25H218.5V171H214.75Z" fill="#FFC729"/>
<mask id="path-215-outside-1_1017_7250" maskUnits="userSpaceOnUse" x="106" y="117" width="131" height="28" fill="black">
<rect fill="white" x="106" y="117" width="131" height="28"/>
<path d="M111.92 124.639V120.364H118.612V124.639H111.92ZM123.063 124.639V141H109.709V136.725H118.612V124.639H123.063ZM141.504 124.639V141H137.052V135.369H130.744V141H126.292V120.364H137.052V124.639H130.744V131.065H137.052V124.639H141.504ZM149.227 136.725H159.603V141H144.775V120.364H155.535V124.639H149.227V136.725ZM155.535 128.943V124.639H159.987V128.943H155.535ZM162.711 141V120.364H167.162V128.53H173.441V132.834H167.162V141H162.711ZM178.011 120.364V128.53H173.441V120.364H178.011ZM173.441 141V132.834H178.011V141H173.441ZM196.96 124.639V135.369H185.846V141H181.394V120.364H192.508V124.639H185.846V131.065H192.508V124.639H196.96ZM215.119 124.639V141H204.005V136.725H199.553V120.364H210.667V124.639H204.005V136.725H210.667V124.639H215.119ZM232.744 120.364V124.639H227.054V141H222.603V124.639H216.884V120.364H232.744Z"/>
</mask>
<path d="M111.92 124.639V120.364H118.612V124.639H111.92ZM123.063 124.639V141H109.709V136.725H118.612V124.639H123.063ZM141.504 124.639V141H137.052V135.369H130.744V141H126.292V120.364H137.052V124.639H130.744V131.065H137.052V124.639H141.504ZM149.227 136.725H159.603V141H144.775V120.364H155.535V124.639H149.227V136.725ZM155.535 128.943V124.639H159.987V128.943H155.535ZM162.711 141V120.364H167.162V128.53H173.441V132.834H167.162V141H162.711ZM178.011 120.364V128.53H173.441V120.364H178.011ZM173.441 141V132.834H178.011V141H173.441ZM196.96 124.639V135.369H185.846V141H181.394V120.364H192.508V124.639H185.846V131.065H192.508V124.639H196.96ZM215.119 124.639V141H204.005V136.725H199.553V120.364H210.667V124.639H204.005V136.725H210.667V124.639H215.119ZM232.744 120.364V124.639H227.054V141H222.603V124.639H216.884V120.364H232.744Z" fill="black"/>
<path d="M111.92 124.639H108.617V127.942H111.92V124.639ZM111.92 120.364V117.061H108.617V120.364H111.92ZM118.612 120.364H121.915V117.061H118.612V120.364ZM118.612 124.639V127.942H121.915V124.639H118.612ZM123.063 124.639H126.366V121.336H123.063V124.639ZM123.063 141V144.303H126.366V141H123.063ZM109.709 141H106.406V144.303H109.709V141ZM109.709 136.725V133.423H106.406V136.725H109.709ZM118.612 136.725V140.028H121.915V136.725H118.612ZM118.612 124.639V121.336H115.309V124.639H118.612ZM115.223 124.639V120.364H108.617V124.639H115.223ZM111.92 123.667H118.612V117.061H111.92V123.667ZM115.309 120.364V124.639H121.915V120.364H115.309ZM118.612 121.336H111.92V127.942H118.612V121.336ZM119.76 124.639V141H126.366V124.639H119.76ZM123.063 137.697H109.709V144.303H123.063V137.697ZM113.012 141V136.725H106.406V141H113.012ZM109.709 140.028H118.612V133.423H109.709V140.028ZM121.915 136.725V124.639H115.309V136.725H121.915ZM118.612 127.942H123.063V121.336H118.612V127.942ZM141.504 124.639H144.806V121.336H141.504V124.639ZM141.504 141V144.303H144.806V141H141.504ZM137.052 141H133.749V144.303H137.052V141ZM137.052 135.369H140.355V132.067H137.052V135.369ZM130.744 135.369V132.067H127.441V135.369H130.744ZM130.744 141V144.303H134.046V141H130.744ZM126.292 141H122.989V144.303H126.292V141ZM126.292 120.364V117.061H122.989V120.364H126.292ZM137.052 120.364H140.355V117.061H137.052V120.364ZM137.052 124.639V127.942H140.355V124.639H137.052ZM130.744 124.639V121.336H127.441V124.639H130.744ZM130.744 131.065H127.441V134.368H130.744V131.065ZM137.052 131.065V134.368H140.355V131.065H137.052ZM137.052 124.639V121.336H133.749V124.639H137.052ZM138.201 124.639V141H144.806V124.639H138.201ZM141.504 137.697H137.052V144.303H141.504V137.697ZM140.355 141V135.369H133.749V141H140.355ZM137.052 132.067H130.744V138.672H137.052V132.067ZM127.441 135.369V141H134.046V135.369H127.441ZM130.744 137.697H126.292V144.303H130.744V137.697ZM129.595 141V120.364H122.989V141H129.595ZM126.292 123.667H137.052V117.061H126.292V123.667ZM133.749 120.364V124.639H140.355V120.364H133.749ZM137.052 121.336H130.744V127.942H137.052V121.336ZM127.441 124.639V131.065H134.046V124.639H127.441ZM130.744 134.368H137.052V127.763H130.744V134.368ZM140.355 131.065V124.639H133.749V131.065H140.355ZM137.052 127.942H141.504V121.336H137.052V127.942ZM149.227 136.725H145.924V140.028H149.227V136.725ZM159.603 136.725H162.906V133.423H159.603V136.725ZM159.603 141V144.303H162.906V141H159.603ZM144.775 141H141.472V144.303H144.775V141ZM144.775 120.364V117.061H141.472V120.364H144.775ZM155.535 120.364H158.838V117.061H155.535V120.364ZM155.535 124.639V127.942H158.838V124.639H155.535ZM149.227 124.639V121.336H145.924V124.639H149.227ZM155.535 128.943H152.233V132.246H155.535V128.943ZM155.535 124.639V121.336H152.233V124.639H155.535ZM159.987 124.639H163.289V121.336H159.987V124.639ZM159.987 128.943V132.246H163.289V128.943H159.987ZM149.227 140.028H159.603V133.423H149.227V140.028ZM156.301 136.725V141H162.906V136.725H156.301ZM159.603 137.697H144.775V144.303H159.603V137.697ZM148.078 141V120.364H141.472V141H148.078ZM144.775 123.667H155.535V117.061H144.775V123.667ZM152.233 120.364V124.639H158.838V120.364H152.233ZM155.535 121.336H149.227V127.942H155.535V121.336ZM145.924 124.639V136.725H152.529V124.639H145.924ZM158.838 128.943V124.639H152.233V128.943H158.838ZM155.535 127.942H159.987V121.336H155.535V127.942ZM156.684 124.639V128.943H163.289V124.639H156.684ZM159.987 125.64H155.535V132.246H159.987V125.64ZM162.711 141H159.408V144.303H162.711V141ZM162.711 120.364V117.061H159.408V120.364H162.711ZM167.162 120.364H170.465V117.061H167.162V120.364ZM167.162 128.53H163.859V131.833H167.162V128.53ZM173.441 128.53H176.744V125.227H173.441V128.53ZM173.441 132.834V136.137H176.744V132.834H173.441ZM167.162 132.834V129.531H163.859V132.834H167.162ZM167.162 141V144.303H170.465V141H167.162ZM178.011 120.364H181.313V117.061H178.011V120.364ZM178.011 128.53V131.833H181.313V128.53H178.011ZM173.441 128.53H170.138V131.833H173.441V128.53ZM173.441 120.364V117.061H170.138V120.364H173.441ZM173.441 141H170.138V144.303H173.441V141ZM173.441 132.834V129.531H170.138V132.834H173.441ZM178.011 132.834H181.313V129.531H178.011V132.834ZM178.011 141V144.303H181.313V141H178.011ZM166.013 141V120.364H159.408V141H166.013ZM162.711 123.667H167.162V117.061H162.711V123.667ZM163.859 120.364V128.53H170.465V120.364H163.859ZM167.162 131.833H173.441V125.227H167.162V131.833ZM170.138 128.53V132.834H176.744V128.53H170.138ZM173.441 129.531H167.162V136.137H173.441V129.531ZM163.859 132.834V141H170.465V132.834H163.859ZM167.162 137.697H162.711V144.303H167.162V137.697ZM174.708 120.364V128.53H181.313V120.364H174.708ZM178.011 125.227H173.441V131.833H178.011V125.227ZM176.744 128.53V120.364H170.138V128.53H176.744ZM173.441 123.667H178.011V117.061H173.441V123.667ZM176.744 141V132.834H170.138V141H176.744ZM173.441 136.137H178.011V129.531H173.441V136.137ZM174.708 132.834V141H181.313V132.834H174.708ZM178.011 137.697H173.441V144.303H178.011V137.697ZM196.96 124.639H200.262V121.336H196.96V124.639ZM196.96 135.369V138.672H200.262V135.369H196.96ZM185.846 135.369V132.067H182.543V135.369H185.846ZM185.846 141V144.303H189.149V141H185.846ZM181.394 141H178.092V144.303H181.394V141ZM181.394 120.364V117.061H178.092V120.364H181.394ZM192.508 120.364H195.811V117.061H192.508V120.364ZM192.508 124.639V127.942H195.811V124.639H192.508ZM185.846 124.639V121.336H182.543V124.639H185.846ZM185.846 131.065H182.543V134.368H185.846V131.065ZM192.508 131.065V134.368H195.811V131.065H192.508ZM192.508 124.639V121.336H189.206V124.639H192.508ZM193.657 124.639V135.369H200.262V124.639H193.657ZM196.96 132.067H185.846V138.672H196.96V132.067ZM182.543 135.369V141H189.149V135.369H182.543ZM185.846 137.697H181.394V144.303H185.846V137.697ZM184.697 141V120.364H178.092V141H184.697ZM181.394 123.667H192.508V117.061H181.394V123.667ZM189.206 120.364V124.639H195.811V120.364H189.206ZM192.508 121.336H185.846V127.942H192.508V121.336ZM182.543 124.639V131.065H189.149V124.639H182.543ZM185.846 134.368H192.508V127.763H185.846V134.368ZM195.811 131.065V124.639H189.206V131.065H195.811ZM192.508 127.942H196.96V121.336H192.508V127.942ZM215.119 124.639H218.421V121.336H215.119V124.639ZM215.119 141V144.303H218.421V141H215.119ZM204.005 141H200.702V144.303H204.005V141ZM204.005 136.725H207.307V133.423H204.005V136.725ZM199.553 136.725H196.251V140.028H199.553V136.725ZM199.553 120.364V117.061H196.251V120.364H199.553ZM210.667 120.364H213.97V117.061H210.667V120.364ZM210.667 124.639V127.942H213.97V124.639H210.667ZM204.005 124.639V121.336H200.702V124.639H204.005ZM204.005 136.725H200.702V140.028H204.005V136.725ZM210.667 136.725V140.028H213.97V136.725H210.667ZM210.667 124.639V121.336H207.364V124.639H210.667ZM211.816 124.639V141H218.421V124.639H211.816ZM215.119 137.697H204.005V144.303H215.119V137.697ZM207.307 141V136.725H200.702V141H207.307ZM204.005 133.423H199.553V140.028H204.005V133.423ZM202.856 136.725V120.364H196.251V136.725H202.856ZM199.553 123.667H210.667V117.061H199.553V123.667ZM207.364 120.364V124.639H213.97V120.364H207.364ZM210.667 121.336H204.005V127.942H210.667V121.336ZM200.702 124.639V136.725H207.307V124.639H200.702ZM204.005 140.028H210.667V133.423H204.005V140.028ZM213.97 136.725V124.639H207.364V136.725H213.97ZM210.667 127.942H215.119V121.336H210.667V127.942ZM232.744 120.364H236.047V117.061H232.744V120.364ZM232.744 124.639V127.942H236.047V124.639H232.744ZM227.054 124.639V121.336H223.752V124.639H227.054ZM227.054 141V144.303H230.357V141H227.054ZM222.603 141H219.3V144.303H222.603V141ZM222.603 124.639H225.906V121.336H222.603V124.639ZM216.884 124.639H213.581V127.942H216.884V124.639ZM216.884 120.364V117.061H213.581V120.364H216.884ZM229.441 120.364V124.639H236.047V120.364H229.441ZM232.744 121.336H227.054V127.942H232.744V121.336ZM223.752 124.639V141H230.357V124.639H223.752ZM227.054 137.697H222.603V144.303H227.054V137.697ZM225.906 141V124.639H219.3V141H225.906ZM222.603 121.336H216.884V127.942H222.603V121.336ZM220.187 124.639V120.364H213.581V124.639H220.187ZM216.884 123.667H232.744V117.061H216.884V123.667Z" fill="#FFC729" mask="url(#path-215-outside-1_1017_7250)"/>
</g>
<mask id="path-217-outside-2_1017_7250" maskUnits="userSpaceOnUse" x="241" y="102" width="94" height="34" fill="black">
<rect fill="white" x="241" y="102" width="94" height="34"/>
<path d="M260.723 114.26H256.301V111.312H254.09V117.208H257.775V120.156H260.723V126.052H257.775V129H254.09V131.948H249.668V129H247.457V126.052H244.509V123.104H248.931V126.052H249.668V120.156H247.457V117.208H244.509V111.312H247.457V108.364H249.668V105.416H254.09V108.364H257.775V111.312H260.723V114.26ZM249.668 117.208V111.312H248.931V117.208H249.668ZM254.09 120.156V126.052H256.301V120.156H254.09ZM271.052 126.052H274V129H263.682V126.052H266.63V114.26H263.682V111.312H266.63V108.364H271.052V126.052ZM290.22 111.312H293.168V126.052H290.22V129H279.902V126.052H276.954V111.312H279.902V108.364H290.22V111.312ZM288.746 111.312H281.376V126.052H288.746V111.312ZM309.393 111.312H312.341V126.052H309.393V129H299.075V126.052H296.127V111.312H299.075V108.364H309.393V111.312ZM307.919 111.312H300.549V126.052H307.919V111.312ZM328.567 111.312H331.515V126.052H328.567V129H318.249V126.052H315.301V111.312H318.249V108.364H328.567V111.312ZM327.093 111.312H319.723V126.052H327.093V111.312Z"/>
</mask>
<path d="M260.723 114.26H256.301V111.312H254.09V117.208H257.775V120.156H260.723V126.052H257.775V129H254.09V131.948H249.668V129H247.457V126.052H244.509V123.104H248.931V126.052H249.668V120.156H247.457V117.208H244.509V111.312H247.457V108.364H249.668V105.416H254.09V108.364H257.775V111.312H260.723V114.26ZM249.668 117.208V111.312H248.931V117.208H249.668ZM254.09 120.156V126.052H256.301V120.156H254.09ZM271.052 126.052H274V129H263.682V126.052H266.63V114.26H263.682V111.312H266.63V108.364H271.052V126.052ZM290.22 111.312H293.168V126.052H290.22V129H279.902V126.052H276.954V111.312H279.902V108.364H290.22V111.312ZM288.746 111.312H281.376V126.052H288.746V111.312ZM309.393 111.312H312.341V126.052H309.393V129H299.075V126.052H296.127V111.312H299.075V108.364H309.393V111.312ZM307.919 111.312H300.549V126.052H307.919V111.312ZM328.567 111.312H331.515V126.052H328.567V129H318.249V126.052H315.301V111.312H318.249V108.364H328.567V111.312ZM327.093 111.312H319.723V126.052H327.093V111.312Z" fill="#FFC729"/>
<path d="M260.723 114.26V117.563H264.026V114.26H260.723ZM256.301 114.26H252.998V117.563H256.301V114.26ZM256.301 111.312H259.604V108.009H256.301V111.312ZM254.09 111.312V108.009H250.787V111.312H254.09ZM254.09 117.208H250.787V120.511H254.09V117.208ZM257.775 117.208H261.078V113.905H257.775V117.208ZM257.775 120.156H254.472V123.459H257.775V120.156ZM260.723 120.156H264.026V116.853H260.723V120.156ZM260.723 126.052V129.355H264.026V126.052H260.723ZM257.775 126.052V122.749H254.472V126.052H257.775ZM257.775 129V132.303H261.078V129H257.775ZM254.09 129V125.697H250.787V129H254.09ZM254.09 131.948V135.251H257.393V131.948H254.09ZM249.668 131.948H246.365V135.251H249.668V131.948ZM249.668 129H252.971V125.697H249.668V129ZM247.457 129H244.154V132.303H247.457V129ZM247.457 126.052H250.76V122.749H247.457V126.052ZM244.509 126.052H241.206V129.355H244.509V126.052ZM244.509 123.104V119.801H241.206V123.104H244.509ZM248.931 123.104H252.234V119.801H248.931V123.104ZM248.931 126.052H245.628V129.355H248.931V126.052ZM249.668 126.052V129.355H252.971V126.052H249.668ZM249.668 120.156H252.971V116.853H249.668V120.156ZM247.457 120.156H244.154V123.459H247.457V120.156ZM247.457 117.208H250.76V113.905H247.457V117.208ZM244.509 117.208H241.206V120.511H244.509V117.208ZM244.509 111.312V108.009H241.206V111.312H244.509ZM247.457 111.312V114.615H250.76V111.312H247.457ZM247.457 108.364V105.061H244.154V108.364H247.457ZM249.668 108.364V111.667H252.971V108.364H249.668ZM249.668 105.416V102.114H246.365V105.416H249.668ZM254.09 105.416H257.393V102.114H254.09V105.416ZM254.09 108.364H250.787V111.667H254.09V108.364ZM257.775 108.364H261.078V105.061H257.775V108.364ZM257.775 111.312H254.472V114.615H257.775V111.312ZM260.723 111.312H264.026V108.009H260.723V111.312ZM249.668 117.208V120.511H252.971V117.208H249.668ZM249.668 111.312H252.971V108.009H249.668V111.312ZM248.931 111.312V108.009H245.628V111.312H248.931ZM248.931 117.208H245.628V120.511H248.931V117.208ZM254.09 120.156V116.853H250.787V120.156H254.09ZM254.09 126.052H250.787V129.355H254.09V126.052ZM256.301 126.052V129.355H259.604V126.052H256.301ZM256.301 120.156H259.604V116.853H256.301V120.156ZM260.723 110.957H256.301V117.563H260.723V110.957ZM259.604 114.26V111.312H252.998V114.26H259.604ZM256.301 108.009H254.09V114.615H256.301V108.009ZM250.787 111.312V117.208H257.393V111.312H250.787ZM254.09 120.511H257.775V113.905H254.09V120.511ZM254.472 117.208V120.156H261.078V117.208H254.472ZM257.775 123.459H260.723V116.853H257.775V123.459ZM257.42 120.156V126.052H264.026V120.156H257.42ZM260.723 122.749H257.775V129.355H260.723V122.749ZM254.472 126.052V129H261.078V126.052H254.472ZM257.775 125.697H254.09V132.303H257.775V125.697ZM250.787 129V131.948H257.393V129H250.787ZM254.09 128.645H249.668V135.251H254.09V128.645ZM252.971 131.948V129H246.365V131.948H252.971ZM249.668 125.697H247.457V132.303H249.668V125.697ZM250.76 129V126.052H244.154V129H250.76ZM247.457 122.749H244.509V129.355H247.457V122.749ZM247.812 126.052V123.104H241.206V126.052H247.812ZM244.509 126.407H248.931V119.801H244.509V126.407ZM245.628 123.104V126.052H252.234V123.104H245.628ZM248.931 129.355H249.668V122.749H248.931V129.355ZM252.971 126.052V120.156H246.365V126.052H252.971ZM249.668 116.853H247.457V123.459H249.668V116.853ZM250.76 120.156V117.208H244.154V120.156H250.76ZM247.457 113.905H244.509V120.511H247.457V113.905ZM247.812 117.208V111.312H241.206V117.208H247.812ZM244.509 114.615H247.457V108.009H244.509V114.615ZM250.76 111.312V108.364H244.154V111.312H250.76ZM247.457 111.667H249.668V105.061H247.457V111.667ZM252.971 108.364V105.416H246.365V108.364H252.971ZM249.668 108.719H254.09V102.114H249.668V108.719ZM250.787 105.416V108.364H257.393V105.416H250.787ZM254.09 111.667H257.775V105.061H254.09V111.667ZM254.472 108.364V111.312H261.078V108.364H254.472ZM257.775 114.615H260.723V108.009H257.775V114.615ZM257.42 111.312V114.26H264.026V111.312H257.42ZM252.971 117.208V111.312H246.365V117.208H252.971ZM249.668 108.009H248.931V114.615H249.668V108.009ZM245.628 111.312V117.208H252.234V111.312H245.628ZM248.931 120.511H249.668V113.905H248.931V120.511ZM250.787 120.156V126.052H257.393V120.156H250.787ZM254.09 129.355H256.301V122.749H254.09V129.355ZM259.604 126.052V120.156H252.998V126.052H259.604ZM256.301 116.853H254.09V123.459H256.301V116.853ZM271.052 126.052H267.75V129.355H271.052V126.052ZM274 126.052H277.303V122.749H274V126.052ZM274 129V132.303H277.303V129H274ZM263.682 129H260.38V132.303H263.682V129ZM263.682 126.052V122.749H260.38V126.052H263.682ZM266.63 126.052V129.355H269.933V126.052H266.63ZM266.63 114.26H269.933V110.957H266.63V114.26ZM263.682 114.26H260.38V117.563H263.682V114.26ZM263.682 111.312V108.009H260.38V111.312H263.682ZM266.63 111.312V114.615H269.933V111.312H266.63ZM266.63 108.364V105.061H263.328V108.364H266.63ZM271.052 108.364H274.355V105.061H271.052V108.364ZM271.052 129.355H274V122.749H271.052V129.355ZM270.698 126.052V129H277.303V126.052H270.698ZM274 125.697H263.682V132.303H274V125.697ZM266.985 129V126.052H260.38V129H266.985ZM263.682 129.355H266.63V122.749H263.682V129.355ZM269.933 126.052V114.26H263.328V126.052H269.933ZM266.63 110.957H263.682V117.563H266.63V110.957ZM266.985 114.26V111.312H260.38V114.26H266.985ZM263.682 114.615H266.63V108.009H263.682V114.615ZM269.933 111.312V108.364H263.328V111.312H269.933ZM266.63 111.667H271.052V105.061H266.63V111.667ZM267.75 108.364V126.052H274.355V108.364H267.75ZM290.22 111.312H286.917V114.615H290.22V111.312ZM293.168 111.312H296.471V108.009H293.168V111.312ZM293.168 126.052V129.355H296.471V126.052H293.168ZM290.22 126.052V122.749H286.917V126.052H290.22ZM290.22 129V132.303H293.523V129H290.22ZM279.902 129H276.599V132.303H279.902V129ZM279.902 126.052H283.205V122.749H279.902V126.052ZM276.954 126.052H273.651V129.355H276.954V126.052ZM276.954 111.312V108.009H273.651V111.312H276.954ZM279.902 111.312V114.615H283.205V111.312H279.902ZM279.902 108.364V105.061H276.599V108.364H279.902ZM290.22 108.364H293.523V105.061H290.22V108.364ZM288.746 111.312H292.049V108.009H288.746V111.312ZM281.376 111.312V108.009H278.073V111.312H281.376ZM281.376 126.052H278.073V129.355H281.376V126.052ZM288.746 126.052V129.355H292.049V126.052H288.746ZM290.22 114.615H293.168V108.009H290.22V114.615ZM289.865 111.312V126.052H296.471V111.312H289.865ZM293.168 122.749H290.22V129.355H293.168V122.749ZM286.917 126.052V129H293.523V126.052H286.917ZM290.22 125.697H279.902V132.303H290.22V125.697ZM283.205 129V126.052H276.599V129H283.205ZM279.902 122.749H276.954V129.355H279.902V122.749ZM280.257 126.052V111.312H273.651V126.052H280.257ZM276.954 114.615H279.902V108.009H276.954V114.615ZM283.205 111.312V108.364H276.599V111.312H283.205ZM279.902 111.667H290.22V105.061H279.902V111.667ZM286.917 108.364V111.312H293.523V108.364H286.917ZM288.746 108.009H281.376V114.615H288.746V108.009ZM278.073 111.312V126.052H284.679V111.312H278.073ZM281.376 129.355H288.746V122.749H281.376V129.355ZM292.049 126.052V111.312H285.443V126.052H292.049ZM309.393 111.312H306.09V114.615H309.393V111.312ZM312.341 111.312H315.644V108.009H312.341V111.312ZM312.341 126.052V129.355H315.644V126.052H312.341ZM309.393 126.052V122.749H306.09V126.052H309.393ZM309.393 129V132.303H312.696V129H309.393ZM299.075 129H295.773V132.303H299.075V129ZM299.075 126.052H302.378V122.749H299.075V126.052ZM296.127 126.052H292.825V129.355H296.127V126.052ZM296.127 111.312V108.009H292.825V111.312H296.127ZM299.075 111.312V114.615H302.378V111.312H299.075ZM299.075 108.364V105.061H295.773V108.364H299.075ZM309.393 108.364H312.696V105.061H309.393V108.364ZM307.919 111.312H311.222V108.009H307.919V111.312ZM300.549 111.312V108.009H297.247V111.312H300.549ZM300.549 126.052H297.247V129.355H300.549V126.052ZM307.919 126.052V129.355H311.222V126.052H307.919ZM309.393 114.615H312.341V108.009H309.393V114.615ZM309.038 111.312V126.052H315.644V111.312H309.038ZM312.341 122.749H309.393V129.355H312.341V122.749ZM306.09 126.052V129H312.696V126.052H306.09ZM309.393 125.697H299.075V132.303H309.393V125.697ZM302.378 129V126.052H295.773V129H302.378ZM299.075 122.749H296.127V129.355H299.075V122.749ZM299.43 126.052V111.312H292.825V126.052H299.43ZM296.127 114.615H299.075V108.009H296.127V114.615ZM302.378 111.312V108.364H295.773V111.312H302.378ZM299.075 111.667H309.393V105.061H299.075V111.667ZM306.09 108.364V111.312H312.696V108.364H306.09ZM307.919 108.009H300.549V114.615H307.919V108.009ZM297.247 111.312V126.052H303.852V111.312H297.247ZM300.549 129.355H307.919V122.749H300.549V129.355ZM311.222 126.052V111.312H304.617V126.052H311.222ZM328.567 111.312H325.264V114.615H328.567V111.312ZM331.515 111.312H334.817V108.009H331.515V111.312ZM331.515 126.052V129.355H334.817V126.052H331.515ZM328.567 126.052V122.749H325.264V126.052H328.567ZM328.567 129V132.303H331.869V129H328.567ZM318.249 129H314.946V132.303H318.249V129ZM318.249 126.052H321.551V122.749H318.249V126.052ZM315.301 126.052H311.998V129.355H315.301V126.052ZM315.301 111.312V108.009H311.998V111.312H315.301ZM318.249 111.312V114.615H321.551V111.312H318.249ZM318.249 108.364V105.061H314.946V108.364H318.249ZM328.567 108.364H331.869V105.061H328.567V108.364ZM327.093 111.312H330.395V108.009H327.093V111.312ZM319.723 111.312V108.009H316.42V111.312H319.723ZM319.723 126.052H316.42V129.355H319.723V126.052ZM327.093 126.052V129.355H330.395V126.052H327.093ZM328.567 114.615H331.515V108.009H328.567V114.615ZM328.212 111.312V126.052H334.817V111.312H328.212ZM331.515 122.749H328.567V129.355H331.515V122.749ZM325.264 126.052V129H331.869V126.052H325.264ZM328.567 125.697H318.249V132.303H328.567V125.697ZM321.551 129V126.052H314.946V129H321.551ZM318.249 122.749H315.301V129.355H318.249V122.749ZM318.603 126.052V111.312H311.998V126.052H318.603ZM315.301 114.615H318.249V108.009H315.301V114.615ZM321.551 111.312V108.364H314.946V111.312H321.551ZM318.249 111.667H328.567V105.061H318.249V111.667ZM325.264 108.364V111.312H331.869V108.364H325.264ZM327.093 108.009H319.723V114.615H327.093V108.009ZM316.42 111.312V126.052H323.025V111.312H316.42ZM319.723 129.355H327.093V122.749H319.723V129.355ZM330.395 126.052V111.312H323.79V126.052H330.395Z" fill="black" mask="url(#path-217-outside-2_1017_7250)"/>
<mask id="path-219-outside-3_1017_7250" maskUnits="userSpaceOnUse" x="-2" y="102" width="94" height="34" fill="black">
<rect fill="white" x="-2" y="102" width="94" height="34"/>
<path d="M17.723 114.26H13.3011V111.312H11.0901V117.208H14.775V120.156H17.723V126.052H14.775V129H11.0901V131.948H6.66814V129H4.45717V126.052H1.5092V123.104H5.93115V126.052H6.66814V120.156H4.45717V117.208H1.5092V111.312H4.45717V108.364H6.66814V105.416H11.0901V108.364H14.775V111.312H17.723V114.26ZM6.66814 117.208V111.312H5.93115V117.208H6.66814ZM11.0901 120.156V126.052H13.3011V120.156H11.0901ZM28.0524 126.052H31.0004V129H20.6825V126.052H23.6305V114.26H20.6825V111.312H23.6305V108.364H28.0524V126.052ZM47.2199 111.312H50.1679V126.052H47.2199V129H36.9021V126.052H33.9541V111.312H36.9021V108.364H47.2199V111.312ZM45.746 111.312H38.376V126.052H45.746V111.312ZM66.3932 111.312H69.3412V126.052H66.3932V129H56.0754V126.052H53.1274V111.312H56.0754V108.364H66.3932V111.312ZM64.9193 111.312H57.5493V126.052H64.9193V111.312ZM85.5665 111.312H88.5145V126.052H85.5665V129H75.2487V126.052H72.3007V111.312H75.2487V108.364H85.5665V111.312ZM84.0926 111.312H76.7226V126.052H84.0926V111.312Z"/>
</mask>
<path d="M17.723 114.26H13.3011V111.312H11.0901V117.208H14.775V120.156H17.723V126.052H14.775V129H11.0901V131.948H6.66814V129H4.45717V126.052H1.5092V123.104H5.93115V126.052H6.66814V120.156H4.45717V117.208H1.5092V111.312H4.45717V108.364H6.66814V105.416H11.0901V108.364H14.775V111.312H17.723V114.26ZM6.66814 117.208V111.312H5.93115V117.208H6.66814ZM11.0901 120.156V126.052H13.3011V120.156H11.0901ZM28.0524 126.052H31.0004V129H20.6825V126.052H23.6305V114.26H20.6825V111.312H23.6305V108.364H28.0524V126.052ZM47.2199 111.312H50.1679V126.052H47.2199V129H36.9021V126.052H33.9541V111.312H36.9021V108.364H47.2199V111.312ZM45.746 111.312H38.376V126.052H45.746V111.312ZM66.3932 111.312H69.3412V126.052H66.3932V129H56.0754V126.052H53.1274V111.312H56.0754V108.364H66.3932V111.312ZM64.9193 111.312H57.5493V126.052H64.9193V111.312ZM85.5665 111.312H88.5145V126.052H85.5665V129H75.2487V126.052H72.3007V111.312H75.2487V108.364H85.5665V111.312ZM84.0926 111.312H76.7226V126.052H84.0926V111.312Z" fill="#FFC729"/>
<path d="M17.723 114.26V117.563H21.0258V114.26H17.723ZM13.3011 114.26H9.99831V117.563H13.3011V114.26ZM13.3011 111.312H16.6038V108.009H13.3011V111.312ZM11.0901 111.312V108.009H7.78734V111.312H11.0901ZM11.0901 117.208H7.78734V120.511H11.0901V117.208ZM14.775 117.208H18.0778V113.905H14.775V117.208ZM14.775 120.156H11.4723V123.459H14.775V120.156ZM17.723 120.156H21.0258V116.853H17.723V120.156ZM17.723 126.052V129.355H21.0258V126.052H17.723ZM14.775 126.052V122.749H11.4723V126.052H14.775ZM14.775 129V132.303H18.0778V129H14.775ZM11.0901 129V125.697H7.78734V129H11.0901ZM11.0901 131.948V135.251H14.3928V131.948H11.0901ZM6.66814 131.948H3.36539V135.251H6.66814V131.948ZM6.66814 129H9.97089V125.697H6.66814V129ZM4.45717 129H1.15441V132.303H4.45717V129ZM4.45717 126.052H7.75992V122.749H4.45717V126.052ZM1.5092 126.052H-1.79355V129.355H1.5092V126.052ZM1.5092 123.104V119.801H-1.79355V123.104H1.5092ZM5.93115 123.104H9.2339V119.801H5.93115V123.104ZM5.93115 126.052H2.6284V129.355H5.93115V126.052ZM6.66814 126.052V129.355H9.97089V126.052H6.66814ZM6.66814 120.156H9.97089V116.853H6.66814V120.156ZM4.45717 120.156H1.15441V123.459H4.45717V120.156ZM4.45717 117.208H7.75992V113.905H4.45717V117.208ZM1.5092 117.208H-1.79355V120.511H1.5092V117.208ZM1.5092 111.312V108.009H-1.79355V111.312H1.5092ZM4.45717 111.312V114.615H7.75992V111.312H4.45717ZM4.45717 108.364V105.061H1.15441V108.364H4.45717ZM6.66814 108.364V111.667H9.97089V108.364H6.66814ZM6.66814 105.416V102.114H3.36539V105.416H6.66814ZM11.0901 105.416H14.3928V102.114H11.0901V105.416ZM11.0901 108.364H7.78734V111.667H11.0901V108.364ZM14.775 108.364H18.0778V105.061H14.775V108.364ZM14.775 111.312H11.4723V114.615H14.775V111.312ZM17.723 111.312H21.0258V108.009H17.723V111.312ZM6.66814 117.208V120.511H9.97089V117.208H6.66814ZM6.66814 111.312H9.97089V108.009H6.66814V111.312ZM5.93115 111.312V108.009H2.6284V111.312H5.93115ZM5.93115 117.208H2.6284V120.511H5.93115V117.208ZM11.0901 120.156V116.853H7.78734V120.156H11.0901ZM11.0901 126.052H7.78734V129.355H11.0901V126.052ZM13.3011 126.052V129.355H16.6038V126.052H13.3011ZM13.3011 120.156H16.6038V116.853H13.3011V120.156ZM17.723 110.957H13.3011V117.563H17.723V110.957ZM16.6038 114.26V111.312H9.99831V114.26H16.6038ZM13.3011 108.009H11.0901V114.615H13.3011V108.009ZM7.78734 111.312V117.208H14.3928V111.312H7.78734ZM11.0901 120.511H14.775V113.905H11.0901V120.511ZM11.4723 117.208V120.156H18.0778V117.208H11.4723ZM14.775 123.459H17.723V116.853H14.775V123.459ZM14.4203 120.156V126.052H21.0258V120.156H14.4203ZM17.723 122.749H14.775V129.355H17.723V122.749ZM11.4723 126.052V129H18.0778V126.052H11.4723ZM14.775 125.697H11.0901V132.303H14.775V125.697ZM7.78734 129V131.948H14.3928V129H7.78734ZM11.0901 128.645H6.66814V135.251H11.0901V128.645ZM9.97089 131.948V129H3.36539V131.948H9.97089ZM6.66814 125.697H4.45717V132.303H6.66814V125.697ZM7.75992 129V126.052H1.15441V129H7.75992ZM4.45717 122.749H1.5092V129.355H4.45717V122.749ZM4.81195 126.052V123.104H-1.79355V126.052H4.81195ZM1.5092 126.407H5.93115V119.801H1.5092V126.407ZM2.6284 123.104V126.052H9.2339V123.104H2.6284ZM5.93115 129.355H6.66814V122.749H5.93115V129.355ZM9.97089 126.052V120.156H3.36539V126.052H9.97089ZM6.66814 116.853H4.45717V123.459H6.66814V116.853ZM7.75992 120.156V117.208H1.15441V120.156H7.75992ZM4.45717 113.905H1.5092V120.511H4.45717V113.905ZM4.81195 117.208V111.312H-1.79355V117.208H4.81195ZM1.5092 114.615H4.45717V108.009H1.5092V114.615ZM7.75992 111.312V108.364H1.15441V111.312H7.75992ZM4.45717 111.667H6.66814V105.061H4.45717V111.667ZM9.97089 108.364V105.416H3.36539V108.364H9.97089ZM6.66814 108.719H11.0901V102.114H6.66814V108.719ZM7.78734 105.416V108.364H14.3928V105.416H7.78734ZM11.0901 111.667H14.775V105.061H11.0901V111.667ZM11.4723 108.364V111.312H18.0778V108.364H11.4723ZM14.775 114.615H17.723V108.009H14.775V114.615ZM14.4203 111.312V114.26H21.0258V111.312H14.4203ZM9.97089 117.208V111.312H3.36539V117.208H9.97089ZM6.66814 108.009H5.93115V114.615H6.66814V108.009ZM2.6284 111.312V117.208H9.2339V111.312H2.6284ZM5.93115 120.511H6.66814V113.905H5.93115V120.511ZM7.78734 120.156V126.052H14.3928V120.156H7.78734ZM11.0901 129.355H13.3011V122.749H11.0901V129.355ZM16.6038 126.052V120.156H9.99831V126.052H16.6038ZM13.3011 116.853H11.0901V123.459H13.3011V116.853ZM28.0524 126.052H24.7497V129.355H28.0524V126.052ZM31.0004 126.052H34.3031V122.749H31.0004V126.052ZM31.0004 129V132.303H34.3031V129H31.0004ZM20.6825 129H17.3797V132.303H20.6825V129ZM20.6825 126.052V122.749H17.3797V126.052H20.6825ZM23.6305 126.052V129.355H26.9332V126.052H23.6305ZM23.6305 114.26H26.9332V110.957H23.6305V114.26ZM20.6825 114.26H17.3797V117.563H20.6825V114.26ZM20.6825 111.312V108.009H17.3797V111.312H20.6825ZM23.6305 111.312V114.615H26.9332V111.312H23.6305ZM23.6305 108.364V105.061H20.3277V108.364H23.6305ZM28.0524 108.364H31.3552V105.061H28.0524V108.364ZM28.0524 129.355H31.0004V122.749H28.0524V129.355ZM27.6976 126.052V129H34.3031V126.052H27.6976ZM31.0004 125.697H20.6825V132.303H31.0004V125.697ZM23.9852 129V126.052H17.3797V129H23.9852ZM20.6825 129.355H23.6305V122.749H20.6825V129.355ZM26.9332 126.052V114.26H20.3277V126.052H26.9332ZM23.6305 110.957H20.6825V117.563H23.6305V110.957ZM23.9852 114.26V111.312H17.3797V114.26H23.9852ZM20.6825 114.615H23.6305V108.009H20.6825V114.615ZM26.9332 111.312V108.364H20.3277V111.312H26.9332ZM23.6305 111.667H28.0524V105.061H23.6305V111.667ZM24.7497 108.364V126.052H31.3552V108.364H24.7497ZM47.2199 111.312H43.9172V114.615H47.2199V111.312ZM50.1679 111.312H53.4707V108.009H50.1679V111.312ZM50.1679 126.052V129.355H53.4707V126.052H50.1679ZM47.2199 126.052V122.749H43.9172V126.052H47.2199ZM47.2199 129V132.303H50.5227V129H47.2199ZM36.9021 129H33.5993V132.303H36.9021V129ZM36.9021 126.052H40.2048V122.749H36.9021V126.052ZM33.9541 126.052H30.6513V129.355H33.9541V126.052ZM33.9541 111.312V108.009H30.6513V111.312H33.9541ZM36.9021 111.312V114.615H40.2048V111.312H36.9021ZM36.9021 108.364V105.061H33.5993V108.364H36.9021ZM47.2199 108.364H50.5227V105.061H47.2199V108.364ZM45.746 111.312H49.0487V108.009H45.746V111.312ZM38.376 111.312V108.009H35.0733V111.312H38.376ZM38.376 126.052H35.0733V129.355H38.376V126.052ZM45.746 126.052V129.355H49.0487V126.052H45.746ZM47.2199 114.615H50.1679V108.009H47.2199V114.615ZM46.8652 111.312V126.052H53.4707V111.312H46.8652ZM50.1679 122.749H47.2199V129.355H50.1679V122.749ZM43.9172 126.052V129H50.5227V126.052H43.9172ZM47.2199 125.697H36.9021V132.303H47.2199V125.697ZM40.2048 129V126.052H33.5993V129H40.2048ZM36.9021 122.749H33.9541V129.355H36.9021V122.749ZM37.2568 126.052V111.312H30.6513V126.052H37.2568ZM33.9541 114.615H36.9021V108.009H33.9541V114.615ZM40.2048 111.312V108.364H33.5993V111.312H40.2048ZM36.9021 111.667H47.2199V105.061H36.9021V111.667ZM43.9172 108.364V111.312H50.5227V108.364H43.9172ZM45.746 108.009H38.376V114.615H45.746V108.009ZM35.0733 111.312V126.052H41.6788V111.312H35.0733ZM38.376 129.355H45.746V122.749H38.376V129.355ZM49.0487 126.052V111.312H42.4432V126.052H49.0487ZM66.3932 111.312H63.0905V114.615H66.3932V111.312ZM69.3412 111.312H72.644V108.009H69.3412V111.312ZM69.3412 126.052V129.355H72.644V126.052H69.3412ZM66.3932 126.052V122.749H63.0905V126.052H66.3932ZM66.3932 129V132.303H69.696V129H66.3932ZM56.0754 129H52.7726V132.303H56.0754V129ZM56.0754 126.052H59.3781V122.749H56.0754V126.052ZM53.1274 126.052H49.8246V129.355H53.1274V126.052ZM53.1274 111.312V108.009H49.8246V111.312H53.1274ZM56.0754 111.312V114.615H59.3781V111.312H56.0754ZM56.0754 108.364V105.061H52.7726V108.364H56.0754ZM66.3932 108.364H69.696V105.061H66.3932V108.364ZM64.9193 111.312H68.222V108.009H64.9193V111.312ZM57.5493 111.312V108.009H54.2466V111.312H57.5493ZM57.5493 126.052H54.2466V129.355H57.5493V126.052ZM64.9193 126.052V129.355H68.222V126.052H64.9193ZM66.3932 114.615H69.3412V108.009H66.3932V114.615ZM66.0385 111.312V126.052H72.644V111.312H66.0385ZM69.3412 122.749H66.3932V129.355H69.3412V122.749ZM63.0905 126.052V129H69.696V126.052H63.0905ZM66.3932 125.697H56.0754V132.303H66.3932V125.697ZM59.3781 129V126.052H52.7726V129H59.3781ZM56.0754 122.749H53.1274V129.355H56.0754V122.749ZM56.4301 126.052V111.312H49.8246V126.052H56.4301ZM53.1274 114.615H56.0754V108.009H53.1274V114.615ZM59.3781 111.312V108.364H52.7726V111.312H59.3781ZM56.0754 111.667H66.3932V105.061H56.0754V111.667ZM63.0905 108.364V111.312H69.696V108.364H63.0905ZM64.9193 108.009H57.5493V114.615H64.9193V108.009ZM54.2466 111.312V126.052H60.8521V111.312H54.2466ZM57.5493 129.355H64.9193V122.749H57.5493V129.355ZM68.222 126.052V111.312H61.6165V126.052H68.222ZM85.5665 111.312H82.2638V114.615H85.5665V111.312ZM88.5145 111.312H91.8173V108.009H88.5145V111.312ZM88.5145 126.052V129.355H91.8173V126.052H88.5145ZM85.5665 126.052V122.749H82.2638V126.052H85.5665ZM85.5665 129V132.303H88.8693V129H85.5665ZM75.2487 129H71.9459V132.303H75.2487V129ZM75.2487 126.052H78.5514V122.749H75.2487V126.052ZM72.3007 126.052H68.9979V129.355H72.3007V126.052ZM72.3007 111.312V108.009H68.9979V111.312H72.3007ZM75.2487 111.312V114.615H78.5514V111.312H75.2487ZM75.2487 108.364V105.061H71.9459V108.364H75.2487ZM85.5665 108.364H88.8693V105.061H85.5665V108.364ZM84.0926 111.312H87.3953V108.009H84.0926V111.312ZM76.7226 111.312V108.009H73.4199V111.312H76.7226ZM76.7226 126.052H73.4199V129.355H76.7226V126.052ZM84.0926 126.052V129.355H87.3953V126.052H84.0926ZM85.5665 114.615H88.5145V108.009H85.5665V114.615ZM85.2117 111.312V126.052H91.8173V111.312H85.2117ZM88.5145 122.749H85.5665V129.355H88.5145V122.749ZM82.2638 126.052V129H88.8693V126.052H82.2638ZM85.5665 125.697H75.2487V132.303H85.5665V125.697ZM78.5514 129V126.052H71.9459V129H78.5514ZM75.2487 122.749H72.3007V129.355H75.2487V122.749ZM75.6034 126.052V111.312H68.9979V126.052H75.6034ZM72.3007 114.615H75.2487V108.009H72.3007V114.615ZM78.5514 111.312V108.364H71.9459V111.312H78.5514ZM75.2487 111.667H85.5665V105.061H75.2487V111.667ZM82.2638 108.364V111.312H88.8693V108.364H82.2638ZM84.0926 108.009H76.7226V114.615H84.0926V108.009ZM73.4199 111.312V126.052H80.0254V111.312H73.4199ZM76.7226 129.355H84.0926V122.749H76.7226V129.355ZM87.3953 126.052V111.312H80.7898V126.052H87.3953Z" fill="black" mask="url(#path-219-outside-3_1017_7250)"/>
<g filter="url(#filter0_d_1017_7250)">
<path d="M42.1479 1.34961L38.8008 1.34961L38.8008 5.1006L42.1479 5.1006L42.1479 1.34961Z" fill="white"/>
<path d="M42.1474 5.09961L38.8003 5.09961L38.8003 8.8506L42.1474 8.8506L42.1474 5.09961Z" fill="white"/>
<path d="M38.8024 8.85938L35.4553 8.85938L35.4553 12.6104L38.8024 12.6104L38.8024 8.85938Z" fill="white"/>
<path d="M42.1479 8.85938L38.8008 8.85938L38.8008 12.6104L42.1479 12.6104L42.1479 8.85938Z" fill="white"/>
<path d="M45.5036 8.85938L42.1565 8.85938L42.1565 12.6104L45.5036 12.6104L45.5036 8.85938Z" fill="white"/>
<path d="M32.111 12.6016L28.7639 12.6016L28.7639 16.3525L32.111 16.3526L32.111 12.6016Z" fill="white"/>
<path d="M35.4572 12.6016L32.1101 12.6016L32.1101 16.3525L35.4572 16.3526L35.4572 12.6016Z" fill="white"/>
<path d="M38.8024 12.6016L35.4553 12.6016L35.4553 16.3525L38.8024 16.3526L38.8024 12.6016Z" fill="white"/>
<path d="M42.1474 12.6016L38.8003 12.6016L38.8003 16.3525L42.1474 16.3526L42.1474 12.6016Z" fill="white"/>
<path d="M45.5036 12.6016L42.1565 12.6016L42.1565 16.3525L45.5036 16.3526L45.5036 12.6016Z" fill="white"/>
<path d="M48.8491 12.6016L45.502 12.6016L45.502 16.3525L48.8491 16.3526L48.8491 12.6016Z" fill="white"/>
<path d="M52.195 12.6016L48.8479 12.6016L48.8479 16.3525L52.195 16.3526L52.195 12.6016Z" fill="white"/>
<path d="M38.8024 16.3535L35.4553 16.3535L35.4553 20.1045L38.8024 20.1045L38.8024 16.3535Z" fill="white"/>
<path d="M42.1474 16.3535L38.8003 16.3535L38.8003 20.1045L42.1474 20.1045L42.1474 16.3535Z" fill="white"/>
<path d="M45.5036 16.3535L42.1565 16.3535L42.1565 20.1045L45.5036 20.1045L45.5036 16.3535Z" fill="white"/>
<path d="M42.1474 20.1094L38.8003 20.1094L38.8003 23.8604L42.1474 23.8604L42.1474 20.1094Z" fill="white"/>
<path d="M42.1474 23.8633L38.8003 23.8633L38.8003 27.6143L42.1474 27.6143L42.1474 23.8633Z" fill="white"/>
</g>
<g filter="url(#filter1_d_1017_7250)">
<path d="M98.2145 60.4707L94.8674 60.4707L94.8674 64.2217L98.2145 64.2217L98.2145 60.4707Z" fill="white"/>
<path d="M98.2141 64.2207L94.8669 64.2207L94.8669 67.9717L98.2141 67.9717L98.2141 64.2207Z" fill="white"/>
<path d="M94.8691 67.9805L91.522 67.9805L91.522 71.7315L94.8691 71.7315L94.8691 67.9805Z" fill="white"/>
<path d="M98.2145 67.9805L94.8674 67.9805L94.8674 71.7315L98.2145 71.7315L98.2145 67.9805Z" fill="white"/>
<path d="M101.57 67.9805L98.2231 67.9805L98.2231 71.7315L101.57 71.7315L101.57 67.9805Z" fill="white"/>
<path d="M88.1777 71.7227L84.8306 71.7227L84.8306 75.4736L88.1777 75.4736L88.1777 71.7227Z" fill="white"/>
<path d="M91.5239 71.7227L88.1768 71.7227L88.1768 75.4736L91.5239 75.4736L91.5239 71.7227Z" fill="white"/>
<path d="M94.8691 71.7227L91.522 71.7227L91.522 75.4736L94.8691 75.4736L94.8691 71.7227Z" fill="white"/>
<path d="M98.2141 71.7227L94.8669 71.7227L94.8669 75.4736L98.2141 75.4736L98.2141 71.7227Z" fill="white"/>
<path d="M101.57 71.7227L98.2231 71.7227L98.2231 75.4736L101.57 75.4736L101.57 71.7227Z" fill="white"/>
<path d="M104.916 71.7227L101.569 71.7227L101.569 75.4736L104.916 75.4736L104.916 71.7227Z" fill="white"/>
<path d="M108.262 71.7227L104.915 71.7227L104.915 75.4736L108.262 75.4736L108.262 71.7227Z" fill="white"/>
<path d="M94.8691 75.4746L91.522 75.4746L91.522 79.2256L94.8691 79.2256L94.8691 75.4746Z" fill="white"/>
<path d="M98.2141 75.4746L94.8669 75.4746L94.8669 79.2256L98.2141 79.2256L98.2141 75.4746Z" fill="white"/>
<path d="M101.57 75.4746L98.2231 75.4746L98.2231 79.2256L101.57 79.2256L101.57 75.4746Z" fill="white"/>
<path d="M98.2141 79.2305L94.8669 79.2305L94.8669 82.9815L98.2141 82.9815L98.2141 79.2305Z" fill="white"/>
<path d="M98.2141 82.9844L94.8669 82.9844L94.8669 86.7354L98.2141 86.7354L98.2141 82.9844Z" fill="white"/>
</g>
<g filter="url(#filter2_d_1017_7250)">
<path d="M285.898 8.12605e-07L281.25 0L281.25 5.20839L285.898 5.2084L285.898 8.12605e-07Z" fill="white"/>
<path d="M285.898 5.20703L281.25 5.20703L281.25 10.4154L285.898 10.4154L285.898 5.20703Z" fill="white"/>
<path d="M281.253 10.4219L276.605 10.4219L276.605 15.6303L281.253 15.6303L281.253 10.4219Z" fill="white"/>
<path d="M285.898 10.4219L281.25 10.4219L281.25 15.6303L285.898 15.6303L285.898 10.4219Z" fill="white"/>
<path d="M290.558 10.4219L285.91 10.4219L285.91 15.6303L290.558 15.6303L290.558 10.4219Z" fill="white"/>
<path d="M271.962 15.6289L267.314 15.6289L267.314 20.8373L271.962 20.8373L271.962 15.6289Z" fill="white"/>
<path d="M276.608 15.6289L271.96 15.6289L271.96 20.8373L276.608 20.8373L276.608 15.6289Z" fill="white"/>
<path d="M281.253 15.6289L276.605 15.6289L276.605 20.8373L281.253 20.8373L281.253 15.6289Z" fill="white"/>
<path d="M285.898 15.6289L281.25 15.6289L281.25 20.8373L285.898 20.8373L285.898 15.6289Z" fill="white"/>
<path d="M290.558 15.6289L285.91 15.6289L285.91 20.8373L290.558 20.8373L290.558 15.6289Z" fill="white"/>
<path d="M295.203 15.6289L290.555 15.6289L290.555 20.8373L295.203 20.8373L295.203 15.6289Z" fill="white"/>
<path d="M299.849 15.6289L295.202 15.6289L295.202 20.8373L299.849 20.8373L299.849 15.6289Z" fill="white"/>
<path d="M281.253 20.8359L276.605 20.8359L276.605 26.0443L281.253 26.0443L281.253 20.8359Z" fill="white"/>
<path d="M285.898 20.8359L281.25 20.8359L281.25 26.0443L285.898 26.0443L285.898 20.8359Z" fill="white"/>
<path d="M290.558 20.8359L285.91 20.8359L285.91 26.0443L290.558 26.0443L290.558 20.8359Z" fill="white"/>
<path d="M285.898 26.0469L281.25 26.0469L281.25 31.2553L285.898 31.2553L285.898 26.0469Z" fill="white"/>
<path d="M285.898 31.2598L281.25 31.2598L281.25 36.4682L285.898 36.4682L285.898 31.2598Z" fill="white"/>
</g>
<defs>
<filter id="filter0_d_1017_7250" x="28.7639" y="1.34961" width="26.6763" height="29.5098" filterUnits="userSpaceOnUse" color-interpolation-filters="sRGB">
<feFlood flood-opacity="0" result="BackgroundImageFix"/>
<feColorMatrix in="SourceAlpha" type="matrix" values="0 0 0 0 0 0 0 0 0 0 0 0 0 0 0 0 0 0 127 0" result="hardAlpha"/>
<feOffset dx="3.24514" dy="3.24514"/>
<feComposite in2="hardAlpha" operator="out"/>
<feColorMatrix type="matrix" values="0 0 0 0 0 0 0 0 0 0 0 0 0 0 0 0 0 0 0.1 0"/>
<feBlend mode="normal" in2="BackgroundImageFix" result="effect1_dropShadow_1017_7250"/>
<feBlend mode="normal" in="SourceGraphic" in2="effect1_dropShadow_1017_7250" result="shape"/>
</filter>
<filter id="filter1_d_1017_7250" x="84.8306" y="60.4707" width="26.6763" height="29.5098" filterUnits="userSpaceOnUse" color-interpolation-filters="sRGB">
<feFlood flood-opacity="0" result="BackgroundImageFix"/>
<feColorMatrix in="SourceAlpha" type="matrix" values="0 0 0 0 0 0 0 0 0 0 0 0 0 0 0 0 0 0 127 0" result="hardAlpha"/>
<feOffset dx="3.24514" dy="3.24514"/>
<feComposite in2="hardAlpha" operator="out"/>
<feColorMatrix type="matrix" values="0 0 0 0 0 0 0 0 0 0 0 0 0 0 0 0 0 0 0.1 0"/>
<feBlend mode="normal" in2="BackgroundImageFix" result="effect1_dropShadow_1017_7250"/>
<feBlend mode="normal" in="SourceGraphic" in2="effect1_dropShadow_1017_7250" result="shape"/>
</filter>
<filter id="filter2_d_1017_7250" x="267.314" y="0" width="35.7805" height="39.7129" filterUnits="userSpaceOnUse" color-interpolation-filters="sRGB">
<feFlood flood-opacity="0" result="BackgroundImageFix"/>
<feColorMatrix in="SourceAlpha" type="matrix" values="0 0 0 0 0 0 0 0 0 0 0 0 0 0 0 0 0 0 127 0" result="hardAlpha"/>
<feOffset dx="3.24514" dy="3.24514"/>
<feComposite in2="hardAlpha" operator="out"/>
<feColorMatrix type="matrix" values="0 0 0 0 0 0 0 0 0 0 0 0 0 0 0 0 0 0 0.1 0"/>
<feBlend mode="normal" in2="BackgroundImageFix" result="effect1_dropShadow_1017_7250"/>
<feBlend mode="normal" in="SourceGraphic" in2="effect1_dropShadow_1017_7250" result="shape"/>
</filter>
<clipPath id="clip0_1017_7250">
<rect width="210" height="123.75" fill="white" transform="translate(61 51)"/>
</clipPath>
</defs>
</svg>
