<svg width="138" height="128" viewBox="0 0 138 128" fill="none" xmlns="http://www.w3.org/2000/svg">
<rect x="-3.26221" width="198.527" height="88.7246" transform="rotate(45 -3.26221 0)" fill="#E86F00"/>
<g clip-path="url(#clip0_966_99141)">
<path d="M21.6963 35.1763L20.4028 33.8828L19.1094 35.1763L20.4028 36.4697L21.6963 35.1763Z" fill="#FFF4BC"/>
<path d="M22.9897 36.4673L21.6963 35.1738L20.4028 36.4673L21.6963 37.7607L22.9897 36.4673Z" fill="white"/>
<path d="M24.2834 37.7622L22.99 36.4688L21.6965 37.7622L22.99 39.0557L24.2834 37.7622Z" fill="#FFF4BC"/>
<path d="M25.5771 39.0552L24.2837 37.7617L22.9902 39.0552L24.2837 40.3486L25.5771 39.0552Z" fill="#FFF4BC"/>
<path d="M26.8706 40.3501L25.5771 39.0566L24.2837 40.3501L25.5771 41.6436L26.8706 40.3501Z" fill="#FFF4BC"/>
<path d="M28.1643 41.6431L26.8708 40.3496L25.5774 41.6431L26.8708 42.9365L28.1643 41.6431Z" fill="#8D3900"/>
<path d="M29.4585 42.936L28.165 41.6426L26.8716 42.936L28.165 44.2295L29.4585 42.936Z" fill="#8D3900"/>
<path d="M19.1099 35.1763L17.8164 33.8828L16.5229 35.1763L17.8164 36.4697L19.1099 35.1763Z" fill="white"/>
<path d="M20.4033 36.4673L19.1099 35.1738L17.8164 36.4673L19.1099 37.7607L20.4033 36.4673Z" fill="#222222"/>
<path d="M21.6965 37.7622L20.4031 36.4688L19.1096 37.7622L20.4031 39.0557L21.6965 37.7622Z" fill="#FFC700"/>
<path d="M22.9902 39.0552L21.6968 37.7617L20.4033 39.0552L21.6968 40.3486L22.9902 39.0552Z" fill="#FFC700"/>
<path d="M24.283 40.3501L22.9895 39.0566L21.696 40.3501L22.9895 41.6436L24.283 40.3501Z" fill="#FFC700"/>
<path d="M25.5771 41.6431L24.2837 40.3496L22.9902 41.6431L24.2837 42.9365L25.5771 41.6431Z" fill="#FFC700"/>
<path d="M26.8711 42.936L25.5776 41.6426L24.2842 42.936L25.5776 44.2295L26.8711 42.936Z" fill="#FFF4BC"/>
<path d="M28.1646 44.229L26.8711 42.9355L25.5776 44.229L26.8711 45.5225L28.1646 44.229Z" fill="#8D3900"/>
<path d="M29.4583 45.5239L28.1648 44.2305L26.8713 45.5239L28.1648 46.8174L29.4583 45.5239Z" fill="#8D3900"/>
<path d="M16.522 35.1763L15.2285 33.8828L13.9351 35.1763L15.2285 36.4697L16.522 35.1763Z" fill="white"/>
<path d="M17.8157 36.4692L16.5222 35.1758L15.2288 36.4692L16.5222 37.7627L17.8157 36.4692Z" fill="#222222"/>
<path d="M19.1091 37.7622L17.8157 36.4688L16.5222 37.7622L17.8157 39.0557L19.1091 37.7622Z" fill="#FFC700"/>
<path d="M20.4023 39.0552L19.1089 37.7617L17.8154 39.0552L19.1089 40.3486L20.4023 39.0552Z" fill="#FFC700"/>
<path d="M21.697 40.3501L20.4036 39.0566L19.1101 40.3501L20.4036 41.6436L21.697 40.3501Z" fill="#222222"/>
<path d="M22.9897 41.6431L21.6963 40.3496L20.4028 41.6431L21.6963 42.9365L22.9897 41.6431Z" fill="#8D3900"/>
<path d="M24.2832 42.938L22.9897 41.6445L21.6963 42.938L22.9897 44.2314L24.2832 42.938Z" fill="#FFC700"/>
<path d="M25.5769 44.231L24.2834 42.9375L22.99 44.231L24.2834 45.5244L25.5769 44.231Z" fill="#FFC700"/>
<path d="M26.8706 45.5239L25.5771 44.2305L24.2837 45.5239L25.5771 46.8174L26.8706 45.5239Z" fill="#FFF4BC"/>
<path d="M28.1643 46.8169L26.8708 45.5234L25.5774 46.8169L26.8708 48.1104L28.1643 46.8169Z" fill="#8D3900"/>
<path d="M29.4575 48.1118L28.1641 46.8184L26.8706 48.1118L28.1641 49.4053L29.4575 48.1118Z" fill="#8D3900"/>
<path d="M15.2288 36.4673L13.9353 35.1738L12.6418 36.4673L13.9353 37.7607L15.2288 36.4673Z" fill="white"/>
<path d="M16.5217 37.7642L15.2283 36.4707L13.9348 37.7642L15.2283 39.0576L16.5217 37.7642Z" fill="#222222"/>
<path d="M17.8159 39.0552L16.5225 37.7617L15.229 39.0552L16.5225 40.3486L17.8159 39.0552Z" fill="#FFC700"/>
<path d="M19.1094 40.3501L17.8159 39.0566L16.5225 40.3501L17.8159 41.6436L19.1094 40.3501Z" fill="#222222"/>
<path d="M20.4031 41.6431L19.1096 40.3496L17.8162 41.6431L19.1096 42.9365L20.4031 41.6431Z" fill="#FFC700"/>
<path d="M21.6963 42.938L20.4028 41.6445L19.1094 42.938L20.4028 44.2314L21.6963 42.938Z" fill="#FFC700"/>
<path d="M22.9893 44.231L21.6958 42.9375L20.4023 44.231L21.6958 45.5244L22.9893 44.231Z" fill="#8D3900"/>
<path d="M24.2837 45.5239L22.9902 44.2305L21.6968 45.5239L22.9902 46.8174L24.2837 45.5239Z" fill="#FFF4BC"/>
<path d="M25.5771 46.8169L24.2837 45.5234L22.9902 46.8169L24.2837 48.1104L25.5771 46.8169Z" fill="#FFC700"/>
<path d="M26.8704 48.1118L25.5769 46.8184L24.2834 48.1118L25.5769 49.4053L26.8704 48.1118Z" fill="#8D3900"/>
<path d="M28.1646 49.4048L26.8711 48.1113L25.5776 49.4048L26.8711 50.6982L28.1646 49.4048Z" fill="#8D3900"/>
<path d="M12.6421 36.4673L11.3486 35.1738L10.0552 36.4673L11.3486 37.7607L12.6421 36.4673Z" fill="white"/>
<path d="M13.9346 37.7622L12.6411 36.4688L11.3477 37.7622L12.6411 39.0557L13.9346 37.7622Z" fill="#222222"/>
<path d="M15.2292 39.0552L13.9358 37.7617L12.6423 39.0552L13.9358 40.3486L15.2292 39.0552Z" fill="#FFC700"/>
<path d="M16.5227 40.3501L15.2292 39.0566L13.9358 40.3501L15.2292 41.6436L16.5227 40.3501Z" fill="#FFC700"/>
<path d="M17.8154 41.6431L16.522 40.3496L15.2285 41.6431L16.522 42.9365L17.8154 41.6431Z" fill="#222222"/>
<path d="M19.1099 42.936L17.8164 41.6426L16.5229 42.936L17.8164 44.2295L19.1099 42.936Z" fill="#FFC700"/>
<path d="M20.4033 44.229L19.1099 42.9355L17.8164 44.229L19.1099 45.5225L20.4033 44.229Z" fill="#FFF4BC"/>
<path d="M21.696 45.5239L20.4026 44.2305L19.1091 45.5239L20.4026 46.8174L21.696 45.5239Z" fill="#8D3900"/>
<path d="M22.9902 46.8169L21.6968 45.5234L20.4033 46.8169L21.6968 48.1104L22.9902 46.8169Z" fill="white"/>
<path d="M24.2832 48.1118L22.9897 46.8184L21.6963 48.1118L22.9897 49.4053L24.2832 48.1118Z" fill="#FFC700"/>
<path d="M25.5776 49.4048L24.2842 48.1113L22.9907 49.4048L24.2842 50.6982L25.5776 49.4048Z" fill="#FFF4BC"/>
<path d="M26.8711 50.6978L25.5776 49.4043L24.2842 50.6978L25.5776 51.9912L26.8711 50.6978Z" fill="#8D3900"/>
<path d="M28.1636 51.9907L26.8701 50.6973L25.5767 51.9907L26.8701 53.2842L28.1636 51.9907Z" fill="#8D3900"/>
<path d="M11.3481 37.7622L10.0547 36.4688L8.76123 37.7622L10.0547 39.0557L11.3481 37.7622Z" fill="#FFF4BC"/>
<path d="M12.6414 39.0552L11.3479 37.7617L10.0544 39.0552L11.3479 40.3486L12.6414 39.0552Z" fill="#222222"/>
<path d="M13.9351 40.3501L12.6416 39.0566L11.3481 40.3501L12.6416 41.6436L13.9351 40.3501Z" fill="#FFC700"/>
<path d="M15.2285 41.6431L13.9351 40.3496L12.6416 41.6431L13.9351 42.9365L15.2285 41.6431Z" fill="#222222"/>
<path d="M16.522 42.938L15.2285 41.6445L13.9351 42.938L15.2285 44.2314L16.522 42.938Z" fill="#FFC700"/>
<path d="M17.8159 44.229L16.5225 42.9355L15.229 44.229L16.5225 45.5225L17.8159 44.229Z" fill="#FFF4BC"/>
<path d="M19.1094 45.5239L17.8159 44.2305L16.5225 45.5239L17.8159 46.8174L19.1094 45.5239Z" fill="white"/>
<path d="M20.4026 46.8169L19.1091 45.5234L17.8157 46.8169L19.1091 48.1104L20.4026 46.8169Z" fill="#FFF4BC"/>
<path d="M21.6958 48.1118L20.4023 46.8184L19.1089 48.1118L20.4023 49.4053L21.6958 48.1118Z" fill="#8D3900"/>
<path d="M22.99 49.4048L21.6965 48.1113L20.4031 49.4048L21.6965 50.6982L22.99 49.4048Z" fill="#FFC700"/>
<path d="M24.2837 50.6997L22.9902 49.4062L21.6968 50.6997L22.9902 51.9932L24.2837 50.6997Z" fill="#FFF4BC"/>
<path d="M25.5771 51.9907L24.2837 50.6973L22.9902 51.9907L24.2837 53.2842L25.5771 51.9907Z" fill="#8D3900"/>
<path d="M26.8706 53.2856L25.5771 51.9922L24.2837 53.2856L25.5771 54.5791L26.8706 53.2856Z" fill="#8D3900"/>
<path d="M10.0547 39.0552L8.76123 37.7617L7.46777 39.0552L8.76123 40.3486L10.0547 39.0552Z" fill="white"/>
<path d="M11.3481 40.3501L10.0547 39.0566L8.76123 40.3501L10.0547 41.6436L11.3481 40.3501Z" fill="#222222"/>
<path d="M12.6411 41.6431L11.3477 40.3496L10.0542 41.6431L11.3477 42.9365L12.6411 41.6431Z" fill="#FFC700"/>
<path d="M13.9353 42.936L12.6418 41.6426L11.3484 42.936L12.6418 44.2295L13.9353 42.936Z" fill="#8D3900"/>
<path d="M15.2288 44.229L13.9353 42.9355L12.6418 44.229L13.9353 45.5225L15.2288 44.229Z" fill="#FFF4BC"/>
<path d="M16.5217 45.5259L15.2283 44.2324L13.9348 45.5259L15.2283 46.8193L16.5217 45.5259Z" fill="white"/>
<path d="M17.8159 46.8169L16.5225 45.5234L15.229 46.8169L16.5225 48.1104L17.8159 46.8169Z" fill="#FFF4BC"/>
<path d="M19.1086 48.1118L17.8152 46.8184L16.5217 48.1118L17.8152 49.4053L19.1086 48.1118Z" fill="#FFC700"/>
<path d="M20.4033 49.4048L19.1099 48.1113L17.8164 49.4048L19.1099 50.6982L20.4033 49.4048Z" fill="#222222"/>
<path d="M21.6965 50.6978L20.4031 49.4043L19.1096 50.6978L20.4031 51.9912L21.6965 50.6978Z" fill="#FFC700"/>
<path d="M22.9897 51.9927L21.6963 50.6992L20.4028 51.9927L21.6963 53.2861L22.9897 51.9927Z" fill="white"/>
<path d="M24.2839 53.2856L22.9905 51.9922L21.697 53.2856L22.9905 54.5791L24.2839 53.2856Z" fill="#8D3900"/>
<path d="M25.5774 54.5786L24.2839 53.2852L22.9905 54.5786L24.2839 55.8721L25.5774 54.5786Z" fill="#8D3900"/>
<path d="M8.76147 40.3501L7.46802 39.0566L6.17456 40.3501L7.46802 41.6436L8.76147 40.3501Z" fill="#FFC700"/>
<path d="M10.0542 41.6431L8.76074 40.3496L7.46728 41.6431L8.76074 42.9365L10.0542 41.6431Z" fill="#222222"/>
<path d="M11.3477 42.938L10.0542 41.6445L8.76074 42.938L10.0542 44.2314L11.3477 42.938Z" fill="#FFF4BC"/>
<path d="M12.6421 44.229L11.3486 42.9355L10.0552 44.229L11.3486 45.5225L12.6421 44.229Z" fill="white"/>
<path d="M13.9348 45.5239L12.6414 44.2305L11.3479 45.5239L12.6414 46.8174L13.9348 45.5239Z" fill="#8D3900"/>
<path d="M15.2285 46.8169L13.9351 45.5234L12.6416 46.8169L13.9351 48.1104L15.2285 46.8169Z" fill="#FFF4BC"/>
<path d="M16.5227 48.1118L15.2292 46.8184L13.9358 48.1118L15.2292 49.4053L16.5227 48.1118Z" fill="#FFC700"/>
<path d="M17.8157 49.4048L16.5222 48.1113L15.2288 49.4048L16.5222 50.6982L17.8157 49.4048Z" fill="#222222"/>
<path d="M19.1099 50.6978L17.8164 49.4043L16.5229 50.6978L17.8164 51.9912L19.1099 50.6978Z" fill="#FFC700"/>
<path d="M20.4026 51.9907L19.1091 50.6973L17.8157 51.9907L19.1091 53.2842L20.4026 51.9907Z" fill="#FFC700"/>
<path d="M21.6963 53.2856L20.4028 51.9922L19.1094 53.2856L20.4028 54.5791L21.6963 53.2856Z" fill="#FFF4BC"/>
<path d="M22.9905 54.5786L21.697 53.2852L20.4036 54.5786L21.697 55.8721L22.9905 54.5786Z" fill="#8D3900"/>
<path d="M24.2834 55.8735L22.99 54.5801L21.6965 55.8735L22.99 57.167L24.2834 55.8735Z" fill="#8D3900"/>
<path d="M8.76099 42.936L7.46753 41.6426L6.17407 42.936L7.46753 44.2295L8.76099 42.936Z" fill="#FFF4BC"/>
<path d="M10.0547 44.229L8.76123 42.9355L7.46777 44.229L8.76123 45.5225L10.0547 44.229Z" fill="#222222"/>
<path d="M11.3472 45.5259L10.0537 44.2324L8.76025 45.5259L10.0537 46.8193L11.3472 45.5259Z" fill="white"/>
<path d="M12.6414 46.8169L11.3479 45.5234L10.0544 46.8169L11.3479 48.1104L12.6414 46.8169Z" fill="#8D3900"/>
<path d="M13.9353 48.1118L12.6418 46.8184L11.3484 48.1118L12.6418 49.4053L13.9353 48.1118Z" fill="#FFC700"/>
<path d="M15.2288 49.4048L13.9353 48.1113L12.6418 49.4048L13.9353 50.6982L15.2288 49.4048Z" fill="#FFC700"/>
<path d="M16.5222 50.6978L15.2288 49.4043L13.9353 50.6978L15.2288 51.9912L16.5222 50.6978Z" fill="#222222"/>
<path d="M17.8152 51.9927L16.5217 50.6992L15.2283 51.9927L16.5217 53.2861L17.8152 51.9927Z" fill="#FFC700"/>
<path d="M19.1094 53.2856L17.8159 51.9922L16.5225 53.2856L17.8159 54.5791L19.1094 53.2856Z" fill="white"/>
<path d="M20.4033 54.5786L19.1099 53.2852L17.8164 54.5786L19.1099 55.8721L20.4033 54.5786Z" fill="#8D3900"/>
<path d="M21.6958 55.8735L20.4023 54.5801L19.1089 55.8735L20.4023 57.167L21.6958 55.8735Z" fill="#8D3900"/>
<path d="M7.46753 44.229L6.17407 42.9355L4.88061 44.229L6.17407 45.5225L7.46753 44.229Z" fill="#FFC700"/>
<path d="M8.76074 45.5239L7.46729 44.2305L6.17383 45.5239L7.46729 46.8174L8.76074 45.5239Z" fill="#222222"/>
<path d="M10.0542 46.8169L8.76074 45.5234L7.46728 46.8169L8.76074 48.1104L10.0542 46.8169Z" fill="#FFF4BC"/>
<path d="M11.3484 48.1118L10.0549 46.8184L8.76147 48.1118L10.0549 49.4053L11.3484 48.1118Z" fill="#FFC700"/>
<path d="M12.6411 49.4048L11.3477 48.1113L10.0542 49.4048L11.3477 50.6982L12.6411 49.4048Z" fill="#8D3900"/>
<path d="M13.9353 50.6978L12.6418 49.4043L11.3484 50.6978L12.6418 51.9912L13.9353 50.6978Z" fill="#222222"/>
<path d="M15.2283 51.9907L13.9348 50.6973L12.6414 51.9907L13.9348 53.2842L15.2283 51.9907Z" fill="#FFC700"/>
<path d="M16.522 53.2856L15.2285 51.9922L13.9351 53.2856L15.2285 54.5791L16.522 53.2856Z" fill="#FFC700"/>
<path d="M17.8162 54.5786L16.5227 53.2852L15.2292 54.5786L16.5227 55.8721L17.8162 54.5786Z" fill="white"/>
<path d="M19.1091 55.8735L17.8157 54.5801L16.5222 55.8735L17.8157 57.167L19.1091 55.8735Z" fill="#8D3900"/>
<path d="M20.4026 57.1665L19.1091 55.873L17.8157 57.1665L19.1091 58.46L20.4026 57.1665Z" fill="#8D3900"/>
<path d="M7.46729 46.8169L6.17383 45.5234L4.88037 46.8169L6.17383 48.1104L7.46729 46.8169Z" fill="#FFC700"/>
<path d="M8.76099 48.1118L7.46753 46.8184L6.17407 48.1118L7.46753 49.4053L8.76099 48.1118Z" fill="#222222"/>
<path d="M10.0535 49.4048L8.76001 48.1113L7.46655 49.4048L8.76001 50.6982L10.0535 49.4048Z" fill="#FFC700"/>
<path d="M11.3481 50.6997L10.0547 49.4062L8.76123 50.6997L10.0547 51.9932L11.3481 50.6997Z" fill="#FFC700"/>
<path d="M12.6414 51.9907L11.3479 50.6973L10.0544 51.9907L11.3479 53.2842L12.6414 51.9907Z" fill="#FFC700"/>
<path d="M13.9343 53.2876L12.6409 51.9941L11.3474 53.2876L12.6409 54.5811L13.9343 53.2876Z" fill="#FFC700"/>
<path d="M15.2285 54.5786L13.9351 53.2852L12.6416 54.5786L13.9351 55.8721L15.2285 54.5786Z" fill="white"/>
<path d="M16.5215 55.8735L15.228 54.5801L13.9346 55.8735L15.228 57.167L16.5215 55.8735Z" fill="#8D3900"/>
<path d="M17.8159 57.1665L16.5225 55.873L15.229 57.1665L16.5225 58.46L17.8159 57.1665Z" fill="#8D3900"/>
<path d="M7.4668 49.4048L6.17334 48.1113L4.87988 49.4048L6.17334 50.6982L7.4668 49.4048Z" fill="#222222"/>
<path d="M8.76025 50.6997L7.4668 49.4062L6.17334 50.6997L7.4668 51.9932L8.76025 50.6997Z" fill="#222222"/>
<path d="M10.0547 51.9907L8.76123 50.6973L7.46777 51.9907L8.76123 53.2842L10.0547 51.9907Z" fill="#222222"/>
<path d="M11.3474 53.2856L10.054 51.9922L8.7605 53.2856L10.054 54.5791L11.3474 53.2856Z" fill="#222222"/>
<path d="M12.6416 54.5786L11.3481 53.2852L10.0547 54.5786L11.3481 55.8721L12.6416 54.5786Z" fill="#222222"/>
<path d="M13.9346 55.8735L12.6411 54.5801L11.3477 55.8735L12.6411 57.167L13.9346 55.8735Z" fill="#8D3900"/>
<path d="M15.2283 57.1665L13.9348 55.873L12.6414 57.1665L13.9348 58.46L15.2283 57.1665Z" fill="#8D3900"/>
</g>
<g clip-path="url(#clip1_966_99141)">
<path d="M80.6963 96.1763L79.4028 94.8828L78.1094 96.1763L79.4028 97.4697L80.6963 96.1763Z" fill="#FFF4BC"/>
<path d="M81.9897 97.4673L80.6963 96.1738L79.4028 97.4673L80.6963 98.7607L81.9897 97.4673Z" fill="white"/>
<path d="M83.2834 98.7622L81.99 97.4688L80.6965 98.7622L81.99 100.056L83.2834 98.7622Z" fill="#FFF4BC"/>
<path d="M84.5771 100.055L83.2837 98.7617L81.9902 100.055L83.2837 101.349L84.5771 100.055Z" fill="#FFF4BC"/>
<path d="M85.8706 101.35L84.5771 100.057L83.2837 101.35L84.5771 102.644L85.8706 101.35Z" fill="#FFF4BC"/>
<path d="M87.1643 102.643L85.8708 101.35L84.5774 102.643L85.8708 103.937L87.1643 102.643Z" fill="#8D3900"/>
<path d="M88.4585 103.936L87.165 102.643L85.8716 103.936L87.165 105.229L88.4585 103.936Z" fill="#8D3900"/>
<path d="M78.1099 96.1763L76.8164 94.8828L75.5229 96.1763L76.8164 97.4697L78.1099 96.1763Z" fill="white"/>
<path d="M79.4033 97.4673L78.1099 96.1738L76.8164 97.4673L78.1099 98.7607L79.4033 97.4673Z" fill="#222222"/>
<path d="M80.6965 98.7622L79.4031 97.4688L78.1096 98.7622L79.4031 100.056L80.6965 98.7622Z" fill="#FFC700"/>
<path d="M81.9902 100.055L80.6968 98.7617L79.4033 100.055L80.6968 101.349L81.9902 100.055Z" fill="#FFC700"/>
<path d="M83.283 101.35L81.9895 100.057L80.696 101.35L81.9895 102.644L83.283 101.35Z" fill="#FFC700"/>
<path d="M84.5771 102.643L83.2837 101.35L81.9902 102.643L83.2837 103.937L84.5771 102.643Z" fill="#FFC700"/>
<path d="M85.8711 103.936L84.5776 102.643L83.2842 103.936L84.5776 105.229L85.8711 103.936Z" fill="#FFF4BC"/>
<path d="M87.1646 105.229L85.8711 103.936L84.5776 105.229L85.8711 106.522L87.1646 105.229Z" fill="#8D3900"/>
<path d="M88.4583 106.524L87.1648 105.23L85.8713 106.524L87.1648 107.817L88.4583 106.524Z" fill="#8D3900"/>
<path d="M75.522 96.1763L74.2285 94.8828L72.9351 96.1763L74.2285 97.4697L75.522 96.1763Z" fill="white"/>
<path d="M76.8157 97.4692L75.5222 96.1758L74.2288 97.4692L75.5222 98.7627L76.8157 97.4692Z" fill="#222222"/>
<path d="M78.1091 98.7622L76.8157 97.4688L75.5222 98.7622L76.8157 100.056L78.1091 98.7622Z" fill="#FFC700"/>
<path d="M79.4023 100.055L78.1089 98.7617L76.8154 100.055L78.1089 101.349L79.4023 100.055Z" fill="#FFC700"/>
<path d="M80.697 101.35L79.4036 100.057L78.1101 101.35L79.4036 102.644L80.697 101.35Z" fill="#222222"/>
<path d="M81.9897 102.643L80.6963 101.35L79.4028 102.643L80.6963 103.937L81.9897 102.643Z" fill="#8D3900"/>
<path d="M83.2832 103.938L81.9897 102.645L80.6963 103.938L81.9897 105.231L83.2832 103.938Z" fill="#FFC700"/>
<path d="M84.5769 105.231L83.2834 103.938L81.99 105.231L83.2834 106.524L84.5769 105.231Z" fill="#FFC700"/>
<path d="M85.8706 106.524L84.5771 105.23L83.2837 106.524L84.5771 107.817L85.8706 106.524Z" fill="#FFF4BC"/>
<path d="M87.1643 107.817L85.8708 106.523L84.5774 107.817L85.8708 109.11L87.1643 107.817Z" fill="#8D3900"/>
<path d="M88.4575 109.112L87.1641 107.818L85.8706 109.112L87.1641 110.405L88.4575 109.112Z" fill="#8D3900"/>
<path d="M74.2288 97.4673L72.9353 96.1738L71.6418 97.4673L72.9353 98.7607L74.2288 97.4673Z" fill="white"/>
<path d="M75.5217 98.7642L74.2283 97.4707L72.9348 98.7642L74.2283 100.058L75.5217 98.7642Z" fill="#222222"/>
<path d="M76.8159 100.055L75.5225 98.7617L74.229 100.055L75.5225 101.349L76.8159 100.055Z" fill="#FFC700"/>
<path d="M78.1094 101.35L76.8159 100.057L75.5225 101.35L76.8159 102.644L78.1094 101.35Z" fill="#222222"/>
<path d="M79.4031 102.643L78.1096 101.35L76.8162 102.643L78.1096 103.937L79.4031 102.643Z" fill="#FFC700"/>
<path d="M80.6963 103.938L79.4028 102.645L78.1094 103.938L79.4028 105.231L80.6963 103.938Z" fill="#FFC700"/>
<path d="M81.9893 105.231L80.6958 103.938L79.4023 105.231L80.6958 106.524L81.9893 105.231Z" fill="#8D3900"/>
<path d="M83.2837 106.524L81.9902 105.23L80.6968 106.524L81.9902 107.817L83.2837 106.524Z" fill="#FFF4BC"/>
<path d="M84.5771 107.817L83.2837 106.523L81.9902 107.817L83.2837 109.11L84.5771 107.817Z" fill="#FFC700"/>
<path d="M85.8704 109.112L84.5769 107.818L83.2834 109.112L84.5769 110.405L85.8704 109.112Z" fill="#8D3900"/>
<path d="M87.1646 110.405L85.8711 109.111L84.5776 110.405L85.8711 111.698L87.1646 110.405Z" fill="#8D3900"/>
<path d="M71.6421 97.4673L70.3486 96.1738L69.0552 97.4673L70.3486 98.7607L71.6421 97.4673Z" fill="white"/>
<path d="M72.9346 98.7622L71.6411 97.4688L70.3477 98.7622L71.6411 100.056L72.9346 98.7622Z" fill="#222222"/>
<path d="M74.2292 100.055L72.9358 98.7617L71.6423 100.055L72.9358 101.349L74.2292 100.055Z" fill="#FFC700"/>
<path d="M75.5227 101.35L74.2292 100.057L72.9358 101.35L74.2292 102.644L75.5227 101.35Z" fill="#FFC700"/>
<path d="M76.8154 102.643L75.522 101.35L74.2285 102.643L75.522 103.937L76.8154 102.643Z" fill="#222222"/>
<path d="M78.1099 103.936L76.8164 102.643L75.5229 103.936L76.8164 105.229L78.1099 103.936Z" fill="#FFC700"/>
<path d="M79.4033 105.229L78.1099 103.936L76.8164 105.229L78.1099 106.522L79.4033 105.229Z" fill="#FFF4BC"/>
<path d="M80.696 106.524L79.4026 105.23L78.1091 106.524L79.4026 107.817L80.696 106.524Z" fill="#8D3900"/>
<path d="M81.9902 107.817L80.6968 106.523L79.4033 107.817L80.6968 109.11L81.9902 107.817Z" fill="white"/>
<path d="M83.2832 109.112L81.9897 107.818L80.6963 109.112L81.9897 110.405L83.2832 109.112Z" fill="#FFC700"/>
<path d="M84.5776 110.405L83.2842 109.111L81.9907 110.405L83.2842 111.698L84.5776 110.405Z" fill="#FFF4BC"/>
<path d="M85.8711 111.698L84.5776 110.404L83.2842 111.698L84.5776 112.991L85.8711 111.698Z" fill="#8D3900"/>
<path d="M87.1636 112.991L85.8701 111.697L84.5767 112.991L85.8701 114.284L87.1636 112.991Z" fill="#8D3900"/>
<path d="M70.3481 98.7622L69.0547 97.4688L67.7612 98.7622L69.0547 100.056L70.3481 98.7622Z" fill="#FFF4BC"/>
<path d="M71.6414 100.055L70.3479 98.7617L69.0544 100.055L70.3479 101.349L71.6414 100.055Z" fill="#222222"/>
<path d="M72.9351 101.35L71.6416 100.057L70.3481 101.35L71.6416 102.644L72.9351 101.35Z" fill="#FFC700"/>
<path d="M74.2285 102.643L72.9351 101.35L71.6416 102.643L72.9351 103.937L74.2285 102.643Z" fill="#222222"/>
<path d="M75.522 103.938L74.2285 102.645L72.9351 103.938L74.2285 105.231L75.522 103.938Z" fill="#FFC700"/>
<path d="M76.8159 105.229L75.5225 103.936L74.229 105.229L75.5225 106.522L76.8159 105.229Z" fill="#FFF4BC"/>
<path d="M78.1094 106.524L76.8159 105.23L75.5225 106.524L76.8159 107.817L78.1094 106.524Z" fill="white"/>
<path d="M79.4026 107.817L78.1091 106.523L76.8157 107.817L78.1091 109.11L79.4026 107.817Z" fill="#FFF4BC"/>
<path d="M80.6958 109.112L79.4023 107.818L78.1089 109.112L79.4023 110.405L80.6958 109.112Z" fill="#8D3900"/>
<path d="M81.99 110.405L80.6965 109.111L79.4031 110.405L80.6965 111.698L81.99 110.405Z" fill="#FFC700"/>
<path d="M83.2837 111.7L81.9902 110.406L80.6968 111.7L81.9902 112.993L83.2837 111.7Z" fill="#FFF4BC"/>
<path d="M84.5771 112.991L83.2837 111.697L81.9902 112.991L83.2837 114.284L84.5771 112.991Z" fill="#8D3900"/>
<path d="M85.8706 114.286L84.5771 112.992L83.2837 114.286L84.5771 115.579L85.8706 114.286Z" fill="#8D3900"/>
<path d="M69.0547 100.055L67.7612 98.7617L66.4678 100.055L67.7612 101.349L69.0547 100.055Z" fill="white"/>
<path d="M70.3481 101.35L69.0547 100.057L67.7612 101.35L69.0547 102.644L70.3481 101.35Z" fill="#222222"/>
<path d="M71.6411 102.643L70.3477 101.35L69.0542 102.643L70.3477 103.937L71.6411 102.643Z" fill="#FFC700"/>
<path d="M72.9353 103.936L71.6418 102.643L70.3484 103.936L71.6418 105.229L72.9353 103.936Z" fill="#8D3900"/>
<path d="M74.2288 105.229L72.9353 103.936L71.6418 105.229L72.9353 106.522L74.2288 105.229Z" fill="#FFF4BC"/>
<path d="M75.5217 106.526L74.2283 105.232L72.9348 106.526L74.2283 107.819L75.5217 106.526Z" fill="white"/>
<path d="M76.8159 107.817L75.5225 106.523L74.229 107.817L75.5225 109.11L76.8159 107.817Z" fill="#FFF4BC"/>
<path d="M78.1086 109.112L76.8152 107.818L75.5217 109.112L76.8152 110.405L78.1086 109.112Z" fill="#FFC700"/>
<path d="M79.4033 110.405L78.1099 109.111L76.8164 110.405L78.1099 111.698L79.4033 110.405Z" fill="#222222"/>
<path d="M80.6965 111.698L79.4031 110.404L78.1096 111.698L79.4031 112.991L80.6965 111.698Z" fill="#FFC700"/>
<path d="M81.9897 112.993L80.6963 111.699L79.4028 112.993L80.6963 114.286L81.9897 112.993Z" fill="white"/>
<path d="M83.2839 114.286L81.9905 112.992L80.697 114.286L81.9905 115.579L83.2839 114.286Z" fill="#8D3900"/>
<path d="M84.5774 115.579L83.2839 114.285L81.9905 115.579L83.2839 116.872L84.5774 115.579Z" fill="#8D3900"/>
<path d="M67.7615 101.35L66.468 100.057L65.1746 101.35L66.468 102.644L67.7615 101.35Z" fill="#FFC700"/>
<path d="M69.0542 102.643L67.7607 101.35L66.4673 102.643L67.7607 103.937L69.0542 102.643Z" fill="#222222"/>
<path d="M70.3477 103.938L69.0542 102.645L67.7607 103.938L69.0542 105.231L70.3477 103.938Z" fill="#FFF4BC"/>
<path d="M71.6421 105.229L70.3486 103.936L69.0552 105.229L70.3486 106.522L71.6421 105.229Z" fill="white"/>
<path d="M72.9348 106.524L71.6414 105.23L70.3479 106.524L71.6414 107.817L72.9348 106.524Z" fill="#8D3900"/>
<path d="M74.2285 107.817L72.9351 106.523L71.6416 107.817L72.9351 109.11L74.2285 107.817Z" fill="#FFF4BC"/>
<path d="M75.5227 109.112L74.2292 107.818L72.9358 109.112L74.2292 110.405L75.5227 109.112Z" fill="#FFC700"/>
<path d="M76.8157 110.405L75.5222 109.111L74.2288 110.405L75.5222 111.698L76.8157 110.405Z" fill="#222222"/>
<path d="M78.1099 111.698L76.8164 110.404L75.5229 111.698L76.8164 112.991L78.1099 111.698Z" fill="#FFC700"/>
<path d="M79.4026 112.991L78.1091 111.697L76.8157 112.991L78.1091 114.284L79.4026 112.991Z" fill="#FFC700"/>
<path d="M80.6963 114.286L79.4028 112.992L78.1094 114.286L79.4028 115.579L80.6963 114.286Z" fill="#FFF4BC"/>
<path d="M81.9905 115.579L80.697 114.285L79.4036 115.579L80.697 116.872L81.9905 115.579Z" fill="#8D3900"/>
<path d="M83.2834 116.874L81.99 115.58L80.6965 116.874L81.99 118.167L83.2834 116.874Z" fill="#8D3900"/>
<path d="M67.761 103.936L66.4675 102.643L65.1741 103.936L66.4675 105.229L67.761 103.936Z" fill="#FFF4BC"/>
<path d="M69.0547 105.229L67.7612 103.936L66.4678 105.229L67.7612 106.522L69.0547 105.229Z" fill="#222222"/>
<path d="M70.3472 106.526L69.0537 105.232L67.7603 106.526L69.0537 107.819L70.3472 106.526Z" fill="white"/>
<path d="M71.6414 107.817L70.3479 106.523L69.0544 107.817L70.3479 109.11L71.6414 107.817Z" fill="#8D3900"/>
<path d="M72.9353 109.112L71.6418 107.818L70.3484 109.112L71.6418 110.405L72.9353 109.112Z" fill="#FFC700"/>
<path d="M74.2288 110.405L72.9353 109.111L71.6418 110.405L72.9353 111.698L74.2288 110.405Z" fill="#FFC700"/>
<path d="M75.5222 111.698L74.2288 110.404L72.9353 111.698L74.2288 112.991L75.5222 111.698Z" fill="#222222"/>
<path d="M76.8152 112.993L75.5217 111.699L74.2283 112.993L75.5217 114.286L76.8152 112.993Z" fill="#FFC700"/>
<path d="M78.1094 114.286L76.8159 112.992L75.5225 114.286L76.8159 115.579L78.1094 114.286Z" fill="white"/>
<path d="M79.4033 115.579L78.1099 114.285L76.8164 115.579L78.1099 116.872L79.4033 115.579Z" fill="#8D3900"/>
<path d="M80.6958 116.874L79.4023 115.58L78.1089 116.874L79.4023 118.167L80.6958 116.874Z" fill="#8D3900"/>
<path d="M66.4675 105.229L65.1741 103.936L63.8806 105.229L65.1741 106.522L66.4675 105.229Z" fill="#FFC700"/>
<path d="M67.7607 106.524L66.4673 105.23L65.1738 106.524L66.4673 107.817L67.7607 106.524Z" fill="#222222"/>
<path d="M69.0542 107.817L67.7607 106.523L66.4673 107.817L67.7607 109.11L69.0542 107.817Z" fill="#FFF4BC"/>
<path d="M70.3484 109.112L69.0549 107.818L67.7615 109.112L69.0549 110.405L70.3484 109.112Z" fill="#FFC700"/>
<path d="M71.6411 110.405L70.3477 109.111L69.0542 110.405L70.3477 111.698L71.6411 110.405Z" fill="#8D3900"/>
<path d="M72.9353 111.698L71.6418 110.404L70.3484 111.698L71.6418 112.991L72.9353 111.698Z" fill="#222222"/>
<path d="M74.2283 112.991L72.9348 111.697L71.6414 112.991L72.9348 114.284L74.2283 112.991Z" fill="#FFC700"/>
<path d="M75.522 114.286L74.2285 112.992L72.9351 114.286L74.2285 115.579L75.522 114.286Z" fill="#FFC700"/>
<path d="M76.8162 115.579L75.5227 114.285L74.2292 115.579L75.5227 116.872L76.8162 115.579Z" fill="white"/>
<path d="M78.1091 116.874L76.8157 115.58L75.5222 116.874L76.8157 118.167L78.1091 116.874Z" fill="#8D3900"/>
<path d="M79.4026 118.167L78.1091 116.873L76.8157 118.167L78.1091 119.46L79.4026 118.167Z" fill="#8D3900"/>
<path d="M66.4673 107.817L65.1738 106.523L63.8804 107.817L65.1738 109.11L66.4673 107.817Z" fill="#FFC700"/>
<path d="M67.761 109.112L66.4675 107.818L65.1741 109.112L66.4675 110.405L67.761 109.112Z" fill="#222222"/>
<path d="M69.0535 110.405L67.76 109.111L66.4666 110.405L67.76 111.698L69.0535 110.405Z" fill="#FFC700"/>
<path d="M70.3481 111.7L69.0547 110.406L67.7612 111.7L69.0547 112.993L70.3481 111.7Z" fill="#FFC700"/>
<path d="M71.6414 112.991L70.3479 111.697L69.0544 112.991L70.3479 114.284L71.6414 112.991Z" fill="#FFC700"/>
<path d="M72.9343 114.288L71.6409 112.994L70.3474 114.288L71.6409 115.581L72.9343 114.288Z" fill="#FFC700"/>
<path d="M74.2285 115.579L72.9351 114.285L71.6416 115.579L72.9351 116.872L74.2285 115.579Z" fill="white"/>
<path d="M75.5215 116.874L74.228 115.58L72.9346 116.874L74.228 118.167L75.5215 116.874Z" fill="#8D3900"/>
<path d="M76.8159 118.167L75.5225 116.873L74.229 118.167L75.5225 119.46L76.8159 118.167Z" fill="#8D3900"/>
<path d="M66.4668 110.405L65.1733 109.111L63.8799 110.405L65.1733 111.698L66.4668 110.405Z" fill="#222222"/>
<path d="M67.7603 111.7L66.4668 110.406L65.1733 111.7L66.4668 112.993L67.7603 111.7Z" fill="#222222"/>
<path d="M69.0547 112.991L67.7612 111.697L66.4678 112.991L67.7612 114.284L69.0547 112.991Z" fill="#222222"/>
<path d="M70.3474 114.286L69.054 112.992L67.7605 114.286L69.054 115.579L70.3474 114.286Z" fill="#222222"/>
<path d="M71.6416 115.579L70.3481 114.285L69.0547 115.579L70.3481 116.872L71.6416 115.579Z" fill="#222222"/>
<path d="M72.9346 116.874L71.6411 115.58L70.3477 116.874L71.6411 118.167L72.9346 116.874Z" fill="#8D3900"/>
<path d="M74.2283 118.167L72.9348 116.873L71.6414 118.167L72.9348 119.46L74.2283 118.167Z" fill="#8D3900"/>
</g>
<path d="M18.263 75.0404L24.2027 69.1007L25.1926 70.0907L19.2529 76.0304L18.263 75.0404ZM18.263 77.0203L19.2529 76.0304L20.2429 77.0203L19.2529 78.0103L18.263 77.0203ZM21.7278 78.5053L20.7378 77.5153L21.7278 76.5254L22.7177 77.5153L23.7077 76.5254L25.6876 78.5053L26.6775 77.5153L24.6976 75.5354L25.6876 74.5455L27.6675 76.5254L26.6775 77.5153L27.6675 78.5053L23.7077 82.4651L20.7378 79.4952L21.7278 78.5053ZM23.7077 80.4852L24.6976 79.4952L22.7177 77.5153L21.7278 78.5053L23.7077 80.4852ZM24.6976 83.455L29.6474 78.5053L32.6172 81.4751L31.6273 82.4651L29.6474 80.4852L25.6876 84.445L24.6976 83.455ZM30.6373 83.455L31.6273 82.4651L32.6172 83.455L31.6273 84.445L30.6373 83.455ZM31.6273 88.4048L30.6373 87.4148L33.6072 84.445L34.5971 85.4349L35.5871 84.445L38.5569 87.4148L32.6172 93.3545L31.6273 92.3646L30.6373 93.3545L28.6574 91.3746L29.6474 90.3847L31.6273 92.3646L32.6172 91.3746L30.6373 89.3947L31.6273 88.4048ZM34.5971 85.4349L31.6273 88.4048L33.6072 90.3847L36.577 87.4148L34.5971 85.4349ZM36.577 93.3545L35.5871 92.3646L38.5569 89.3947L39.5469 90.3847L40.5368 89.3947L42.5167 91.3746L41.5268 92.3646L42.5167 93.3545L40.5368 95.3344L37.567 92.3646L36.577 93.3545L38.5569 95.3344L37.567 96.3244L35.5871 94.3445L36.577 93.3545ZM40.5368 93.3545L41.5268 92.3646L39.5469 90.3847L38.5569 91.3746L40.5368 93.3545ZM44.4966 95.3344L45.4866 94.3445L48.4564 97.3143L47.4665 98.3043L44.4966 95.3344ZM42.5167 95.3344L43.5067 94.3445L44.4966 95.3344L43.5067 96.3244L42.5167 95.3344ZM42.5167 97.3143L43.5067 96.3244L45.4866 98.3043L44.4966 99.2942L42.5167 97.3143ZM43.5067 100.284L44.4966 99.2942L45.4866 100.284L44.4966 101.274L43.5067 100.284ZM39.5469 98.3043L40.5368 97.3143L43.5067 100.284L42.5167 101.274L39.5469 98.3043ZM46.4765 103.254L49.4464 100.284L48.4564 99.2942L49.4464 98.3043L50.4363 99.2942L52.4162 97.3143L53.4062 98.3043L51.4263 100.284L52.4162 101.274L51.4263 102.264L50.4363 101.274L47.4665 104.244L46.4765 103.254ZM46.4765 105.234L47.4665 104.244L48.4564 105.234L47.4665 106.224L46.4765 105.234ZM5.36407 82.5062L10.3138 77.5565L13.2837 80.5263L12.2937 81.5163L10.3138 79.5364L6.35402 83.4962L5.36407 82.5062ZM8.33392 85.4761L12.2937 81.5163L13.2837 82.5062L9.32387 86.466L8.33392 85.4761ZM11.3038 86.466L15.2636 82.5062L16.2535 83.4962L12.2937 87.456L11.3038 86.466ZM11.3038 88.4459L12.2937 87.456L14.2736 89.4359L18.2334 85.4761L19.2234 86.466L14.2736 91.4158L11.3038 88.4459ZM15.2636 92.4057L20.2133 87.456L22.1932 89.4359L21.2033 90.4258L20.2133 89.4359L16.2535 93.3957L15.2636 92.4057ZM22.1932 91.4158L23.1832 90.4258L24.1731 91.4158L23.1832 92.4057L22.1932 91.4158ZM19.2234 92.4057L21.2033 90.4258L22.1932 91.4158L20.2133 93.3957L19.2234 92.4057ZM19.2234 96.3655L23.1832 92.4057L24.1731 93.3957L20.2133 97.3555L19.2234 96.3655ZM21.1994 98.3415L28.129 91.4119L29.119 92.4018L27.1391 94.3817L29.119 96.3616L28.129 97.3516L26.1491 95.3717L23.1793 98.3415L25.1592 100.321L24.1692 101.311L21.1994 98.3415ZM25.1592 100.321L28.129 97.3516L29.119 98.3415L26.1491 101.311L25.1592 100.321ZM28.129 103.291L27.1391 102.301L30.1089 99.3315L31.0989 100.321L32.0888 99.3315L34.0687 101.311L33.0788 102.301L34.0687 103.291L32.0888 105.271L29.119 102.301L28.129 103.291L30.1089 105.271L29.119 106.261L27.1391 104.281L28.129 103.291ZM32.0888 103.291L33.0788 102.301L31.0989 100.321L30.1089 101.311L32.0888 103.291ZM31.0989 108.241L36.0486 103.291L39.0185 106.261L38.0285 107.251L36.0486 105.271L32.0888 109.231L31.0989 108.241ZM37.0386 108.241L38.0285 107.251L39.0185 108.241L38.0285 109.231L37.0386 108.241ZM42.9783 108.241L43.9682 107.251L46.9381 110.221L45.9481 111.211L42.9783 108.241ZM40.9984 108.241L41.9883 107.251L42.9783 108.241L41.9883 109.231L40.9984 108.241ZM43.9682 113.191L45.9481 111.211L46.9381 112.201L44.9582 114.181L43.9682 113.191ZM41.9883 113.191L42.9783 112.201L43.9682 113.191L42.9783 114.181L41.9883 113.191ZM40.0084 113.191L40.9984 112.201L41.9883 113.191L40.9984 114.181L40.0084 113.191ZM38.0285 115.171L39.0185 114.181L40.0084 115.171L39.0185 116.161L38.0285 115.171Z" fill="black"/>
<g filter="url(#filter0_d_966_99141)">
<mask id="path-259-outside-1_966_99141" maskUnits="userSpaceOnUse" x="22.5027" y="51.2929" width="48.0833" height="48.0833" fill="black">
<rect fill="white" x="22.5027" y="51.2929" width="48.0833" height="48.0833"/>
<path d="M24.5955 62.5781L33.4308 53.7428L37.2174 57.5294L35.9552 58.7916L33.4308 56.2672L27.1199 62.5781L29.6443 65.1025L28.3821 66.3647L24.5955 62.5781ZM34.693 60.0538L35.9552 58.7916L37.2174 60.0538L35.9552 61.3159L34.693 60.0538ZM32.1687 65.1025L35.9552 61.3159L37.2174 62.5781L33.4308 66.3647L32.1687 65.1025ZM29.6443 65.1025L30.9065 63.8403L32.1687 65.1025L30.9065 66.3647L29.6443 65.1025ZM37.2125 65.0976L38.4747 66.3598L39.7368 65.0976L42.2612 67.6219L40.999 68.8841L42.2612 70.1463L38.4747 73.9329L37.2125 72.6707L35.9503 73.9329L33.4259 71.4085L34.6881 70.1463L33.4259 68.8841L37.2125 65.0976ZM34.6881 70.1463L37.2125 72.6707L40.999 68.8841L38.4747 66.3598L34.6881 70.1463ZM39.7368 75.1951L44.7856 70.1463L46.0478 71.4085L40.999 76.4572L39.7368 75.1951ZM39.7368 77.7194L40.999 76.4572L43.5234 78.9816L48.5721 73.9329L49.8343 75.1951L43.5234 81.506L39.7368 77.7194ZM44.7856 82.7682L53.6209 73.9329L54.8831 75.1951L52.3587 77.7194L54.8831 80.2438L53.6209 81.506L51.0965 78.9816L47.31 82.7682L49.8343 85.2925L48.5721 86.5547L44.7856 82.7682ZM49.8343 85.2925L53.6209 81.506L54.8831 82.7682L51.0965 86.5547L49.8343 85.2925ZM52.3587 87.8169L59.9318 80.2438L61.194 81.506L53.6209 89.0791L52.3587 87.8169ZM52.3587 90.3413L53.6209 89.0791L54.8831 90.3413L53.6209 91.6035L52.3587 90.3413ZM56.7764 92.2346L55.5142 90.9724L59.3007 87.1858L60.5629 88.448L61.8251 87.1858L64.3495 89.7102L63.0873 90.9724L64.3495 92.2346L61.8251 94.7589L58.0385 90.9724L56.7764 92.2346L59.3007 94.7589L58.0385 96.0211L55.5142 93.4967L56.7764 92.2346ZM61.8251 92.2346L63.0873 90.9724L60.5629 88.448L59.3007 89.7102L61.8251 92.2346Z"/>
</mask>
<path d="M24.5955 62.5781L33.4308 53.7428L37.2174 57.5294L35.9552 58.7916L33.4308 56.2672L27.1199 62.5781L29.6443 65.1025L28.3821 66.3647L24.5955 62.5781ZM34.693 60.0538L35.9552 58.7916L37.2174 60.0538L35.9552 61.3159L34.693 60.0538ZM32.1687 65.1025L35.9552 61.3159L37.2174 62.5781L33.4308 66.3647L32.1687 65.1025ZM29.6443 65.1025L30.9065 63.8403L32.1687 65.1025L30.9065 66.3647L29.6443 65.1025ZM37.2125 65.0976L38.4747 66.3598L39.7368 65.0976L42.2612 67.6219L40.999 68.8841L42.2612 70.1463L38.4747 73.9329L37.2125 72.6707L35.9503 73.9329L33.4259 71.4085L34.6881 70.1463L33.4259 68.8841L37.2125 65.0976ZM34.6881 70.1463L37.2125 72.6707L40.999 68.8841L38.4747 66.3598L34.6881 70.1463ZM39.7368 75.1951L44.7856 70.1463L46.0478 71.4085L40.999 76.4572L39.7368 75.1951ZM39.7368 77.7194L40.999 76.4572L43.5234 78.9816L48.5721 73.9329L49.8343 75.1951L43.5234 81.506L39.7368 77.7194ZM44.7856 82.7682L53.6209 73.9329L54.8831 75.1951L52.3587 77.7194L54.8831 80.2438L53.6209 81.506L51.0965 78.9816L47.31 82.7682L49.8343 85.2925L48.5721 86.5547L44.7856 82.7682ZM49.8343 85.2925L53.6209 81.506L54.8831 82.7682L51.0965 86.5547L49.8343 85.2925ZM52.3587 87.8169L59.9318 80.2438L61.194 81.506L53.6209 89.0791L52.3587 87.8169ZM52.3587 90.3413L53.6209 89.0791L54.8831 90.3413L53.6209 91.6035L52.3587 90.3413ZM56.7764 92.2346L55.5142 90.9724L59.3007 87.1858L60.5629 88.448L61.8251 87.1858L64.3495 89.7102L63.0873 90.9724L64.3495 92.2346L61.8251 94.7589L58.0385 90.9724L56.7764 92.2346L59.3007 94.7589L58.0385 96.0211L55.5142 93.4967L56.7764 92.2346ZM61.8251 92.2346L63.0873 90.9724L60.5629 88.448L59.3007 89.7102L61.8251 92.2346Z" fill="#8D3900"/>
<path d="M24.5955 62.5781L23.8884 61.871L23.1813 62.5781L23.8884 63.2852L24.5955 62.5781ZM33.4308 53.7428L34.138 53.0357L33.4308 52.3286L32.7237 53.0357L33.4308 53.7428ZM37.2174 57.5294L37.9245 58.2365L38.6316 57.5294L37.9245 56.8223L37.2174 57.5294ZM35.9552 58.7916L35.2481 59.4987L35.9552 60.2058L36.6623 59.4987L35.9552 58.7916ZM33.4308 56.2672L34.138 55.5601L33.4308 54.853L32.7237 55.5601L33.4308 56.2672ZM27.1199 62.5781L26.4128 61.871L25.7057 62.5781L26.4128 63.2852L27.1199 62.5781ZM29.6443 65.1025L30.3514 65.8096L31.0585 65.1025L30.3514 64.3954L29.6443 65.1025ZM28.3821 66.3647L27.675 67.0718L28.3821 67.7789L29.0892 67.0718L28.3821 66.3647ZM34.693 60.0538L33.9859 59.3467L33.2788 60.0538L33.9859 60.7609L34.693 60.0538ZM35.9552 58.7916L36.6623 58.0845L35.9552 57.3774L35.2481 58.0845L35.9552 58.7916ZM37.2174 60.0538L37.9245 60.7609L38.6316 60.0538L37.9245 59.3467L37.2174 60.0538ZM35.9552 61.3159L35.2481 62.0231L35.9552 62.7302L36.6623 62.0231L35.9552 61.3159ZM32.1687 65.1025L31.4616 64.3954L30.7544 65.1025L31.4616 65.8096L32.1687 65.1025ZM35.9552 61.3159L36.6623 60.6088L35.9552 59.9017L35.2481 60.6088L35.9552 61.3159ZM37.2174 62.5781L37.9245 63.2852L38.6316 62.5781L37.9245 61.871L37.2174 62.5781ZM33.4308 66.3647L32.7237 67.0718L33.4308 67.7789L34.138 67.0718L33.4308 66.3647ZM29.6443 65.1025L28.9372 64.3954L28.2301 65.1025L28.9372 65.8096L29.6443 65.1025ZM30.9065 63.8403L31.6136 63.1332L30.9065 62.4261L30.1994 63.1332L30.9065 63.8403ZM32.1687 65.1025L32.8758 65.8096L33.5829 65.1025L32.8758 64.3954L32.1687 65.1025ZM30.9065 66.3647L30.1994 67.0718L30.9065 67.7789L31.6136 67.0718L30.9065 66.3647ZM25.3027 63.2852L34.138 54.4499L32.7237 53.0357L23.8884 61.871L25.3027 63.2852ZM32.7237 54.4499L36.5103 58.2365L37.9245 56.8223L34.138 53.0357L32.7237 54.4499ZM36.5103 56.8223L35.2481 58.0845L36.6623 59.4987L37.9245 58.2365L36.5103 56.8223ZM36.6623 58.0845L34.138 55.5601L32.7237 56.9743L35.2481 59.4987L36.6623 58.0845ZM32.7237 55.5601L26.4128 61.871L27.827 63.2852L34.138 56.9743L32.7237 55.5601ZM26.4128 63.2852L28.9372 65.8096L30.3514 64.3954L27.827 61.871L26.4128 63.2852ZM28.9372 64.3954L27.675 65.6576L29.0892 67.0718L30.3514 65.8096L28.9372 64.3954ZM29.0892 65.6576L25.3027 61.871L23.8884 63.2852L27.675 67.0718L29.0892 65.6576ZM35.4001 60.7609L36.6623 59.4987L35.2481 58.0845L33.9859 59.3467L35.4001 60.7609ZM35.2481 59.4987L36.5103 60.7609L37.9245 59.3467L36.6623 58.0845L35.2481 59.4987ZM36.5103 59.3467L35.2481 60.6088L36.6623 62.0231L37.9245 60.7609L36.5103 59.3467ZM36.6623 60.6088L35.4001 59.3467L33.9859 60.7609L35.2481 62.0231L36.6623 60.6088ZM32.8758 65.8096L36.6623 62.0231L35.2481 60.6088L31.4616 64.3954L32.8758 65.8096ZM35.2481 62.0231L36.5103 63.2852L37.9245 61.871L36.6623 60.6088L35.2481 62.0231ZM36.5103 61.871L32.7237 65.6576L34.138 67.0718L37.9245 63.2852L36.5103 61.871ZM34.138 65.6576L32.8758 64.3954L31.4616 65.8096L32.7237 67.0718L34.138 65.6576ZM30.3514 65.8096L31.6136 64.5474L30.1994 63.1332L28.9372 64.3954L30.3514 65.8096ZM30.1994 64.5474L31.4616 65.8096L32.8758 64.3954L31.6136 63.1332L30.1994 64.5474ZM31.4616 64.3954L30.1994 65.6576L31.6136 67.0718L32.8758 65.8096L31.4616 64.3954ZM31.6136 65.6576L30.3514 64.3954L28.9372 65.8096L30.1994 67.0718L31.6136 65.6576ZM37.2125 65.0976L37.9196 64.3905L37.2125 63.6834L36.5054 64.3905L37.2125 65.0976ZM38.4747 66.3598L37.7676 67.0669L38.4747 67.774L39.1818 67.0669L38.4747 66.3598ZM39.7368 65.0976L40.444 64.3905L39.7368 63.6834L39.0297 64.3905L39.7368 65.0976ZM42.2612 67.6219L42.9683 68.3291L43.6754 67.6219L42.9683 66.9148L42.2612 67.6219ZM40.999 68.8841L40.2919 68.177L39.5848 68.8841L40.2919 69.5912L40.999 68.8841ZM42.2612 70.1463L42.9683 70.8534L43.6754 70.1463L42.9683 69.4392L42.2612 70.1463ZM38.4747 73.9329L37.7676 74.64L38.4747 75.3471L39.1818 74.64L38.4747 73.9329ZM37.2125 72.6707L37.9196 71.9636L37.2125 71.2565L36.5054 71.9636L37.2125 72.6707ZM35.9503 73.9329L35.2432 74.64L35.9503 75.3471L36.6574 74.64L35.9503 73.9329ZM33.4259 71.4085L32.7188 70.7014L32.0117 71.4085L32.7188 72.1156L33.4259 71.4085ZM34.6881 70.1463L35.3952 70.8534L36.1023 70.1463L35.3952 69.4392L34.6881 70.1463ZM33.4259 68.8841L32.7188 68.177L32.0117 68.8841L32.7188 69.5912L33.4259 68.8841ZM34.6881 70.1463L33.981 69.4392L33.2739 70.1463L33.981 70.8534L34.6881 70.1463ZM37.2125 72.6707L36.5054 73.3778L37.2125 74.0849L37.9196 73.3778L37.2125 72.6707ZM40.999 68.8841L41.7061 69.5912L42.4132 68.8841L41.7061 68.177L40.999 68.8841ZM38.4747 66.3598L39.1818 65.6526L38.4747 64.9455L37.7676 65.6526L38.4747 66.3598ZM36.5054 65.8047L37.7676 67.0669L39.1818 65.6526L37.9196 64.3905L36.5054 65.8047ZM39.1818 67.0669L40.444 65.8047L39.0297 64.3905L37.7676 65.6526L39.1818 67.0669ZM39.0297 65.8047L41.5541 68.3291L42.9683 66.9148L40.444 64.3905L39.0297 65.8047ZM41.5541 66.9148L40.2919 68.177L41.7061 69.5912L42.9683 68.3291L41.5541 66.9148ZM40.2919 69.5912L41.5541 70.8534L42.9683 69.4392L41.7061 68.177L40.2919 69.5912ZM41.5541 69.4392L37.7676 73.2258L39.1818 74.64L42.9683 70.8534L41.5541 69.4392ZM39.1818 73.2258L37.9196 71.9636L36.5054 73.3778L37.7676 74.64L39.1818 73.2258ZM36.5054 71.9636L35.2432 73.2258L36.6574 74.64L37.9196 73.3778L36.5054 71.9636ZM36.6574 73.2258L34.133 70.7014L32.7188 72.1156L35.2432 74.64L36.6574 73.2258ZM34.133 72.1156L35.3952 70.8534L33.981 69.4392L32.7188 70.7014L34.133 72.1156ZM35.3952 69.4392L34.133 68.177L32.7188 69.5912L33.981 70.8534L35.3952 69.4392ZM34.133 69.5912L37.9196 65.8047L36.5054 64.3905L32.7188 68.177L34.133 69.5912ZM33.981 70.8534L36.5054 73.3778L37.9196 71.9636L35.3952 69.4392L33.981 70.8534ZM37.9196 73.3778L41.7061 69.5912L40.2919 68.177L36.5054 71.9636L37.9196 73.3778ZM41.7061 68.177L39.1818 65.6526L37.7676 67.0669L40.2919 69.5912L41.7061 68.177ZM37.7676 65.6526L33.981 69.4392L35.3952 70.8534L39.1818 67.0669L37.7676 65.6526ZM39.7368 75.1951L39.0297 74.488L38.3226 75.1951L39.0297 75.9022L39.7368 75.1951ZM44.7856 70.1463L45.4927 69.4392L44.7856 68.7321L44.0785 69.4392L44.7856 70.1463ZM46.0478 71.4085L46.7549 72.1156L47.462 71.4085L46.7549 70.7014L46.0478 71.4085ZM40.999 76.4572L40.2919 77.1643L40.999 77.8715L41.7061 77.1643L40.999 76.4572ZM39.7368 77.7194L39.0297 77.0123L38.3226 77.7194L39.0297 78.4265L39.7368 77.7194ZM40.999 76.4572L41.7061 75.7501L40.999 75.043L40.2919 75.7501L40.999 76.4572ZM43.5234 78.9816L42.8163 79.6887L43.5234 80.3958L44.2305 79.6887L43.5234 78.9816ZM48.5721 73.9329L49.2793 73.2258L48.5721 72.5187L47.865 73.2258L48.5721 73.9329ZM49.8343 75.1951L50.5414 75.9022L51.2485 75.1951L50.5414 74.488L49.8343 75.1951ZM43.5234 81.506L42.8163 82.2131L43.5234 82.9202L44.2305 82.2131L43.5234 81.506ZM40.444 75.9022L45.4927 70.8534L44.0785 69.4392L39.0297 74.488L40.444 75.9022ZM44.0785 70.8534L45.3407 72.1156L46.7549 70.7014L45.4927 69.4392L44.0785 70.8534ZM45.3407 70.7014L40.2919 75.7501L41.7061 77.1643L46.7549 72.1156L45.3407 70.7014ZM41.7061 75.7501L40.444 74.488L39.0297 75.9022L40.2919 77.1643L41.7061 75.7501ZM40.444 78.4265L41.7061 77.1643L40.2919 75.7501L39.0297 77.0123L40.444 78.4265ZM40.2919 77.1643L42.8163 79.6887L44.2305 78.2745L41.7061 75.7501L40.2919 77.1643ZM44.2305 79.6887L49.2793 74.64L47.865 73.2258L42.8163 78.2745L44.2305 79.6887ZM47.865 74.64L49.1272 75.9022L50.5414 74.488L49.2793 73.2258L47.865 74.64ZM49.1272 74.488L42.8163 80.7989L44.2305 82.2131L50.5414 75.9022L49.1272 74.488ZM44.2305 80.7989L40.444 77.0123L39.0297 78.4265L42.8163 82.2131L44.2305 80.7989ZM44.7856 82.7682L44.0785 82.0611L43.3714 82.7682L44.0785 83.4753L44.7856 82.7682ZM53.6209 73.9329L54.328 73.2258L53.6209 72.5187L52.9138 73.2258L53.6209 73.9329ZM54.8831 75.1951L55.5902 75.9022L56.2973 75.1951L55.5902 74.4879L54.8831 75.1951ZM52.3587 77.7194L51.6516 77.0123L50.9445 77.7194L51.6516 78.4265L52.3587 77.7194ZM54.8831 80.2438L55.5902 80.9509L56.2973 80.2438L55.5902 79.5367L54.8831 80.2438ZM53.6209 81.506L52.9138 82.2131L53.6209 82.9202L54.328 82.2131L53.6209 81.506ZM51.0965 78.9816L51.8036 78.2745L51.0965 77.5674L50.3894 78.2745L51.0965 78.9816ZM47.31 82.7682L46.6029 82.0611L45.8957 82.7682L46.6029 83.4753L47.31 82.7682ZM49.8343 85.2925L50.5414 85.9996L51.2485 85.2925L50.5414 84.5854L49.8343 85.2925ZM48.5721 86.5547L47.865 87.2618L48.5721 87.9689L49.2792 87.2618L48.5721 86.5547ZM49.8343 85.2925L49.1272 84.5854L48.4201 85.2925L49.1272 85.9996L49.8343 85.2925ZM53.6209 81.506L54.328 80.7989L53.6209 80.0918L52.9138 80.7989L53.6209 81.506ZM54.8831 82.7682L55.5902 83.4753L56.2973 82.7682L55.5902 82.0611L54.8831 82.7682ZM51.0965 86.5547L50.3894 87.2618L51.0965 87.9689L51.8036 87.2618L51.0965 86.5547ZM45.4927 83.4753L54.328 74.64L52.9138 73.2258L44.0785 82.0611L45.4927 83.4753ZM52.9138 74.64L54.176 75.9022L55.5902 74.4879L54.328 73.2258L52.9138 74.64ZM54.176 74.4879L51.6516 77.0123L53.0658 78.4265L55.5902 75.9022L54.176 74.4879ZM51.6516 78.4265L54.176 80.9509L55.5902 79.5367L53.0658 77.0123L51.6516 78.4265ZM54.176 79.5367L52.9138 80.7989L54.328 82.2131L55.5902 80.9509L54.176 79.5367ZM54.328 80.7989L51.8036 78.2745L50.3894 79.6887L52.9138 82.2131L54.328 80.7989ZM50.3894 78.2745L46.6029 82.0611L48.0171 83.4753L51.8036 79.6887L50.3894 78.2745ZM46.6029 83.4753L49.1272 85.9996L50.5414 84.5854L48.0171 82.0611L46.6029 83.4753ZM49.1272 84.5854L47.865 85.8476L49.2792 87.2618L50.5414 85.9996L49.1272 84.5854ZM49.2792 85.8476L45.4927 82.0611L44.0785 83.4753L47.865 87.2618L49.2792 85.8476ZM50.5414 85.9996L54.328 82.2131L52.9138 80.7989L49.1272 84.5854L50.5414 85.9996ZM52.9138 82.2131L54.176 83.4753L55.5902 82.0611L54.328 80.7989L52.9138 82.2131ZM54.176 82.0611L50.3894 85.8476L51.8036 87.2618L55.5902 83.4753L54.176 82.0611ZM51.8036 85.8476L50.5414 84.5854L49.1272 85.9996L50.3894 87.2618L51.8036 85.8476ZM52.3587 87.8169L51.6516 87.1098L50.9445 87.8169L51.6516 88.524L52.3587 87.8169ZM59.9318 80.2438L60.6389 79.5367L59.9318 78.8296L59.2247 79.5367L59.9318 80.2438ZM61.194 81.506L61.9011 82.2131L62.6082 81.506L61.9011 80.7989L61.194 81.506ZM53.6209 89.0791L52.9138 89.7862L53.6209 90.4933L54.328 89.7862L53.6209 89.0791ZM52.3587 90.3413L51.6516 89.6342L50.9445 90.3413L51.6516 91.0484L52.3587 90.3413ZM53.6209 89.0791L54.328 88.372L53.6209 87.6649L52.9138 88.372L53.6209 89.0791ZM54.8831 90.3413L55.5902 91.0484L56.2973 90.3413L55.5902 89.6342L54.8831 90.3413ZM53.6209 91.6035L52.9138 92.3106L53.6209 93.0177L54.328 92.3106L53.6209 91.6035ZM53.0658 88.524L60.6389 80.9509L59.2247 79.5367L51.6516 87.1098L53.0658 88.524ZM59.2247 80.9509L60.4869 82.2131L61.9011 80.7989L60.6389 79.5367L59.2247 80.9509ZM60.4869 80.7989L52.9138 88.372L54.328 89.7862L61.9011 82.2131L60.4869 80.7989ZM54.328 88.372L53.0658 87.1098L51.6516 88.524L52.9138 89.7862L54.328 88.372ZM53.0658 91.0484L54.328 89.7862L52.9138 88.372L51.6516 89.6342L53.0658 91.0484ZM52.9138 89.7862L54.176 91.0484L55.5902 89.6342L54.328 88.372L52.9138 89.7862ZM54.176 89.6342L52.9138 90.8964L54.328 92.3106L55.5902 91.0484L54.176 89.6342ZM54.328 90.8964L53.0658 89.6342L51.6516 91.0484L52.9138 92.3106L54.328 90.8964ZM55.5142 90.9724L54.8071 90.2653L54.1 90.9724L54.8071 91.6795L55.5142 90.9724ZM59.3007 87.1858L60.0078 86.4787L59.3007 85.7716L58.5936 86.4787L59.3007 87.1858ZM60.5629 88.448L59.8558 89.1551L60.5629 89.8622L61.27 89.1551L60.5629 88.448ZM61.8251 87.1858L62.5322 86.4787L61.8251 85.7716L61.118 86.4787L61.8251 87.1858ZM64.3495 89.7102L65.0566 90.4173L65.7637 89.7102L65.0566 89.0031L64.3495 89.7102ZM63.0873 90.9724L62.3802 90.2653L61.6731 90.9724L62.3802 91.6795L63.0873 90.9724ZM64.3495 92.2346L65.0566 92.9417L65.7637 92.2346L65.0566 91.5275L64.3495 92.2346ZM61.8251 94.7589L61.118 95.466L61.8251 96.1731L62.5322 95.466L61.8251 94.7589ZM58.0385 90.9724L58.7456 90.2653L58.0385 89.5582L57.3314 90.2653L58.0385 90.9724ZM59.3007 94.7589L60.0078 95.466L60.7149 94.7589L60.0078 94.0518L59.3007 94.7589ZM58.0385 96.0211L57.3314 96.7282L58.0385 97.4353L58.7456 96.7282L58.0385 96.0211ZM55.5142 93.4968L54.8071 92.7896L54.1 93.4968L54.8071 94.2039L55.5142 93.4968ZM61.8251 92.2346L61.118 92.9417L61.8251 93.6488L62.5322 92.9417L61.8251 92.2346ZM63.0873 90.9724L63.7944 91.6795L64.5015 90.9724L63.7944 90.2653L63.0873 90.9724ZM60.5629 88.448L61.27 87.7409L60.5629 87.0338L59.8558 87.7409L60.5629 88.448ZM59.3007 89.7102L58.5936 89.0031L57.8865 89.7102L58.5936 90.4173L59.3007 89.7102ZM57.4835 91.5275L56.2213 90.2653L54.8071 91.6795L56.0692 92.9417L57.4835 91.5275ZM56.2213 91.6795L60.0078 87.8929L58.5936 86.4787L54.8071 90.2653L56.2213 91.6795ZM58.5936 87.8929L59.8558 89.1551L61.27 87.7409L60.0078 86.4787L58.5936 87.8929ZM61.27 89.1551L62.5322 87.8929L61.118 86.4787L59.8558 87.7409L61.27 89.1551ZM61.118 87.8929L63.6424 90.4173L65.0566 89.0031L62.5322 86.4787L61.118 87.8929ZM63.6424 89.0031L62.3802 90.2653L63.7944 91.6795L65.0566 90.4173L63.6424 89.0031ZM62.3802 91.6795L63.6424 92.9417L65.0566 91.5275L63.7944 90.2653L62.3802 91.6795ZM63.6424 91.5275L61.118 94.0518L62.5322 95.466L65.0566 92.9417L63.6424 91.5275ZM62.5322 94.0518L58.7456 90.2653L57.3314 91.6795L61.118 95.466L62.5322 94.0518ZM57.3314 90.2653L56.0692 91.5275L57.4835 92.9417L58.7456 91.6795L57.3314 90.2653ZM56.0692 92.9417L58.5936 95.466L60.0078 94.0518L57.4835 91.5275L56.0692 92.9417ZM58.5936 94.0518L57.3314 95.314L58.7456 96.7282L60.0078 95.466L58.5936 94.0518ZM58.7456 95.314L56.2213 92.7896L54.8071 94.2039L57.3314 96.7282L58.7456 95.314ZM56.2213 94.2039L57.4835 92.9417L56.0692 91.5275L54.8071 92.7896L56.2213 94.2039ZM62.5322 92.9417L63.7944 91.6795L62.3802 90.2653L61.118 91.5275L62.5322 92.9417ZM63.7944 90.2653L61.27 87.7409L59.8558 89.1551L62.3802 91.6795L63.7944 90.2653ZM59.8558 87.7409L58.5936 89.0031L60.0078 90.4173L61.27 89.1551L59.8558 87.7409ZM58.5936 90.4173L61.118 92.9417L62.5322 91.5275L60.0078 89.0031L58.5936 90.4173Z" fill="white" mask="url(#path-259-outside-1_966_99141)"/>
</g>
<defs>
<filter id="filter0_d_966_99141" x="24.5955" y="53.7432" width="44.5405" height="43.54" filterUnits="userSpaceOnUse" color-interpolation-filters="sRGB">
<feFlood flood-opacity="0" result="BackgroundImageFix"/>
<feColorMatrix in="SourceAlpha" type="matrix" values="0 0 0 0 0 0 0 0 0 0 0 0 0 0 0 0 0 0 127 0" result="hardAlpha"/>
<feOffset dx="1"/>
<feComposite in2="hardAlpha" operator="out"/>
<feColorMatrix type="matrix" values="0 0 0 0 1 0 0 0 0 1 0 0 0 0 1 0 0 0 1 0"/>
<feBlend mode="normal" in2="BackgroundImageFix" result="effect1_dropShadow_966_99141"/>
<feBlend mode="normal" in="SourceGraphic" in2="effect1_dropShadow_966_99141" result="shape"/>
</filter>
<clipPath id="clip0_966_99141">
<rect width="23.7821" height="21.9524" fill="white" transform="translate(16.5227 30) rotate(45)"/>
</clipPath>
<clipPath id="clip1_966_99141">
<rect width="23.7821" height="21.9524" fill="white" transform="translate(75.5227 91) rotate(45)"/>
</clipPath>
</defs>
</svg>
