<svg width="103" height="36" viewBox="0 0 103 36" fill="none" xmlns="http://www.w3.org/2000/svg">
<path d="M94.1009 2.9668H9.06359V5.93321H6.09717L6.09717 29.6646H9.06359V32.631H94.1009V29.6646H97.0673V5.93321H94.1009V2.9668Z" fill="#FAE100"/>
<mask id="path-2-outside-1_966_95972" maskUnits="userSpaceOnUse" x="11.03" y="7.91016" width="84" height="19" fill="black">
<rect fill="white" x="11.03" y="7.91016" width="84" height="19"/>
<path d="M23.8873 13.6152L23.8873 24.9102L20.8143 24.9102L20.8143 21.0231H16.4591L16.4591 24.9102H13.3861L13.3861 10.6643L20.8143 10.6643V13.6152L16.4591 13.6152V18.0518H20.8143V13.6152H23.8873ZM38.4379 13.6152H35.3649V24.9102H32.2919V13.6152H29.2188L29.2188 24.9102H26.1458L26.1458 10.6643L38.4379 10.6643V13.6152ZM38.4379 24.9102V13.6152H41.511V24.9102H38.4379ZM54.3162 13.6152V24.9102H46.6438V21.9592H43.5707L43.5707 10.6643L51.2431 10.6643V13.6152L46.6438 13.6152V21.9592H51.2431V13.6152H54.3162ZM67.135 10.6643V24.9102H59.4626V21.9592H56.3896V10.6643H59.4626V21.9592H64.062V10.6643H67.135ZM77.4469 13.6152H72.644V24.9102H69.571V10.6643L77.4469 10.6643V13.6152ZM77.4469 24.9102V13.6152H80.5199V24.9102H77.4469ZM92.6979 10.6643V13.6152L88.7701 13.6152V24.9102H85.6971V13.6152H81.749V10.6643L92.6979 10.6643Z"/>
</mask>
<path d="M23.8873 13.6152L23.8873 24.9102L20.8143 24.9102L20.8143 21.0231H16.4591L16.4591 24.9102H13.3861L13.3861 10.6643L20.8143 10.6643V13.6152L16.4591 13.6152V18.0518H20.8143V13.6152H23.8873ZM38.4379 13.6152H35.3649V24.9102H32.2919V13.6152H29.2188L29.2188 24.9102H26.1458L26.1458 10.6643L38.4379 10.6643V13.6152ZM38.4379 24.9102V13.6152H41.511V24.9102H38.4379ZM54.3162 13.6152V24.9102H46.6438V21.9592H43.5707L43.5707 10.6643L51.2431 10.6643V13.6152L46.6438 13.6152V21.9592H51.2431V13.6152H54.3162ZM67.135 10.6643V24.9102H59.4626V21.9592H56.3896V10.6643H59.4626V21.9592H64.062V10.6643H67.135ZM77.4469 13.6152H72.644V24.9102H69.571V10.6643L77.4469 10.6643V13.6152ZM77.4469 24.9102V13.6152H80.5199V24.9102H77.4469ZM92.6979 10.6643V13.6152L88.7701 13.6152V24.9102H85.6971V13.6152H81.749V10.6643L92.6979 10.6643Z" fill="white"/>
<path d="M23.8873 13.6152L25.8649 13.6152V11.6376H23.8873V13.6152ZM23.8873 24.9102V26.8878H25.8649V24.9102H23.8873ZM20.8143 24.9102H18.8366V26.8878H20.8143V24.9102ZM20.8143 21.0231H22.7919V19.0455H20.8143V21.0231ZM16.4591 21.0231V19.0455H14.4815V21.0231H16.4591ZM16.4591 24.9102V26.8878H18.4367V24.9102H16.4591ZM13.3861 24.9102H11.4085V26.8878H13.3861V24.9102ZM13.3861 10.6643V8.68669H11.4085V10.6643H13.3861ZM20.8143 10.6643H22.7919V8.68669H20.8143V10.6643ZM20.8143 13.6152V15.5928H22.7919V13.6152H20.8143ZM16.4591 13.6152V11.6376H14.4815V13.6152H16.4591ZM16.4591 18.0518H14.4815V20.0294H16.4591V18.0518ZM20.8143 18.0518V20.0294H22.7919V18.0518H20.8143ZM20.8143 13.6152V11.6376L18.8366 11.6376V13.6152L20.8143 13.6152ZM21.9097 13.6152L21.9097 24.9102L25.8649 24.9102L25.8649 13.6152L21.9097 13.6152ZM23.8873 22.9325H20.8143L20.8143 26.8878L23.8873 26.8878L23.8873 22.9325ZM22.7919 24.9102L22.7919 21.0231H18.8366L18.8366 24.9102H22.7919ZM20.8143 19.0455H16.4591L16.4591 23.0007H20.8143V19.0455ZM14.4815 21.0231L14.4815 24.9102H18.4367L18.4367 21.0231H14.4815ZM16.4591 22.9325H13.3861L13.3861 26.8878H16.4591V22.9325ZM15.3637 24.9102L15.3637 10.6643H11.4085L11.4085 24.9102H15.3637ZM13.3861 12.6419L20.8143 12.6419V8.68669L13.3861 8.68669V12.6419ZM18.8366 10.6643V13.6152L22.7919 13.6152V10.6643L18.8366 10.6643ZM20.8143 11.6376L16.4591 11.6376V15.5928L20.8143 15.5928V11.6376ZM14.4815 13.6152L14.4815 18.0518H18.4367V13.6152H14.4815ZM16.4591 20.0294H20.8143V16.0742H16.4591V20.0294ZM22.7919 18.0518V13.6152L18.8366 13.6152V18.0518H22.7919ZM20.8143 15.5928H23.8873V11.6376H20.8143V15.5928ZM38.4379 13.6152V15.5928H40.4155V13.6152H38.4379ZM35.3649 13.6152V11.6376H33.3873V13.6152H35.3649ZM35.3649 24.9102V26.8878H37.3425V24.9102H35.3649ZM32.2919 24.9102H30.3143V26.8878H32.2919V24.9102ZM32.2919 13.6152H34.2695V11.6376H32.2919V13.6152ZM29.2188 13.6152V11.6376H27.2412V13.6152H29.2188ZM29.2188 24.9102V26.8878H31.1964V24.9102H29.2188ZM26.1458 24.9102H24.1682V26.8878H26.1458V24.9102ZM26.1458 10.6643V8.68669H24.1682V10.6643H26.1458ZM38.4379 10.6643H40.4155V8.68669L38.4379 8.68669V10.6643ZM38.4379 24.9102H36.4603V26.8878H38.4379V24.9102ZM38.4379 13.6152V11.6376H36.4603V13.6152H38.4379ZM41.511 13.6152L43.4886 13.6152V11.6376H41.511V13.6152ZM41.511 24.9102V26.8878H43.4886V24.9102H41.511ZM38.4379 11.6376H35.3649V15.5928H38.4379V11.6376ZM33.3873 13.6152V24.9102H37.3425V13.6152H33.3873ZM35.3649 22.9325H32.2919V26.8878H35.3649V22.9325ZM34.2695 24.9102V13.6152H30.3143L30.3143 24.9102H34.2695ZM32.2919 11.6376H29.2188V15.5928H32.2919V11.6376ZM27.2412 13.6152L27.2412 24.9102H31.1964L31.1964 13.6152H27.2412ZM29.2188 22.9325L26.1458 22.9325L26.1458 26.8878H29.2188V22.9325ZM28.1234 24.9102L28.1234 10.6643L24.1682 10.6643L24.1682 24.9102H28.1234ZM26.1458 12.6419H38.4379V8.68669L26.1458 8.68669V12.6419ZM36.4603 10.6643V13.6152H40.4155V10.6643H36.4603ZM40.4155 24.9102V13.6152H36.4603V24.9102H40.4155ZM38.4379 15.5928H41.511V11.6376L38.4379 11.6376V15.5928ZM39.5334 13.6152V24.9102H43.4886V13.6152L39.5334 13.6152ZM41.511 22.9325L38.4379 22.9325V26.8878H41.511V22.9325ZM54.3162 13.6152H56.2938V11.6376H54.3162V13.6152ZM54.3162 24.9102V26.8878H56.2938V24.9102H54.3162ZM46.6438 24.9102L44.6661 24.9102V26.8878L46.6438 26.8878V24.9102ZM46.6438 21.9592H48.6214V19.9816H46.6438V21.9592ZM43.5707 21.9592H41.5931V23.9368H43.5707V21.9592ZM43.5707 10.6643V8.68669H41.5931V10.6643H43.5707ZM51.2431 10.6643H53.2207V8.68669H51.2431V10.6643ZM51.2431 13.6152V15.5928H53.2207V13.6152H51.2431ZM46.6438 13.6152V11.6376H44.6661V13.6152H46.6438ZM46.6438 21.9592H44.6661V23.9368L46.6438 23.9368V21.9592ZM51.2431 21.9592V23.9368H53.2207V21.9592H51.2431ZM51.2431 13.6152V11.6376L49.2655 11.6376V13.6152H51.2431ZM52.3386 13.6152V24.9102H56.2938V13.6152H52.3386ZM54.3162 22.9325H46.6438V26.8878H54.3162V22.9325ZM48.6214 24.9102V21.9592H44.6661V24.9102L48.6214 24.9102ZM46.6438 19.9816H43.5707V23.9368L46.6438 23.9368V19.9816ZM45.5483 21.9592V10.6643H41.5931V21.9592H45.5483ZM43.5707 12.6419L51.2431 12.6419V8.68669L43.5707 8.68669V12.6419ZM49.2655 10.6643V13.6152H53.2207V10.6643L49.2655 10.6643ZM51.2431 11.6376L46.6438 11.6376V15.5928L51.2431 15.5928V11.6376ZM44.6661 13.6152V21.9592H48.6214V13.6152L44.6661 13.6152ZM46.6438 23.9368H51.2431V19.9816H46.6438V23.9368ZM53.2207 21.9592V13.6152H49.2655V21.9592H53.2207ZM51.2431 15.5928H54.3162V11.6376H51.2431V15.5928ZM67.135 10.6643H69.1127V8.68669H67.135V10.6643ZM67.135 24.9102V26.8878L69.1127 26.8878V24.9102L67.135 24.9102ZM59.4626 24.9102H57.485V26.8878H59.4626V24.9102ZM59.4626 21.9592H61.4403V19.9816H59.4626V21.9592ZM56.3896 21.9592H54.412V23.9368H56.3896V21.9592ZM56.3896 10.6643V8.68669H54.412V10.6643H56.3896ZM59.4626 10.6643H61.4403V8.68669H59.4626V10.6643ZM59.4626 21.9592H57.485V23.9368H59.4626V21.9592ZM64.062 21.9592V23.9368H66.0396V21.9592H64.062ZM64.062 10.6643V8.68669H62.0844V10.6643L64.062 10.6643ZM65.1574 10.6643V24.9102L69.1127 24.9102V10.6643H65.1574ZM67.135 22.9325H59.4626V26.8878H67.135V22.9325ZM61.4403 24.9102V21.9592H57.485V24.9102H61.4403ZM59.4626 19.9816H56.3896V23.9368H59.4626V19.9816ZM58.3672 21.9592V10.6643H54.412V21.9592H58.3672ZM56.3896 12.6419H59.4626V8.68669H56.3896V12.6419ZM57.485 10.6643V21.9592H61.4403V10.6643H57.485ZM59.4626 23.9368H64.062V19.9816H59.4626V23.9368ZM66.0396 21.9592V10.6643L62.0844 10.6643V21.9592H66.0396ZM64.062 12.6419L67.135 12.6419V8.68669H64.062V12.6419ZM77.4469 13.6152V15.5928H79.4245V13.6152H77.4469ZM72.644 13.6152V11.6376L70.6664 11.6376V13.6152H72.644ZM72.644 24.9102V26.8878H74.6216V24.9102H72.644ZM69.571 24.9102H67.5934V26.8878H69.571V24.9102ZM69.571 10.6643V8.68669H67.5934V10.6643H69.571ZM77.4469 10.6643H79.4245V8.68669H77.4469V10.6643ZM77.4469 24.9102H75.4693V26.8878H77.4469V24.9102ZM77.4469 13.6152V11.6376H75.4693V13.6152H77.4469ZM80.5199 13.6152H82.4976V11.6376H80.5199V13.6152ZM80.5199 24.9102V26.8878H82.4976V24.9102H80.5199ZM77.4469 11.6376H72.644V15.5928H77.4469V11.6376ZM70.6664 13.6152V24.9102H74.6216V13.6152H70.6664ZM72.644 22.9325H69.571V26.8878H72.644V22.9325ZM71.5486 24.9102V10.6643L67.5934 10.6643V24.9102H71.5486ZM69.571 12.6419L77.4469 12.6419V8.68669L69.571 8.68669V12.6419ZM75.4693 10.6643V13.6152H79.4245V10.6643H75.4693ZM79.4245 24.9102V13.6152H75.4693V24.9102H79.4245ZM77.4469 15.5928H80.5199V11.6376H77.4469V15.5928ZM78.5423 13.6152V24.9102H82.4976V13.6152H78.5423ZM80.5199 22.9325H77.4469V26.8878H80.5199V22.9325ZM92.6979 10.6643L94.6755 10.6643V8.68669L92.6979 8.68669V10.6643ZM92.6979 13.6152V15.5928H94.6755V13.6152H92.6979ZM88.7701 13.6152V11.6376H86.7925V13.6152H88.7701ZM88.7701 24.9102V26.8878L90.7477 26.8878V24.9102L88.7701 24.9102ZM85.6971 24.9102H83.7195V26.8878H85.6971V24.9102ZM85.6971 13.6152L87.6747 13.6152V11.6376H85.6971V13.6152ZM81.749 13.6152H79.7714V15.5928H81.749V13.6152ZM81.749 10.6643V8.68669H79.7714V10.6643H81.749ZM90.7203 10.6643V13.6152L94.6755 13.6152V10.6643L90.7203 10.6643ZM92.6979 11.6376H88.7701V15.5928L92.6979 15.5928V11.6376ZM86.7925 13.6152V24.9102L90.7477 24.9102V13.6152H86.7925ZM88.7701 22.9325H85.6971V26.8878H88.7701V22.9325ZM87.6747 24.9102V13.6152L83.7195 13.6152V24.9102H87.6747ZM85.6971 11.6376L81.749 11.6376V15.5928H85.6971V11.6376ZM83.7266 13.6152V10.6643H79.7714V13.6152H83.7266ZM81.749 12.6419L92.6979 12.6419V8.68669L81.749 8.68669V12.6419Z" fill="#FF8D00" mask="url(#path-2-outside-1_966_95972)"/>
<rect x="6.09717" width="90.9701" height="2.96642" fill="#6B001E"/>
<rect x="6.09717" y="2.9668" width="90.9701" height="2.96642" fill="#FAC300"/>
<rect x="3.13062" y="2.9668" width="2.96642" height="2.96642" fill="#6B001E"/>
<rect width="2.96642" height="2.96642" transform="matrix(-1 0 0 1 100.034 2.9668)" fill="#6B001E"/>
<rect x="3.13062" y="29.6641" width="2.96642" height="2.96642" fill="#6B001E"/>
<rect width="2.96642" height="2.96642" transform="matrix(-1 0 0 1 100.034 29.6641)" fill="#6B001E"/>
<rect x="6.09717" y="32.6309" width="90.9701" height="2.96642" fill="#6B001E"/>
<rect x="6.09717" y="29.6641" width="90.9701" height="2.96642" fill="#FAC300"/>
<rect x="0.164307" y="5.93262" width="2.96642" height="23.7313" fill="#6B001E"/>
<rect x="3.13062" y="5.93262" width="2.96642" height="23.7313" fill="#FAC300"/>
<rect x="97.0674" y="5.93262" width="2.96642" height="23.7313" fill="#FAC300"/>
<rect width="2.96642" height="23.7313" transform="matrix(-1 0 0 1 103 5.93262)" fill="#6B001E"/>
</svg>
