<svg width="132" height="130" viewBox="0 0 132 130" fill="none" xmlns="http://www.w3.org/2000/svg">
<rect x="0.297119" y="140.678" width="198.527" height="88.7246" transform="rotate(-45 0.297119 140.678)" fill="#E86F00"/>
<path d="M85.7673 101.563L82.7975 98.5928L83.7874 97.6029L86.7573 100.573L85.7673 101.563ZM89.7271 97.6029L86.7573 94.633L87.7472 93.6431L90.717 96.6129L89.7271 97.6029ZM87.7472 101.563L86.7573 100.573L87.7472 99.5828L88.7371 100.573L87.7472 101.563ZM89.7271 99.5828L88.7371 98.5928L89.7271 97.6029L90.717 98.5928L89.7271 99.5828ZM91.707 103.543L88.7371 100.573L89.7271 99.5828L92.6969 102.553L91.707 103.543ZM91.7031 95.6268L92.6931 94.6369L91.7031 93.6469L93.683 91.667L94.673 92.657L95.6629 91.667L98.6328 94.6369L97.6428 95.6268L98.6328 96.6168L96.6529 98.5967L95.6629 97.6067L94.673 98.5967L91.7031 95.6268ZM95.6629 97.6067L97.6428 95.6268L94.673 92.657L92.6931 94.6369L95.6629 97.6067ZM99.6227 93.6469L95.6629 89.6871L96.6529 88.6972L100.613 92.657L99.6227 93.6469ZM101.603 93.6469L100.613 92.657L102.593 90.6771L98.6328 86.7173L99.6227 85.7273L104.572 90.6771L101.603 93.6469ZM105.562 89.6871L100.613 84.7374L103.583 81.7675L104.572 82.7575L102.593 84.7374L106.552 88.6972L105.562 89.6871ZM105.562 83.7474L104.572 82.7575L105.562 81.7675L106.552 82.7575L105.562 83.7474ZM92.2344 111.5L95.2043 108.531L96.1942 109.521L97.1842 108.531L100.154 111.5L99.1641 112.49L100.154 113.48L98.1741 115.46L100.154 117.44L99.1641 118.43L92.2344 111.5ZM99.1641 112.49L96.1942 109.521L94.2143 111.5L97.1842 114.47L99.1641 112.49ZM102.134 111.5L97.1842 106.551L100.154 103.581L101.144 104.571L99.1641 106.551L103.124 110.51L102.134 111.5ZM102.134 105.561L101.144 104.571L102.134 103.581L103.124 104.571L102.134 105.561ZM101.144 100.611L100.154 99.621L101.144 98.6311L102.134 99.621L101.144 100.611ZM107.084 106.551L102.134 101.601L103.124 100.611L108.074 105.561L107.084 106.551ZM109.066 98.6291L108.076 97.6392L105.106 100.609L104.116 99.6191L108.076 95.6593L110.055 97.6392L109.066 98.6291ZM108.076 101.599L107.086 100.609L109.066 98.6291L110.055 99.6191L108.076 101.599ZM109.066 104.569L107.086 102.589L108.076 101.599L109.066 102.589L112.035 99.6191L113.025 100.609L109.066 104.569ZM114.015 97.6392L113.025 98.6291L110.055 95.6593L111.045 94.6693L110.055 93.6794L112.035 91.6995L113.025 92.6894L114.015 91.6995L115.995 93.6794L113.025 96.6492L114.015 97.6392L115.995 95.6593L116.985 96.6492L115.005 98.6291L114.015 97.6392ZM114.015 93.6794L113.025 92.6894L111.045 94.6693L112.035 95.6593L114.015 93.6794ZM117.48 92.1945L112.53 87.2447L113.52 86.2548L118.47 91.2045L117.48 92.1945ZM119.46 94.1744L118.47 93.1844L119.46 92.1945L120.45 93.1844L119.46 94.1744Z" fill="black"/>
<g filter="url(#filter0_d_966_99142)">
<mask id="path-3-outside-1_966_99142" maskUnits="userSpaceOnUse" x="60.2929" y="56.2929" width="48.0833" height="48.0833" fill="black">
<rect fill="white" x="60.2929" y="56.2929" width="48.0833" height="48.0833"/>
<path d="M71.5781 102.283L62.7428 93.4481L66.5294 89.6615L67.7916 90.9237L65.2672 93.4481L71.5781 99.759L74.1025 97.2346L75.3647 98.4968L71.5781 102.283ZM69.0538 92.1859L67.7916 90.9237L69.0538 89.6615L70.3159 90.9237L69.0538 92.1859ZM74.1025 94.7102L70.3159 90.9237L71.5781 89.6615L75.3647 93.4481L74.1025 94.7102ZM74.1025 97.2346L72.8403 95.9724L74.1025 94.7102L75.3647 95.9724L74.1025 97.2346ZM74.0976 89.6664L75.3598 88.4042L74.0976 87.1421L76.6219 84.6177L77.8841 85.8799L79.1463 84.6177L82.9329 88.4042L81.6707 89.6664L82.9329 90.9286L80.4085 93.453L79.1463 92.1908L77.8841 93.453L74.0976 89.6664ZM79.1463 92.1908L81.6707 89.6664L77.8841 85.8799L75.3598 88.4042L79.1463 92.1908ZM84.1951 87.1421L79.1463 82.0933L80.4085 80.8311L85.4572 85.8799L84.1951 87.1421ZM86.7194 87.1421L85.4572 85.8799L87.9816 83.3555L82.9329 78.3068L84.1951 77.0446L90.506 83.3555L86.7194 87.1421ZM91.7682 82.0933L82.9329 73.258L84.1951 71.9958L86.7194 74.5202L89.2438 71.9958L90.506 73.258L87.9816 75.7824L91.7682 79.5689L94.2925 77.0446L95.5547 78.3068L91.7682 82.0933ZM94.2925 77.0446L90.506 73.258L91.7682 71.9958L95.5547 75.7824L94.2925 77.0446ZM96.8169 74.5202L89.2438 66.9471L90.506 65.6849L98.0791 73.258L96.8169 74.5202ZM99.3413 74.5202L98.0791 73.258L99.3413 71.9958L100.603 73.258L99.3413 74.5202ZM101.235 70.1026L99.9724 71.3647L96.1858 67.5782L97.448 66.316L96.1858 65.0538L98.7102 62.5294L99.9724 63.7916L101.235 62.5294L103.759 65.0538L99.9724 68.8404L101.235 70.1026L103.759 67.5782L105.021 68.8404L102.497 71.3647L101.235 70.1026ZM101.235 65.0538L99.9724 63.7916L97.448 66.316L98.7102 67.5782L101.235 65.0538Z"/>
</mask>
<path d="M71.5781 102.283L62.7428 93.4481L66.5294 89.6615L67.7916 90.9237L65.2672 93.4481L71.5781 99.759L74.1025 97.2346L75.3647 98.4968L71.5781 102.283ZM69.0538 92.1859L67.7916 90.9237L69.0538 89.6615L70.3159 90.9237L69.0538 92.1859ZM74.1025 94.7102L70.3159 90.9237L71.5781 89.6615L75.3647 93.4481L74.1025 94.7102ZM74.1025 97.2346L72.8403 95.9724L74.1025 94.7102L75.3647 95.9724L74.1025 97.2346ZM74.0976 89.6664L75.3598 88.4042L74.0976 87.1421L76.6219 84.6177L77.8841 85.8799L79.1463 84.6177L82.9329 88.4042L81.6707 89.6664L82.9329 90.9286L80.4085 93.453L79.1463 92.1908L77.8841 93.453L74.0976 89.6664ZM79.1463 92.1908L81.6707 89.6664L77.8841 85.8799L75.3598 88.4042L79.1463 92.1908ZM84.1951 87.1421L79.1463 82.0933L80.4085 80.8311L85.4572 85.8799L84.1951 87.1421ZM86.7194 87.1421L85.4572 85.8799L87.9816 83.3555L82.9329 78.3068L84.1951 77.0446L90.506 83.3555L86.7194 87.1421ZM91.7682 82.0933L82.9329 73.258L84.1951 71.9958L86.7194 74.5202L89.2438 71.9958L90.506 73.258L87.9816 75.7824L91.7682 79.5689L94.2925 77.0446L95.5547 78.3068L91.7682 82.0933ZM94.2925 77.0446L90.506 73.258L91.7682 71.9958L95.5547 75.7824L94.2925 77.0446ZM96.8169 74.5202L89.2438 66.9471L90.506 65.6849L98.0791 73.258L96.8169 74.5202ZM99.3413 74.5202L98.0791 73.258L99.3413 71.9958L100.603 73.258L99.3413 74.5202ZM101.235 70.1026L99.9724 71.3647L96.1858 67.5782L97.448 66.316L96.1858 65.0538L98.7102 62.5294L99.9724 63.7916L101.235 62.5294L103.759 65.0538L99.9724 68.8404L101.235 70.1026L103.759 67.5782L105.021 68.8404L102.497 71.3647L101.235 70.1026ZM101.235 65.0538L99.9724 63.7916L97.448 66.316L98.7102 67.5782L101.235 65.0538Z" fill="#8D3900"/>
<path d="M71.5781 102.283L70.871 102.99L71.5781 103.698L72.2852 102.99L71.5781 102.283ZM62.7428 93.4481L62.0357 92.741L61.3286 93.4481L62.0357 94.1552L62.7428 93.4481ZM66.5294 89.6615L67.2365 88.9544L66.5294 88.2473L65.8223 88.9544L66.5294 89.6615ZM67.7916 90.9237L68.4987 91.6308L69.2058 90.9237L68.4987 90.2166L67.7916 90.9237ZM65.2672 93.4481L64.5601 92.741L63.853 93.4481L64.5601 94.1552L65.2672 93.4481ZM71.5781 99.759L70.871 100.466L71.5781 101.173L72.2852 100.466L71.5781 99.759ZM74.1025 97.2346L74.8096 96.5275L74.1025 95.8204L73.3954 96.5275L74.1025 97.2346ZM75.3647 98.4968L76.0718 99.2039L76.7789 98.4968L76.0718 97.7897L75.3647 98.4968ZM69.0538 92.1859L68.3467 92.893L69.0538 93.6001L69.7609 92.893L69.0538 92.1859ZM67.7916 90.9237L67.0845 90.2166L66.3774 90.9237L67.0845 91.6308L67.7916 90.9237ZM69.0538 89.6615L69.7609 88.9544L69.0538 88.2473L68.3467 88.9544L69.0538 89.6615ZM70.3159 90.9237L71.0231 91.6308L71.7302 90.9237L71.0231 90.2166L70.3159 90.9237ZM74.1025 94.7102L73.3954 95.4174L74.1025 96.1245L74.8096 95.4174L74.1025 94.7102ZM70.3159 90.9237L69.6088 90.2166L68.9017 90.9237L69.6088 91.6308L70.3159 90.9237ZM71.5781 89.6615L72.2852 88.9544L71.5781 88.2473L70.871 88.9544L71.5781 89.6615ZM75.3647 93.4481L76.0718 94.1552L76.7789 93.4481L76.0718 92.741L75.3647 93.4481ZM74.1025 97.2346L73.3954 97.9417L74.1025 98.6488L74.8096 97.9417L74.1025 97.2346ZM72.8403 95.9724L72.1332 95.2653L71.4261 95.9724L72.1332 96.6795L72.8403 95.9724ZM74.1025 94.7102L74.8096 94.0031L74.1025 93.296L73.3954 94.0031L74.1025 94.7102ZM75.3647 95.9724L76.0718 96.6795L76.7789 95.9724L76.0718 95.2653L75.3647 95.9724ZM72.2852 101.576L63.4499 92.741L62.0357 94.1552L70.871 102.99L72.2852 101.576ZM63.4499 94.1552L67.2365 90.3686L65.8223 88.9544L62.0357 92.741L63.4499 94.1552ZM65.8223 90.3686L67.0845 91.6308L68.4987 90.2166L67.2365 88.9544L65.8223 90.3686ZM67.0845 90.2166L64.5601 92.741L65.9743 94.1552L68.4987 91.6308L67.0845 90.2166ZM64.5601 94.1552L70.871 100.466L72.2852 99.0519L65.9743 92.741L64.5601 94.1552ZM72.2852 100.466L74.8096 97.9417L73.3954 96.5275L70.871 99.0519L72.2852 100.466ZM73.3954 97.9417L74.6576 99.2039L76.0718 97.7897L74.8096 96.5275L73.3954 97.9417ZM74.6576 97.7897L70.871 101.576L72.2852 102.99L76.0718 99.2039L74.6576 97.7897ZM69.7609 91.4788L68.4987 90.2166L67.0845 91.6308L68.3467 92.893L69.7609 91.4788ZM68.4987 91.6308L69.7609 90.3686L68.3467 88.9544L67.0845 90.2166L68.4987 91.6308ZM68.3467 90.3686L69.6088 91.6308L71.0231 90.2166L69.7609 88.9544L68.3467 90.3686ZM69.6088 90.2166L68.3467 91.4788L69.7609 92.893L71.0231 91.6308L69.6088 90.2166ZM74.8096 94.0031L71.0231 90.2166L69.6088 91.6308L73.3954 95.4174L74.8096 94.0031ZM71.0231 91.6308L72.2852 90.3686L70.871 88.9544L69.6088 90.2166L71.0231 91.6308ZM70.871 90.3686L74.6576 94.1552L76.0718 92.741L72.2852 88.9544L70.871 90.3686ZM74.6576 92.741L73.3954 94.0031L74.8096 95.4174L76.0718 94.1552L74.6576 92.741ZM74.8096 96.5275L73.5474 95.2653L72.1332 96.6795L73.3954 97.9417L74.8096 96.5275ZM73.5474 96.6795L74.8096 95.4174L73.3954 94.0031L72.1332 95.2653L73.5474 96.6795ZM73.3954 95.4174L74.6576 96.6795L76.0718 95.2653L74.8096 94.0031L73.3954 95.4174ZM74.6576 95.2653L73.3954 96.5275L74.8096 97.9417L76.0718 96.6795L74.6576 95.2653ZM74.0976 89.6664L73.3905 88.9593L72.6834 89.6664L73.3905 90.3735L74.0976 89.6664ZM75.3598 88.4042L76.0669 89.1114L76.774 88.4042L76.0669 87.6971L75.3598 88.4042ZM74.0976 87.1421L73.3905 86.435L72.6834 87.1421L73.3905 87.8492L74.0976 87.1421ZM76.6219 84.6177L77.3291 83.9106L76.6219 83.2035L75.9148 83.9106L76.6219 84.6177ZM77.8841 85.8799L77.177 86.587L77.8841 87.2941L78.5912 86.587L77.8841 85.8799ZM79.1463 84.6177L79.8534 83.9106L79.1463 83.2035L78.4392 83.9106L79.1463 84.6177ZM82.9329 88.4042L83.64 89.1114L84.3471 88.4042L83.64 87.6971L82.9329 88.4042ZM81.6707 89.6664L80.9636 88.9593L80.2565 89.6664L80.9636 90.3735L81.6707 89.6664ZM82.9329 90.9286L83.64 91.6357L84.3471 90.9286L83.64 90.2215L82.9329 90.9286ZM80.4085 93.453L79.7014 94.1601L80.4085 94.8672L81.1156 94.1601L80.4085 93.453ZM79.1463 92.1908L79.8534 91.4837L79.1463 90.7766L78.4392 91.4837L79.1463 92.1908ZM77.8841 93.453L77.177 94.1601L77.8841 94.8672L78.5912 94.1601L77.8841 93.453ZM79.1463 92.1908L78.4392 92.8979L79.1463 93.605L79.8534 92.8979L79.1463 92.1908ZM81.6707 89.6664L82.3778 90.3735L83.0849 89.6664L82.3778 88.9593L81.6707 89.6664ZM77.8841 85.8799L78.5912 85.1728L77.8841 84.4657L77.177 85.1728L77.8841 85.8799ZM75.3598 88.4042L74.6526 87.6971L73.9455 88.4042L74.6526 89.1114L75.3598 88.4042ZM74.8047 90.3735L76.0669 89.1114L74.6526 87.6971L73.3905 88.9593L74.8047 90.3735ZM76.0669 87.6971L74.8047 86.435L73.3905 87.8492L74.6526 89.1114L76.0669 87.6971ZM74.8047 87.8492L77.3291 85.3248L75.9148 83.9106L73.3905 86.435L74.8047 87.8492ZM75.9148 85.3248L77.177 86.587L78.5912 85.1728L77.3291 83.9106L75.9148 85.3248ZM78.5912 86.587L79.8534 85.3248L78.4392 83.9106L77.177 85.1728L78.5912 86.587ZM78.4392 85.3248L82.2258 89.1114L83.64 87.6971L79.8534 83.9106L78.4392 85.3248ZM82.2258 87.6971L80.9636 88.9593L82.3778 90.3735L83.64 89.1114L82.2258 87.6971ZM80.9636 90.3735L82.2258 91.6357L83.64 90.2215L82.3778 88.9593L80.9636 90.3735ZM82.2258 90.2215L79.7014 92.7459L81.1156 94.1601L83.64 91.6357L82.2258 90.2215ZM81.1156 92.7459L79.8534 91.4837L78.4392 92.8979L79.7014 94.1601L81.1156 92.7459ZM78.4392 91.4837L77.177 92.7459L78.5912 94.1601L79.8534 92.8979L78.4392 91.4837ZM78.5912 92.7459L74.8047 88.9593L73.3905 90.3735L77.177 94.1601L78.5912 92.7459ZM79.8534 92.8979L82.3778 90.3735L80.9636 88.9593L78.4392 91.4837L79.8534 92.8979ZM82.3778 88.9593L78.5912 85.1728L77.177 86.587L80.9636 90.3735L82.3778 88.9593ZM77.177 85.1728L74.6526 87.6971L76.0669 89.1114L78.5912 86.587L77.177 85.1728ZM74.6526 89.1114L78.4392 92.8979L79.8534 91.4837L76.0669 87.6971L74.6526 89.1114ZM84.1951 87.1421L83.488 87.8492L84.1951 88.5563L84.9022 87.8492L84.1951 87.1421ZM79.1463 82.0933L78.4392 81.3862L77.7321 82.0933L78.4392 82.8004L79.1463 82.0933ZM80.4085 80.8311L81.1156 80.124L80.4085 79.4169L79.7014 80.124L80.4085 80.8311ZM85.4572 85.8799L86.1643 86.587L86.8715 85.8799L86.1643 85.1728L85.4572 85.8799ZM86.7194 87.1421L86.0123 87.8492L86.7194 88.5563L87.4265 87.8492L86.7194 87.1421ZM85.4572 85.8799L84.7501 85.1728L84.043 85.8799L84.7501 86.587L85.4572 85.8799ZM87.9816 83.3555L88.6887 84.0626L89.3958 83.3555L88.6887 82.6484L87.9816 83.3555ZM82.9329 78.3068L82.2258 77.5997L81.5187 78.3068L82.2258 79.0139L82.9329 78.3068ZM84.1951 77.0446L84.9022 76.3375L84.1951 75.6304L83.488 76.3375L84.1951 77.0446ZM90.506 83.3555L91.2131 84.0626L91.9202 83.3555L91.2131 82.6484L90.506 83.3555ZM84.9022 86.435L79.8534 81.3862L78.4392 82.8004L83.488 87.8492L84.9022 86.435ZM79.8534 82.8004L81.1156 81.5382L79.7014 80.124L78.4392 81.3862L79.8534 82.8004ZM79.7014 81.5382L84.7501 86.587L86.1643 85.1728L81.1156 80.124L79.7014 81.5382ZM84.7501 85.1728L83.488 86.435L84.9022 87.8492L86.1643 86.587L84.7501 85.1728ZM87.4265 86.435L86.1643 85.1728L84.7501 86.587L86.0123 87.8492L87.4265 86.435ZM86.1643 86.587L88.6887 84.0626L87.2745 82.6484L84.7501 85.1728L86.1643 86.587ZM88.6887 82.6484L83.64 77.5997L82.2258 79.0139L87.2745 84.0626L88.6887 82.6484ZM83.64 79.0139L84.9022 77.7517L83.488 76.3375L82.2258 77.5997L83.64 79.0139ZM83.488 77.7517L89.7989 84.0626L91.2131 82.6484L84.9022 76.3375L83.488 77.7517ZM89.7989 82.6484L86.0123 86.435L87.4265 87.8492L91.2131 84.0626L89.7989 82.6484ZM91.7682 82.0933L91.0611 82.8004L91.7682 83.5075L92.4753 82.8004L91.7682 82.0933ZM82.9329 73.258L82.2258 72.5509L81.5187 73.258L82.2258 73.9651L82.9329 73.258ZM84.1951 71.9958L84.9022 71.2887L84.1951 70.5816L83.4879 71.2887L84.1951 71.9958ZM86.7194 74.5202L86.0123 75.2273L86.7194 75.9344L87.4265 75.2273L86.7194 74.5202ZM89.2438 71.9958L89.9509 71.2887L89.2438 70.5816L88.5367 71.2887L89.2438 71.9958ZM90.506 73.258L91.2131 73.9651L91.9202 73.258L91.2131 72.5509L90.506 73.258ZM87.9816 75.7824L87.2745 75.0753L86.5674 75.7824L87.2745 76.4895L87.9816 75.7824ZM91.7682 79.5689L91.0611 80.2761L91.7682 80.9832L92.4753 80.2761L91.7682 79.5689ZM94.2925 77.0446L94.9996 76.3375L94.2925 75.6304L93.5854 76.3375L94.2925 77.0446ZM95.5547 78.3068L96.2618 79.0139L96.9689 78.3068L96.2618 77.5997L95.5547 78.3068ZM94.2925 77.0446L93.5854 77.7517L94.2925 78.4588L94.9996 77.7517L94.2925 77.0446ZM90.506 73.258L89.7989 72.5509L89.0918 73.258L89.7989 73.9651L90.506 73.258ZM91.7682 71.9958L92.4753 71.2887L91.7682 70.5816L91.0611 71.2887L91.7682 71.9958ZM95.5547 75.7824L96.2618 76.4895L96.9689 75.7824L96.2618 75.0753L95.5547 75.7824ZM92.4753 81.3862L83.64 72.5509L82.2258 73.9651L91.0611 82.8004L92.4753 81.3862ZM83.64 73.9651L84.9022 72.7029L83.4879 71.2887L82.2258 72.5509L83.64 73.9651ZM83.4879 72.7029L86.0123 75.2273L87.4265 73.8131L84.9022 71.2887L83.4879 72.7029ZM87.4265 75.2273L89.9509 72.7029L88.5367 71.2887L86.0123 73.8131L87.4265 75.2273ZM88.5367 72.7029L89.7989 73.9651L91.2131 72.5509L89.9509 71.2887L88.5367 72.7029ZM89.7989 72.5509L87.2745 75.0753L88.6887 76.4895L91.2131 73.9651L89.7989 72.5509ZM87.2745 76.4895L91.0611 80.2761L92.4753 78.8618L88.6887 75.0753L87.2745 76.4895ZM92.4753 80.2761L94.9996 77.7517L93.5854 76.3375L91.0611 78.8618L92.4753 80.2761ZM93.5854 77.7517L94.8476 79.0139L96.2618 77.5997L94.9996 76.3375L93.5854 77.7517ZM94.8476 77.5997L91.0611 81.3862L92.4753 82.8004L96.2618 79.0139L94.8476 77.5997ZM94.9996 76.3375L91.2131 72.5509L89.7989 73.9651L93.5854 77.7517L94.9996 76.3375ZM91.2131 73.9651L92.4753 72.7029L91.0611 71.2887L89.7989 72.5509L91.2131 73.9651ZM91.0611 72.7029L94.8476 76.4895L96.2618 75.0753L92.4753 71.2887L91.0611 72.7029ZM94.8476 75.0753L93.5854 76.3375L94.9996 77.7517L96.2618 76.4895L94.8476 75.0753ZM96.8169 74.5202L96.1098 75.2273L96.8169 75.9344L97.524 75.2273L96.8169 74.5202ZM89.2438 66.9471L88.5367 66.24L87.8296 66.9471L88.5367 67.6542L89.2438 66.9471ZM90.506 65.6849L91.2131 64.9778L90.506 64.2707L89.7989 64.9778L90.506 65.6849ZM98.0791 73.258L98.7862 73.9651L99.4933 73.258L98.7862 72.5509L98.0791 73.258ZM99.3413 74.5202L98.6342 75.2273L99.3413 75.9344L100.048 75.2273L99.3413 74.5202ZM98.0791 73.258L97.372 72.5509L96.6649 73.258L97.372 73.9651L98.0791 73.258ZM99.3413 71.9958L100.048 71.2887L99.3413 70.5816L98.6342 71.2887L99.3413 71.9958ZM100.603 73.258L101.311 73.9651L102.018 73.258L101.311 72.5509L100.603 73.258ZM97.524 73.8131L89.9509 66.24L88.5367 67.6542L96.1098 75.2273L97.524 73.8131ZM89.9509 67.6542L91.2131 66.392L89.7989 64.9778L88.5367 66.24L89.9509 67.6542ZM89.7989 66.392L97.372 73.9651L98.7862 72.5509L91.2131 64.9778L89.7989 66.392ZM97.372 72.5509L96.1098 73.8131L97.524 75.2273L98.7862 73.9651L97.372 72.5509ZM100.048 73.8131L98.7862 72.5509L97.372 73.9651L98.6342 75.2273L100.048 73.8131ZM98.7862 73.9651L100.048 72.7029L98.6342 71.2887L97.372 72.5509L98.7862 73.9651ZM98.6342 72.7029L99.8964 73.9651L101.311 72.5509L100.048 71.2887L98.6342 72.7029ZM99.8964 72.5509L98.6342 73.8131L100.048 75.2273L101.311 73.9651L99.8964 72.5509ZM99.9724 71.3647L99.2653 72.0718L99.9724 72.779L100.679 72.0718L99.9724 71.3647ZM96.1858 67.5782L95.4787 66.8711L94.7716 67.5782L95.4787 68.2853L96.1858 67.5782ZM97.448 66.316L98.1551 67.0231L98.8622 66.316L98.1551 65.6089L97.448 66.316ZM96.1858 65.0538L95.4787 64.3467L94.7716 65.0538L95.4787 65.7609L96.1858 65.0538ZM98.7102 62.5294L99.4173 61.8223L98.7102 61.1152L98.0031 61.8223L98.7102 62.5294ZM99.9724 63.7916L99.2653 64.4987L99.9724 65.2058L100.679 64.4987L99.9724 63.7916ZM101.235 62.5294L101.942 61.8223L101.235 61.1152L100.527 61.8223L101.235 62.5294ZM103.759 65.0538L104.466 65.7609L105.173 65.0538L104.466 64.3467L103.759 65.0538ZM99.9724 68.8404L99.2653 68.1333L98.5582 68.8404L99.2653 69.5475L99.9724 68.8404ZM103.759 67.5782L104.466 66.8711L103.759 66.164L103.052 66.8711L103.759 67.5782ZM105.021 68.8404L105.728 69.5475L106.435 68.8404L105.728 68.1333L105.021 68.8404ZM102.497 71.3647L101.79 72.0718L102.497 72.779L103.204 72.0718L102.497 71.3647ZM101.235 65.0538L101.942 65.7609L102.649 65.0538L101.942 64.3467L101.235 65.0538ZM99.9724 63.7916L100.679 63.0845L99.9724 62.3774L99.2653 63.0845L99.9724 63.7916ZM97.448 66.316L96.7409 65.6089L96.0338 66.316L96.7409 67.0231L97.448 66.316ZM98.7102 67.5782L98.0031 68.2853L98.7102 68.9924L99.4173 68.2853L98.7102 67.5782ZM100.527 69.3954L99.2653 70.6576L100.679 72.0718L101.942 70.8097L100.527 69.3954ZM100.679 70.6576L96.8929 66.8711L95.4787 68.2853L99.2653 72.0718L100.679 70.6576ZM96.8929 68.2853L98.1551 67.0231L96.7409 65.6089L95.4787 66.8711L96.8929 68.2853ZM98.1551 65.6089L96.8929 64.3467L95.4787 65.7609L96.7409 67.0231L98.1551 65.6089ZM96.8929 65.7609L99.4173 63.2365L98.0031 61.8223L95.4787 64.3467L96.8929 65.7609ZM98.0031 63.2365L99.2653 64.4987L100.679 63.0845L99.4173 61.8223L98.0031 63.2365ZM100.679 64.4987L101.942 63.2365L100.527 61.8223L99.2653 63.0845L100.679 64.4987ZM100.527 63.2365L103.052 65.7609L104.466 64.3467L101.942 61.8223L100.527 63.2365ZM103.052 64.3467L99.2653 68.1333L100.679 69.5475L104.466 65.7609L103.052 64.3467ZM99.2653 69.5475L100.527 70.8097L101.942 69.3954L100.679 68.1333L99.2653 69.5475ZM101.942 70.8097L104.466 68.2853L103.052 66.8711L100.527 69.3954L101.942 70.8097ZM103.052 68.2853L104.314 69.5475L105.728 68.1333L104.466 66.8711L103.052 68.2853ZM104.314 68.1333L101.79 70.6576L103.204 72.0718L105.728 69.5475L104.314 68.1333ZM103.204 70.6576L101.942 69.3954L100.527 70.8097L101.79 72.0718L103.204 70.6576ZM101.942 64.3467L100.679 63.0845L99.2653 64.4987L100.527 65.7609L101.942 64.3467ZM99.2653 63.0845L96.7409 65.6089L98.1551 67.0231L100.679 64.4987L99.2653 63.0845ZM96.7409 67.0231L98.0031 68.2853L99.4173 66.8711L98.1551 65.6089L96.7409 67.0231ZM99.4173 68.2853L101.942 65.7609L100.527 64.3467L98.0031 66.8711L99.4173 68.2853Z" fill="white" mask="url(#path-3-outside-1_966_99142)"/>
</g>
<g clip-path="url(#clip0_966_99142)">
<path d="M44.176 105.642L42.8826 106.936L44.176 108.229L45.4695 106.936L44.176 105.642Z" fill="#FFF4BC"/>
<path d="M45.4678 104.349L44.1743 105.643L45.4678 106.936L46.7612 105.643L45.4678 104.349Z" fill="white"/>
<path d="M46.7617 103.056L45.4683 104.35L46.7617 105.643L48.0552 104.35L46.7617 103.056Z" fill="#FFF4BC"/>
<path d="M48.0557 101.761L46.7622 103.055L48.0557 104.348L49.3491 103.055L48.0557 101.761Z" fill="#FFF4BC"/>
<path d="M49.3496 100.468L48.0562 101.762L49.3496 103.055L50.6431 101.762L49.3496 100.468Z" fill="#FFF4BC"/>
<path d="M50.6436 99.1753L49.3501 100.469L50.6436 101.762L51.937 100.469L50.6436 99.1753Z" fill="#8D3900"/>
<path d="M51.9353 97.8804L50.6418 99.1738L51.9353 100.467L53.2288 99.1738L51.9353 97.8804Z" fill="#8D3900"/>
<path d="M44.176 108.23L42.8826 109.523L44.176 110.817L45.4695 109.523L44.176 108.23Z" fill="white"/>
<path d="M45.4678 106.935L44.1743 108.229L45.4678 109.522L46.7612 108.229L45.4678 106.935Z" fill="#222222"/>
<path d="M46.7617 105.642L45.4683 106.936L46.7617 108.229L48.0552 106.936L46.7617 105.642Z" fill="#FFC700"/>
<path d="M48.0557 104.349L46.7622 105.643L48.0557 106.936L49.3491 105.643L48.0557 104.349Z" fill="#FFC700"/>
<path d="M49.3496 103.056L48.0562 104.35L49.3496 105.643L50.6431 104.35L49.3496 103.056Z" fill="#FFC700"/>
<path d="M50.6436 101.761L49.3501 103.055L50.6436 104.348L51.937 103.055L50.6436 101.761Z" fill="#FFC700"/>
<path d="M51.9353 100.468L50.6418 101.762L51.9353 103.055L53.2288 101.762L51.9353 100.468Z" fill="#FFF4BC"/>
<path d="M53.2292 99.1753L51.9358 100.469L53.2292 101.762L54.5227 100.469L53.2292 99.1753Z" fill="#8D3900"/>
<path d="M54.5232 97.8804L53.2297 99.1738L54.5232 100.467L55.8167 99.1738L54.5232 97.8804Z" fill="#8D3900"/>
<path d="M44.176 110.818L42.8826 112.111L44.176 113.405L45.4695 112.111L44.176 110.818Z" fill="white"/>
<path d="M45.47 109.523L44.1765 110.816L45.47 112.11L46.7634 110.816L45.47 109.523Z" fill="#222222"/>
<path d="M46.7617 108.23L45.4683 109.523L46.7617 110.817L48.0552 109.523L46.7617 108.23Z" fill="#FFC700"/>
<path d="M48.0557 106.937L46.7622 108.23L48.0557 109.524L49.3491 108.23L48.0557 106.937Z" fill="#FFC700"/>
<path d="M49.3496 105.642L48.0562 106.936L49.3496 108.229L50.6431 106.936L49.3496 105.642Z" fill="#222222"/>
<path d="M50.6436 104.349L49.3501 105.643L50.6436 106.936L51.937 105.643L50.6436 104.349Z" fill="#8D3900"/>
<path d="M51.9375 103.056L50.644 104.35L51.9375 105.643L53.231 104.35L51.9375 103.056Z" fill="#FFC700"/>
<path d="M53.2314 101.763L51.938 103.057L53.2314 104.35L54.5249 103.057L53.2314 101.763Z" fill="#FFC700"/>
<path d="M54.5232 100.468L53.2297 101.762L54.5232 103.055L55.8167 101.762L54.5232 100.468Z" fill="#FFF4BC"/>
<path d="M55.8171 99.1753L54.5237 100.469L55.8171 101.762L57.1106 100.469L55.8171 99.1753Z" fill="#8D3900"/>
<path d="M57.1111 97.8823L55.8176 99.1758L57.1111 100.469L58.4045 99.1758L57.1111 97.8823Z" fill="#8D3900"/>
<path d="M45.4678 112.111L44.1743 113.404L45.4678 114.698L46.7612 113.404L45.4678 112.111Z" fill="white"/>
<path d="M46.7639 110.818L45.4705 112.111L46.7639 113.405L48.0574 112.111L46.7639 110.818Z" fill="#222222"/>
<path d="M48.0557 109.523L46.7622 110.816L48.0557 112.11L49.3491 110.816L48.0557 109.523Z" fill="#FFC700"/>
<path d="M49.3496 108.23L48.0562 109.523L49.3496 110.817L50.6431 109.523L49.3496 108.23Z" fill="#222222"/>
<path d="M50.6436 106.937L49.3501 108.23L50.6436 109.524L51.937 108.23L50.6436 106.937Z" fill="#FFC700"/>
<path d="M51.9375 105.642L50.644 106.936L51.9375 108.229L53.231 106.936L51.9375 105.642Z" fill="#FFC700"/>
<path d="M53.2314 104.349L51.938 105.643L53.2314 106.936L54.5249 105.643L53.2314 104.349Z" fill="#8D3900"/>
<path d="M54.5232 103.056L53.2297 104.35L54.5232 105.643L55.8167 104.35L54.5232 103.056Z" fill="#FFF4BC"/>
<path d="M55.8171 101.761L54.5237 103.055L55.8171 104.348L57.1106 103.055L55.8171 101.761Z" fill="#FFC700"/>
<path d="M57.1111 100.468L55.8176 101.762L57.1111 103.055L58.4045 101.762L57.1111 100.468Z" fill="#8D3900"/>
<path d="M58.405 99.1753L57.1116 100.469L58.405 101.762L59.6985 100.469L58.405 99.1753Z" fill="#8D3900"/>
<path d="M45.4678 114.697L44.1743 115.99L45.4678 117.284L46.7612 115.99L45.4678 114.697Z" fill="white"/>
<path d="M46.7617 113.404L45.4683 114.697L46.7617 115.991L48.0552 114.697L46.7617 113.404Z" fill="#222222"/>
<path d="M48.0557 112.109L46.7622 113.402L48.0557 114.696L49.3491 113.402L48.0557 112.109Z" fill="#FFC700"/>
<path d="M49.3496 110.816L48.0562 112.109L49.3496 113.403L50.6431 112.109L49.3496 110.816Z" fill="#FFC700"/>
<path d="M50.6436 109.523L49.3501 110.816L50.6436 112.11L51.937 110.816L50.6436 109.523Z" fill="#222222"/>
<path d="M51.9353 108.23L50.6418 109.523L51.9353 110.817L53.2288 109.523L51.9353 108.23Z" fill="#FFC700"/>
<path d="M53.2292 106.935L51.9358 108.229L53.2292 109.522L54.5227 108.229L53.2292 106.935Z" fill="#FFF4BC"/>
<path d="M54.5232 105.642L53.2297 106.936L54.5232 108.229L55.8167 106.936L54.5232 105.642Z" fill="#8D3900"/>
<path d="M55.8171 104.349L54.5237 105.643L55.8171 106.936L57.1106 105.643L55.8171 104.349Z" fill="white"/>
<path d="M57.1111 103.056L55.8176 104.35L57.1111 105.643L58.4045 104.35L57.1111 103.056Z" fill="#FFC700"/>
<path d="M58.405 101.761L57.1116 103.055L58.405 104.348L59.6985 103.055L58.405 101.761Z" fill="#FFF4BC"/>
<path d="M59.6968 100.468L58.4033 101.762L59.6968 103.055L60.9902 101.762L59.6968 100.468Z" fill="#8D3900"/>
<path d="M60.9907 99.1753L59.6973 100.469L60.9907 101.762L62.2842 100.469L60.9907 99.1753Z" fill="#8D3900"/>
<path d="M46.7617 115.992L45.4683 117.285L46.7617 118.579L48.0552 117.285L46.7617 115.992Z" fill="#FFF4BC"/>
<path d="M48.0557 114.697L46.7622 115.99L48.0557 117.284L49.3491 115.99L48.0557 114.697Z" fill="#222222"/>
<path d="M49.3496 113.404L48.0562 114.697L49.3496 115.991L50.6431 114.697L49.3496 113.404Z" fill="#FFC700"/>
<path d="M50.6436 112.111L49.3501 113.404L50.6436 114.698L51.937 113.404L50.6436 112.111Z" fill="#222222"/>
<path d="M51.9375 110.818L50.644 112.111L51.9375 113.405L53.231 112.111L51.9375 110.818Z" fill="#FFC700"/>
<path d="M53.2292 109.523L51.9358 110.816L53.2292 112.11L54.5227 110.816L53.2292 109.523Z" fill="#FFF4BC"/>
<path d="M54.5232 108.23L53.2297 109.523L54.5232 110.817L55.8167 109.523L54.5232 108.23Z" fill="white"/>
<path d="M55.8171 106.937L54.5237 108.23L55.8171 109.524L57.1106 108.23L55.8171 106.937Z" fill="#FFF4BC"/>
<path d="M57.1111 105.644L55.8176 106.938L57.1111 108.231L58.4045 106.938L57.1111 105.644Z" fill="#8D3900"/>
<path d="M58.405 104.349L57.1116 105.643L58.405 106.936L59.6985 105.643L58.405 104.349Z" fill="#FFC700"/>
<path d="M59.699 103.056L58.4055 104.35L59.699 105.643L60.9924 104.35L59.699 103.056Z" fill="#FFF4BC"/>
<path d="M60.9907 101.761L59.6973 103.055L60.9907 104.348L62.2842 103.055L60.9907 101.761Z" fill="#8D3900"/>
<path d="M62.2847 100.468L60.9912 101.762L62.2847 103.055L63.5781 101.762L62.2847 100.468Z" fill="#8D3900"/>
<path d="M48.0557 117.285L46.7622 118.578L48.0557 119.872L49.3491 118.578L48.0557 117.285Z" fill="white"/>
<path d="M49.3496 115.992L48.0562 117.285L49.3496 118.579L50.6431 117.285L49.3496 115.992Z" fill="#222222"/>
<path d="M50.6436 114.699L49.3501 115.992L50.6436 117.286L51.937 115.992L50.6436 114.699Z" fill="#FFC700"/>
<path d="M51.9353 113.404L50.6418 114.697L51.9353 115.991L53.2288 114.697L51.9353 113.404Z" fill="#8D3900"/>
<path d="M53.2292 112.111L51.9358 113.404L53.2292 114.698L54.5227 113.404L53.2292 112.111Z" fill="#FFF4BC"/>
<path d="M54.5254 110.818L53.2319 112.111L54.5254 113.405L55.8188 112.111L54.5254 110.818Z" fill="white"/>
<path d="M55.8171 109.523L54.5237 110.816L55.8171 112.11L57.1106 110.816L55.8171 109.523Z" fill="#FFF4BC"/>
<path d="M57.1111 108.23L55.8176 109.523L57.1111 110.817L58.4045 109.523L57.1111 108.23Z" fill="#FFC700"/>
<path d="M58.405 106.935L57.1116 108.229L58.405 109.522L59.6985 108.229L58.405 106.935Z" fill="#222222"/>
<path d="M59.6968 105.642L58.4033 106.936L59.6968 108.229L60.9902 106.936L59.6968 105.642Z" fill="#FFC700"/>
<path d="M60.9929 104.349L59.6995 105.643L60.9929 106.936L62.2864 105.643L60.9929 104.349Z" fill="white"/>
<path d="M62.2847 103.054L60.9912 104.348L62.2847 105.641L63.5781 104.348L62.2847 103.054Z" fill="#8D3900"/>
<path d="M63.5786 101.761L62.2852 103.055L63.5786 104.348L64.8721 103.055L63.5786 101.761Z" fill="#8D3900"/>
<path d="M49.3496 118.578L48.0562 119.871L49.3496 121.165L50.6431 119.871L49.3496 118.578Z" fill="#FFC700"/>
<path d="M50.6436 117.285L49.3501 118.578L50.6436 119.872L51.937 118.578L50.6436 117.285Z" fill="#222222"/>
<path d="M51.9375 115.992L50.644 117.285L51.9375 118.579L53.231 117.285L51.9375 115.992Z" fill="#FFF4BC"/>
<path d="M53.2292 114.697L51.9358 115.99L53.2292 117.284L54.5227 115.99L53.2292 114.697Z" fill="white"/>
<path d="M54.5232 113.404L53.2297 114.697L54.5232 115.991L55.8167 114.697L54.5232 113.404Z" fill="#8D3900"/>
<path d="M55.8171 112.111L54.5237 113.404L55.8171 114.698L57.1106 113.404L55.8171 112.111Z" fill="#FFF4BC"/>
<path d="M57.1111 110.816L55.8176 112.109L57.1111 113.403L58.4045 112.109L57.1111 110.816Z" fill="#FFC700"/>
<path d="M58.405 109.523L57.1116 110.816L58.405 112.11L59.6985 110.816L58.405 109.523Z" fill="#222222"/>
<path d="M59.6968 108.23L58.4033 109.523L59.6968 110.817L60.9902 109.523L59.6968 108.23Z" fill="#FFC700"/>
<path d="M60.9907 106.937L59.6973 108.23L60.9907 109.524L62.2842 108.23L60.9907 106.937Z" fill="#FFC700"/>
<path d="M62.2847 105.642L60.9912 106.936L62.2847 108.229L63.5781 106.936L62.2847 105.642Z" fill="#FFF4BC"/>
<path d="M63.5786 104.349L62.2852 105.643L63.5786 106.936L64.8721 105.643L63.5786 104.349Z" fill="#8D3900"/>
<path d="M64.8726 103.056L63.5791 104.35L64.8726 105.643L66.166 104.35L64.8726 103.056Z" fill="#8D3900"/>
<path d="M51.9353 118.578L50.6418 119.871L51.9353 121.165L53.2288 119.871L51.9353 118.578Z" fill="#FFF4BC"/>
<path d="M53.2292 117.285L51.9358 118.578L53.2292 119.872L54.5227 118.578L53.2292 117.285Z" fill="#222222"/>
<path d="M54.5254 115.992L53.2319 117.285L54.5254 118.579L55.8188 117.285L54.5254 115.992Z" fill="white"/>
<path d="M55.8171 114.697L54.5237 115.99L55.8171 117.284L57.1106 115.99L55.8171 114.697Z" fill="#8D3900"/>
<path d="M57.1111 113.404L55.8176 114.697L57.1111 115.991L58.4045 114.697L57.1111 113.404Z" fill="#FFC700"/>
<path d="M58.405 112.111L57.1116 113.404L58.405 114.698L59.6985 113.404L58.405 112.111Z" fill="#FFC700"/>
<path d="M59.6968 110.818L58.4033 112.111L59.6968 113.405L60.9902 112.111L59.6968 110.818Z" fill="#222222"/>
<path d="M60.9929 109.525L59.6995 110.818L60.9929 112.112L62.2864 110.818L60.9929 109.525Z" fill="#FFC700"/>
<path d="M62.2847 108.23L60.9912 109.523L62.2847 110.817L63.5781 109.523L62.2847 108.23Z" fill="white"/>
<path d="M63.5786 106.935L62.2852 108.229L63.5786 109.522L64.8721 108.229L63.5786 106.935Z" fill="#8D3900"/>
<path d="M64.8726 105.644L63.5791 106.938L64.8726 108.231L66.166 106.938L64.8726 105.644Z" fill="#8D3900"/>
<path d="M53.2292 119.871L51.9358 121.164L53.2292 122.458L54.5227 121.164L53.2292 119.871Z" fill="#FFC700"/>
<path d="M54.5232 118.578L53.2297 119.871L54.5232 121.165L55.8167 119.871L54.5232 118.578Z" fill="#222222"/>
<path d="M55.8171 117.285L54.5237 118.578L55.8171 119.872L57.1106 118.578L55.8171 117.285Z" fill="#FFF4BC"/>
<path d="M57.1111 115.992L55.8176 117.285L57.1111 118.579L58.4045 117.285L57.1111 115.992Z" fill="#FFC700"/>
<path d="M58.405 114.699L57.1116 115.992L58.405 117.286L59.6985 115.992L58.405 114.699Z" fill="#8D3900"/>
<path d="M59.6968 113.404L58.4033 114.697L59.6968 115.991L60.9902 114.697L59.6968 113.404Z" fill="#222222"/>
<path d="M60.9907 112.111L59.6973 113.404L60.9907 114.698L62.2842 113.404L60.9907 112.111Z" fill="#FFC700"/>
<path d="M62.2847 110.818L60.9912 112.111L62.2847 113.405L63.5781 112.111L62.2847 110.818Z" fill="#FFC700"/>
<path d="M63.5786 109.523L62.2852 110.816L63.5786 112.11L64.8721 110.816L63.5786 109.523Z" fill="white"/>
<path d="M64.8726 108.23L63.5791 109.523L64.8726 110.817L66.166 109.523L64.8726 108.23Z" fill="#8D3900"/>
<path d="M66.1665 106.937L64.873 108.23L66.1665 109.524L67.46 108.23L66.1665 106.937Z" fill="#8D3900"/>
<path d="M55.8171 119.873L54.5237 121.166L55.8171 122.459L57.1106 121.166L55.8171 119.873Z" fill="#FFC700"/>
<path d="M57.1111 118.578L55.8176 119.871L57.1111 121.165L58.4045 119.871L57.1111 118.578Z" fill="#222222"/>
<path d="M58.405 117.285L57.1116 118.578L58.405 119.872L59.6985 118.578L58.405 117.285Z" fill="#FFC700"/>
<path d="M59.699 115.992L58.4055 117.285L59.699 118.579L60.9924 117.285L59.699 115.992Z" fill="#FFC700"/>
<path d="M60.9907 114.697L59.6973 115.99L60.9907 117.284L62.2842 115.99L60.9907 114.697Z" fill="#FFC700"/>
<path d="M62.2869 113.406L60.9934 114.699L62.2869 115.993L63.5803 114.699L62.2869 113.406Z" fill="#FFC700"/>
<path d="M63.5786 112.111L62.2852 113.404L63.5786 114.698L64.8721 113.404L63.5786 112.111Z" fill="white"/>
<path d="M64.8726 110.818L63.5791 112.111L64.8726 113.405L66.166 112.111L64.8726 110.818Z" fill="#8D3900"/>
<path d="M66.1665 109.523L64.873 110.816L66.1665 112.11L67.46 110.816L66.1665 109.523Z" fill="#8D3900"/>
<path d="M58.405 119.873L57.1116 121.166L58.405 122.459L59.6985 121.166L58.405 119.873Z" fill="#222222"/>
<path d="M59.699 118.58L58.4055 119.873L59.699 121.167L60.9924 119.873L59.699 118.58Z" fill="#222222"/>
<path d="M60.9907 117.285L59.6973 118.578L60.9907 119.872L62.2842 118.578L60.9907 117.285Z" fill="#222222"/>
<path d="M62.2847 115.992L60.9912 117.285L62.2847 118.579L63.5781 117.285L62.2847 115.992Z" fill="#222222"/>
<path d="M63.5786 114.697L62.2852 115.99L63.5786 117.284L64.8721 115.99L63.5786 114.697Z" fill="#222222"/>
<path d="M64.8726 113.404L63.5791 114.697L64.8726 115.991L66.166 114.697L64.8726 113.404Z" fill="#8D3900"/>
<path d="M66.1665 112.111L64.873 113.404L66.1665 114.698L67.46 113.404L66.1665 112.111Z" fill="#8D3900"/>
</g>
<g clip-path="url(#clip1_966_99142)">
<path d="M104.176 46.6421L102.883 47.9355L104.176 49.229L105.469 47.9355L104.176 46.6421Z" fill="#FFF4BC"/>
<path d="M105.468 45.3491L104.174 46.6426L105.468 47.936L106.761 46.6426L105.468 45.3491Z" fill="white"/>
<path d="M106.762 44.0562L105.468 45.3496L106.762 46.6431L108.055 45.3496L106.762 44.0562Z" fill="#FFF4BC"/>
<path d="M108.056 42.7612L106.762 44.0547L108.056 45.3481L109.349 44.0547L108.056 42.7612Z" fill="#FFF4BC"/>
<path d="M109.35 41.4683L108.056 42.7617L109.35 44.0552L110.643 42.7617L109.35 41.4683Z" fill="#FFF4BC"/>
<path d="M110.644 40.1753L109.35 41.4688L110.644 42.7622L111.937 41.4688L110.644 40.1753Z" fill="#8D3900"/>
<path d="M111.935 38.8804L110.642 40.1738L111.935 41.4673L113.229 40.1738L111.935 38.8804Z" fill="#8D3900"/>
<path d="M104.176 49.23L102.883 50.5234L104.176 51.8169L105.469 50.5234L104.176 49.23Z" fill="white"/>
<path d="M105.468 47.9351L104.174 49.2285L105.468 50.522L106.761 49.2285L105.468 47.9351Z" fill="#222222"/>
<path d="M106.762 46.6421L105.468 47.9355L106.762 49.229L108.055 47.9355L106.762 46.6421Z" fill="#FFC700"/>
<path d="M108.056 45.3491L106.762 46.6426L108.056 47.936L109.349 46.6426L108.056 45.3491Z" fill="#FFC700"/>
<path d="M109.35 44.0562L108.056 45.3496L109.35 46.6431L110.643 45.3496L109.35 44.0562Z" fill="#FFC700"/>
<path d="M110.644 42.7612L109.35 44.0547L110.644 45.3481L111.937 44.0547L110.644 42.7612Z" fill="#FFC700"/>
<path d="M111.935 41.4683L110.642 42.7617L111.935 44.0552L113.229 42.7617L111.935 41.4683Z" fill="#FFF4BC"/>
<path d="M113.229 40.1753L111.936 41.4688L113.229 42.7622L114.523 41.4688L113.229 40.1753Z" fill="#8D3900"/>
<path d="M114.523 38.8804L113.23 40.1738L114.523 41.4673L115.817 40.1738L114.523 38.8804Z" fill="#8D3900"/>
<path d="M104.176 51.8179L102.883 53.1113L104.176 54.4048L105.469 53.1113L104.176 51.8179Z" fill="white"/>
<path d="M105.47 50.5229L104.177 51.8164L105.47 53.1099L106.763 51.8164L105.47 50.5229Z" fill="#222222"/>
<path d="M106.762 49.23L105.468 50.5234L106.762 51.8169L108.055 50.5234L106.762 49.23Z" fill="#FFC700"/>
<path d="M108.056 47.937L106.762 49.2305L108.056 50.5239L109.349 49.2305L108.056 47.937Z" fill="#FFC700"/>
<path d="M109.35 46.6421L108.056 47.9355L109.35 49.229L110.643 47.9355L109.35 46.6421Z" fill="#222222"/>
<path d="M110.644 45.3491L109.35 46.6426L110.644 47.936L111.937 46.6426L110.644 45.3491Z" fill="#8D3900"/>
<path d="M111.938 44.0562L110.644 45.3496L111.938 46.6431L113.231 45.3496L111.938 44.0562Z" fill="#FFC700"/>
<path d="M113.231 42.7632L111.938 44.0566L113.231 45.3501L114.525 44.0566L113.231 42.7632Z" fill="#FFC700"/>
<path d="M114.523 41.4683L113.23 42.7617L114.523 44.0552L115.817 42.7617L114.523 41.4683Z" fill="#FFF4BC"/>
<path d="M115.817 40.1753L114.524 41.4688L115.817 42.7622L117.111 41.4688L115.817 40.1753Z" fill="#8D3900"/>
<path d="M117.111 38.8823L115.818 40.1758L117.111 41.4692L118.405 40.1758L117.111 38.8823Z" fill="#8D3900"/>
<path d="M105.468 53.1108L104.174 54.4043L105.468 55.6978L106.761 54.4043L105.468 53.1108Z" fill="white"/>
<path d="M106.764 51.8179L105.47 53.1113L106.764 54.4048L108.057 53.1113L106.764 51.8179Z" fill="#222222"/>
<path d="M108.056 50.5229L106.762 51.8164L108.056 53.1099L109.349 51.8164L108.056 50.5229Z" fill="#FFC700"/>
<path d="M109.35 49.23L108.056 50.5234L109.35 51.8169L110.643 50.5234L109.35 49.23Z" fill="#222222"/>
<path d="M110.644 47.937L109.35 49.2305L110.644 50.5239L111.937 49.2305L110.644 47.937Z" fill="#FFC700"/>
<path d="M111.938 46.6421L110.644 47.9355L111.938 49.229L113.231 47.9355L111.938 46.6421Z" fill="#FFC700"/>
<path d="M113.231 45.3491L111.938 46.6426L113.231 47.936L114.525 46.6426L113.231 45.3491Z" fill="#8D3900"/>
<path d="M114.523 44.0562L113.23 45.3496L114.523 46.6431L115.817 45.3496L114.523 44.0562Z" fill="#FFF4BC"/>
<path d="M115.817 42.7612L114.524 44.0547L115.817 45.3481L117.111 44.0547L115.817 42.7612Z" fill="#FFC700"/>
<path d="M117.111 41.4683L115.818 42.7617L117.111 44.0552L118.405 42.7617L117.111 41.4683Z" fill="#8D3900"/>
<path d="M118.405 40.1753L117.112 41.4688L118.405 42.7622L119.698 41.4688L118.405 40.1753Z" fill="#8D3900"/>
<path d="M105.468 55.6968L104.174 56.9902L105.468 58.2837L106.761 56.9902L105.468 55.6968Z" fill="white"/>
<path d="M106.762 54.4038L105.468 55.6973L106.762 56.9907L108.055 55.6973L106.762 54.4038Z" fill="#222222"/>
<path d="M108.056 53.1089L106.762 54.4023L108.056 55.6958L109.349 54.4023L108.056 53.1089Z" fill="#FFC700"/>
<path d="M109.35 51.8159L108.056 53.1094L109.35 54.4028L110.643 53.1094L109.35 51.8159Z" fill="#FFC700"/>
<path d="M110.644 50.5229L109.35 51.8164L110.644 53.1099L111.937 51.8164L110.644 50.5229Z" fill="#222222"/>
<path d="M111.935 49.23L110.642 50.5234L111.935 51.8169L113.229 50.5234L111.935 49.23Z" fill="#FFC700"/>
<path d="M113.229 47.9351L111.936 49.2285L113.229 50.522L114.523 49.2285L113.229 47.9351Z" fill="#FFF4BC"/>
<path d="M114.523 46.6421L113.23 47.9355L114.523 49.229L115.817 47.9355L114.523 46.6421Z" fill="#8D3900"/>
<path d="M115.817 45.3491L114.524 46.6426L115.817 47.936L117.111 46.6426L115.817 45.3491Z" fill="white"/>
<path d="M117.111 44.0562L115.818 45.3496L117.111 46.6431L118.405 45.3496L117.111 44.0562Z" fill="#FFC700"/>
<path d="M118.405 42.7612L117.112 44.0547L118.405 45.3481L119.698 44.0547L118.405 42.7612Z" fill="#FFF4BC"/>
<path d="M119.697 41.4683L118.403 42.7617L119.697 44.0552L120.99 42.7617L119.697 41.4683Z" fill="#8D3900"/>
<path d="M120.991 40.1753L119.697 41.4688L120.991 42.7622L122.284 41.4688L120.991 40.1753Z" fill="#8D3900"/>
<path d="M106.762 56.9917L105.468 58.2852L106.762 59.5786L108.055 58.2852L106.762 56.9917Z" fill="#FFF4BC"/>
<path d="M108.056 55.6968L106.762 56.9902L108.056 58.2837L109.349 56.9902L108.056 55.6968Z" fill="#222222"/>
<path d="M109.35 54.4038L108.056 55.6973L109.35 56.9907L110.643 55.6973L109.35 54.4038Z" fill="#FFC700"/>
<path d="M110.644 53.1108L109.35 54.4043L110.644 55.6978L111.937 54.4043L110.644 53.1108Z" fill="#222222"/>
<path d="M111.938 51.8179L110.644 53.1113L111.938 54.4048L113.231 53.1113L111.938 51.8179Z" fill="#FFC700"/>
<path d="M113.229 50.5229L111.936 51.8164L113.229 53.1099L114.523 51.8164L113.229 50.5229Z" fill="#FFF4BC"/>
<path d="M114.523 49.23L113.23 50.5234L114.523 51.8169L115.817 50.5234L114.523 49.23Z" fill="white"/>
<path d="M115.817 47.937L114.524 49.2305L115.817 50.5239L117.111 49.2305L115.817 47.937Z" fill="#FFF4BC"/>
<path d="M117.111 46.644L115.818 47.9375L117.111 49.231L118.405 47.9375L117.111 46.644Z" fill="#8D3900"/>
<path d="M118.405 45.3491L117.112 46.6426L118.405 47.936L119.698 46.6426L118.405 45.3491Z" fill="#FFC700"/>
<path d="M119.699 44.0562L118.406 45.3496L119.699 46.6431L120.992 45.3496L119.699 44.0562Z" fill="#FFF4BC"/>
<path d="M120.991 42.7612L119.697 44.0547L120.991 45.3481L122.284 44.0547L120.991 42.7612Z" fill="#8D3900"/>
<path d="M122.285 41.4683L120.991 42.7617L122.285 44.0552L123.578 42.7617L122.285 41.4683Z" fill="#8D3900"/>
<path d="M108.056 58.2847L106.762 59.5781L108.056 60.8716L109.349 59.5781L108.056 58.2847Z" fill="white"/>
<path d="M109.35 56.9917L108.056 58.2852L109.35 59.5786L110.643 58.2852L109.35 56.9917Z" fill="#222222"/>
<path d="M110.644 55.6987L109.35 56.9922L110.644 58.2856L111.937 56.9922L110.644 55.6987Z" fill="#FFC700"/>
<path d="M111.935 54.4038L110.642 55.6973L111.935 56.9907L113.229 55.6973L111.935 54.4038Z" fill="#8D3900"/>
<path d="M113.229 53.1108L111.936 54.4043L113.229 55.6978L114.523 54.4043L113.229 53.1108Z" fill="#FFF4BC"/>
<path d="M114.525 51.8179L113.232 53.1113L114.525 54.4048L115.819 53.1113L114.525 51.8179Z" fill="white"/>
<path d="M115.817 50.5229L114.524 51.8164L115.817 53.1099L117.111 51.8164L115.817 50.5229Z" fill="#FFF4BC"/>
<path d="M117.111 49.23L115.818 50.5234L117.111 51.8169L118.405 50.5234L117.111 49.23Z" fill="#FFC700"/>
<path d="M118.405 47.9351L117.112 49.2285L118.405 50.522L119.698 49.2285L118.405 47.9351Z" fill="#222222"/>
<path d="M119.697 46.6421L118.403 47.9355L119.697 49.229L120.99 47.9355L119.697 46.6421Z" fill="#FFC700"/>
<path d="M120.993 45.3491L119.699 46.6426L120.993 47.936L122.286 46.6426L120.993 45.3491Z" fill="white"/>
<path d="M122.285 44.0542L120.991 45.3477L122.285 46.6411L123.578 45.3477L122.285 44.0542Z" fill="#8D3900"/>
<path d="M123.579 42.7612L122.285 44.0547L123.579 45.3481L124.872 44.0547L123.579 42.7612Z" fill="#8D3900"/>
<path d="M109.35 59.5776L108.056 60.8711L109.35 62.1646L110.643 60.8711L109.35 59.5776Z" fill="#FFC700"/>
<path d="M110.644 58.2847L109.35 59.5781L110.644 60.8716L111.937 59.5781L110.644 58.2847Z" fill="#222222"/>
<path d="M111.938 56.9917L110.644 58.2852L111.938 59.5786L113.231 58.2852L111.938 56.9917Z" fill="#FFF4BC"/>
<path d="M113.229 55.6968L111.936 56.9902L113.229 58.2837L114.523 56.9902L113.229 55.6968Z" fill="white"/>
<path d="M114.523 54.4038L113.23 55.6973L114.523 56.9907L115.817 55.6973L114.523 54.4038Z" fill="#8D3900"/>
<path d="M115.817 53.1108L114.524 54.4043L115.817 55.6978L117.111 54.4043L115.817 53.1108Z" fill="#FFF4BC"/>
<path d="M117.111 51.8159L115.818 53.1094L117.111 54.4028L118.405 53.1094L117.111 51.8159Z" fill="#FFC700"/>
<path d="M118.405 50.5229L117.112 51.8164L118.405 53.1099L119.698 51.8164L118.405 50.5229Z" fill="#222222"/>
<path d="M119.697 49.23L118.403 50.5234L119.697 51.8169L120.99 50.5234L119.697 49.23Z" fill="#FFC700"/>
<path d="M120.991 47.937L119.697 49.2305L120.991 50.5239L122.284 49.2305L120.991 47.937Z" fill="#FFC700"/>
<path d="M122.285 46.6421L120.991 47.9355L122.285 49.229L123.578 47.9355L122.285 46.6421Z" fill="#FFF4BC"/>
<path d="M123.579 45.3491L122.285 46.6426L123.579 47.936L124.872 46.6426L123.579 45.3491Z" fill="#8D3900"/>
<path d="M124.873 44.0562L123.579 45.3496L124.873 46.6431L126.166 45.3496L124.873 44.0562Z" fill="#8D3900"/>
<path d="M111.935 59.5776L110.642 60.8711L111.935 62.1646L113.229 60.8711L111.935 59.5776Z" fill="#FFF4BC"/>
<path d="M113.229 58.2847L111.936 59.5781L113.229 60.8716L114.523 59.5781L113.229 58.2847Z" fill="#222222"/>
<path d="M114.525 56.9917L113.232 58.2852L114.525 59.5786L115.819 58.2852L114.525 56.9917Z" fill="white"/>
<path d="M115.817 55.6968L114.524 56.9902L115.817 58.2837L117.111 56.9902L115.817 55.6968Z" fill="#8D3900"/>
<path d="M117.111 54.4038L115.818 55.6973L117.111 56.9907L118.405 55.6973L117.111 54.4038Z" fill="#FFC700"/>
<path d="M118.405 53.1108L117.112 54.4043L118.405 55.6978L119.698 54.4043L118.405 53.1108Z" fill="#FFC700"/>
<path d="M119.697 51.8179L118.403 53.1113L119.697 54.4048L120.99 53.1113L119.697 51.8179Z" fill="#222222"/>
<path d="M120.993 50.5249L119.699 51.8184L120.993 53.1118L122.286 51.8184L120.993 50.5249Z" fill="#FFC700"/>
<path d="M122.285 49.23L120.991 50.5234L122.285 51.8169L123.578 50.5234L122.285 49.23Z" fill="white"/>
<path d="M123.579 47.9351L122.285 49.2285L123.579 50.522L124.872 49.2285L123.579 47.9351Z" fill="#8D3900"/>
<path d="M124.873 46.644L123.579 47.9375L124.873 49.231L126.166 47.9375L124.873 46.644Z" fill="#8D3900"/>
<path d="M113.229 60.8706L111.936 62.1641L113.229 63.4575L114.523 62.1641L113.229 60.8706Z" fill="#FFC700"/>
<path d="M114.523 59.5776L113.23 60.8711L114.523 62.1646L115.817 60.8711L114.523 59.5776Z" fill="#222222"/>
<path d="M115.817 58.2847L114.524 59.5781L115.817 60.8716L117.111 59.5781L115.817 58.2847Z" fill="#FFF4BC"/>
<path d="M117.111 56.9917L115.818 58.2852L117.111 59.5786L118.405 58.2852L117.111 56.9917Z" fill="#FFC700"/>
<path d="M118.405 55.6987L117.112 56.9922L118.405 58.2856L119.698 56.9922L118.405 55.6987Z" fill="#8D3900"/>
<path d="M119.697 54.4038L118.403 55.6973L119.697 56.9907L120.99 55.6973L119.697 54.4038Z" fill="#222222"/>
<path d="M120.991 53.1108L119.697 54.4043L120.991 55.6978L122.284 54.4043L120.991 53.1108Z" fill="#FFC700"/>
<path d="M122.285 51.8179L120.991 53.1113L122.285 54.4048L123.578 53.1113L122.285 51.8179Z" fill="#FFC700"/>
<path d="M123.579 50.5229L122.285 51.8164L123.579 53.1099L124.872 51.8164L123.579 50.5229Z" fill="white"/>
<path d="M124.873 49.23L123.579 50.5234L124.873 51.8169L126.166 50.5234L124.873 49.23Z" fill="#8D3900"/>
<path d="M126.167 47.937L124.873 49.2305L126.167 50.5239L127.46 49.2305L126.167 47.937Z" fill="#8D3900"/>
<path d="M115.817 60.8726L114.524 62.166L115.817 63.4595L117.111 62.166L115.817 60.8726Z" fill="#FFC700"/>
<path d="M117.111 59.5776L115.818 60.8711L117.111 62.1646L118.405 60.8711L117.111 59.5776Z" fill="#222222"/>
<path d="M118.405 58.2847L117.112 59.5781L118.405 60.8716L119.698 59.5781L118.405 58.2847Z" fill="#FFC700"/>
<path d="M119.699 56.9917L118.406 58.2852L119.699 59.5786L120.992 58.2852L119.699 56.9917Z" fill="#FFC700"/>
<path d="M120.991 55.6968L119.697 56.9902L120.991 58.2837L122.284 56.9902L120.991 55.6968Z" fill="#FFC700"/>
<path d="M122.287 54.4058L120.993 55.6992L122.287 56.9927L123.58 55.6992L122.287 54.4058Z" fill="#FFC700"/>
<path d="M123.579 53.1108L122.285 54.4043L123.579 55.6978L124.872 54.4043L123.579 53.1108Z" fill="white"/>
<path d="M124.873 51.8179L123.579 53.1113L124.873 54.4048L126.166 53.1113L124.873 51.8179Z" fill="#8D3900"/>
<path d="M126.167 50.5229L124.873 51.8164L126.167 53.1099L127.46 51.8164L126.167 50.5229Z" fill="#8D3900"/>
<path d="M118.405 60.8726L117.112 62.166L118.405 63.4595L119.698 62.166L118.405 60.8726Z" fill="#222222"/>
<path d="M119.699 59.5796L118.406 60.873L119.699 62.1665L120.992 60.873L119.699 59.5796Z" fill="#222222"/>
<path d="M120.991 58.2847L119.697 59.5781L120.991 60.8716L122.284 59.5781L120.991 58.2847Z" fill="#222222"/>
<path d="M122.285 56.9917L120.991 58.2852L122.285 59.5786L123.578 58.2852L122.285 56.9917Z" fill="#222222"/>
<path d="M123.579 55.6968L122.285 56.9902L123.579 58.2837L124.872 56.9902L123.579 55.6968Z" fill="#222222"/>
<path d="M124.873 54.4038L123.579 55.6973L124.873 56.9907L126.166 55.6973L124.873 54.4038Z" fill="#8D3900"/>
<path d="M126.167 53.1108L124.873 54.4043L126.167 55.6978L127.46 54.4043L126.167 53.1108Z" fill="#8D3900"/>
</g>
<defs>
<filter id="filter0_d_966_99142" x="62.7429" y="58.7432" width="44.5403" height="43.54" filterUnits="userSpaceOnUse" color-interpolation-filters="sRGB">
<feFlood flood-opacity="0" result="BackgroundImageFix"/>
<feColorMatrix in="SourceAlpha" type="matrix" values="0 0 0 0 0 0 0 0 0 0 0 0 0 0 0 0 0 0 127 0" result="hardAlpha"/>
<feOffset dx="1"/>
<feComposite in2="hardAlpha" operator="out"/>
<feColorMatrix type="matrix" values="0 0 0 0 1 0 0 0 0 1 0 0 0 0 1 0 0 0 1 0"/>
<feBlend mode="normal" in2="BackgroundImageFix" result="effect1_dropShadow_966_99142"/>
<feBlend mode="normal" in="SourceGraphic" in2="effect1_dropShadow_966_99142" result="shape"/>
</filter>
<clipPath id="clip0_966_99142">
<rect width="23.7821" height="21.9524" fill="white" transform="translate(39 110.816) rotate(-45)"/>
</clipPath>
<clipPath id="clip1_966_99142">
<rect width="23.7821" height="21.9524" fill="white" transform="translate(99 51.8164) rotate(-45)"/>
</clipPath>
</defs>
</svg>
