<svg width="342" height="64" viewBox="0 0 342 64" fill="none" xmlns="http://www.w3.org/2000/svg">
<mask id="path-1-outside-1_966_95933" maskUnits="userSpaceOnUse" x="-3.11401" y="0.46875" width="349" height="59" fill="black">
<rect fill="white" x="-3.11401" y="0.46875" width="349" height="59"/>
<path d="M4.52175 43.2756V8.08784H14.0953V43.2756H4.52175ZM14.0953 52.4688V43.2756H33.1157V52.4688H14.0953ZM70.2555 8.08784V52.4688H46.3532V43.2756H36.7796V8.08784H46.3532V43.2756H60.6819V8.08784H70.2555ZM87.418 43.2756H109.735V52.4688H77.8444V8.08784H100.986V17.281H87.418V43.2756ZM100.986 26.5376V17.281H110.559V26.5376H100.986ZM116.418 52.4688V8.08784H125.991V25.65H139.496V34.9066H125.991V52.4688H116.418ZM149.323 8.08784V25.65H139.496V8.08784H149.323ZM139.496 52.4688V34.9066H149.323V52.4688H139.496ZM188.872 8.08784V52.4053H156.474V43.2122H179.298V36.0478H164.97V26.8546H155.396V8.08784H164.97V26.8546H179.298V8.08784H188.872ZM221.898 43.2756H244.215V52.4688H212.324V8.08784H235.466V17.281H221.898V43.2756ZM235.466 26.5376V17.281H245.04V26.5376H235.466ZM283.74 17.281V52.4688H259.837V43.2756H250.264V8.08784H274.166V17.281H259.837V43.2756H274.166V17.281H283.74ZM338.067 52.4688H299.773V43.2756H290.199V8.08784H299.773V43.2756H309.346V8.08784H318.92V43.2756H328.493V8.08784H338.067V52.4688Z"/>
</mask>
<path d="M4.52175 43.2756V8.08784H14.0953V43.2756H4.52175ZM14.0953 52.4688V43.2756H33.1157V52.4688H14.0953ZM70.2555 8.08784V52.4688H46.3532V43.2756H36.7796V8.08784H46.3532V43.2756H60.6819V8.08784H70.2555ZM87.418 43.2756H109.735V52.4688H77.8444V8.08784H100.986V17.281H87.418V43.2756ZM100.986 26.5376V17.281H110.559V26.5376H100.986ZM116.418 52.4688V8.08784H125.991V25.65H139.496V34.9066H125.991V52.4688H116.418ZM149.323 8.08784V25.65H139.496V8.08784H149.323ZM139.496 52.4688V34.9066H149.323V52.4688H139.496ZM188.872 8.08784V52.4053H156.474V43.2122H179.298V36.0478H164.97V26.8546H155.396V8.08784H164.97V26.8546H179.298V8.08784H188.872ZM221.898 43.2756H244.215V52.4688H212.324V8.08784H235.466V17.281H221.898V43.2756ZM235.466 26.5376V17.281H245.04V26.5376H235.466ZM283.74 17.281V52.4688H259.837V43.2756H250.264V8.08784H274.166V17.281H259.837V43.2756H274.166V17.281H283.74ZM338.067 52.4688H299.773V43.2756H290.199V8.08784H299.773V43.2756H309.346V8.08784H318.92V43.2756H328.493V8.08784H338.067V52.4688Z" fill="#FFB500"/>
<path d="M4.52175 43.2756H-2.31646V50.1138H4.52175V43.2756ZM4.52175 8.08784V1.24963H-2.31646V8.08784H4.52175ZM14.0953 8.08784H20.9336V1.24963H14.0953V8.08784ZM14.0953 43.2756V50.1138H20.9336V43.2756H14.0953ZM14.0953 52.4688H7.25713V59.307H14.0953V52.4688ZM14.0953 43.2756V36.4374H7.25713V43.2756H14.0953ZM33.1157 43.2756H39.9539V36.4374H33.1157V43.2756ZM33.1157 52.4688V59.307H39.9539V52.4688H33.1157ZM11.36 43.2756V8.08784H-2.31646V43.2756H11.36ZM4.52175 14.9261H14.0953V1.24963H4.52175V14.9261ZM7.25713 8.08784V43.2756H20.9336V8.08784H7.25713ZM14.0953 36.4374H4.52175V50.1138H14.0953V36.4374ZM20.9336 52.4688V43.2756H7.25713V52.4688H20.9336ZM14.0953 50.1138H33.1157V36.4374H14.0953V50.1138ZM26.2775 43.2756V52.4688H39.9539V43.2756H26.2775ZM33.1157 45.6305H14.0953V59.307H33.1157V45.6305ZM70.2555 8.08784H77.0937V1.24963H70.2555V8.08784ZM70.2555 52.4688V59.307H77.0937V52.4688H70.2555ZM46.3532 52.4688H39.515V59.307H46.3532V52.4688ZM46.3532 43.2756H53.1914V36.4374H46.3532V43.2756ZM36.7796 43.2756H29.9414V50.1138H36.7796V43.2756ZM36.7796 8.08784V1.24963H29.9414V8.08784H36.7796ZM46.3532 8.08784H53.1914V1.24963H46.3532V8.08784ZM46.3532 43.2756H39.515V50.1138H46.3532V43.2756ZM60.6819 43.2756V50.1138H67.5201V43.2756H60.6819ZM60.6819 8.08784V1.24963H53.8437V8.08784H60.6819ZM63.4173 8.08784V52.4688H77.0937V8.08784H63.4173ZM70.2555 45.6305H46.3532V59.307H70.2555V45.6305ZM53.1914 52.4688V43.2756H39.515V52.4688H53.1914ZM46.3532 36.4374H36.7796V50.1138H46.3532V36.4374ZM43.6178 43.2756V8.08784H29.9414V43.2756H43.6178ZM36.7796 14.9261H46.3532V1.24963H36.7796V14.9261ZM39.515 8.08784V43.2756H53.1914V8.08784H39.515ZM46.3532 50.1138H60.6819V36.4374H46.3532V50.1138ZM67.5201 43.2756V8.08784H53.8437V43.2756H67.5201ZM60.6819 14.9261H70.2555V1.24963H60.6819V14.9261ZM87.418 43.2756H80.5797V50.1138H87.418V43.2756ZM109.735 43.2756H116.573V36.4374H109.735V43.2756ZM109.735 52.4688V59.307H116.573V52.4688H109.735ZM77.8444 52.4688H71.0061V59.307H77.8444V52.4688ZM77.8444 8.08784V1.24963H71.0061V8.08784H77.8444ZM100.986 8.08784H107.824V1.24963H100.986V8.08784ZM100.986 17.281V24.1192H107.824V17.281H100.986ZM87.418 17.281V10.4428H80.5797V17.281H87.418ZM100.986 26.5376H94.1476V33.3758H100.986V26.5376ZM100.986 17.281V10.4428H94.1476V17.281H100.986ZM110.559 17.281H117.398V10.4428H110.559V17.281ZM110.559 26.5376V33.3758H117.398V26.5376H110.559ZM87.418 50.1138H109.735V36.4374H87.418V50.1138ZM102.897 43.2756V52.4688H116.573V43.2756H102.897ZM109.735 45.6305H77.8444V59.307H109.735V45.6305ZM84.6826 52.4688V8.08784H71.0061V52.4688H84.6826ZM77.8444 14.9261H100.986V1.24963H77.8444V14.9261ZM94.1476 8.08784V17.281H107.824V8.08784H94.1476ZM100.986 10.4428H87.418V24.1192H100.986V10.4428ZM80.5797 17.281V43.2756H94.2562V17.281H80.5797ZM107.824 26.5376V17.281H94.1476V26.5376H107.824ZM100.986 24.1192H110.559V10.4428H100.986V24.1192ZM103.721 17.281V26.5376H117.398V17.281H103.721ZM110.559 19.6994H100.986V33.3758H110.559V19.6994ZM116.418 52.4688H109.579V59.307H116.418V52.4688ZM116.418 8.08784V1.24963H109.579V8.08784H116.418ZM125.991 8.08784H132.829V1.24963H125.991V8.08784ZM125.991 25.65H119.153V32.4882H125.991V25.65ZM139.496 25.65H146.334V18.8118H139.496V25.65ZM139.496 34.9066V41.7448H146.334V34.9066H139.496ZM125.991 34.9066V28.0684H119.153V34.9066H125.991ZM125.991 52.4688V59.307H132.829V52.4688H125.991ZM149.323 8.08784H156.161V1.24963H149.323V8.08784ZM149.323 25.65V32.4882H156.161V25.65H149.323ZM139.496 25.65H132.657V32.4882H139.496V25.65ZM139.496 8.08784V1.24963H132.657V8.08784H139.496ZM139.496 52.4688H132.657V59.307H139.496V52.4688ZM139.496 34.9066V28.0684H132.657V34.9066H139.496ZM149.323 34.9066H156.161V28.0684H149.323V34.9066ZM149.323 52.4688V59.307H156.161V52.4688H149.323ZM123.256 52.4688V8.08784H109.579V52.4688H123.256ZM116.418 14.9261H125.991V1.24963H116.418V14.9261ZM119.153 8.08784V25.65H132.829V8.08784H119.153ZM125.991 32.4882H139.496V18.8118H125.991V32.4882ZM132.657 25.65V34.9066H146.334V25.65H132.657ZM139.496 28.0684H125.991V41.7448H139.496V28.0684ZM119.153 34.9066V52.4688H132.829V34.9066H119.153ZM125.991 45.6305H116.418V59.307H125.991V45.6305ZM142.485 8.08784V25.65H156.161V8.08784H142.485ZM149.323 18.8118H139.496V32.4882H149.323V18.8118ZM146.334 25.65V8.08784H132.657V25.65H146.334ZM139.496 14.9261H149.323V1.24963H139.496V14.9261ZM146.334 52.4688V34.9066H132.657V52.4688H146.334ZM139.496 41.7448H149.323V28.0684H139.496V41.7448ZM142.485 34.9066V52.4688H156.161V34.9066H142.485ZM149.323 45.6305H139.496V59.307H149.323V45.6305ZM188.872 8.08784H195.71V1.24963H188.872V8.08784ZM188.872 52.4053V59.2436H195.71V52.4053H188.872ZM156.474 52.4053H149.636V59.2436H156.474V52.4053ZM156.474 43.2122V36.3739H149.636V43.2122H156.474ZM179.298 43.2122V50.0504H186.137V43.2122H179.298ZM179.298 36.0478H186.137V29.2096H179.298V36.0478ZM164.97 36.0478H158.131V42.886H164.97V36.0478ZM164.97 26.8546H171.808V20.0164H164.97V26.8546ZM155.396 26.8546H148.558V33.6928H155.396V26.8546ZM155.396 8.08784V1.24963H148.558V8.08784H155.396ZM164.97 8.08784H171.808V1.24963H164.97V8.08784ZM164.97 26.8546H158.131V33.6928H164.97V26.8546ZM179.298 26.8546V33.6928H186.137V26.8546H179.298ZM179.298 8.08784V1.24963H172.46V8.08784H179.298ZM182.034 8.08784V52.4053H195.71V8.08784H182.034ZM188.872 45.5671H156.474V59.2436H188.872V45.5671ZM163.312 52.4053V43.2122H149.636V52.4053H163.312ZM156.474 50.0504H179.298V36.3739H156.474V50.0504ZM186.137 43.2122V36.0478H172.46V43.2122H186.137ZM179.298 29.2096H164.97V42.886H179.298V29.2096ZM171.808 36.0478V26.8546H158.131V36.0478H171.808ZM164.97 20.0164H155.396V33.6928H164.97V20.0164ZM162.234 26.8546V8.08784H148.558V26.8546H162.234ZM155.396 14.9261H164.97V1.24963H155.396V14.9261ZM158.131 8.08784V26.8546H171.808V8.08784H158.131ZM164.97 33.6928H179.298V20.0164H164.97V33.6928ZM186.137 26.8546V8.08784H172.46V26.8546H186.137ZM179.298 14.9261H188.872V1.24963H179.298V14.9261ZM221.898 43.2756H215.06V50.1138H221.898V43.2756ZM244.215 43.2756H251.054V36.4374H244.215V43.2756ZM244.215 52.4688V59.307H251.054V52.4688H244.215ZM212.324 52.4688H205.486V59.307H212.324V52.4688ZM212.324 8.08784V1.24963H205.486V8.08784H212.324ZM235.466 8.08784H242.304V1.24963H235.466V8.08784ZM235.466 17.281V24.1192H242.304V17.281H235.466ZM221.898 17.281V10.4428H215.06V17.281H221.898ZM235.466 26.5376H228.628V33.3758H235.466V26.5376ZM235.466 17.281V10.4428H228.628V17.281H235.466ZM245.04 17.281H251.878V10.4428H245.04V17.281ZM245.04 26.5376V33.3758H251.878V26.5376H245.04ZM221.898 50.1138H244.215V36.4374H221.898V50.1138ZM237.377 43.2756V52.4688H251.054V43.2756H237.377ZM244.215 45.6305H212.324V59.307H244.215V45.6305ZM219.163 52.4688V8.08784H205.486V52.4688H219.163ZM212.324 14.9261H235.466V1.24963H212.324V14.9261ZM228.628 8.08784V17.281H242.304V8.08784H228.628ZM235.466 10.4428H221.898V24.1192H235.466V10.4428ZM215.06 17.281V43.2756H228.736V17.281H215.06ZM242.304 26.5376V17.281H228.628V26.5376H242.304ZM235.466 24.1192H245.04V10.4428H235.466V24.1192ZM238.201 17.281V26.5376H251.878V17.281H238.201ZM245.04 19.6994H235.466V33.3758H245.04V19.6994ZM283.74 17.281H290.578V10.4428H283.74V17.281ZM283.74 52.4688V59.307H290.578V52.4688H283.74ZM259.837 52.4688H252.999V59.307H259.837V52.4688ZM259.837 43.2756H266.676V36.4374H259.837V43.2756ZM250.264 43.2756H243.425V50.1138H250.264V43.2756ZM250.264 8.08784V1.24963H243.425V8.08784H250.264ZM274.166 8.08784H281.004V1.24963H274.166V8.08784ZM274.166 17.281V24.1192H281.004V17.281H274.166ZM259.837 17.281V10.4428H252.999V17.281H259.837ZM259.837 43.2756H252.999V50.1138H259.837V43.2756ZM274.166 43.2756V50.1138H281.004V43.2756H274.166ZM274.166 17.281V10.4428H267.328V17.281H274.166ZM276.901 17.281V52.4688H290.578V17.281H276.901ZM283.74 45.6305H259.837V59.307H283.74V45.6305ZM266.676 52.4688V43.2756H252.999V52.4688H266.676ZM259.837 36.4374H250.264V50.1138H259.837V36.4374ZM257.102 43.2756V8.08784H243.425V43.2756H257.102ZM250.264 14.9261H274.166V1.24963H250.264V14.9261ZM267.328 8.08784V17.281H281.004V8.08784H267.328ZM274.166 10.4428H259.837V24.1192H274.166V10.4428ZM252.999 17.281V43.2756H266.676V17.281H252.999ZM259.837 50.1138H274.166V36.4374H259.837V50.1138ZM281.004 43.2756V17.281H267.328V43.2756H281.004ZM274.166 24.1192H283.74V10.4428H274.166V24.1192ZM338.067 52.4688V59.307H344.905V52.4688H338.067ZM299.773 52.4688H292.934V59.307H299.773V52.4688ZM299.773 43.2756H306.611V36.4374H299.773V43.2756ZM290.199 43.2756H283.361V50.1138H290.199V43.2756ZM290.199 8.08784V1.24963H283.361V8.08784H290.199ZM299.773 8.08784H306.611V1.24963H299.773V8.08784ZM299.773 43.2756H292.934V50.1138H299.773V43.2756ZM309.346 43.2756V50.1138H316.184V43.2756H309.346ZM309.346 8.08784V1.24963H302.508V8.08784H309.346ZM318.92 8.08784H325.758V1.24963H318.92V8.08784ZM318.92 43.2756H312.082V50.1138H318.92V43.2756ZM328.493 43.2756V50.1138H335.332V43.2756H328.493ZM328.493 8.08784V1.24963H321.655V8.08784H328.493ZM338.067 8.08784H344.905V1.24963H338.067V8.08784ZM338.067 45.6305H299.773V59.307H338.067V45.6305ZM306.611 52.4688V43.2756H292.934V52.4688H306.611ZM299.773 36.4374H290.199V50.1138H299.773V36.4374ZM297.037 43.2756V8.08784H283.361V43.2756H297.037ZM290.199 14.9261H299.773V1.24963H290.199V14.9261ZM292.934 8.08784V43.2756H306.611V8.08784H292.934ZM299.773 50.1138H309.346V36.4374H299.773V50.1138ZM316.184 43.2756V8.08784H302.508V43.2756H316.184ZM309.346 14.9261H318.92V1.24963H309.346V14.9261ZM312.082 8.08784V43.2756H325.758V8.08784H312.082ZM318.92 50.1138H328.493V36.4374H318.92V50.1138ZM335.332 43.2756V8.08784H321.655V43.2756H335.332ZM328.493 14.9261H338.067V1.24963H328.493V14.9261ZM331.229 8.08784V52.4688H344.905V8.08784H331.229Z" fill="white" mask="url(#path-1-outside-1_966_95933)"/>
<mask id="path-3-outside-2_966_95933" maskUnits="userSpaceOnUse" x="0.885986" y="4.46875" width="341" height="52" fill="black">
<rect fill="white" x="0.885986" y="4.46875" width="341" height="52"/>
<path d="M4.52175 43.2756V8.08784H14.0953V43.2756H4.52175ZM14.0953 52.4688V43.2756H33.1157V52.4688H14.0953ZM70.2555 8.08784V52.4688H46.3532V43.2756H36.7796V8.08784H46.3532V43.2756H60.6819V8.08784H70.2555ZM87.418 43.2756H109.735V52.4688H77.8444V8.08784H100.986V17.281H87.418V43.2756ZM100.986 26.5376V17.281H110.559V26.5376H100.986ZM116.418 52.4688V8.08784H125.991V25.65H139.496V34.9066H125.991V52.4688H116.418ZM149.323 8.08784V25.65H139.496V8.08784H149.323ZM139.496 52.4688V34.9066H149.323V52.4688H139.496ZM188.872 8.08784V52.4053H156.474V43.2122H179.298V36.0478H164.97V26.8546H155.396V8.08784H164.97V26.8546H179.298V8.08784H188.872ZM221.898 43.2756H244.215V52.4688H212.324V8.08784H235.466V17.281H221.898V43.2756ZM235.466 26.5376V17.281H245.04V26.5376H235.466ZM283.74 17.281V52.4688H259.837V43.2756H250.264V8.08784H274.166V17.281H259.837V43.2756H274.166V17.281H283.74ZM338.067 52.4688H299.773V43.2756H290.199V8.08784H299.773V43.2756H309.346V8.08784H318.92V43.2756H328.493V8.08784H338.067V52.4688Z"/>
</mask>
<path d="M4.52175 43.2756V8.08784H14.0953V43.2756H4.52175ZM14.0953 52.4688V43.2756H33.1157V52.4688H14.0953ZM70.2555 8.08784V52.4688H46.3532V43.2756H36.7796V8.08784H46.3532V43.2756H60.6819V8.08784H70.2555ZM87.418 43.2756H109.735V52.4688H77.8444V8.08784H100.986V17.281H87.418V43.2756ZM100.986 26.5376V17.281H110.559V26.5376H100.986ZM116.418 52.4688V8.08784H125.991V25.65H139.496V34.9066H125.991V52.4688H116.418ZM149.323 8.08784V25.65H139.496V8.08784H149.323ZM139.496 52.4688V34.9066H149.323V52.4688H139.496ZM188.872 8.08784V52.4053H156.474V43.2122H179.298V36.0478H164.97V26.8546H155.396V8.08784H164.97V26.8546H179.298V8.08784H188.872ZM221.898 43.2756H244.215V52.4688H212.324V8.08784H235.466V17.281H221.898V43.2756ZM235.466 26.5376V17.281H245.04V26.5376H235.466ZM283.74 17.281V52.4688H259.837V43.2756H250.264V8.08784H274.166V17.281H259.837V43.2756H274.166V17.281H283.74ZM338.067 52.4688H299.773V43.2756H290.199V8.08784H299.773V43.2756H309.346V8.08784H318.92V43.2756H328.493V8.08784H338.067V52.4688Z" fill="#FFB500"/>
<path d="M4.52175 43.2756H1.10264V46.6947H4.52175V43.2756ZM4.52175 8.08784V4.66874H1.10264V8.08784H4.52175ZM14.0953 8.08784H17.5145V4.66874H14.0953V8.08784ZM14.0953 43.2756V46.6947H17.5145V43.2756H14.0953ZM14.0953 52.4688H10.6762V55.8879H14.0953V52.4688ZM14.0953 43.2756V39.8565H10.6762V43.2756H14.0953ZM33.1157 43.2756H36.5348V39.8565H33.1157V43.2756ZM33.1157 52.4688V55.8879H36.5348V52.4688H33.1157ZM7.94086 43.2756V8.08784H1.10264V43.2756H7.94086ZM4.52175 11.5069H14.0953V4.66874H4.52175V11.5069ZM10.6762 8.08784V43.2756H17.5145V8.08784H10.6762ZM14.0953 39.8565H4.52175V46.6947H14.0953V39.8565ZM17.5145 52.4688V43.2756H10.6762V52.4688H17.5145ZM14.0953 46.6947H33.1157V39.8565H14.0953V46.6947ZM29.6966 43.2756V52.4688H36.5348V43.2756H29.6966ZM33.1157 49.0496H14.0953V55.8879H33.1157V49.0496ZM70.2555 8.08784H73.6746V4.66874H70.2555V8.08784ZM70.2555 52.4688V55.8879H73.6746V52.4688H70.2555ZM46.3532 52.4688H42.9341V55.8879H46.3532V52.4688ZM46.3532 43.2756H49.7723V39.8565H46.3532V43.2756ZM36.7796 43.2756H33.3605V46.6947H36.7796V43.2756ZM36.7796 8.08784V4.66874H33.3605V8.08784H36.7796ZM46.3532 8.08784H49.7723V4.66874H46.3532V8.08784ZM46.3532 43.2756H42.9341V46.6947H46.3532V43.2756ZM60.6819 43.2756V46.6947H64.101V43.2756H60.6819ZM60.6819 8.08784V4.66874H57.2628V8.08784H60.6819ZM66.8364 8.08784V52.4688H73.6746V8.08784H66.8364ZM70.2555 49.0496H46.3532V55.8879H70.2555V49.0496ZM49.7723 52.4688V43.2756H42.9341V52.4688H49.7723ZM46.3532 39.8565H36.7796V46.6947H46.3532V39.8565ZM40.1987 43.2756V8.08784H33.3605V43.2756H40.1987ZM36.7796 11.5069H46.3532V4.66874H36.7796V11.5069ZM42.9341 8.08784V43.2756H49.7723V8.08784H42.9341ZM46.3532 46.6947H60.6819V39.8565H46.3532V46.6947ZM64.101 43.2756V8.08784H57.2628V43.2756H64.101ZM60.6819 11.5069H70.2555V4.66874H60.6819V11.5069ZM87.418 43.2756H83.9988V46.6947H87.418V43.2756ZM109.735 43.2756H113.154V39.8565H109.735V43.2756ZM109.735 52.4688V55.8879H113.154V52.4688H109.735ZM77.8444 52.4688H74.4253V55.8879H77.8444V52.4688ZM77.8444 8.08784V4.66874H74.4253V8.08784H77.8444ZM100.986 8.08784H104.405V4.66874H100.986V8.08784ZM100.986 17.281V20.7001H104.405V17.281H100.986ZM87.418 17.281V13.8619H83.9988V17.281H87.418ZM100.986 26.5376H97.5667V29.9567H100.986V26.5376ZM100.986 17.281V13.8619H97.5667V17.281H100.986ZM110.559 17.281H113.979V13.8619H110.559V17.281ZM110.559 26.5376V29.9567H113.979V26.5376H110.559ZM87.418 46.6947H109.735V39.8565H87.418V46.6947ZM106.316 43.2756V52.4688H113.154V43.2756H106.316ZM109.735 49.0496H77.8444V55.8879H109.735V49.0496ZM81.2635 52.4688V8.08784H74.4253V52.4688H81.2635ZM77.8444 11.5069H100.986V4.66874H77.8444V11.5069ZM97.5667 8.08784V17.281H104.405V8.08784H97.5667ZM100.986 13.8619H87.418V20.7001H100.986V13.8619ZM83.9988 17.281V43.2756H90.8371V17.281H83.9988ZM104.405 26.5376V17.281H97.5667V26.5376H104.405ZM100.986 20.7001H110.559V13.8619H100.986V20.7001ZM107.14 17.281V26.5376H113.979V17.281H107.14ZM110.559 23.1185H100.986V29.9567H110.559V23.1185ZM116.418 52.4688H112.998V55.8879H116.418V52.4688ZM116.418 8.08784V4.66874H112.998V8.08784H116.418ZM125.991 8.08784H129.41V4.66874H125.991V8.08784ZM125.991 25.65H122.572V29.0691H125.991V25.65ZM139.496 25.65H142.915V22.2309H139.496V25.65ZM139.496 34.9066V38.3257H142.915V34.9066H139.496ZM125.991 34.9066V31.4875H122.572V34.9066H125.991ZM125.991 52.4688V55.8879H129.41V52.4688H125.991ZM149.323 8.08784H152.742V4.66874H149.323V8.08784ZM149.323 25.65V29.0691H152.742V25.65H149.323ZM139.496 25.65H136.077V29.0691H139.496V25.65ZM139.496 8.08784V4.66874H136.077V8.08784H139.496ZM139.496 52.4688H136.077V55.8879H139.496V52.4688ZM139.496 34.9066V31.4875H136.077V34.9066H139.496ZM149.323 34.9066H152.742V31.4875H149.323V34.9066ZM149.323 52.4688V55.8879H152.742V52.4688H149.323ZM119.837 52.4688V8.08784H112.998V52.4688H119.837ZM116.418 11.5069H125.991V4.66874H116.418V11.5069ZM122.572 8.08784V25.65H129.41V8.08784H122.572ZM125.991 29.0691H139.496V22.2309H125.991V29.0691ZM136.077 25.65V34.9066H142.915V25.65H136.077ZM139.496 31.4875H125.991V38.3257H139.496V31.4875ZM122.572 34.9066V52.4688H129.41V34.9066H122.572ZM125.991 49.0496H116.418V55.8879H125.991V49.0496ZM145.904 8.08784V25.65H152.742V8.08784H145.904ZM149.323 22.2309H139.496V29.0691H149.323V22.2309ZM142.915 25.65V8.08784H136.077V25.65H142.915ZM139.496 11.5069H149.323V4.66874H139.496V11.5069ZM142.915 52.4688V34.9066H136.077V52.4688H142.915ZM139.496 38.3257H149.323V31.4875H139.496V38.3257ZM145.904 34.9066V52.4688H152.742V34.9066H145.904ZM149.323 49.0496H139.496V55.8879H149.323V49.0496ZM188.872 8.08784H192.291V4.66874H188.872V8.08784ZM188.872 52.4053V55.8245H192.291V52.4053H188.872ZM156.474 52.4053H153.055V55.8245H156.474V52.4053ZM156.474 43.2122V39.7931H153.055V43.2122H156.474ZM179.298 43.2122V46.6313H182.717V43.2122H179.298ZM179.298 36.0478H182.717V32.6287H179.298V36.0478ZM164.97 36.0478H161.551V39.4669H164.97V36.0478ZM164.97 26.8546H168.389V23.4355H164.97V26.8546ZM155.396 26.8546H151.977V30.2737H155.396V26.8546ZM155.396 8.08784V4.66874H151.977V8.08784H155.396ZM164.97 8.08784H168.389V4.66874H164.97V8.08784ZM164.97 26.8546H161.551V30.2737H164.97V26.8546ZM179.298 26.8546V30.2737H182.717V26.8546H179.298ZM179.298 8.08784V4.66874H175.879V8.08784H179.298ZM185.453 8.08784V52.4053H192.291V8.08784H185.453ZM188.872 48.9862H156.474V55.8245H188.872V48.9862ZM159.893 52.4053V43.2122H153.055V52.4053H159.893ZM156.474 46.6313H179.298V39.7931H156.474V46.6313ZM182.717 43.2122V36.0478H175.879V43.2122H182.717ZM179.298 32.6287H164.97V39.4669H179.298V32.6287ZM168.389 36.0478V26.8546H161.551V36.0478H168.389ZM164.97 23.4355H155.396V30.2737H164.97V23.4355ZM158.815 26.8546V8.08784H151.977V26.8546H158.815ZM155.396 11.5069H164.97V4.66874H155.396V11.5069ZM161.551 8.08784V26.8546H168.389V8.08784H161.551ZM164.97 30.2737H179.298V23.4355H164.97V30.2737ZM182.717 26.8546V8.08784H175.879V26.8546H182.717ZM179.298 11.5069H188.872V4.66874H179.298V11.5069ZM221.898 43.2756H218.479V46.6947H221.898V43.2756ZM244.215 43.2756H247.634V39.8565H244.215V43.2756ZM244.215 52.4688V55.8879H247.634V52.4688H244.215ZM212.324 52.4688H208.905V55.8879H212.324V52.4688ZM212.324 8.08784V4.66874H208.905V8.08784H212.324ZM235.466 8.08784H238.885V4.66874H235.466V8.08784ZM235.466 17.281V20.7001H238.885V17.281H235.466ZM221.898 17.281V13.8619H218.479V17.281H221.898ZM235.466 26.5376H232.047V29.9567H235.466V26.5376ZM235.466 17.281V13.8619H232.047V17.281H235.466ZM245.04 17.281H248.459V13.8619H245.04V17.281ZM245.04 26.5376V29.9567H248.459V26.5376H245.04ZM221.898 46.6947H244.215V39.8565H221.898V46.6947ZM240.796 43.2756V52.4688H247.634V43.2756H240.796ZM244.215 49.0496H212.324V55.8879H244.215V49.0496ZM215.744 52.4688V8.08784H208.905V52.4688H215.744ZM212.324 11.5069H235.466V4.66874H212.324V11.5069ZM232.047 8.08784V17.281H238.885V8.08784H232.047ZM235.466 13.8619H221.898V20.7001H235.466V13.8619ZM218.479 17.281V43.2756H225.317V17.281H218.479ZM238.885 26.5376V17.281H232.047V26.5376H238.885ZM235.466 20.7001H245.04V13.8619H235.466V20.7001ZM241.62 17.281V26.5376H248.459V17.281H241.62ZM245.04 23.1185H235.466V29.9567H245.04V23.1185ZM283.74 17.281H287.159V13.8619H283.74V17.281ZM283.74 52.4688V55.8879H287.159V52.4688H283.74ZM259.837 52.4688H256.418V55.8879H259.837V52.4688ZM259.837 43.2756H263.256V39.8565H259.837V43.2756ZM250.264 43.2756H246.845V46.6947H250.264V43.2756ZM250.264 8.08784V4.66874H246.845V8.08784H250.264ZM274.166 8.08784H277.585V4.66874H274.166V8.08784ZM274.166 17.281V20.7001H277.585V17.281H274.166ZM259.837 17.281V13.8619H256.418V17.281H259.837ZM259.837 43.2756H256.418V46.6947H259.837V43.2756ZM274.166 43.2756V46.6947H277.585V43.2756H274.166ZM274.166 17.281V13.8619H270.747V17.281H274.166ZM280.32 17.281V52.4688H287.159V17.281H280.32ZM283.74 49.0496H259.837V55.8879H283.74V49.0496ZM263.256 52.4688V43.2756H256.418V52.4688H263.256ZM259.837 39.8565H250.264V46.6947H259.837V39.8565ZM253.683 43.2756V8.08784H246.845V43.2756H253.683ZM250.264 11.5069H274.166V4.66874H250.264V11.5069ZM270.747 8.08784V17.281H277.585V8.08784H270.747ZM274.166 13.8619H259.837V20.7001H274.166V13.8619ZM256.418 17.281V43.2756H263.256V17.281H256.418ZM259.837 46.6947H274.166V39.8565H259.837V46.6947ZM277.585 43.2756V17.281H270.747V43.2756H277.585ZM274.166 20.7001H283.74V13.8619H274.166V20.7001ZM338.067 52.4688V55.8879H341.486V52.4688H338.067ZM299.773 52.4688H296.354V55.8879H299.773V52.4688ZM299.773 43.2756H303.192V39.8565H299.773V43.2756ZM290.199 43.2756H286.78V46.6947H290.199V43.2756ZM290.199 8.08784V4.66874H286.78V8.08784H290.199ZM299.773 8.08784H303.192V4.66874H299.773V8.08784ZM299.773 43.2756H296.354V46.6947H299.773V43.2756ZM309.346 43.2756V46.6947H312.765V43.2756H309.346ZM309.346 8.08784V4.66874H305.927V8.08784H309.346ZM318.92 8.08784H322.339V4.66874H318.92V8.08784ZM318.92 43.2756H315.501V46.6947H318.92V43.2756ZM328.493 43.2756V46.6947H331.913V43.2756H328.493ZM328.493 8.08784V4.66874H325.074V8.08784H328.493ZM338.067 8.08784H341.486V4.66874H338.067V8.08784ZM338.067 49.0496H299.773V55.8879H338.067V49.0496ZM303.192 52.4688V43.2756H296.354V52.4688H303.192ZM299.773 39.8565H290.199V46.6947H299.773V39.8565ZM293.618 43.2756V8.08784H286.78V43.2756H293.618ZM290.199 11.5069H299.773V4.66874H290.199V11.5069ZM296.354 8.08784V43.2756H303.192V8.08784H296.354ZM299.773 46.6947H309.346V39.8565H299.773V46.6947ZM312.765 43.2756V8.08784H305.927V43.2756H312.765ZM309.346 11.5069H318.92V4.66874H309.346V11.5069ZM315.501 8.08784V43.2756H322.339V8.08784H315.501ZM318.92 46.6947H328.493V39.8565H318.92V46.6947ZM331.913 43.2756V8.08784H325.074V43.2756H331.913ZM328.493 11.5069H338.067V4.66874H328.493V11.5069ZM334.648 8.08784V52.4688H341.486V8.08784H334.648Z" fill="#993328" mask="url(#path-3-outside-2_966_95933)"/>
</svg>
