<svg width="103" height="36" viewBox="0 0 103 36" fill="none" xmlns="http://www.w3.org/2000/svg">
<path d="M93.9366 2.9668H8.89928V5.93321H5.93286L5.93286 29.6646H8.89928V32.631H93.9366V29.6646H96.903V5.93321H93.9366V2.9668Z" fill="#FAE100"/>
<mask id="path-2-outside-1_966_95971" maskUnits="userSpaceOnUse" x="19.7537" y="7.91016" width="64" height="19" fill="black">
<rect fill="white" x="19.7537" y="7.91016" width="64" height="19"/>
<path d="M32.9708 10.6643V13.6152L29.043 13.6152L29.043 24.9102H25.97L25.97 13.6152H22.0218V10.6643L32.9708 10.6643ZM44.9106 13.6152V24.9102H37.2382V21.9592H34.1651V10.6643L41.8375 10.6643V13.6152H37.2382V21.9592L41.8375 21.9592V13.6152H44.9106ZM47.1875 24.9102V10.6643H50.2606V16.3016H54.5954V19.2729H50.2606V24.9102H47.1875ZM57.7498 10.6643V16.3016H54.5954V10.6643H57.7498ZM54.5954 24.9102V19.2729H57.7498V24.9102L54.5954 24.9102ZM62.9554 13.6152V16.0981H66.6797V19.049H62.9554V21.9592H68.8776V24.9102H62.6909V21.9592H59.8824V10.6643H68.8776V13.6152H62.9554ZM78.6144 13.6152L73.8115 13.6152V24.9102H70.7385V10.6643L78.6144 10.6643V13.6152ZM78.6144 24.9102V13.6152L81.6875 13.6152V24.9102H78.6144Z"/>
</mask>
<path d="M32.9708 10.6643V13.6152L29.043 13.6152L29.043 24.9102H25.97L25.97 13.6152H22.0218V10.6643L32.9708 10.6643ZM44.9106 13.6152V24.9102H37.2382V21.9592H34.1651V10.6643L41.8375 10.6643V13.6152H37.2382V21.9592L41.8375 21.9592V13.6152H44.9106ZM47.1875 24.9102V10.6643H50.2606V16.3016H54.5954V19.2729H50.2606V24.9102H47.1875ZM57.7498 10.6643V16.3016H54.5954V10.6643H57.7498ZM54.5954 24.9102V19.2729H57.7498V24.9102L54.5954 24.9102ZM62.9554 13.6152V16.0981H66.6797V19.049H62.9554V21.9592H68.8776V24.9102H62.6909V21.9592H59.8824V10.6643H68.8776V13.6152H62.9554ZM78.6144 13.6152L73.8115 13.6152V24.9102H70.7385V10.6643L78.6144 10.6643V13.6152ZM78.6144 24.9102V13.6152L81.6875 13.6152V24.9102H78.6144Z" fill="white"/>
<path d="M32.9708 10.6643H34.9484V8.68669H32.9708V10.6643ZM32.9708 13.6152V15.5928H34.9484V13.6152H32.9708ZM29.043 13.6152V11.6376L27.0654 11.6376V13.6152H29.043ZM29.043 24.9102V26.8878H31.0206V24.9102H29.043ZM25.97 24.9102H23.9923V26.8878H25.97V24.9102ZM25.97 13.6152H27.9476V11.6376H25.97V13.6152ZM22.0218 13.6152H20.0442V15.5928H22.0218V13.6152ZM22.0218 10.6643V8.68669H20.0442V10.6643H22.0218ZM30.9932 10.6643V13.6152H34.9484V10.6643H30.9932ZM32.9708 11.6376H29.043V15.5928L32.9708 15.5928V11.6376ZM27.0654 13.6152L27.0654 24.9102H31.0206L31.0206 13.6152L27.0654 13.6152ZM29.043 22.9325H25.97V26.8878H29.043V22.9325ZM27.9476 24.9102L27.9476 13.6152H23.9923L23.9923 24.9102H27.9476ZM25.97 11.6376H22.0218V15.5928H25.97V11.6376ZM23.9994 13.6152V10.6643H20.0442V13.6152H23.9994ZM22.0218 12.6419L32.9708 12.6419V8.68669L22.0218 8.68669V12.6419ZM44.9106 13.6152H46.8882V11.6376H44.9106V13.6152ZM44.9106 24.9102V26.8878H46.8882V24.9102H44.9106ZM37.2382 24.9102H35.2606V26.8878H37.2382V24.9102ZM37.2382 21.9592L39.2158 21.9592V19.9816L37.2382 19.9816V21.9592ZM34.1651 21.9592H32.1875V23.9368L34.1651 23.9368V21.9592ZM34.1651 10.6643V8.68669H32.1875V10.6643H34.1651ZM41.8375 10.6643H43.8152V8.68669H41.8375V10.6643ZM41.8375 13.6152V15.5928H43.8152V13.6152H41.8375ZM37.2382 13.6152V11.6376L35.2606 11.6376V13.6152L37.2382 13.6152ZM37.2382 21.9592H35.2606V23.9368H37.2382V21.9592ZM41.8375 21.9592V23.9368H43.8152V21.9592H41.8375ZM41.8375 13.6152V11.6376H39.8599V13.6152H41.8375ZM42.933 13.6152V24.9102H46.8882V13.6152H42.933ZM44.9106 22.9325L37.2382 22.9325V26.8878H44.9106V22.9325ZM39.2158 24.9102V21.9592L35.2606 21.9592V24.9102H39.2158ZM37.2382 19.9816H34.1651V23.9368H37.2382V19.9816ZM36.1428 21.9592V10.6643H32.1875V21.9592H36.1428ZM34.1651 12.6419L41.8375 12.6419V8.68669L34.1651 8.68669V12.6419ZM39.8599 10.6643V13.6152H43.8152V10.6643H39.8599ZM41.8375 11.6376H37.2382V15.5928H41.8375V11.6376ZM35.2606 13.6152V21.9592L39.2158 21.9592V13.6152L35.2606 13.6152ZM37.2382 23.9368H41.8375V19.9816L37.2382 19.9816V23.9368ZM43.8152 21.9592V13.6152H39.8599V21.9592H43.8152ZM41.8375 15.5928H44.9106V11.6376H41.8375V15.5928ZM47.1875 24.9102H45.2099V26.8878H47.1875V24.9102ZM47.1875 10.6643V8.68669H45.2099V10.6643H47.1875ZM50.2606 10.6643L52.2382 10.6643V8.68669H50.2606V10.6643ZM50.2606 16.3016L48.283 16.3016V18.2792L50.2606 18.2792V16.3016ZM54.5954 16.3016H56.573V14.324H54.5954V16.3016ZM54.5954 19.2729V21.2505H56.573V19.2729H54.5954ZM50.2606 19.2729V17.2953L48.283 17.2953V19.2729L50.2606 19.2729ZM50.2606 24.9102V26.8878H52.2382V24.9102H50.2606ZM57.7498 10.6643L59.7274 10.6643V8.68669H57.7498V10.6643ZM57.7498 16.3016V18.2792H59.7274V16.3016H57.7498ZM54.5954 16.3016H52.6178V18.2792H54.5954V16.3016ZM54.5954 10.6643V8.68669H52.6178V10.6643H54.5954ZM54.5954 24.9102H52.6178V26.8878H54.5954V24.9102ZM54.5954 19.2729V17.2953H52.6178V19.2729H54.5954ZM57.7498 19.2729H59.7274V17.2953H57.7498V19.2729ZM57.7498 24.9102V26.8878H59.7274V24.9102H57.7498ZM49.1651 24.9102V10.6643H45.2099V24.9102H49.1651ZM47.1875 12.6419H50.2606V8.68669L47.1875 8.68669V12.6419ZM48.283 10.6643V16.3016L52.2382 16.3016V10.6643L48.283 10.6643ZM50.2606 18.2792H54.5954V14.324L50.2606 14.324V18.2792ZM52.6178 16.3016V19.2729H56.573V16.3016H52.6178ZM54.5954 17.2953H50.2606V21.2505H54.5954V17.2953ZM48.283 19.2729V24.9102H52.2382V19.2729L48.283 19.2729ZM50.2606 22.9325L47.1875 22.9325V26.8878H50.2606V22.9325ZM55.7722 10.6643V16.3016H59.7274V10.6643L55.7722 10.6643ZM57.7498 14.324L54.5954 14.324V18.2792H57.7498V14.324ZM56.573 16.3016V10.6643H52.6178V16.3016H56.573ZM54.5954 12.6419L57.7498 12.6419V8.68669H54.5954V12.6419ZM56.573 24.9102V19.2729H52.6178V24.9102L56.573 24.9102ZM54.5954 21.2505H57.7498V17.2953H54.5954V21.2505ZM55.7722 19.2729V24.9102H59.7274V19.2729H55.7722ZM57.7498 22.9325H54.5954V26.8878L57.7498 26.8878V22.9325ZM62.9554 13.6152V11.6376H60.9778V13.6152H62.9554ZM62.9554 16.0981H60.9778V18.0757H62.9554V16.0981ZM66.6797 16.0981H68.6573V14.1205H66.6797V16.0981ZM66.6797 19.049V21.0266H68.6573V19.049H66.6797ZM62.9554 19.049V17.0714H60.9778V19.049H62.9554ZM62.9554 21.9592H60.9778V23.9368H62.9554V21.9592ZM68.8776 21.9592H70.8552V19.9816H68.8776V21.9592ZM68.8776 24.9102V26.8878H70.8552V24.9102H68.8776ZM62.6909 24.9102H60.7133V26.8878H62.6909V24.9102ZM62.6909 21.9592H64.6685V19.9816H62.6909V21.9592ZM59.8824 21.9592H57.9048V23.9368H59.8824V21.9592ZM59.8824 10.6643V8.68669H57.9048V10.6643L59.8824 10.6643ZM68.8776 10.6643H70.8552V8.68669H68.8776V10.6643ZM68.8776 13.6152V15.5928H70.8552V13.6152H68.8776ZM60.9778 13.6152V16.0981H64.933V13.6152H60.9778ZM62.9554 18.0757H66.6797V14.1205H62.9554V18.0757ZM64.7021 16.0981V19.049H68.6573V16.0981H64.7021ZM66.6797 17.0714H62.9554V21.0266H66.6797V17.0714ZM60.9778 19.049V21.9592H64.933V19.049H60.9778ZM62.9554 23.9368H68.8776V19.9816H62.9554V23.9368ZM66.9 21.9592V24.9102H70.8552V21.9592H66.9ZM68.8776 22.9325H62.6909V26.8878H68.8776V22.9325ZM64.6685 24.9102V21.9592H60.7133V24.9102H64.6685ZM62.6909 19.9816H59.8824V23.9368H62.6909V19.9816ZM61.86 21.9592V10.6643L57.9048 10.6643V21.9592H61.86ZM59.8824 12.6419H68.8776V8.68669L59.8824 8.68669V12.6419ZM66.9 10.6643V13.6152H70.8552V10.6643H66.9ZM68.8776 11.6376H62.9554V15.5928H68.8776V11.6376ZM78.6144 13.6152V15.5928L80.592 15.5928V13.6152L78.6144 13.6152ZM73.8115 13.6152V11.6376L71.8339 11.6376V13.6152H73.8115ZM73.8115 24.9102V26.8878H75.7891V24.9102H73.8115ZM70.7385 24.9102H68.7609V26.8878H70.7385V24.9102ZM70.7385 10.6643V8.68669H68.7609V10.6643H70.7385ZM78.6144 10.6643H80.592V8.68669H78.6144V10.6643ZM78.6144 24.9102L76.6368 24.9102V26.8878L78.6144 26.8878V24.9102ZM78.6144 13.6152V11.6376H76.6368V13.6152H78.6144ZM81.6875 13.6152H83.6651V11.6376H81.6875V13.6152ZM81.6875 24.9102V26.8878H83.6651V24.9102H81.6875ZM78.6144 11.6376H73.8115V15.5928L78.6144 15.5928V11.6376ZM71.8339 13.6152V24.9102H75.7891V13.6152L71.8339 13.6152ZM73.8115 22.9325H70.7385V26.8878H73.8115V22.9325ZM72.7161 24.9102V10.6643H68.7609V24.9102H72.7161ZM70.7385 12.6419L78.6144 12.6419V8.68669L70.7385 8.68669V12.6419ZM76.6368 10.6643V13.6152L80.592 13.6152V10.6643H76.6368ZM80.592 24.9102V13.6152L76.6368 13.6152V24.9102L80.592 24.9102ZM78.6144 15.5928L81.6875 15.5928V11.6376L78.6144 11.6376V15.5928ZM79.7098 13.6152V24.9102H83.6651V13.6152L79.7098 13.6152ZM81.6875 22.9325H78.6144V26.8878H81.6875V22.9325Z" fill="#FF8D00" mask="url(#path-2-outside-1_966_95971)"/>
<rect x="5.93286" width="90.9701" height="2.96642" fill="#6B001E"/>
<rect x="5.93286" y="2.9668" width="90.9701" height="2.96642" fill="#FAC300"/>
<rect x="2.96631" y="2.9668" width="2.96642" height="2.96642" fill="#6B001E"/>
<rect width="2.96642" height="2.96642" transform="matrix(-1 0 0 1 99.8694 2.9668)" fill="#6B001E"/>
<rect x="2.96631" y="29.6641" width="2.96642" height="2.96642" fill="#6B001E"/>
<rect width="2.96642" height="2.96642" transform="matrix(-1 0 0 1 99.8694 29.6641)" fill="#6B001E"/>
<rect x="5.93286" y="32.6309" width="90.9701" height="2.96642" fill="#6B001E"/>
<rect x="5.93286" y="29.6641" width="90.9701" height="2.96642" fill="#FAC300"/>
<rect y="5.93262" width="2.96642" height="23.7313" fill="#6B001E"/>
<rect x="2.96631" y="5.93262" width="2.96642" height="23.7313" fill="#FAC300"/>
<rect x="96.9031" y="5.93262" width="2.96642" height="23.7313" fill="#FAC300"/>
<rect width="2.96642" height="23.7313" transform="matrix(-1 0 0 1 102.836 5.93262)" fill="#6B001E"/>
</svg>
