<svg width="51" height="34" viewBox="0 0 51 34" fill="none" xmlns="http://www.w3.org/2000/svg">
<mask id="path-1-outside-1_981_276604" maskUnits="userSpaceOnUse" x="0.0522461" y="0.453125" width="51" height="34" fill="black">
<rect fill="white" x="0.0522461" y="0.453125" width="51" height="34"/>
<path d="M14.5876 4.45312H16.8477V15.0003H14.5876V11.9868H13.0809V10.4801H11.5742V8.97334H10.0674V7.4666H9.31406V15.0003H7.05395V4.45312H9.31406V5.95986H10.8208V7.4666H12.3275V8.97334H13.8343V10.4801H14.5876V4.45312Z"/>
<path d="M18.3545 4.45312H26.6415V5.95986H20.6146V8.97334H25.1348V10.4801H20.6146V13.4936H26.6415V15.0003H18.3545V4.45312Z"/>
<path d="M34.1811 4.45312H36.4412V7.4666H34.9345V8.97334H33.4278V10.4801H34.9345V11.9868H36.4412V15.0003H34.1811V11.9868H32.6744V10.4801H31.921V11.9868H30.4143V15.0003H28.1542V11.9868H29.6609V10.4801H31.1676V8.97334H29.6609V7.4666H28.1542V4.45312H30.4143V7.4666H31.921V8.97334H32.6744V7.4666H34.1811V4.45312Z"/>
<path d="M46.2409 4.45312V5.95986H43.2274V15.0003H40.9673V5.95986H37.9539V4.45312H46.2409Z"/>
<path d="M12.3393 19.4531V20.9599H9.32583V30.0003H7.06572V20.9599H4.05225V19.4531H12.3393Z"/>
<path d="M13.8519 30.0003V28.4936H15.3587V20.9599H13.8519V19.4531H19.1255V20.9599H17.6188V28.4936H19.1255V30.0003H13.8519Z"/>
<path d="M29.6756 19.4531H31.9357V30.0003H29.6756V22.4666H28.9223V23.9733H27.4155V25.4801H25.1554V23.9733H23.6487V22.4666H22.8953V30.0003H20.6352V19.4531H22.8953V20.9599H24.402V22.4666H25.9088V23.9733H26.6621V22.4666H28.1689V20.9599H29.6756V19.4531Z"/>
<path d="M33.4366 19.4531H41.7236V20.9599H35.6967V23.9733H40.2169V25.4801H35.6967V28.4936H41.7236V30.0003H33.4366V19.4531Z"/>
<path d="M43.9896 19.4531H46.2497V26.9868H43.9896V19.4531ZM43.9896 30.0003V28.4936H46.2497V30.0003H43.9896Z"/>
</mask>
<path d="M14.5876 4.45312H16.8477V15.0003H14.5876V11.9868H13.0809V10.4801H11.5742V8.97334H10.0674V7.4666H9.31406V15.0003H7.05395V4.45312H9.31406V5.95986H10.8208V7.4666H12.3275V8.97334H13.8343V10.4801H14.5876V4.45312Z" fill="#FFC729"/>
<path d="M18.3545 4.45312H26.6415V5.95986H20.6146V8.97334H25.1348V10.4801H20.6146V13.4936H26.6415V15.0003H18.3545V4.45312Z" fill="#FFC729"/>
<path d="M34.1811 4.45312H36.4412V7.4666H34.9345V8.97334H33.4278V10.4801H34.9345V11.9868H36.4412V15.0003H34.1811V11.9868H32.6744V10.4801H31.921V11.9868H30.4143V15.0003H28.1542V11.9868H29.6609V10.4801H31.1676V8.97334H29.6609V7.4666H28.1542V4.45312H30.4143V7.4666H31.921V8.97334H32.6744V7.4666H34.1811V4.45312Z" fill="#FFC729"/>
<path d="M46.2409 4.45312V5.95986H43.2274V15.0003H40.9673V5.95986H37.9539V4.45312H46.2409Z" fill="#FFC729"/>
<path d="M12.3393 19.4531V20.9599H9.32583V30.0003H7.06572V20.9599H4.05225V19.4531H12.3393Z" fill="#FFC729"/>
<path d="M13.8519 30.0003V28.4936H15.3587V20.9599H13.8519V19.4531H19.1255V20.9599H17.6188V28.4936H19.1255V30.0003H13.8519Z" fill="#FFC729"/>
<path d="M29.6756 19.4531H31.9357V30.0003H29.6756V22.4666H28.9223V23.9733H27.4155V25.4801H25.1554V23.9733H23.6487V22.4666H22.8953V30.0003H20.6352V19.4531H22.8953V20.9599H24.402V22.4666H25.9088V23.9733H26.6621V22.4666H28.1689V20.9599H29.6756V19.4531Z" fill="#FFC729"/>
<path d="M33.4366 19.4531H41.7236V20.9599H35.6967V23.9733H40.2169V25.4801H35.6967V28.4936H41.7236V30.0003H33.4366V19.4531Z" fill="#FFC729"/>
<path d="M43.9896 19.4531H46.2497V26.9868H43.9896V19.4531ZM43.9896 30.0003V28.4936H46.2497V30.0003H43.9896Z" fill="#FFC729"/>
<path d="M14.5876 4.45312H16.8477V15.0003H14.5876V11.9868H13.0809V10.4801H11.5742V8.97334H10.0674V7.4666H9.31406V15.0003H7.05395V4.45312H9.31406V5.95986H10.8208V7.4666H12.3275V8.97334H13.8343V10.4801H14.5876V4.45312Z" stroke="white" stroke-width="8" mask="url(#path-1-outside-1_981_276604)"/>
<path d="M18.3545 4.45312H26.6415V5.95986H20.6146V8.97334H25.1348V10.4801H20.6146V13.4936H26.6415V15.0003H18.3545V4.45312Z" stroke="white" stroke-width="8" mask="url(#path-1-outside-1_981_276604)"/>
<path d="M34.1811 4.45312H36.4412V7.4666H34.9345V8.97334H33.4278V10.4801H34.9345V11.9868H36.4412V15.0003H34.1811V11.9868H32.6744V10.4801H31.921V11.9868H30.4143V15.0003H28.1542V11.9868H29.6609V10.4801H31.1676V8.97334H29.6609V7.4666H28.1542V4.45312H30.4143V7.4666H31.921V8.97334H32.6744V7.4666H34.1811V4.45312Z" stroke="white" stroke-width="8" mask="url(#path-1-outside-1_981_276604)"/>
<path d="M46.2409 4.45312V5.95986H43.2274V15.0003H40.9673V5.95986H37.9539V4.45312H46.2409Z" stroke="white" stroke-width="8" mask="url(#path-1-outside-1_981_276604)"/>
<path d="M12.3393 19.4531V20.9599H9.32583V30.0003H7.06572V20.9599H4.05225V19.4531H12.3393Z" stroke="white" stroke-width="8" mask="url(#path-1-outside-1_981_276604)"/>
<path d="M13.8519 30.0003V28.4936H15.3587V20.9599H13.8519V19.4531H19.1255V20.9599H17.6188V28.4936H19.1255V30.0003H13.8519Z" stroke="white" stroke-width="8" mask="url(#path-1-outside-1_981_276604)"/>
<path d="M29.6756 19.4531H31.9357V30.0003H29.6756V22.4666H28.9223V23.9733H27.4155V25.4801H25.1554V23.9733H23.6487V22.4666H22.8953V30.0003H20.6352V19.4531H22.8953V20.9599H24.402V22.4666H25.9088V23.9733H26.6621V22.4666H28.1689V20.9599H29.6756V19.4531Z" stroke="white" stroke-width="8" mask="url(#path-1-outside-1_981_276604)"/>
<path d="M33.4366 19.4531H41.7236V20.9599H35.6967V23.9733H40.2169V25.4801H35.6967V28.4936H41.7236V30.0003H33.4366V19.4531Z" stroke="white" stroke-width="8" mask="url(#path-1-outside-1_981_276604)"/>
<path d="M43.9896 19.4531H46.2497V26.9868H43.9896V19.4531ZM43.9896 30.0003V28.4936H46.2497V30.0003H43.9896Z" stroke="white" stroke-width="8" mask="url(#path-1-outside-1_981_276604)"/>
<mask id="path-2-outside-2_981_276604" maskUnits="userSpaceOnUse" x="2" y="2" width="46" height="30" fill="black">
<rect fill="white" x="2" y="2" width="46" height="30"/>
<path d="M14.5875 4.45283H16.8476V15H14.5875V11.9865H13.0807V10.4798H11.574V8.97305H10.0673V7.46631H9.31389V15H7.05378V4.45283H9.31389V5.95957H10.8206V7.46631H12.3274V8.97305H13.8341V10.4798H14.5875V4.45283ZM18.3543 4.45283H26.6414V5.95957H20.6144V8.97305H25.1346V10.4798H20.6144V13.4933H26.6414V15H18.3543V4.45283ZM34.181 4.45283H36.4411V7.46631H34.9343V8.97305H33.4276V10.4798H34.9343V11.9865H36.4411V15H34.181V11.9865H32.6742V10.4798H31.9208V11.9865H30.4141V15H28.154V11.9865H29.6607V10.4798H31.1675V8.97305H29.6607V7.46631H28.154V4.45283H30.4141V7.46631H31.9208V8.97305H32.6742V7.46631H34.181V4.45283ZM46.2407 4.45283V5.95957H43.2273V15H40.9672V5.95957H37.9537V4.45283H46.2407ZM12.3391 19.4528V20.9596H9.32566V30H7.06556V20.9596H4.05208V19.4528H12.3391ZM13.8518 30V28.4933H15.3585V20.9596H13.8518V19.4528H19.1253V20.9596H17.6186V28.4933H19.1253V30H13.8518ZM29.6755 19.4528H31.9356V30H29.6755V22.4663H28.9221V23.973H27.4153V25.4798H25.1552V23.973H23.6485V22.4663H22.8951V30H20.635V19.4528H22.8951V20.9596H24.4019V22.4663H25.9086V23.973H26.662V22.4663H28.1687V20.9596H29.6755V19.4528ZM33.4364 19.4528H41.7235V20.9596H35.6965V23.973H40.2167V25.4798H35.6965V28.4933H41.7235V30H33.4364V19.4528ZM43.9895 19.4528H46.2496V26.9865H43.9895V19.4528ZM43.9895 30V28.4933H46.2496V30H43.9895Z"/>
</mask>
<path d="M14.5875 4.45283H16.8476V15H14.5875V11.9865H13.0807V10.4798H11.574V8.97305H10.0673V7.46631H9.31389V15H7.05378V4.45283H9.31389V5.95957H10.8206V7.46631H12.3274V8.97305H13.8341V10.4798H14.5875V4.45283ZM18.3543 4.45283H26.6414V5.95957H20.6144V8.97305H25.1346V10.4798H20.6144V13.4933H26.6414V15H18.3543V4.45283ZM34.181 4.45283H36.4411V7.46631H34.9343V8.97305H33.4276V10.4798H34.9343V11.9865H36.4411V15H34.181V11.9865H32.6742V10.4798H31.9208V11.9865H30.4141V15H28.154V11.9865H29.6607V10.4798H31.1675V8.97305H29.6607V7.46631H28.154V4.45283H30.4141V7.46631H31.9208V8.97305H32.6742V7.46631H34.181V4.45283ZM46.2407 4.45283V5.95957H43.2273V15H40.9672V5.95957H37.9537V4.45283H46.2407ZM12.3391 19.4528V20.9596H9.32566V30H7.06556V20.9596H4.05208V19.4528H12.3391ZM13.8518 30V28.4933H15.3585V20.9596H13.8518V19.4528H19.1253V20.9596H17.6186V28.4933H19.1253V30H13.8518ZM29.6755 19.4528H31.9356V30H29.6755V22.4663H28.9221V23.973H27.4153V25.4798H25.1552V23.973H23.6485V22.4663H22.8951V30H20.635V19.4528H22.8951V20.9596H24.4019V22.4663H25.9086V23.973H26.662V22.4663H28.1687V20.9596H29.6755V19.4528ZM33.4364 19.4528H41.7235V20.9596H35.6965V23.973H40.2167V25.4798H35.6965V28.4933H41.7235V30H33.4364V19.4528ZM43.9895 19.4528H46.2496V26.9865H43.9895V19.4528ZM43.9895 30V28.4933H46.2496V30H43.9895Z" fill="#FFC729"/>
<path d="M14.5875 4.45283V2.76476H12.8994V4.45283H14.5875ZM16.8476 4.45283H18.5357V2.76476H16.8476V4.45283ZM16.8476 15V16.6881H18.5357V15H16.8476ZM14.5875 15H12.8994V16.6881H14.5875V15ZM14.5875 11.9865H16.2755V10.2985H14.5875V11.9865ZM13.0807 11.9865H11.3927V13.6746H13.0807V11.9865ZM13.0807 10.4798H14.7688V8.79171H13.0807V10.4798ZM11.574 10.4798H9.88593V12.1679H11.574V10.4798ZM11.574 8.97305H13.2621V7.28497H11.574V8.97305ZM10.0673 8.97305H8.37919V10.6611H10.0673V8.97305ZM10.0673 7.46631H11.7553V5.77824H10.0673V7.46631ZM9.31389 7.46631V5.77824H7.62582V7.46631H9.31389ZM9.31389 15V16.6881H11.002V15H9.31389ZM7.05378 15H5.36571V16.6881H7.05378V15ZM7.05378 4.45283V2.76476H5.36571V4.45283H7.05378ZM9.31389 4.45283H11.002V2.76476H9.31389V4.45283ZM9.31389 5.95957H7.62582V7.64764H9.31389V5.95957ZM10.8206 5.95957H12.5087V4.2715H10.8206V5.95957ZM10.8206 7.46631H9.13256V9.15438H10.8206V7.46631ZM12.3274 7.46631H14.0154V5.77824H12.3274V7.46631ZM12.3274 8.97305H10.6393V10.6611H12.3274V8.97305ZM13.8341 8.97305H15.5222V7.28497H13.8341V8.97305ZM13.8341 10.4798H12.146V12.1679H13.8341V10.4798ZM14.5875 10.4798V12.1679H16.2755V10.4798H14.5875ZM14.5875 6.14091H16.8476V2.76476H14.5875V6.14091ZM15.1595 4.45283V15H18.5357V4.45283H15.1595ZM16.8476 13.3119H14.5875V16.6881H16.8476V13.3119ZM16.2755 15V11.9865H12.8994V15H16.2755ZM14.5875 10.2985H13.0807V13.6746H14.5875V10.2985ZM14.7688 11.9865V10.4798H11.3927V11.9865H14.7688ZM13.0807 8.79171H11.574V12.1679H13.0807V8.79171ZM13.2621 10.4798V8.97305H9.88593V10.4798H13.2621ZM11.574 7.28497H10.0673V10.6611H11.574V7.28497ZM11.7553 8.97305V7.46631H8.37919V8.97305H11.7553ZM10.0673 5.77824H9.31389V9.15438H10.0673V5.77824ZM7.62582 7.46631V15H11.002V7.46631H7.62582ZM9.31389 13.3119H7.05378V16.6881H9.31389V13.3119ZM8.74186 15V4.45283H5.36571V15H8.74186ZM7.05378 6.14091H9.31389V2.76476H7.05378V6.14091ZM7.62582 4.45283V5.95957H11.002V4.45283H7.62582ZM9.31389 7.64764H10.8206V4.2715H9.31389V7.64764ZM9.13256 5.95957V7.46631H12.5087V5.95957H9.13256ZM10.8206 9.15438H12.3274V5.77824H10.8206V9.15438ZM10.6393 7.46631V8.97305H14.0154V7.46631H10.6393ZM12.3274 10.6611H13.8341V7.28497H12.3274V10.6611ZM12.146 8.97305V10.4798H15.5222V8.97305H12.146ZM13.8341 12.1679H14.5875V8.79171H13.8341V12.1679ZM16.2755 10.4798V4.45283H12.8994V10.4798H16.2755ZM18.3543 4.45283V2.76476H16.6662V4.45283H18.3543ZM26.6414 4.45283H28.3295V2.76476H26.6414V4.45283ZM26.6414 5.95957V7.64764H28.3295V5.95957H26.6414ZM20.6144 5.95957V4.2715H18.9264V5.95957H20.6144ZM20.6144 8.97305H18.9264V10.6611H20.6144V8.97305ZM25.1346 8.97305H26.8227V7.28497H25.1346V8.97305ZM25.1346 10.4798V12.1679H26.8227V10.4798H25.1346ZM20.6144 10.4798V8.79171H18.9264V10.4798H20.6144ZM20.6144 13.4933H18.9264V15.1813H20.6144V13.4933ZM26.6414 13.4933H28.3295V11.8052H26.6414V13.4933ZM26.6414 15V16.6881H28.3295V15H26.6414ZM18.3543 15H16.6662V16.6881H18.3543V15ZM18.3543 6.14091H26.6414V2.76476H18.3543V6.14091ZM24.9533 4.45283V5.95957H28.3295V4.45283H24.9533ZM26.6414 4.2715H20.6144V7.64764H26.6414V4.2715ZM18.9264 5.95957V8.97305H22.3025V5.95957H18.9264ZM20.6144 10.6611H25.1346V7.28497H20.6144V10.6611ZM23.4466 8.97305V10.4798H26.8227V8.97305H23.4466ZM25.1346 8.79171H20.6144V12.1679H25.1346V8.79171ZM18.9264 10.4798V13.4933H22.3025V10.4798H18.9264ZM20.6144 15.1813H26.6414V11.8052H20.6144V15.1813ZM24.9533 13.4933V15H28.3295V13.4933H24.9533ZM26.6414 13.3119H18.3543V16.6881H26.6414V13.3119ZM20.0424 15V4.45283H16.6662V15H20.0424ZM34.181 4.45283V2.76476H32.4929V4.45283H34.181ZM36.4411 4.45283H38.1291V2.76476H36.4411V4.45283ZM36.4411 7.46631V9.15438H38.1291V7.46631H36.4411ZM34.9343 7.46631V5.77824H33.2463V7.46631H34.9343ZM34.9343 8.97305V10.6611H36.6224V8.97305H34.9343ZM33.4276 8.97305V7.28497H31.7395V8.97305H33.4276ZM33.4276 10.4798H31.7395V12.1679H33.4276V10.4798ZM34.9343 10.4798H36.6224V8.79171H34.9343V10.4798ZM34.9343 11.9865H33.2463V13.6746H34.9343V11.9865ZM36.4411 11.9865H38.1291V10.2985H36.4411V11.9865ZM36.4411 15V16.6881H38.1291V15H36.4411ZM34.181 15H32.4929V16.6881H34.181V15ZM34.181 11.9865H35.869V10.2985H34.181V11.9865ZM32.6742 11.9865H30.9861V13.6746H32.6742V11.9865ZM32.6742 10.4798H34.3623V8.79171H32.6742V10.4798ZM31.9208 10.4798V8.79171H30.2328V10.4798H31.9208ZM31.9208 11.9865V13.6746H33.6089V11.9865H31.9208ZM30.4141 11.9865V10.2985H28.726V11.9865H30.4141ZM30.4141 15V16.6881H32.1022V15H30.4141ZM28.154 15H26.4659V16.6881H28.154V15ZM28.154 11.9865V10.2985H26.4659V11.9865H28.154ZM29.6607 11.9865V13.6746H31.3488V11.9865H29.6607ZM29.6607 10.4798V8.79171H27.9727V10.4798H29.6607ZM31.1675 10.4798V12.1679H32.8556V10.4798H31.1675ZM31.1675 8.97305H32.8556V7.28497H31.1675V8.97305ZM29.6607 8.97305H27.9727V10.6611H29.6607V8.97305ZM29.6607 7.46631H31.3488V5.77824H29.6607V7.46631ZM28.154 7.46631H26.4659V9.15438H28.154V7.46631ZM28.154 4.45283V2.76476H26.4659V4.45283H28.154ZM30.4141 4.45283H32.1022V2.76476H30.4141V4.45283ZM30.4141 7.46631H28.726V9.15438H30.4141V7.46631ZM31.9208 7.46631H33.6089V5.77824H31.9208V7.46631ZM31.9208 8.97305H30.2328V10.6611H31.9208V8.97305ZM32.6742 8.97305V10.6611H34.3623V8.97305H32.6742ZM32.6742 7.46631V5.77824H30.9861V7.46631H32.6742ZM34.181 7.46631V9.15438H35.869V7.46631H34.181ZM34.181 6.14091H36.4411V2.76476H34.181V6.14091ZM34.753 4.45283V7.46631H38.1291V4.45283H34.753ZM36.4411 5.77824H34.9343V9.15438H36.4411V5.77824ZM33.2463 7.46631V8.97305H36.6224V7.46631H33.2463ZM34.9343 7.28497H33.4276V10.6611H34.9343V7.28497ZM31.7395 8.97305V10.4798H35.1157V8.97305H31.7395ZM33.4276 12.1679H34.9343V8.79171H33.4276V12.1679ZM33.2463 10.4798V11.9865H36.6224V10.4798H33.2463ZM34.9343 13.6746H36.4411V10.2985H34.9343V13.6746ZM34.753 11.9865V15H38.1291V11.9865H34.753ZM36.4411 13.3119H34.181V16.6881H36.4411V13.3119ZM35.869 15V11.9865H32.4929V15H35.869ZM34.181 10.2985H32.6742V13.6746H34.181V10.2985ZM34.3623 11.9865V10.4798H30.9861V11.9865H34.3623ZM32.6742 8.79171H31.9208V12.1679H32.6742V8.79171ZM30.2328 10.4798V11.9865H33.6089V10.4798H30.2328ZM31.9208 10.2985H30.4141V13.6746H31.9208V10.2985ZM28.726 11.9865V15H32.1022V11.9865H28.726ZM30.4141 13.3119H28.154V16.6881H30.4141V13.3119ZM29.8421 15V11.9865H26.4659V15H29.8421ZM28.154 13.6746H29.6607V10.2985H28.154V13.6746ZM31.3488 11.9865V10.4798H27.9727V11.9865H31.3488ZM29.6607 12.1679H31.1675V8.79171H29.6607V12.1679ZM32.8556 10.4798V8.97305H29.4794V10.4798H32.8556ZM31.1675 7.28497H29.6607V10.6611H31.1675V7.28497ZM31.3488 8.97305V7.46631H27.9727V8.97305H31.3488ZM29.6607 5.77824H28.154V9.15438H29.6607V5.77824ZM29.8421 7.46631V4.45283H26.4659V7.46631H29.8421ZM28.154 6.14091H30.4141V2.76476H28.154V6.14091ZM28.726 4.45283V7.46631H32.1022V4.45283H28.726ZM30.4141 9.15438H31.9208V5.77824H30.4141V9.15438ZM30.2328 7.46631V8.97305H33.6089V7.46631H30.2328ZM31.9208 10.6611H32.6742V7.28497H31.9208V10.6611ZM34.3623 8.97305V7.46631H30.9861V8.97305H34.3623ZM32.6742 9.15438H34.181V5.77824H32.6742V9.15438ZM35.869 7.46631V4.45283H32.4929V7.46631H35.869ZM46.2407 4.45283H47.9288V2.76476H46.2407V4.45283ZM46.2407 5.95957V7.64764H47.9288V5.95957H46.2407ZM43.2273 5.95957V4.2715H41.5392V5.95957H43.2273ZM43.2273 15V16.6881H44.9153V15H43.2273ZM40.9672 15H39.2791V16.6881H40.9672V15ZM40.9672 5.95957H42.6552V4.2715H40.9672V5.95957ZM37.9537 5.95957H36.2656V7.64764H37.9537V5.95957ZM37.9537 4.45283V2.76476H36.2656V4.45283H37.9537ZM44.5527 4.45283V5.95957H47.9288V4.45283H44.5527ZM46.2407 4.2715H43.2273V7.64764H46.2407V4.2715ZM41.5392 5.95957V15H44.9153V5.95957H41.5392ZM43.2273 13.3119H40.9672V16.6881H43.2273V13.3119ZM42.6552 15V5.95957H39.2791V15H42.6552ZM40.9672 4.2715H37.9537V7.64764H40.9672V4.2715ZM39.6418 5.95957V4.45283H36.2656V5.95957H39.6418ZM37.9537 6.14091H46.2407V2.76476H37.9537V6.14091ZM12.3391 19.4528H14.0272V17.7648H12.3391V19.4528ZM12.3391 20.9596V22.6476H14.0272V20.9596H12.3391ZM9.32566 20.9596V19.2715H7.63759V20.9596H9.32566ZM9.32566 30V31.6881H11.0137V30H9.32566ZM7.06556 30H5.37748V31.6881H7.06556V30ZM7.06556 20.9596H8.75363V19.2715H7.06556V20.9596ZM4.05208 20.9596H2.36401V22.6476H4.05208V20.9596ZM4.05208 19.4528V17.7648H2.36401V19.4528H4.05208ZM10.6511 19.4528V20.9596H14.0272V19.4528H10.6511ZM12.3391 19.2715H9.32566V22.6476H12.3391V19.2715ZM7.63759 20.9596V30H11.0137V20.9596H7.63759ZM9.32566 28.3119H7.06556V31.6881H9.32566V28.3119ZM8.75363 30V20.9596H5.37748V30H8.75363ZM7.06556 19.2715H4.05208V22.6476H7.06556V19.2715ZM5.74015 20.9596V19.4528H2.36401V20.9596H5.74015ZM4.05208 21.1409H12.3391V17.7648H4.05208V21.1409ZM13.8518 30H12.1637V31.6881H13.8518V30ZM13.8518 28.4933V26.8052H12.1637V28.4933H13.8518ZM15.3585 28.4933V30.1813H17.0466V28.4933H15.3585ZM15.3585 20.9596H17.0466V19.2715H15.3585V20.9596ZM13.8518 20.9596H12.1637V22.6476H13.8518V20.9596ZM13.8518 19.4528V17.7648H12.1637V19.4528H13.8518ZM19.1253 19.4528H20.8134V17.7648H19.1253V19.4528ZM19.1253 20.9596V22.6476H20.8134V20.9596H19.1253ZM17.6186 20.9596V19.2715H15.9305V20.9596H17.6186ZM17.6186 28.4933H15.9305V30.1813H17.6186V28.4933ZM19.1253 28.4933H20.8134V26.8052H19.1253V28.4933ZM19.1253 30V31.6881H20.8134V30H19.1253ZM15.5398 30V28.4933H12.1637V30H15.5398ZM13.8518 30.1813H15.3585V26.8052H13.8518V30.1813ZM17.0466 28.4933V20.9596H13.6704V28.4933H17.0466ZM15.3585 19.2715H13.8518V22.6476H15.3585V19.2715ZM15.5398 20.9596V19.4528H12.1637V20.9596H15.5398ZM13.8518 21.1409H19.1253V17.7648H13.8518V21.1409ZM17.4373 19.4528V20.9596H20.8134V19.4528H17.4373ZM19.1253 19.2715H17.6186V22.6476H19.1253V19.2715ZM15.9305 20.9596V28.4933H19.3067V20.9596H15.9305ZM17.6186 30.1813H19.1253V26.8052H17.6186V30.1813ZM17.4373 28.4933V30H20.8134V28.4933H17.4373ZM19.1253 28.3119H13.8518V31.6881H19.1253V28.3119ZM29.6755 19.4528V17.7648H27.9874V19.4528H29.6755ZM31.9356 19.4528H33.6236V17.7648H31.9356V19.4528ZM31.9356 30V31.6881H33.6236V30H31.9356ZM29.6755 30H27.9874V31.6881H29.6755V30ZM29.6755 22.4663H31.3635V20.7782H29.6755V22.4663ZM28.9221 22.4663V20.7782H27.234V22.4663H28.9221ZM28.9221 23.973V25.6611H30.6102V23.973H28.9221ZM27.4153 23.973V22.285H25.7273V23.973H27.4153ZM27.4153 25.4798V27.1679H29.1034V25.4798H27.4153ZM25.1552 25.4798H23.4672V27.1679H25.1552V25.4798ZM25.1552 23.973H26.8433V22.285H25.1552V23.973ZM23.6485 23.973H21.9604V25.6611H23.6485V23.973ZM23.6485 22.4663H25.3366V20.7782H23.6485V22.4663ZM22.8951 22.4663V20.7782H21.2071V22.4663H22.8951ZM22.8951 30V31.6881H24.5832V30H22.8951ZM20.635 30H18.947V31.6881H20.635V30ZM20.635 19.4528V17.7648H18.947V19.4528H20.635ZM22.8951 19.4528H24.5832V17.7648H22.8951V19.4528ZM22.8951 20.9596H21.2071V22.6476H22.8951V20.9596ZM24.4019 20.9596H26.0899V19.2715H24.4019V20.9596ZM24.4019 22.4663H22.7138V24.1544H24.4019V22.4663ZM25.9086 22.4663H27.5967V20.7782H25.9086V22.4663ZM25.9086 23.973H24.2205V25.6611H25.9086V23.973ZM26.662 23.973V25.6611H28.3501V23.973H26.662ZM26.662 22.4663V20.7782H24.9739V22.4663H26.662ZM28.1687 22.4663V24.1544H29.8568V22.4663H28.1687ZM28.1687 20.9596V19.2715H26.4806V20.9596H28.1687ZM29.6755 20.9596V22.6476H31.3635V20.9596H29.6755ZM29.6755 21.1409H31.9356V17.7648H29.6755V21.1409ZM30.2475 19.4528V30H33.6236V19.4528H30.2475ZM31.9356 28.3119H29.6755V31.6881H31.9356V28.3119ZM31.3635 30V22.4663H27.9874V30H31.3635ZM29.6755 20.7782H28.9221V24.1544H29.6755V20.7782ZM27.234 22.4663V23.973H30.6102V22.4663H27.234ZM28.9221 22.285H27.4153V25.6611H28.9221V22.285ZM25.7273 23.973V25.4798H29.1034V23.973H25.7273ZM27.4153 23.7917H25.1552V27.1679H27.4153V23.7917ZM26.8433 25.4798V23.973H23.4672V25.4798H26.8433ZM25.1552 22.285H23.6485V25.6611H25.1552V22.285ZM25.3366 23.973V22.4663H21.9604V23.973H25.3366ZM23.6485 20.7782H22.8951V24.1544H23.6485V20.7782ZM21.2071 22.4663V30H24.5832V22.4663H21.2071ZM22.8951 28.3119H20.635V31.6881H22.8951V28.3119ZM22.3231 30V19.4528H18.947V30H22.3231ZM20.635 21.1409H22.8951V17.7648H20.635V21.1409ZM21.2071 19.4528V20.9596H24.5832V19.4528H21.2071ZM22.8951 22.6476H24.4019V19.2715H22.8951V22.6476ZM22.7138 20.9596V22.4663H26.0899V20.9596H22.7138ZM24.4019 24.1544H25.9086V20.7782H24.4019V24.1544ZM24.2205 22.4663V23.973H27.5967V22.4663H24.2205ZM25.9086 25.6611H26.662V22.285H25.9086V25.6611ZM28.3501 23.973V22.4663H24.9739V23.973H28.3501ZM26.662 24.1544H28.1687V20.7782H26.662V24.1544ZM29.8568 22.4663V20.9596H26.4806V22.4663H29.8568ZM28.1687 22.6476H29.6755V19.2715H28.1687V22.6476ZM31.3635 20.9596V19.4528H27.9874V20.9596H31.3635ZM33.4364 19.4528V17.7648H31.7483V19.4528H33.4364ZM41.7235 19.4528H43.4115V17.7648H41.7235V19.4528ZM41.7235 20.9596V22.6476H43.4115V20.9596H41.7235ZM35.6965 20.9596V19.2715H34.0084V20.9596H35.6965ZM35.6965 23.973H34.0084V25.6611H35.6965V23.973ZM40.2167 23.973H41.9048V22.285H40.2167V23.973ZM40.2167 25.4798V27.1679H41.9048V25.4798H40.2167ZM35.6965 25.4798V23.7917H34.0084V25.4798H35.6965ZM35.6965 28.4933H34.0084V30.1813H35.6965V28.4933ZM41.7235 28.4933H43.4115V26.8052H41.7235V28.4933ZM41.7235 30V31.6881H43.4115V30H41.7235ZM33.4364 30H31.7483V31.6881H33.4364V30ZM33.4364 21.1409H41.7235V17.7648H33.4364V21.1409ZM40.0354 19.4528V20.9596H43.4115V19.4528H40.0354ZM41.7235 19.2715H35.6965V22.6476H41.7235V19.2715ZM34.0084 20.9596V23.973H37.3846V20.9596H34.0084ZM35.6965 25.6611H40.2167V22.285H35.6965V25.6611ZM38.5287 23.973V25.4798H41.9048V23.973H38.5287ZM40.2167 23.7917H35.6965V27.1679H40.2167V23.7917ZM34.0084 25.4798V28.4933H37.3846V25.4798H34.0084ZM35.6965 30.1813H41.7235V26.8052H35.6965V30.1813ZM40.0354 28.4933V30H43.4115V28.4933H40.0354ZM41.7235 28.3119H33.4364V31.6881H41.7235V28.3119ZM35.1245 30V19.4528H31.7483V30H35.1245ZM43.9895 19.4528V17.7648H42.3014V19.4528H43.9895ZM46.2496 19.4528H47.9376V17.7648H46.2496V19.4528ZM46.2496 26.9865V28.6746H47.9376V26.9865H46.2496ZM43.9895 26.9865H42.3014V28.6746H43.9895V26.9865ZM43.9895 30H42.3014V31.6881H43.9895V30ZM43.9895 28.4933V26.8052H42.3014V28.4933H43.9895ZM46.2496 28.4933H47.9376V26.8052H46.2496V28.4933ZM46.2496 30V31.6881H47.9376V30H46.2496ZM43.9895 21.1409H46.2496V17.7648H43.9895V21.1409ZM44.5615 19.4528V26.9865H47.9376V19.4528H44.5615ZM46.2496 25.2985H43.9895V28.6746H46.2496V25.2985ZM45.6775 26.9865V19.4528H42.3014V26.9865H45.6775ZM45.6775 30V28.4933H42.3014V30H45.6775ZM43.9895 30.1813H46.2496V26.8052H43.9895V30.1813ZM44.5615 28.4933V30H47.9376V28.4933H44.5615ZM46.2496 28.3119H43.9895V31.6881H46.2496V28.3119Z" fill="black" mask="url(#path-2-outside-2_981_276604)"/>
</svg>
