<svg width="24" height="24" viewBox="0 0 24 24" fill="none" xmlns="http://www.w3.org/2000/svg">
<path fill-rule="evenodd" clip-rule="evenodd" d="M6 11.8571C6 8.6223 8.6223 6 11.8571 6C12.1059 6 12.3506 6.01546 12.5905 6.04537L12.8379 4.06074C12.5162 4.02062 12.1888 4 11.8571 4C7.51773 4 4 7.51773 4 11.8571C4 16.1964 7.51773 19.7141 11.8571 19.7141C16.1964 19.7141 19.7141 16.1964 19.7141 11.8571H17.7141C17.7141 15.0918 15.0918 17.7141 11.8571 17.7141C8.6223 17.7141 6 15.0918 6 11.8571ZM19.3253 9.41003L17.3896 9.92871C17.2678 9.57939 17.1139 9.24527 16.9313 8.92977C16.4169 8.04054 15.675 7.29859 14.7858 6.78408L15.7875 5.053C16.9795 5.74272 17.9729 6.73622 18.6625 7.92824C18.932 8.39411 19.1551 8.89022 19.3253 9.41003Z" fill="black"/>
</svg>
