<svg width="120" height="19" fill="none" xmlns="http://www.w3.org/2000/svg"><path fill-rule="evenodd" clip-rule="evenodd" d="M63.946 11.864a4.899 4.899 0 0 1-.518 2.784 5.178 5.178 0 0 1-1.578 1.804c-.639.467-1.406.828-2.283 1.075-.834.235-1.765.356-2.77.356h-7.544V0h7.15c.909 0 1.758.108 2.515.323a6.627 6.627 0 0 1 2.099.996 4.845 4.845 0 0 1 1.447 1.665c.334.64.503 1.345.503 2.093 0 2.639-2.646 3.308-2.646 3.308s3.3.425 3.625 3.479Zm-3.625.5c0-.323-.064-.605-.198-.859a1.838 1.838 0 0 0-.566-.644c-.283-.206-.649-.374-1.084-.497a6.323 6.323 0 0 0-1.68-.203H52.91v4.414h3.89c.636 0 1.202-.07 1.68-.206.438-.124.804-.292 1.087-.498.248-.18.432-.387.56-.634.133-.257.197-.543.194-.872Zm-7.41-9.05v3.53h3.495c.54 0 1.02-.058 1.424-.175.363-.105.665-.24.897-.409.194-.143.337-.304.439-.495.102-.2.153-.425.153-.688 0-.257-.051-.479-.153-.678a1.481 1.481 0 0 0-.445-.505c-.23-.168-.531-.304-.89-.409a5.289 5.289 0 0 0-1.422-.171H52.91Zm66.92 11.204a6.18 6.18 0 0 1-1.835-.501 8.353 8.353 0 0 0 1.628-4.94c0-4.869-4.242-8.814-9.474-8.814s-9.474 3.945-9.474 8.813 4.242 8.813 9.474 8.813a9.938 9.938 0 0 0 5.206-1.452 9.887 9.887 0 0 0 4.475 1.42v-3.339Zm-15.577-5.445c0-3.029 2.639-5.486 5.896-5.486s5.896 2.457 5.896 5.486c0 .932-.251 1.81-.693 2.581a5.166 5.166 0 0 1-.674-1.963h-3.584c.117 1.595.699 3.073 1.609 4.323a6.201 6.201 0 0 1-2.557.548c-3.254-.003-5.893-2.457-5.893-5.489ZM80.751 17.73V4.963h-3.48v1.75a6.285 6.285 0 0 0-1.777-1.325 6.757 6.757 0 0 0-2.72-.663 7.382 7.382 0 0 0-2.81.466 6.886 6.886 0 0 0-2.345 1.475c-1.307 1.259-2.032 2.975-2.016 4.674-.016 1.7.706 3.419 2.013 4.678a6.87 6.87 0 0 0 2.344 1.48c.89.337 1.864.492 2.815.467a6.71 6.71 0 0 0 2.722-.663 6.32 6.32 0 0 0 1.775-1.322v1.75h3.479Zm-3.902-7.953c.276.476.42 1.018.423 1.567a3.077 3.077 0 0 1-.433 1.56 3.602 3.602 0 0 1-1.129 1.176 4.408 4.408 0 0 1-1.46.612 5.271 5.271 0 0 1-1.485.12 4.234 4.234 0 0 1-2.576-1.052 3.437 3.437 0 0 1-.83-1.097 3.322 3.322 0 0 1-.302-1.323c.01-.46.111-.907.302-1.322a3.53 3.53 0 0 1 .83-1.097 4.237 4.237 0 0 1 2.58-1.056 5.28 5.28 0 0 1 1.488.12 4.453 4.453 0 0 1 1.463.612 3.58 3.58 0 0 1 1.129 1.18ZM93.77 13.9c.035 1.02-.394 1.978-1.202 2.705-.999.894-2.512 1.395-4.185 1.395-.112 0-.226-.003-.337-.006-2.748-.108-4.974-1.56-5.674-3.701l3.27-.879c.155.673.912 1.526 2.267 1.694 1.355.165 2.493-.254 2.554-.872.06-.597-.258-.942-1.877-1.462l-.152-.048-.023-.008-.022-.008a22 22 0 0 1-.124-.038c-.097-.03-.197-.06-.299-.088a20.32 20.32 0 0 1-.72-.22l-.17-.053-.01-.004c-1.189-.37-4.309-1.342-4.064-4.062.219-2.445 2.763-3.555 5.034-3.555 2.484 0 4.332.987 5.21 2.778L90.13 8.721c-.239-.685-.881-1.262-2.24-1.262-1.214 0-2.823.796-.629 1.608h.003c.236.095.538.2.92.317.119.035.23.071.324.102l.019.006c.14.044.305.095.486.145 1.514.441 4.666 1.36 4.758 4.263Zm1.626-8.96v12.946h3.654V4.94h-3.654Z" fill="#fff"/><path d="M24.639 15.288H.169V.225h8.24l3.246 2.987h-8.49V6.2h11.736l3.246 2.988H3.165v2.988h18.228l3.246 3.112Z" fill="#B0FF4A"/><path d="M36.874 7.694a4.47 4.47 0 0 0-4.495-4.482H11.655L14.9 6.2h17.478c.874 0 1.498.623 1.498 1.494s-.624 1.494-1.498 1.494H18.147l3.246 3.112h10.986c.874 0 1.498.623 1.498 1.494s-.624 1.494-1.498 1.494h-7.74l3.246 2.988h4.37a4.47 4.47 0 0 0 4.494-4.482c0-1.12-.375-2.24-1.124-2.988.75-.871 1.249-1.992 1.249-3.112Z" fill="#fff"/></svg>