<svg width="120" height="20" viewBox="0 0 120 20" fill="none" xmlns="http://www.w3.org/2000/svg">
<mask id="path-1-inside-1_185_10351" fill="white">
<path fill-rule="evenodd" clip-rule="evenodd" d="M53.8617 3.35034L56.2755 5.76409H56.2757V12.6262C56.2757 14.8353 54.4848 16.6262 52.2757 16.6262H43.3792C41.17 16.6262 39.3792 14.8353 39.3792 12.6262V7.35034C39.3792 5.1412 41.17 3.35034 43.3792 3.35034H53.8617Z"/>
</mask>
<path d="M56.2755 5.76409L54.1542 7.88541L55.0328 8.76409H56.2755V5.76409ZM53.8617 3.35034L55.983 1.22902L55.1044 0.350342H53.8617V3.35034ZM56.2757 5.76409H59.2757V2.76409H56.2757V5.76409ZM58.3968 3.64277L55.983 1.22902L51.7404 5.47166L54.1542 7.88541L58.3968 3.64277ZM56.2757 2.76409H56.2755V8.76409H56.2757V2.76409ZM53.2757 5.76409V12.6262H59.2757V5.76409H53.2757ZM53.2757 12.6262C53.2757 13.1785 52.828 13.6262 52.2757 13.6262V19.6262C56.1417 19.6262 59.2757 16.4922 59.2757 12.6262H53.2757ZM52.2757 13.6262H43.3792V19.6262H52.2757V13.6262ZM43.3792 13.6262C42.8269 13.6262 42.3792 13.1785 42.3792 12.6262H36.3792C36.3792 16.4922 39.5132 19.6262 43.3792 19.6262V13.6262ZM42.3792 12.6262V7.35034H36.3792V12.6262H42.3792ZM42.3792 7.35034C42.3792 6.79806 42.8269 6.35034 43.3792 6.35034V0.350342C39.5132 0.350342 36.3792 3.48434 36.3792 7.35034H42.3792ZM43.3792 6.35034H53.8617V0.350342H43.3792V6.35034Z" fill="white" mask="url(#path-1-inside-1_185_10351)"/>
<path fill-rule="evenodd" clip-rule="evenodd" d="M58.6293 3.35034H58.0862V16.2038H71.181C72.0828 16.1425 72.9276 15.7405 73.5439 15.0794C74.1603 14.4182 74.5021 13.5473 74.5 12.6434V12.4021C74.5002 11.7814 74.3391 11.1713 74.0322 10.6317C73.7254 10.0921 73.2835 9.64163 72.75 9.32448C73.1265 9.11283 73.4413 8.80675 73.6635 8.4364C73.8857 8.06605 74.0076 7.6442 74.0172 7.21241V6.42793C74.014 5.61268 73.6888 4.83173 73.1123 4.25526C72.5358 3.67879 71.7549 3.35352 70.9396 3.35034H58.6293ZM70.4569 13.1262H61.1638V11.0745H70.4569C70.5821 11.083 70.7 11.1365 70.7888 11.2253C70.8776 11.3141 70.9312 11.432 70.9396 11.5572V12.6434C70.9312 12.7687 70.8776 12.8866 70.7888 12.9754C70.7 13.0641 70.5821 13.1177 70.4569 13.1262ZM70.4569 8.47965H61.1638V6.42793H70.4569C70.5821 6.4364 70.7 6.48998 70.7888 6.57875C70.8776 6.66751 70.9312 6.78544 70.9396 6.91069V7.99689C70.9312 8.12214 70.8776 8.24007 70.7888 8.32883C70.7 8.4176 70.5821 8.47118 70.4569 8.47965Z" fill="white"/>
<path fill-rule="evenodd" clip-rule="evenodd" d="M76.1895 3.35034H89.0429C89.8113 3.39653 90.5331 3.73469 91.0603 4.29561C91.5876 4.85652 91.8805 5.59776 91.8791 6.36758V9.38482C91.8793 10.0554 91.6529 10.7064 91.2366 11.2322C90.8204 11.7579 90.2387 12.1277 89.586 12.2814L92.1808 16.3245H88.5601L86.0257 12.4021H79.2067V16.3245H76.1895V3.35034ZM88.8619 6.91069V8.90207C88.8534 9.02731 88.7998 9.14524 88.711 9.23401C88.6223 9.32277 88.5044 9.37635 88.3791 9.38482H79.2067V6.42793H88.3791C88.5044 6.4364 88.6223 6.48998 88.711 6.57875C88.7998 6.66751 88.8534 6.78544 88.8619 6.91069Z" fill="white"/>
<path d="M97.3102 3.35034H94.293V16.0228H97.3102V3.35034Z" fill="white"/>
<path d="M113 6.42793V5.76413C113 5.12396 112.745 4.51 112.293 4.05733C111.84 3.60465 111.226 3.35034 110.586 3.35034H101.957C101.184 3.41394 100.463 3.76569 99.938 4.33578C99.4126 4.90588 99.1208 5.65266 99.1204 6.42793V13.1262C99.1208 13.9015 99.4126 14.6483 99.938 15.2183C100.463 15.7884 101.184 16.1402 101.957 16.2038H110.586C111.226 16.2038 111.84 15.9495 112.293 15.4968C112.745 15.0441 113 14.4302 113 13.79V13.1262H102.681C102.555 13.1177 102.438 13.0641 102.349 12.9754C102.26 12.8866 102.206 12.7687 102.198 12.6434V6.91069C102.206 6.78544 102.26 6.66751 102.349 6.57875C102.438 6.48998 102.555 6.4364 102.681 6.42793H113Z" fill="white"/>
<path fill-rule="evenodd" clip-rule="evenodd" d="M14.2051 12.8809C14.9924 13.6523 16.0815 14.1034 17.238 14.1034H22.9C24.0564 14.1034 25.1455 13.6523 25.9328 12.8809C26.7167 12.1129 27.1379 11.0931 27.1379 10.0517C27.1379 9.01038 26.7167 7.99059 25.9328 7.22254C25.1455 6.4511 24.0564 6 22.9 6H17.238C16.0815 6 14.9924 6.4511 14.2051 7.22254C13.4212 7.99059 13 9.01038 13 10.0517C13 11.0931 13.4212 12.1129 14.2051 12.8809ZM17.238 19.1034C17.1752 19.1034 17.1125 19.1028 17.0498 19.1016L17.0517 19.1034H8V10.0517C8 7.65106 8.97328 5.34871 10.7057 3.65119C12.4382 1.95366 14.7879 1 17.238 1H22.9C22.9627 1 23.0253 1.00063 23.0879 1.00187L23.0861 1H32.1378V10.0006C32.1379 10.0177 32.1379 10.0347 32.1379 10.0517C32.1379 12.4524 31.1646 14.7547 29.4322 16.4523C27.6997 18.1498 25.35 19.1034 22.9 19.1034H17.238Z" fill="url(#paint0_linear_185_10351)"/>
<defs>
<linearGradient id="paint0_linear_185_10351" x1="11.5" y1="3.5" x2="29" y2="17" gradientUnits="userSpaceOnUse">
<stop stop-color="#FF6827"/>
<stop offset="1" stop-color="#FF9900"/>
</linearGradient>
</defs>
</svg>
