<svg width="32" height="32" viewBox="0 0 32 32" fill="none" xmlns="http://www.w3.org/2000/svg">
<path fill-rule="evenodd" clip-rule="evenodd" d="M7.71153 19.7729C8.82624 20.8651 10.3637 21.5 11.9918 21.5H19.3416C20.9697 21.5 22.5071 20.8651 23.6218 19.7729C24.7324 18.6847 25.3333 17.2351 25.3333 15.75C25.3333 14.2649 24.7324 12.8153 23.6218 11.7271L25.4472 9.86419L23.6218 11.7271C22.5071 10.6349 20.9697 10 19.3416 10H11.9918C10.3637 10 8.82625 10.6349 7.71153 11.7271C6.60095 12.8153 6 14.2649 6 15.75C6 17.2351 6.60095 18.6847 7.71153 19.7729ZM19.5854 4.00243C19.5042 4.00081 19.4229 4 19.3416 4H11.9918C8.81135 4 5.7612 5.23794 3.51231 7.44149C1.26342 9.64505 0 12.6337 0 15.75V27.5H11.75L11.7476 27.4976C11.8289 27.4992 11.9103 27.5 11.9918 27.5H19.3416C22.522 27.5 25.5721 26.2621 27.821 24.0585C30.0699 21.855 31.3333 18.8663 31.3333 15.75C31.3333 15.7202 31.3332 15.6903 31.333 15.6605L31.333 4H19.583L19.5854 4.00243Z" fill="url(#paint0_linear_40_88750)"/>
<defs>
<linearGradient id="paint0_linear_40_88750" x1="1" y1="27" x2="31" y2="5" gradientUnits="userSpaceOnUse">
<stop stop-color="#FFED48"/>
<stop offset="1" stop-color="#00FFF0"/>
</linearGradient>
</defs>
</svg>
