<svg width="120" height="20" viewBox="0 0 120 20" fill="none" xmlns="http://www.w3.org/2000/svg">
<mask id="path-1-inside-1_40_28249" fill="white">
<path fill-rule="evenodd" clip-rule="evenodd" d="M53.862 3.35034L56.2757 5.76409H56.2759V12.6262C56.2759 14.8353 54.4851 16.6262 52.2759 16.6262H43.3794C41.1703 16.6262 39.3794 14.8353 39.3794 12.6262V7.35034C39.3794 5.1412 41.1703 3.35034 43.3794 3.35034H53.862Z"/>
</mask>
<path d="M56.2757 5.76409L54.1544 7.88541L55.0331 8.76409H56.2757V5.76409ZM53.862 3.35034L55.9833 1.22902L55.1046 0.350342H53.862V3.35034ZM56.2759 5.76409H59.2759V2.76409H56.2759V5.76409ZM58.397 3.64277L55.9833 1.22902L51.7406 5.47166L54.1544 7.88541L58.397 3.64277ZM56.2759 2.76409H56.2757V8.76409H56.2759V2.76409ZM53.2759 5.76409V12.6262H59.2759V5.76409H53.2759ZM53.2759 12.6262C53.2759 13.1785 52.8282 13.6262 52.2759 13.6262V19.6262C56.1419 19.6262 59.2759 16.4922 59.2759 12.6262H53.2759ZM52.2759 13.6262H43.3794V19.6262H52.2759V13.6262ZM43.3794 13.6262C42.8271 13.6262 42.3794 13.1785 42.3794 12.6262H36.3794C36.3794 16.4922 39.5134 19.6262 43.3794 19.6262V13.6262ZM42.3794 12.6262V7.35034H36.3794V12.6262H42.3794ZM42.3794 7.35034C42.3794 6.79806 42.8271 6.35034 43.3794 6.35034V0.350342C39.5134 0.350342 36.3794 3.48434 36.3794 7.35034H42.3794ZM43.3794 6.35034H53.862V0.350342H43.3794V6.35034Z" fill="white" mask="url(#path-1-inside-1_40_28249)"/>
<path fill-rule="evenodd" clip-rule="evenodd" d="M58.6295 3.35034H58.0864V16.2038H71.1813C72.0831 16.1425 72.9278 15.7405 73.5442 15.0794C74.1605 14.4182 74.5023 13.5473 74.5002 12.6434V12.4021C74.5005 11.7814 74.3393 11.1713 74.0325 10.6317C73.7257 10.0921 73.2838 9.64163 72.7502 9.32448C73.1267 9.11283 73.4416 8.80675 73.6638 8.4364C73.886 8.06605 74.0079 7.6442 74.0175 7.21241V6.42793C74.0143 5.61268 73.689 4.83173 73.1125 4.25526C72.5361 3.67879 71.7551 3.35352 70.9399 3.35034H58.6295ZM70.4571 13.1262H61.164V11.0745H70.4571C70.5824 11.083 70.7003 11.1365 70.7891 11.2253C70.8778 11.3141 70.9314 11.432 70.9399 11.5572V12.6434C70.9314 12.7687 70.8778 12.8866 70.7891 12.9754C70.7003 13.0641 70.5824 13.1177 70.4571 13.1262ZM70.4571 8.47965H61.164V6.42793H70.4571C70.5824 6.4364 70.7003 6.48998 70.7891 6.57875C70.8778 6.66751 70.9314 6.78544 70.9399 6.91069V7.99689C70.9314 8.12214 70.8778 8.24007 70.7891 8.32883C70.7003 8.4176 70.5824 8.47118 70.4571 8.47965Z" fill="white"/>
<path fill-rule="evenodd" clip-rule="evenodd" d="M76.1899 3.35034H89.0434C89.8118 3.39653 90.5335 3.73469 91.0608 4.29561C91.5881 4.85652 91.881 5.59776 91.8796 6.36758V9.38482C91.8798 10.0554 91.6534 10.7064 91.2371 11.2322C90.8209 11.7579 90.2392 12.1277 89.5865 12.2814L92.1813 16.3245H88.5606L86.0261 12.4021H79.2072V16.3245H76.1899V3.35034ZM88.8624 6.91069V8.90207C88.8539 9.02731 88.8003 9.14524 88.7115 9.23401C88.6228 9.32277 88.5048 9.37635 88.3796 9.38482H79.2072V6.42793H88.3796C88.5048 6.4364 88.6228 6.48998 88.7115 6.57875C88.8003 6.66751 88.8539 6.78544 88.8624 6.91069Z" fill="white"/>
<path d="M97.3107 3.35034H94.2935V16.0228H97.3107V3.35034Z" fill="white"/>
<path d="M113 6.42793V5.76413C113 5.12396 112.746 4.51 112.293 4.05733C111.84 3.60465 111.226 3.35034 110.586 3.35034H101.957C101.184 3.41394 100.464 3.76569 99.9383 4.33578C99.4129 4.90588 99.121 5.65266 99.1206 6.42793V13.1262C99.121 13.9015 99.4129 14.6483 99.9383 15.2183C100.464 15.7884 101.184 16.1402 101.957 16.2038H110.586C111.226 16.2038 111.84 15.9495 112.293 15.4968C112.746 15.0441 113 14.4302 113 13.79V13.1262H102.681C102.556 13.1177 102.438 13.0641 102.349 12.9754C102.26 12.8866 102.207 12.7687 102.198 12.6434V6.91069C102.207 6.78544 102.26 6.66751 102.349 6.57875C102.438 6.48998 102.556 6.4364 102.681 6.42793H113Z" fill="white"/>
<path fill-rule="evenodd" clip-rule="evenodd" d="M14.2051 12.8809C14.9924 13.6523 16.0815 14.1034 17.238 14.1034H22.9C24.0564 14.1034 25.1455 13.6523 25.9328 12.8809C26.7167 12.1129 27.1379 11.0931 27.1379 10.0517C27.1379 9.01038 26.7167 7.99059 25.9328 7.22254C25.1455 6.4511 24.0564 6 22.9 6H17.238C16.0815 6 14.9924 6.4511 14.2051 7.22254C13.4212 7.99059 13 9.01038 13 10.0517C13 11.0931 13.4212 12.1129 14.2051 12.8809ZM17.238 19.1034C17.1752 19.1034 17.1125 19.1028 17.0498 19.1016L17.0517 19.1034H8V10.0517C8 7.65106 8.97328 5.34871 10.7057 3.65119C12.4382 1.95366 14.7879 1 17.238 1H22.9C22.9627 1 23.0253 1.00063 23.0879 1.00187L23.0861 1H32.1378V10.0006C32.1379 10.0177 32.1379 10.0347 32.1379 10.0517C32.1379 12.4524 31.1646 14.7547 29.4322 16.4523C27.6997 18.1498 25.35 19.1034 22.9 19.1034H17.238Z" fill="url(#paint0_linear_40_28249)"/>
<defs>
<linearGradient id="paint0_linear_40_28249" x1="14.0345" y1="7.33621" x2="30.931" y2="19.4052" gradientUnits="userSpaceOnUse">
<stop stop-color="#FFED48"/>
<stop offset="1" stop-color="#00FFF0"/>
</linearGradient>
</defs>
</svg>
