<svg width="32" height="32" viewBox="0 0 32 32" fill="none" xmlns="http://www.w3.org/2000/svg">
<rect width="32" height="32" fill="url(#paint0_linear_1583_733)"/>
<path d="M19.9115 20.1793H5V11H10.0212L11.9993 12.8207H6.8259V14.6414H13.9773L15.9554 16.4621H6.8259V18.2827H17.9335L19.9115 20.1793Z" fill="black"/>
<path d="M27.367 15.5513C27.367 14.0341 26.1498 12.8203 24.6282 12.8203H11.999L13.9771 14.641H24.6282C25.1607 14.641 25.5411 15.0203 25.5411 15.5513C25.5411 16.0824 25.1607 16.4617 24.6282 16.4617H15.9551L17.9332 18.3582H24.6282C25.1607 18.3582 25.5411 18.7375 25.5411 19.2686C25.5411 19.7996 25.1607 20.1789 24.6282 20.1789H19.9113L21.8893 21.9996H24.5521C26.0737 21.9996 27.2909 20.7858 27.2909 19.2686C27.2909 18.5858 27.0627 17.9031 26.6062 17.4479C27.0627 16.9169 27.367 16.2341 27.367 15.5513Z" fill="black"/>
<defs>
<linearGradient id="paint0_linear_1583_733" x1="4.56104e-07" y1="16" x2="28.114" y2="5.54762" gradientUnits="userSpaceOnUse">
<stop stop-color="#B0FF4A"/>
<stop offset="1" stop-color="#70F0E1"/>
</linearGradient>
</defs>
</svg>
