<svg width="24" height="24" viewBox="0 0 24 24" fill="none" xmlns="http://www.w3.org/2000/svg">
<mask id="path-1-inside-1_409_2397" fill="white">
<path fill-rule="evenodd" clip-rule="evenodd" d="M21.9998 13.3056C20.8139 14.077 19.3985 14.5252 17.8783 14.5252C13.6985 14.5252 10.3101 11.1367 10.3101 6.95691C10.3101 5.01875 11.0386 3.25076 12.2368 1.91184C12.1555 1.90991 12.0739 1.90894 11.9922 1.90894C6.4189 1.90894 1.90088 6.42695 1.90088 12.0002C1.90088 17.5735 6.4189 22.0915 11.9922 22.0915C17.1231 22.0915 21.3596 18.2622 21.9998 13.3056Z"/>
</mask>
<path d="M21.9998 13.3056L23.9833 13.5618L24.5378 9.26865L20.9092 11.6291L21.9998 13.3056ZM12.2368 1.91184L13.7272 3.24555L16.6177 0.0154989L12.2844 -0.0875918L12.2368 1.91184ZM20.9092 11.6291C20.038 12.1958 18.9997 12.5252 17.8783 12.5252V16.5252C19.7972 16.5252 21.5898 15.9582 23.0904 14.9821L20.9092 11.6291ZM17.8783 12.5252C14.8031 12.5252 12.3101 10.0322 12.3101 6.95691H8.31006C8.31006 12.2413 12.5939 16.5252 17.8783 16.5252V12.5252ZM12.3101 6.95691C12.3101 5.52965 12.8444 4.23197 13.7272 3.24555L10.7464 0.578132C9.23279 2.26954 8.31006 4.50785 8.31006 6.95691H12.3101ZM11.9922 3.90894C12.0581 3.90894 12.1238 3.90972 12.1892 3.91128L12.2844 -0.0875918C12.1872 -0.0899031 12.0898 -0.0910645 11.9922 -0.0910645V3.90894ZM3.90088 12.0002C3.90088 7.53152 7.52347 3.90894 11.9922 3.90894V-0.0910645C5.31433 -0.0910645 -0.0991211 5.32239 -0.0991211 12.0002H3.90088ZM11.9922 20.0915C7.52347 20.0915 3.90088 16.4689 3.90088 12.0002H-0.0991211C-0.0991211 18.678 5.31433 24.0915 11.9922 24.0915V20.0915ZM20.0163 13.0494C19.5032 17.0217 16.1046 20.0915 11.9922 20.0915V24.0915C18.1415 24.0915 23.216 19.5028 23.9833 13.5618L20.0163 13.0494Z" fill="white" mask="url(#path-1-inside-1_409_2397)"/>
</svg>
