<svg width="24" height="24" viewBox="0 0 24 24" fill="none" xmlns="http://www.w3.org/2000/svg">
<mask id="path-1-inside-1_714_42107" fill="white">
<path fill-rule="evenodd" clip-rule="evenodd" d="M22.0003 13.3068C20.8144 14.0782 19.399 14.5264 17.8788 14.5264C13.699 14.5264 10.3106 11.138 10.3106 6.95813C10.3106 5.01997 11.0391 3.25198 12.2373 1.91306C12.156 1.91113 12.0744 1.91016 11.9926 1.91016C6.41939 1.91016 1.90137 6.42818 1.90137 12.0014C1.90137 17.5747 6.41939 22.0927 11.9926 22.0927C17.1236 22.0927 21.3601 18.2634 22.0003 13.3068Z"/>
</mask>
<path d="M22.0003 13.3068L23.9838 13.563L24.5383 9.26987L20.9097 11.6303L22.0003 13.3068ZM12.2373 1.91306L13.7276 3.24677L16.6182 0.0167196L12.2848 -0.0863711L12.2373 1.91306ZM20.9097 11.6303C20.0385 12.197 19.0002 12.5264 17.8788 12.5264V16.5264C19.7977 16.5264 21.5903 15.9594 23.0908 14.9833L20.9097 11.6303ZM17.8788 12.5264C14.8036 12.5264 12.3106 10.0334 12.3106 6.95813H8.31055C8.31055 12.2425 12.5944 16.5264 17.8788 16.5264V12.5264ZM12.3106 6.95813C12.3106 5.53087 12.8449 4.23319 13.7276 3.24677L10.7469 0.579352C9.23328 2.27076 8.31055 4.50908 8.31055 6.95813H12.3106ZM11.9926 3.91016C12.0586 3.91016 12.1242 3.91094 12.1897 3.9125L12.2848 -0.0863711C12.1877 -0.0886824 12.0903 -0.0898438 11.9926 -0.0898438V3.91016ZM3.90137 12.0014C3.90137 7.53274 7.52396 3.91016 11.9926 3.91016V-0.0898438C5.31482 -0.0898438 -0.0986328 5.32361 -0.0986328 12.0014H3.90137ZM11.9926 20.0927C7.52396 20.0927 3.90137 16.4701 3.90137 12.0014H-0.0986328C-0.0986328 18.6793 5.31482 24.0927 11.9926 24.0927V20.0927ZM20.0167 13.0506C19.5037 17.0229 16.1051 20.0927 11.9926 20.0927V24.0927C18.142 24.0927 23.2165 19.504 23.9838 13.563L20.0167 13.0506Z" fill="white" mask="url(#path-1-inside-1_714_42107)"/>
</svg>
