<svg width="24" height="24" viewBox="0 0 24 24" xmlns="http://www.w3.org/2000/svg">
<g clip-path="url(#clip0_412_2603)">
<mask id="path-1-inside-1_412_2603" fill="white">
<path fill-rule="evenodd" clip-rule="evenodd" d="M23.9011 13.5527C22.4909 14.4701 20.8077 15.003 19 15.003C14.0294 15.003 10 10.9736 10 6.00302C10 3.69817 10.8664 1.59568 12.2913 0.00345875C12.1946 0.00115725 12.0976 0 12.0003 0C5.37272 0 0 5.37272 0 12.0003C0 18.6279 5.37272 24.0006 12.0003 24.0006C18.1018 24.0006 23.1398 19.447 23.9011 13.5527Z"/>
</mask>
<path d="M23.9011 13.5527L25.8846 13.8089L26.4392 9.51577L22.8105 11.8762L23.9011 13.5527ZM12.2913 0.00345875L13.7816 1.33719L16.6722 -1.89286L12.3389 -1.99598L12.2913 0.00345875ZM22.8105 11.8762C21.715 12.5889 20.4089 13.003 19 13.003V17.003C21.2065 17.003 23.2668 16.3513 24.9917 15.2292L22.8105 11.8762ZM19 13.003C15.134 13.003 12 9.86901 12 6.00302H8C8 12.0781 12.9249 17.003 19 17.003V13.003ZM12 6.00302C12 4.20908 12.6722 2.57691 13.7816 1.33719L10.8009 -1.33027C9.06059 0.614444 8 3.18726 8 6.00302H12ZM12.0003 2C12.0817 2 12.1628 2.00097 12.2437 2.00289L12.3389 -1.99598C12.2263 -1.99865 12.1134 -2 12.0003 -2V2ZM2 12.0003C2 6.47729 6.47729 2 12.0003 2V-2C4.26815 -2 -2 4.26815 -2 12.0003H2ZM12.0003 22.0006C6.47729 22.0006 2 17.5233 2 12.0003H-2C-2 19.7325 4.26815 26.0006 12.0003 26.0006V22.0006ZM21.9176 13.2965C21.2834 18.2064 17.0834 22.0006 12.0003 22.0006V26.0006C19.1203 26.0006 24.9962 20.6875 25.8846 13.8089L21.9176 13.2965Z" mask="url(#path-1-inside-1_412_2603)"/>
</g>
<defs>
<clipPath id="clip0_412_2603">
<rect width="24" height="24" fill="white"/>
</clipPath>
</defs>
</svg>
