<svg width="18" height="18" viewBox="0 0 18 18" fill="none" xmlns="http://www.w3.org/2000/svg">
<g clip-path="url(#clip0_1244_517)">
<path fill-rule="evenodd" clip-rule="evenodd" d="M8.14494 0V8.95947H10.1449V0H8.14494ZM2 9.3667C2 6.80165 3.43301 4.56979 5.54685 3.43075L4.59812 1.67009C1.86268 3.14408 0 6.03711 0 9.3667C0 14.1924 3.91201 18.1044 8.73772 18.1044C13.5634 18.1044 17.4754 14.1924 17.4754 9.3667C17.4754 6.42546 16.0212 3.82391 13.797 2.24197L12.6379 3.87178C14.3572 5.09465 15.4754 7.1001 15.4754 9.3667C15.4754 13.0878 12.4589 16.1044 8.73772 16.1044C5.01658 16.1044 2 13.0878 2 9.3667Z" fill="white" fill-opacity="0.5"/>
</g>
<defs>
<clipPath id="clip0_1244_517">
<rect width="18" height="18" fill="white"/>
</clipPath>
</defs>
</svg>
