<svg width="18" height="18" viewBox="0 0 18 18" fill="none" xmlns="http://www.w3.org/2000/svg">
<path fill-rule="evenodd" clip-rule="evenodd" d="M10.2858 0H5.14294V2.57143L10.2857 2.57142V5.14285H12.8571V2.57142L10.2858 2.57143V0ZM5.14283 15.4286H10.2857V12.8572L12.8571 12.8572V10.2857L15.4285 10.2857V5.14288H12.8571V10.2857H10.2856V12.8572H5.14294V10.2857H2.57151L2.57151 12.8572L5.14283 12.8572V15.4286ZM2.57137 2.57142H5.1428V5.14285H2.57137V2.57142ZM15.4286 15.4286L12.8572 15.4286V12.8572H15.4286V15.4286L18 15.4286V18H15.4286V15.4286ZM0 10.2857V5.14288H2.57143L2.57143 10.2857H0Z" fill="white" fill-opacity="0.6"/>
</svg>
