<svg width="18" height="18" viewBox="0 0 18 18" fill="none" xmlns="http://www.w3.org/2000/svg">
<g clip-path="url(#clip0_304_10051)">
<mask id="mask0_304_10051" style="mask-type:alpha" maskUnits="userSpaceOnUse" x="1" y="1" width="16" height="16">
<rect x="1" y="1" width="16" height="16" fill="#D9D9D9"/>
</mask>
<g mask="url(#mask0_304_10051)">
<path fill-rule="evenodd" clip-rule="evenodd" d="M11.2429 11.243C12.9352 9.55068 12.9352 6.80697 11.2429 5.11469C9.55065 3.42242 6.80693 3.42242 5.11466 5.11469C3.42239 6.80697 3.42239 9.55068 5.11466 11.243C6.80693 12.9352 9.55065 12.9352 11.2429 11.243ZM12.6571 3.70048C14.8899 5.93322 15.1071 9.41827 13.3087 11.8946L16.111 14.697V17.5254L11.8944 13.3088C9.41808 15.1071 5.93314 14.8899 3.70045 12.6572C1.22713 10.1838 1.22713 6.1738 3.70045 3.70048C6.17377 1.22716 10.1838 1.22716 12.6571 3.70048Z" fill="white" fill-opacity="0.5"/>
</g>
</g>
<defs>
<clipPath id="clip0_304_10051">
<rect width="18" height="18" fill="white"/>
</clipPath>
</defs>
</svg>
