<svg width="24" height="24" viewBox="0 0 24 24" fill="none" xmlns="http://www.w3.org/2000/svg">
<path d="M2 7H7M22 7H11" stroke="white" stroke-width="2"/>
<path d="M2 17H13M22 17H17" stroke="white" stroke-width="2"/>
<mask id="path-3-inside-1_138_18" fill="white">
<path fill-rule="evenodd" clip-rule="evenodd" d="M9.91406 3H8H6V5V9V11H8H10H12V9V5.08594L9.91406 3ZM8 9H10V5H8V9Z"/>
</mask>
<path fill-rule="evenodd" clip-rule="evenodd" d="M9.91406 3H8H6V5V9V11H8H10H12V9V5.08594L9.91406 3ZM8 9H10V5H8V9Z" fill="#031C28"/>
<path d="M9.91406 3L11.3283 1.58579L10.7425 1H9.91406V3ZM6 3V1H4V3H6ZM6 11H4V13H6V11ZM12 11V13H14V11H12ZM12 5.08594H14V4.25751L13.4142 3.67172L12 5.08594ZM10 9V11H12V9H10ZM8 9H6V11H8V9ZM10 5H12V3H10V5ZM8 5V3H6V5H8ZM8 5H9.91406V1H8V5ZM6 5H8V1H6V5ZM8 5V3H4V5H8ZM8 9V5H4V9H8ZM8 11V9H4V11H8ZM8 9H6V13H8V9ZM10 9H8V13H10V9ZM12 9H10V13H12V9ZM10 9V11H14V9H10ZM10 5.08594V9H14V5.08594H10ZM13.4142 3.67172L11.3283 1.58579L8.49985 4.41421L10.5858 6.50015L13.4142 3.67172ZM10 7H8V11H10V7ZM8 5V9H12V5H8ZM8 7H10V3H8V7ZM10 9V5H6V9H10Z" fill="white" mask="url(#path-3-inside-1_138_18)"/>
<mask id="path-5-inside-2_138_18" fill="white">
<path fill-rule="evenodd" clip-rule="evenodd" d="M14.0859 21L16 21L18 21L18 19L18 15L18 13L16 13L14 13L12 13L12 15L12 18.9141L14.0859 21ZM16 15L14 15L14 19L16 19L16 15Z"/>
</mask>
<path fill-rule="evenodd" clip-rule="evenodd" d="M14.0859 21L16 21L18 21L18 19L18 15L18 13L16 13L14 13L12 13L12 15L12 18.9141L14.0859 21ZM16 15L14 15L14 19L16 19L16 15Z" fill="#031C28"/>
<path d="M14.0859 21L12.6717 22.4142L13.2575 23L14.0859 23L14.0859 21ZM18 21L18 23L20 23L20 21L18 21ZM18 19L16 19L18 19ZM18 15L16 15L18 15ZM18 13L20 13L20 11L18 11L18 13ZM12 13L12 11L10 11L10 13L12 13ZM12 15L10 15L12 15ZM12 18.9141L10 18.9141L10 19.7425L10.5858 20.3283L12 18.9141ZM14 15L14 13L12 13L12 15L14 15ZM16 15L18 15L18 13L16 13L16 15ZM14 19L12 19L12 21L14 21L14 19ZM16 19L16 21L18 21L18 19L16 19ZM16 19L14.0859 19L14.0859 23L16 23L16 19ZM18 19L16 19L16 23L18 23L18 19ZM16 19L16 21L20 21L20 19L16 19ZM16 15L16 19L20 19L20 15L16 15ZM16 13L16 15L20 15L20 13L16 13ZM16 15L18 15L18 11L16 11L16 15ZM14 15L16 15L16 11L14 11L14 15ZM12 15L14 15L14 11L12 11L12 15ZM14 15L14 13L10 13L10 15L14 15ZM14 18.9141L14 15L10 15L10 18.9141L14 18.9141ZM10.5858 20.3283L12.6717 22.4142L15.5002 19.5858L13.4142 17.4998L10.5858 20.3283ZM14 17L16 17L16 13L14 13L14 17ZM16 19L16 15L12 15L12 19L16 19ZM16 17L14 17L14 21L16 21L16 17ZM14 15L14 19L18 19L18 15L14 15Z" fill="white" mask="url(#path-5-inside-2_138_18)"/>
</svg>
