<svg width="50" height="50" viewBox="0 0 50 50" fill="none" xmlns="http://www.w3.org/2000/svg">
<g filter="url(#filter0_f_1204_24974)">
<path d="M26.5 25C26.5 37.7025 25 48 25 48C25 48 23.5 37.7025 23.5 25C23.5 12.2975 25 2 25 2C25 2 26.5 12.2975 26.5 25Z" fill="#B0FF4A"/>
</g>
<g filter="url(#filter1_f_1204_24974)">
<path d="M25 26.5C12.2975 26.5 2 25 2 25C2 25 12.2975 23.5 25 23.5C37.7025 23.5 48 25 48 25C48 25 37.7025 26.5 25 26.5Z" fill="#B0FF4A"/>
</g>
<g filter="url(#filter2_f_1204_24974)">
<circle cx="25" cy="25" r="5" fill="#CAFF87"/>
</g>
<g filter="url(#filter3_f_1204_24974)">
<circle cx="25" cy="25" r="5" fill="#CAFF87"/>
</g>
<defs>
<filter id="filter0_f_1204_24974" x="21.5" y="0" width="7" height="50" filterUnits="userSpaceOnUse" color-interpolation-filters="sRGB">
<feFlood flood-opacity="0" result="BackgroundImageFix"/>
<feBlend mode="normal" in="SourceGraphic" in2="BackgroundImageFix" result="shape"/>
<feGaussianBlur stdDeviation="1" result="effect1_foregroundBlur_1204_24974"/>
</filter>
<filter id="filter1_f_1204_24974" x="0" y="21.5" width="50" height="7" filterUnits="userSpaceOnUse" color-interpolation-filters="sRGB">
<feFlood flood-opacity="0" result="BackgroundImageFix"/>
<feBlend mode="normal" in="SourceGraphic" in2="BackgroundImageFix" result="shape"/>
<feGaussianBlur stdDeviation="1" result="effect1_foregroundBlur_1204_24974"/>
</filter>
<filter id="filter2_f_1204_24974" x="8" y="8" width="34" height="34" filterUnits="userSpaceOnUse" color-interpolation-filters="sRGB">
<feFlood flood-opacity="0" result="BackgroundImageFix"/>
<feBlend mode="normal" in="SourceGraphic" in2="BackgroundImageFix" result="shape"/>
<feGaussianBlur stdDeviation="6" result="effect1_foregroundBlur_1204_24974"/>
</filter>
<filter id="filter3_f_1204_24974" x="18" y="18" width="14" height="14" filterUnits="userSpaceOnUse" color-interpolation-filters="sRGB">
<feFlood flood-opacity="0" result="BackgroundImageFix"/>
<feBlend mode="normal" in="SourceGraphic" in2="BackgroundImageFix" result="shape"/>
<feGaussianBlur stdDeviation="1" result="effect1_foregroundBlur_1204_24974"/>
</filter>
</defs>
</svg>
