<svg width="32" height="32" viewBox="0 0 32 32" fill="none" xmlns="http://www.w3.org/2000/svg">
<g clip-path="url(#clip0_1217_31214)">
<mask id="path-1-inside-1_1217_31214" fill="white">
<path fill-rule="evenodd" clip-rule="evenodd" d="M21.625 1H1V31H31V9.20312L21.625 1Z"/>
</mask>
<path d="M1 1V0H0V1H1ZM21.625 1L22.2835 0.247423L22.0007 0H21.625V1ZM1 31H0V32H1V31ZM31 31V32H32V31H31ZM31 9.20312H32V8.74936L31.6585 8.45055L31 9.20312ZM1 2H21.625V0H1V2ZM2 31V1H0V31H2ZM31 30H1V32H31V30ZM30 9.20312V31H32V9.20312H30ZM31.6585 8.45055L22.2835 0.247423L20.9665 1.75258L30.3415 9.9557L31.6585 8.45055Z" fill="white" fill-opacity="0.3" mask="url(#path-1-inside-1_1217_31214)"/>
<mask id="path-3-outside-2_1217_31214" maskUnits="userSpaceOnUse" x="5.625" y="6.5625" width="22" height="21" fill="black">
<rect fill="white" x="5.625" y="6.5625" width="22" height="21"/>
<path fill-rule="evenodd" clip-rule="evenodd" d="M14.4294 7.5625H16.1302L17.8337 9.266V26.3125H14.4294V7.5625ZM23.9346 11.8192H22.2338V26.3125H25.6381V13.5227L23.9346 11.8192ZM8.42767 19.6232H6.625V26.3124H10.0293V21.2248L8.42767 19.6232Z"/>
</mask>
<path fill-rule="evenodd" clip-rule="evenodd" d="M14.4294 7.5625H16.1302L17.8337 9.266V26.3125H14.4294V7.5625ZM23.9346 11.8192H22.2338V26.3125H25.6381V13.5227L23.9346 11.8192ZM8.42767 19.6232H6.625V26.3124H10.0293V21.2248L8.42767 19.6232Z" fill="#272B30"/>
<path d="M16.1302 7.5625L16.8373 6.85539L16.5444 6.5625H16.1302V7.5625ZM14.4294 7.5625V6.5625H13.4294V7.5625H14.4294ZM17.8337 9.266H18.8337V8.85179L18.5408 8.5589L17.8337 9.266ZM17.8337 26.3125V27.3125H18.8337V26.3125H17.8337ZM14.4294 26.3125H13.4294V27.3125H14.4294V26.3125ZM22.2338 11.8192V10.8192H21.2338V11.8192H22.2338ZM23.9346 11.8192L24.6418 11.1121L24.3489 10.8192H23.9346V11.8192ZM22.2338 26.3125H21.2338V27.3125H22.2338V26.3125ZM25.6381 26.3125V27.3125H26.6381V26.3125H25.6381ZM25.6381 13.5227H26.6381V13.1085L26.3453 12.8156L25.6381 13.5227ZM6.625 19.6232V18.6232H5.625V19.6232H6.625ZM8.42767 19.6232L9.13478 18.9161L8.84189 18.6232H8.42767V19.6232ZM6.625 26.3124H5.625V27.3124H6.625V26.3124ZM10.0293 26.3124V27.3124H11.0293V26.3124H10.0293ZM10.0293 21.2248H11.0293V20.8106L10.7364 20.5177L10.0293 21.2248ZM16.1302 6.5625H14.4294V8.5625H16.1302V6.5625ZM18.5408 8.5589L16.8373 6.85539L15.4231 8.26961L17.1266 9.97311L18.5408 8.5589ZM18.8337 26.3125V9.266H16.8337V26.3125H18.8337ZM14.4294 27.3125H17.8337V25.3125H14.4294V27.3125ZM13.4294 7.5625V26.3125H15.4294V7.5625H13.4294ZM22.2338 12.8192H23.9346V10.8192H22.2338V12.8192ZM23.2338 26.3125V11.8192H21.2338V26.3125H23.2338ZM25.6381 25.3125H22.2338V27.3125H25.6381V25.3125ZM24.6381 13.5227V26.3125H26.6381V13.5227H24.6381ZM23.2275 12.5264L24.931 14.2299L26.3453 12.8156L24.6418 11.1121L23.2275 12.5264ZM6.625 20.6232H8.42767V18.6232H6.625V20.6232ZM7.625 26.3124V19.6232H5.625V26.3124H7.625ZM10.0293 25.3124H6.625V27.3124H10.0293V25.3124ZM9.02932 21.2248V26.3124H11.0293V21.2248H9.02932ZM10.7364 20.5177L9.13478 18.9161L7.72057 20.3303L9.32222 21.932L10.7364 20.5177Z" fill="white" fill-opacity="0.3" mask="url(#path-3-outside-2_1217_31214)"/>
</g>
<defs>
<clipPath id="clip0_1217_31214">
<rect width="32" height="32" fill="white"/>
</clipPath>
</defs>
</svg>
