<svg width="24" height="24" viewBox="0 0 24 24" fill="none" xmlns="http://www.w3.org/2000/svg">
<path d="M22 12C22 17.5228 17.5228 22 12 22C6.47715 22 2 17.5228 2 12C2 6.47715 6.47715 2 12 2C12.4233 2 12.8405 2.0263 13.25 2.07737" stroke="#B0FF4A" stroke-width="2"/>
<mask id="path-2-inside-1_845_295" fill="white">
<path fill-rule="evenodd" clip-rule="evenodd" d="M20.3353 3.24902L11.9904 12.3216L8.66748 8.70898V12.4057L11.8692 15.8866L13.5693 14.0383L13.5676 14.0364L20.3353 6.67853V3.24902Z"/>
</mask>
<path fill-rule="evenodd" clip-rule="evenodd" d="M20.3353 3.24902L11.9904 12.3216L8.66748 8.70898V12.4057L11.8692 15.8866L13.5693 14.0383L13.5676 14.0364L20.3353 6.67853V3.24902Z" fill="#B0FF4A"/>
<path d="M20.3353 3.24902H21.3353V0.684655L19.5993 2.57205L20.3353 3.24902ZM11.9904 12.3216L11.2544 12.9986L11.9904 13.7988L12.7264 12.9986L11.9904 12.3216ZM8.66748 8.70898L9.40349 8.03201L7.66748 6.14461V8.70898H8.66748ZM8.66748 12.4057H7.66748V12.7957L7.93147 13.0827L8.66748 12.4057ZM11.8692 15.8866L11.1332 16.5636L11.8692 17.3638L12.6052 16.5636L11.8692 15.8866ZM13.5693 14.0383L14.3053 14.7152L14.9281 14.0382L14.3052 13.3612L13.5693 14.0383ZM13.5676 14.0364L12.8316 13.3594L12.2088 14.0365L12.8317 14.7135L13.5676 14.0364ZM20.3353 6.67853L21.0713 7.3555L21.3353 7.06849V6.67853H20.3353ZM19.5993 2.57205L11.2544 11.6447L12.7264 12.9986L21.0713 3.926L19.5993 2.57205ZM12.7264 11.6447L9.40349 8.03201L7.93147 9.38595L11.2544 12.9986L12.7264 11.6447ZM7.66748 8.70898V12.4057H9.66748V8.70898H7.66748ZM7.93147 13.0827L11.1332 16.5636L12.6052 15.2097L9.40349 11.7288L7.93147 13.0827ZM12.6052 16.5636L14.3053 14.7152L12.8333 13.3613L11.1332 15.2097L12.6052 16.5636ZM14.3052 13.3612L14.3035 13.3593L12.8317 14.7135L12.8334 14.7153L14.3052 13.3612ZM14.3036 14.7134L21.0713 7.3555L19.5993 6.00155L12.8316 13.3594L14.3036 14.7134ZM21.3353 6.67853V3.24902H19.3353V6.67853H21.3353Z" fill="#B0FF4A" mask="url(#path-2-inside-1_845_295)"/>
</svg>
