<svg width="36" height="36" viewBox="0 0 36 36" fill="none" xmlns="http://www.w3.org/2000/svg">
<g id="Frame 1106">
<path id="Union" fill-rule="evenodd" clip-rule="evenodd" d="M23.0401 6.8H12.6001V9.11999H10.2803V11.44H12.6003V9.12H23.0401V6.8ZM5.64062 13.76V21.88H7.96006V24.2H10.2801V21.88H7.96063V13.76H10.2801V11.44H7.96006V13.76H5.64062ZM13.7604 14.92H11.4404V17.24H13.7604V14.92ZM13.7598 17.24H16.0798V19.56H13.7598V17.24ZM18.4 19.56H16.08V21.88H18.4V19.56ZM18.4002 17.24H20.7202V19.56H18.4002V17.24ZM23.0404 14.92H20.7204V17.24H23.0404V14.92ZM23.0406 12.6L25.3601 12.6V10.28H27.6801V12.6L25.3606 12.6V14.92H23.0406V12.6ZM27.6803 7.95999H30.0003V10.28H27.6803V7.95999ZM12.6003 24.2H10.2803V26.52H12.6003V24.2ZM23.0406 28.84H12.6006V26.52H23.0406V28.84ZM30.0001 21.88V14.92H27.6801L27.6801 21.88H30.0001ZM25.3601 26.52H23.0401V24.2H25.3601V26.52ZM25.3603 24.2H27.6803V21.88H25.3603V24.2Z" fill="#4DD12C"/>
</g>
</svg>
