<svg width="32" height="32" viewBox="0 0 32 32" fill="none" xmlns="http://www.w3.org/2000/svg">
<g clip-path="url(#clip0_1212_25508)">
<circle cx="16" cy="16" r="15.5" stroke="white" stroke-opacity="0.3"/>
<mask id="path-2-outside-1_1212_25508" maskUnits="userSpaceOnUse" x="7" y="5" width="19" height="23" fill="black">
<rect fill="white" x="7" y="5" width="19" height="23"/>
<path fill-rule="evenodd" clip-rule="evenodd" d="M11.5 11.4163L15 8V10.7876L13.5 12.2447L13.5 24.7943L8 20.8656V18.1782L11.5 20.8667L11.5 11.4163ZM21.5 21.3784L18 24.7948V22.0071L19.5 20.55L19.5 8.00045L25 11.9291V14.6165L21.5 11.928L21.5 21.3784Z"/>
</mask>
<path fill-rule="evenodd" clip-rule="evenodd" d="M11.5 11.4163L15 8V10.7876L13.5 12.2447L13.5 24.7943L8 20.8656V18.1782L11.5 20.8667L11.5 11.4163ZM21.5 21.3784L18 24.7948V22.0071L19.5 20.55L19.5 8.00045L25 11.9291V14.6165L21.5 11.928L21.5 21.3784Z" fill="#272B30"/>
<path d="M15 8H16V5.62649L14.3015 7.28439L15 8ZM11.5 11.4163L10.8015 10.7007L10.5 10.995V11.4163L11.5 11.4163ZM15 10.7876L15.6968 11.5049L16 11.2103V10.7876H15ZM13.5 12.2447L12.8032 11.5275L12.5 11.822V12.2447H13.5ZM13.5 24.7943L12.9188 25.608L14.5 26.7375L14.5 24.7943H13.5ZM8 20.8656H7V21.3802L7.41875 21.6794L8 20.8656ZM8 18.1782L8.60917 17.3852L7 16.1491V18.1782H8ZM11.5 20.8667L10.8909 21.6598L12.5 22.8959L12.5 20.8667H11.5ZM18 24.7948H17V27.1683L18.6985 25.5104L18 24.7948ZM21.5 21.3784L22.1985 22.094L22.5 21.7998V21.3784H21.5ZM18 22.0071L17.3032 21.2898L17 21.5844V22.0071H18ZM19.5 20.55L20.1968 21.2673L20.5 20.9727V20.55H19.5ZM19.5 8.00045L20.0812 7.18673L18.5 6.05724V8.00045L19.5 8.00045ZM25 11.9291H26V11.4145L25.5812 11.1154L25 11.9291ZM25 14.6165L24.3908 15.4096L26 16.6456V14.6165H25ZM21.5 11.928L22.1091 11.135L20.5 9.89889V11.928H21.5ZM14.3015 7.28439L10.8015 10.7007L12.1985 12.1319L15.6985 8.71561L14.3015 7.28439ZM16 10.7876V8H14V10.7876H16ZM14.1968 12.962L15.6968 11.5049L14.3032 10.0703L12.8032 11.5275L14.1968 12.962ZM14.5 24.7943L14.5 12.2447H12.5L12.5 24.7943H14.5ZM7.41875 21.6794L12.9188 25.608L14.0813 23.9806L8.58125 20.0519L7.41875 21.6794ZM7 18.1782V20.8656H9V18.1782H7ZM12.1092 20.0737L8.60917 17.3852L7.39083 18.9713L10.8909 21.6598L12.1092 20.0737ZM10.5 11.4163L10.5 20.8667H12.5L12.5 11.4163L10.5 11.4163ZM18.6985 25.5104L22.1985 22.094L20.8015 20.6628L17.3015 24.0791L18.6985 25.5104ZM17 22.0071V24.7948H19V22.0071H17ZM18.8032 19.8327L17.3032 21.2898L18.6968 22.7244L20.1968 21.2673L18.8032 19.8327ZM18.5 8.00045L18.5 20.55H20.5L20.5 8.00045L18.5 8.00045ZM25.5812 11.1154L20.0812 7.18673L18.9187 8.81418L24.4188 12.7429L25.5812 11.1154ZM26 14.6165V11.9291H24V14.6165H26ZM20.8908 12.721L24.3908 15.4096L25.6092 13.8235L22.1091 11.135L20.8908 12.721ZM22.5 21.3784L22.5 11.928H20.5L20.5 21.3784H22.5Z" fill="white" fill-opacity="0.3" mask="url(#path-2-outside-1_1212_25508)"/>
</g>
<defs>
<clipPath id="clip0_1212_25508">
<rect width="32" height="32" fill="white"/>
</clipPath>
</defs>
</svg>
