<svg width="21" height="17" viewBox="0 0 21 17" xmlns="http://www.w3.org/2000/svg">
<path d="M20.162 1.89758C19.4385 2.21898 18.6612 2.4364 17.8439 2.53512C18.6868 2.02967 19.3171 1.2348 19.617 0.298829C18.8251 0.770236 17.9582 1.10234 17.0539 1.28072C16.4452 0.631928 15.6392 0.202276 14.7612 0.0584668C13.8833 -0.0853423 12.9824 0.0647369 12.1984 0.485404C11.4145 0.906071 10.7913 1.57379 10.4258 2.38489C10.0602 3.196 9.97261 4.1051 10.1767 4.97107C8.57098 4.89196 6.99989 4.4761 5.56533 3.7505C4.13078 3.02489 2.86482 2.00575 1.84963 0.759224C1.50347 1.35764 1.30475 2.05128 1.30544 2.7898C1.30567 3.45463 1.47001 4.10914 1.78386 4.69523C2.09771 5.28132 2.55137 5.78089 3.1046 6.1496C2.46339 6.1298 1.83617 5.95713 1.27517 5.64596L1.27521 5.69797C1.27602 6.63043 1.59941 7.53389 2.19051 8.25506C2.78161 8.97623 3.60401 9.47068 4.51817 9.65452C3.9235 9.81606 3.29991 9.84035 2.69447 9.72557C2.9531 10.5277 3.45606 11.2288 4.13297 11.7308C4.80987 12.2329 5.62681 12.5106 6.46944 12.5253C5.04011 13.6495 3.27417 14.2602 1.4557 14.2593C1.13358 14.2597 0.811714 14.2411 0.49176 14.2038C2.33871 15.3889 4.488 16.0168 6.68246 16.0123C14.111 16.0053 18.1663 9.84895 18.1613 4.51288C18.1611 4.33952 18.1566 4.16442 18.1486 3.99107C18.938 3.41908 19.6192 2.71106 20.1603 1.90018L20.162 1.89758Z" />
</svg>
