<svg width="132" height="28" viewBox="0 0 132 28" fill="none" xmlns="http://www.w3.org/2000/svg">
<path fill-rule="evenodd" clip-rule="evenodd" d="M2.07958 4.64179V8.80099V8.80228H-2.47955e-05V19.2003H2.07958V23.3582H4.15918V25.4378H6.23878V27.5174H18.7151V25.4597H20.7947V23.3685H22.8743V19.199H24.9539V8.80099H22.8743V4.64179H20.7947V2.55187H18.7151V0.482582H6.23878V2.56218H4.15918V4.64179H2.07958ZM6.23878 10.8819V10.8806V8.80228H8.3171V4.64308H10.3967V2.56347H18.7151V4.65597H20.7947V8.81131H22.8743V19.1926H20.7947V23.3569H18.7151V25.4365H10.3967V23.3569H8.3171V19.199H6.23878V10.8819ZM20.0256 9.37058H17.6675V13.6703H20.0256V9.37058ZM13.5249 9.37058H11.1668V13.6703H13.5249V9.37058ZM12.7828 18.3997H14.2178V19.199H16.2484V18.3997H17.5532V16.3201H19.6315V18.3997H18.3267V20.4793H16.2484V21.2786H14.1701V20.4793H12.1382V18.3997H10.7058V16.3201H12.7828V18.3997Z" fill="white"/>
<path d="M37.4455 20.2614H35.1895V22.5174H32.9335V5.40542H35.1895V12.3654H37.4455V14.6214H35.1895V18.0054H37.4455V20.2614ZM37.4455 20.2614H41.0455V22.5174H37.4455V20.2614ZM41.0455 18.0054H43.3255V20.2614H41.0455V18.0054ZM45.5815 14.6214V18.0054H43.3255V14.6214H45.5815ZM41.0455 12.3654H37.4455V10.1094H41.0455V12.3654ZM41.0455 12.3654H43.3255V14.6214H41.0455V12.3654ZM47.8397 10.1094H50.0957V22.5174H47.8397V10.1094ZM47.8397 5.38142H50.0957V7.63742H47.8397V5.38142ZM54.6192 12.3654H52.3632V10.1094H54.6192V5.38142H56.8752V10.1094H59.1312V12.3654H56.8752V20.2614H59.1312V22.5174H56.8752V20.2614H54.6192V12.3654ZM61.3866 20.2614V18.0054H63.6426V20.2614H61.3866ZM72.6906 20.2614V14.9814H74.9466V20.2614H72.6906ZM72.6906 9.89342V7.63742H74.9466V9.89342H72.6906ZM61.3866 12.7254V7.63742H63.6426V12.7254H61.3866ZM63.6426 14.9814V12.7254H72.6906V14.9814H63.6426ZM63.6426 7.63742V5.38142H72.6906V7.63742H63.6426ZM63.6426 22.5174V20.2614H72.6906V22.5174H63.6426ZM94.6069 12.3654V22.5174H92.3269V12.3654H94.6069ZM81.7189 10.1094H84.7669V12.3654H81.7189V14.6214H79.4629V22.5174H77.2069V10.1094H79.4629V12.3654H81.7189V10.1094ZM89.3029 10.1094H92.3269V12.3654H89.3029V14.6214H87.0229V22.5174H84.7669V12.3654H89.3029V10.1094ZM96.871 10.1094H99.127V22.5174H96.871V10.1094ZM96.871 5.38142H99.127V7.63742H96.871V5.38142ZM101.394 5.38142H103.674V22.5174H101.394V5.38142ZM108.197 20.2614H115.013V22.5174H108.197V20.2614ZM115.013 12.3894H108.197V10.1094H115.013V12.3894ZM108.197 20.2614H105.941V12.3894H108.197V14.6214H115.013V12.3894H117.269V16.8774H108.197V20.2614ZM115.013 18.0054H117.269V20.2614H115.013V18.0054ZM130.815 10.1094V18.0054H128.559V10.1094H130.815ZM121.791 10.1094V18.0054H119.535V10.1094H121.791ZM121.791 24.7734H124.047V27.0294H121.791V24.7734ZM126.303 20.2614V24.7734H124.047V20.2614H126.303ZM124.047 18.0054V20.2614H121.791V18.0054H124.047ZM128.559 18.0054V20.2614H126.303V18.0054H128.559Z" fill="white"/>
</svg>
