<svg width="27" height="31" viewBox="0 0 27 31" fill="none" xmlns="http://www.w3.org/2000/svg">
<path d="M7.11949 0.148438H4.74634V2.52159H7.11949V0.148438Z" fill="#6B001E"/>
<path d="M9.49254 0.148438H7.11938V2.52159H9.49254V0.148438Z" fill="#6B001E"/>
<path d="M7.11974 2.52148H4.74658V4.89464H7.11974V2.52148Z" fill="#6B001E"/>
<path d="M9.49278 2.52148H7.11963V4.89464H9.49278V2.52148Z" fill="#6B001E"/>
<path d="M7.11974 4.89453H4.74658V7.26768H7.11974V4.89453Z" fill="#6B001E"/>
<path d="M9.49278 4.89453H7.11963V7.26768H9.49278V4.89453Z" fill="#6B001E"/>
<path d="M7.11974 7.26953H4.74658V9.64268H7.11974V7.26953Z" fill="#6B001E"/>
<path d="M9.49278 7.26953H7.11963V9.64268H9.49278V7.26953Z" fill="#6B001E"/>
<path d="M7.11974 9.64258H4.74658V12.0157H7.11974V9.64258Z" fill="#6B001E"/>
<path d="M9.49278 9.64258H7.11963V12.0157H9.49278V9.64258Z" fill="#6B001E"/>
<path d="M11.8658 9.64258H9.49268V12.0157H11.8658V9.64258Z" fill="#6B001E"/>
<path d="M14.2389 9.64258H11.8657V12.0157H14.2389V9.64258Z" fill="#6B001E"/>
<path d="M16.6119 9.64258H14.2388V12.0157H16.6119V9.64258Z" fill="#6B001E"/>
<path d="M18.9855 9.64258H16.6123V12.0157H18.9855V9.64258Z" fill="#6B001E"/>
<path d="M21.3585 9.64258H18.9854V12.0157H21.3585V9.64258Z" fill="#6B001E"/>
<path d="M7.11974 12.0117H4.74658V14.3849H7.11974V12.0117Z" fill="#6B001E"/>
<path d="M9.49278 12.0117H7.11963V14.3849H9.49278V12.0117Z" fill="#6B001E"/>
<path d="M11.8658 12.0117H9.49268V14.3849H11.8658V12.0117Z" fill="#6B001E"/>
<path d="M14.2389 12.0117H11.8657V14.3849H14.2389V12.0117Z" fill="#6B001E"/>
<path d="M16.6119 12.0117H14.2388V14.3849H16.6119V12.0117Z" fill="#6B001E"/>
<path d="M18.9855 12.0117H16.6123V14.3849H18.9855V12.0117Z" fill="#6B001E"/>
<path d="M21.3585 12.0117H18.9854V14.3849H21.3585V12.0117Z" fill="#6B001E"/>
<path d="M7.11949 14.3887H4.74634V16.7618H7.11949V14.3887Z" fill="#6B001E"/>
<path d="M9.49254 14.3887H7.11938V16.7618H9.49254V14.3887Z" fill="#6B001E"/>
<path d="M11.8661 14.3887H9.49292V16.7618H11.8661V14.3887Z" fill="#FFC700"/>
<path d="M14.2391 14.3887H11.866V16.7618H14.2391V14.3887Z" fill="#FFC700"/>
<path d="M16.6119 14.3887H14.2388V16.7618H16.6119V14.3887Z" fill="#FFC700"/>
<path d="M18.9855 14.3887H16.6123V16.7618H18.9855V14.3887Z" fill="#FFC700"/>
<path d="M21.3585 14.3887H18.9854V16.7618H21.3585V14.3887Z" fill="#FFC700"/>
<path d="M23.7316 14.3887H21.3584V16.7618H23.7316V14.3887Z" fill="#6B001E"/>
<path d="M26.1048 14.3887H23.7317V16.7618H26.1048V14.3887Z" fill="#6B001E"/>
<path d="M2.37315 16.7598H0V19.1329H2.37315V16.7598Z" fill="#6B001E"/>
<path d="M4.7462 16.7598H2.37305V19.1329H4.7462V16.7598Z" fill="#6B001E"/>
<path d="M7.11974 16.7598H4.74658V19.1329H7.11974V16.7598Z" fill="#6B001E"/>
<path d="M9.49278 16.7598H7.11963V19.1329H9.49278V16.7598Z" fill="#6B001E"/>
<path d="M11.8658 16.7598H9.49268V19.1329H11.8658V16.7598Z" fill="#6B001E"/>
<path d="M14.2389 16.7598H11.8657V19.1329H14.2389V16.7598Z" fill="#6B001E"/>
<path d="M16.6119 16.7598H14.2388V19.1329H16.6119V16.7598Z" fill="#6B001E"/>
<path d="M23.7316 16.7598H21.3584V19.1329H23.7316V16.7598Z" fill="#6B001E"/>
<path d="M26.1046 16.7598H23.7314V19.1329H26.1046V16.7598Z" fill="#6B001E"/>
<path d="M2.37315 19.1328H0V21.506H2.37315V19.1328Z" fill="#6B001E"/>
<path d="M4.7462 19.1328H2.37305V21.506H4.7462V19.1328Z" fill="#6B001E"/>
<path d="M7.11949 19.1328H4.74634V21.506H7.11949V19.1328Z" fill="#6B001E"/>
<path d="M9.49254 19.1328H7.11938V21.506H9.49254V19.1328Z" fill="#6B001E"/>
<path d="M11.8661 19.1328H9.49292V21.506H11.8661V19.1328Z" fill="#6B001E"/>
<path d="M14.2391 19.1328H11.866V21.506H14.2391V19.1328Z" fill="#6B001E"/>
<path d="M16.6119 19.1328H14.2388V21.506H16.6119V19.1328Z" fill="#6B001E"/>
<path d="M23.7316 19.1328H21.3584V21.506H23.7316V19.1328Z" fill="#6B001E"/>
<path d="M26.1048 19.1328H23.7317V21.506H26.1048V19.1328Z" fill="#6B001E"/>
<path d="M7.11974 21.5059H4.74658V23.879H7.11974V21.5059Z" fill="#6B001E"/>
<path d="M9.49278 21.5059H7.11963V23.879H9.49278V21.5059Z" fill="#6B001E"/>
<path d="M11.8658 21.5059H9.49268V23.879H11.8658V21.5059Z" fill="#FFC700"/>
<path d="M14.2389 21.5059H11.8657V23.879H14.2389V21.5059Z" fill="#FFC700"/>
<path d="M16.6119 21.5059H14.2388V23.879H16.6119V21.5059Z" fill="#FFC700"/>
<path d="M23.7316 21.5059H21.3584V23.879H23.7316V21.5059Z" fill="#6B001E"/>
<path d="M26.1046 21.5059H23.7314V23.879H26.1046V21.5059Z" fill="#6B001E"/>
<path d="M7.11974 23.8789H4.74658V26.2521H7.11974V23.8789Z" fill="#6B001E"/>
<path d="M9.49278 23.8789H7.11963V26.2521H9.49278V23.8789Z" fill="#6B001E"/>
<path d="M11.8658 23.8789H9.49268V26.2521H11.8658V23.8789Z" fill="#6B001E"/>
<path d="M14.2389 23.8789H11.8657V26.2521H14.2389V23.8789Z" fill="#6B001E"/>
<path d="M16.6119 23.8789H14.2388V26.2521H16.6119V23.8789Z" fill="#6B001E"/>
<path d="M18.9855 23.8789H16.6123V26.2521H18.9855V23.8789Z" fill="#6B001E"/>
<path d="M21.3585 23.8789H18.9854V26.2521H21.3585V23.8789Z" fill="#6B001E"/>
<path d="M23.7316 23.8789H21.3584V26.2521H23.7316V23.8789Z" fill="#FFC700"/>
<path d="M26.1046 23.8789H23.7314V26.2521H26.1046V23.8789Z" fill="#FFC700"/>
<path d="M7.11974 26.2539H4.74658V28.6271H7.11974V26.2539Z" fill="#6B001E"/>
<path d="M9.49278 26.2539H7.11963V28.6271H9.49278V26.2539Z" fill="#6B001E"/>
<path d="M11.8658 26.2539H9.49268V28.6271H11.8658V26.2539Z" fill="#6B001E"/>
<path d="M14.2389 26.2539H11.8657V28.6271H14.2389V26.2539Z" fill="#6B001E"/>
<path d="M16.6119 26.2539H14.2388V28.6271H16.6119V26.2539Z" fill="#6B001E"/>
<path d="M18.9855 26.2539H16.6123V28.6271H18.9855V26.2539Z" fill="#6B001E"/>
<path d="M21.3585 26.2539H18.9854V28.6271H21.3585V26.2539Z" fill="#6B001E"/>
<path d="M7.11974 28.627H4.74658V31.0001H7.11974V28.627Z" fill="#FFC700"/>
<path d="M9.49278 28.627H7.11963V31.0001H9.49278V28.627Z" fill="#FFC700"/>
<path d="M11.8658 28.627H9.49268V31.0001H11.8658V28.627Z" fill="#FFC700"/>
<path d="M14.2389 28.627H11.8657V31.0001H14.2389V28.627Z" fill="#FFC700"/>
<path d="M16.6119 28.627H14.2388V31.0001H16.6119V28.627Z" fill="#FFC700"/>
<path d="M18.9855 28.627H16.6123V31.0001H18.9855V28.627Z" fill="#FFC700"/>
<path d="M21.3585 28.627H18.9854V31.0001H21.3585V28.627Z" fill="#FFC700"/>
</svg>
