<svg width="57" height="57" viewBox="0 0 57 57" fill="none" xmlns="http://www.w3.org/2000/svg">
  <g filter="url(#filter0_d_1039_539429)">
    <path
      d="M13.25 0H39.75V6.625H46.375V13.25H53V39.75H46.375V46.375H39.75V53H13.25V46.375H6.625V39.75H0V13.25H6.625V6.625H13.25V0Z"
      fill="#6B001E" />
  </g>
  <path d="M20.8938 9.27539H18.3457V11.8235H20.8938V9.27539Z" fill="#FFC700" />
  <path d="M23.4421 9.27539H20.894V11.8235H23.4421V9.27539Z" fill="#FFC700" />
  <path d="M20.8938 11.8223H18.3457V14.3703H20.8938V11.8223Z" fill="#FFC700" />
  <path d="M23.4421 11.8223H20.894V14.3703H23.4421V11.8223Z" fill="#FFC700" />
  <path d="M20.8938 14.3711H18.3457V16.9192H20.8938V14.3711Z" fill="#FFC700" />
  <path d="M23.4421 14.3711H20.894V16.9192H23.4421V14.3711Z" fill="#FFC700" />
  <path d="M20.8938 16.9199H18.3457V19.468H20.8938V16.9199Z" fill="#FFC700" />
  <path d="M23.4421 16.9199H20.894V19.468H23.4421V16.9199Z" fill="#FFC700" />
  <path d="M20.8938 19.4668H18.3457V22.0149H20.8938V19.4668Z" fill="#FFC700" />
  <path d="M23.4421 19.4668H20.894V22.0149H23.4421V19.4668Z" fill="#FFC700" />
  <path d="M25.9905 19.4668H23.4424V22.0149H25.9905V19.4668Z" fill="#FFC700" />
  <path d="M28.5383 19.4668H25.9902V22.0149H28.5383V19.4668Z" fill="#FFC700" />
  <path d="M31.0866 19.4668H28.5386V22.0149H31.0866V19.4668Z" fill="#FFC700" />
  <path d="M33.6345 19.4668H31.0864V22.0149H33.6345V19.4668Z" fill="#FFC700" />
  <path d="M36.1823 19.4668H33.6343V22.0149H36.1823V19.4668Z" fill="#FFC700" />
  <path d="M20.8938 22.0156H18.3457V24.5637H20.8938V22.0156Z" fill="#FFC700" />
  <path d="M23.4421 22.0156H20.894V24.5637H23.4421V22.0156Z" fill="#FFC700" />
  <path d="M25.9905 22.0156H23.4424V24.5637H25.9905V22.0156Z" fill="#FFC700" />
  <path d="M28.5383 22.0156H25.9902V24.5637H28.5383V22.0156Z" fill="#FFC700" />
  <path d="M31.0866 22.0156H28.5386V24.5637H31.0866V22.0156Z" fill="#FFC700" />
  <path d="M33.6345 22.0156H31.0864V24.5637H33.6345V22.0156Z" fill="#FFC700" />
  <path d="M36.1823 22.0156H33.6343V24.5637H36.1823V22.0156Z" fill="#FFC700" />
  <path d="M20.8938 24.5645H18.3457V27.1125H20.8938V24.5645Z" fill="#FFC700" />
  <path d="M23.4421 24.5645H20.894V27.1125H23.4421V24.5645Z" fill="#FFC700" />
  <path d="M25.9905 24.5645H23.4424V27.1125H25.9905V24.5645Z" fill="#E85E00" />
  <path d="M28.5383 24.5645H25.9902V27.1125H28.5383V24.5645Z" fill="#E85E00" />
  <path d="M31.0866 24.5645H28.5386V27.1125H31.0866V24.5645Z" fill="#E85E00" />
  <path d="M33.6345 24.5645H31.0864V27.1125H33.6345V24.5645Z" fill="#E85E00" />
  <path d="M36.1823 24.5645H33.6343V27.1125H36.1823V24.5645Z" fill="#E85E00" />
  <path d="M38.7307 24.5645H36.1826V27.1125H38.7307V24.5645Z" fill="#FFC700" />
  <path d="M41.279 24.5645H38.731V27.1125H41.279V24.5645Z" fill="#FFC700" />
  <path d="M15.7981 27.1113H13.25V29.6594H15.7981V27.1113Z" fill="#FFC700" />
  <path d="M18.3464 27.1113H15.7983V29.6594H18.3464V27.1113Z" fill="#FFC700" />
  <path d="M20.8938 27.1113H18.3457V29.6594H20.8938V27.1113Z" fill="#FFC700" />
  <path d="M23.4421 27.1113H20.894V29.6594H23.4421V27.1113Z" fill="#FFC700" />
  <path d="M25.9905 27.1113H23.4424V29.6594H25.9905V27.1113Z" fill="#FFC700" />
  <path d="M28.5383 27.1113H25.9902V29.6594H28.5383V27.1113Z" fill="#FFC700" />
  <path d="M31.0866 27.1113H28.5386V29.6594H31.0866V27.1113Z" fill="#FFC700" />
  <path d="M38.7307 27.1113H36.1826V29.6594H38.7307V27.1113Z" fill="#FFC700" />
  <path d="M41.279 27.1113H38.731V29.6594H41.279V27.1113Z" fill="#FFC700" />
  <path d="M15.7981 29.6602H13.25V32.2082H15.7981V29.6602Z" fill="#FFC700" />
  <path d="M18.3464 29.6602H15.7983V32.2082H18.3464V29.6602Z" fill="#FFC700" />
  <path d="M20.8938 29.6602H18.3457V32.2082H20.8938V29.6602Z" fill="#FFC700" />
  <path d="M23.4421 29.6602H20.894V32.2082H23.4421V29.6602Z" fill="#FFC700" />
  <path d="M25.9905 29.6602H23.4424V32.2082H25.9905V29.6602Z" fill="#FFC700" />
  <path d="M28.5383 29.6602H25.9902V32.2082H28.5383V29.6602Z" fill="#FFC700" />
  <path d="M31.0866 29.6602H28.5386V32.2082H31.0866V29.6602Z" fill="#FFC700" />
  <path d="M38.7307 29.6602H36.1826V32.2082H38.7307V29.6602Z" fill="#FFC700" />
  <path d="M41.279 29.6602H38.731V32.2082H41.279V29.6602Z" fill="#FFC700" />
  <path d="M20.8938 32.207H18.3457V34.7551H20.8938V32.207Z" fill="#FFC700" />
  <path d="M23.4421 32.207H20.894V34.7551H23.4421V32.207Z" fill="#FFC700" />
  <path d="M25.9905 32.207H23.4424V34.7551H25.9905V32.207Z" fill="#E85E00" />
  <path d="M28.5383 32.207H25.9902V34.7551H28.5383V32.207Z" fill="#E85E00" />
  <path d="M31.0866 32.207H28.5386V34.7551H31.0866V32.207Z" fill="#E85E00" />
  <path d="M38.7307 32.207H36.1826V34.7551H38.7307V32.207Z" fill="#FFC700" />
  <path d="M41.279 32.207H38.731V34.7551H41.279V32.207Z" fill="#FFC700" />
  <path d="M20.8938 34.7559H18.3457V37.3039H20.8938V34.7559Z" fill="#FFC700" />
  <path d="M23.4421 34.7559H20.894V37.3039H23.4421V34.7559Z" fill="#FFC700" />
  <path d="M25.9905 34.7559H23.4424V37.3039H25.9905V34.7559Z" fill="#FFC700" />
  <path d="M28.5383 34.7559H25.9902V37.3039H28.5383V34.7559Z" fill="#FFC700" />
  <path d="M31.0866 34.7559H28.5386V37.3039H31.0866V34.7559Z" fill="#FFC700" />
  <path d="M33.6345 34.7559H31.0864V37.3039H33.6345V34.7559Z" fill="#FFC700" />
  <path d="M36.1823 34.7559H33.6343V37.3039H36.1823V34.7559Z" fill="#FFC700" />
  <path d="M38.7307 34.7559H36.1826V37.3039H38.7307V34.7559Z" fill="#E85E00" />
  <path d="M41.279 34.7559H38.731V37.3039H41.279V34.7559Z" fill="#E85E00" />
  <path d="M20.8938 37.3027H18.3457V39.8508H20.8938V37.3027Z" fill="#FFC700" />
  <path d="M23.4421 37.3027H20.894V39.8508H23.4421V37.3027Z" fill="#FFC700" />
  <path d="M25.9905 37.3027H23.4424V39.8508H25.9905V37.3027Z" fill="#FFC700" />
  <path d="M28.5383 37.3027H25.9902V39.8508H28.5383V37.3027Z" fill="#FFC700" />
  <path d="M31.0866 37.3027H28.5386V39.8508H31.0866V37.3027Z" fill="#FFC700" />
  <path d="M33.6345 37.3027H31.0864V39.8508H33.6345V37.3027Z" fill="#FFC700" />
  <path d="M36.1823 37.3027H33.6343V39.8508H36.1823V37.3027Z" fill="#FFC700" />
  <path d="M20.8938 39.8516H18.3457V42.3996H20.8938V39.8516Z" fill="#E85E00" />
  <path d="M23.4421 39.8516H20.894V42.3996H23.4421V39.8516Z" fill="#E85E00" />
  <path d="M25.9905 39.8516H23.4424V42.3996H25.9905V39.8516Z" fill="#E85E00" />
  <path d="M28.5383 39.8516H25.9902V42.3996H28.5383V39.8516Z" fill="#E85E00" />
  <path d="M31.0866 39.8516H28.5386V42.3996H31.0866V39.8516Z" fill="#E85E00" />
  <path d="M33.6345 39.8516H31.0864V42.3996H33.6345V39.8516Z" fill="#E85E00" />
  <path d="M36.1823 39.8516H33.6343V42.3996H36.1823V39.8516Z" fill="#E85E00" />
  <defs>
    <filter id="filter0_d_1039_539429" x="0" y="0" width="56.1176" height="56.1176" filterUnits="userSpaceOnUse"
      color-interpolation-filters="sRGB">
      <feFlood flood-opacity="0" result="BackgroundImageFix" />
      <feColorMatrix in="SourceAlpha" type="matrix" values="0 0 0 0 0 0 0 0 0 0 0 0 0 0 0 0 0 0 127 0"
        result="hardAlpha" />
      <feOffset dx="3.11765" dy="3.11765" />
      <feComposite in2="hardAlpha" operator="out" />
      <feColorMatrix type="matrix" values="0 0 0 0 0 0 0 0 0 0 0 0 0 0 0 0 0 0 0.13 0" />
      <feBlend mode="normal" in2="BackgroundImageFix" result="effect1_dropShadow_1039_539429" />
      <feBlend mode="normal" in="SourceGraphic" in2="effect1_dropShadow_1039_539429" result="shape" />
    </filter>
  </defs>
</svg>