<svg width="29" height="29" viewBox="0 0 29 29" fill="none" xmlns="http://www.w3.org/2000/svg">
<rect width="29" height="29" fill="#FF8A00"/>
<path d="M14.075 6H16.2V8.125H17.9V18.75H19.175V16.625H20.875V14.5H23V16.625H21.3V18.75H19.6V20.875H17.475V18.75H15.775V8.125H14.075V6Z" fill="white"/>
<path d="M11.525 8.125H9.4V10.25H7.7V12.375H6V14.5H8.125V12.375H9.825V10.25H11.1V20.875H12.8V23H14.925V20.875H13.225V10.25H11.525V8.125Z" fill="white"/>
<rect width="4" height="4" fill="#DB8301"/>
<rect y="25" width="4" height="4" fill="#DB8301"/>
<rect x="25" y="25" width="4" height="4" fill="#DB8301"/>
<rect x="25" width="4" height="4" fill="#DB8301"/>
</svg>
