<svg width="20" height="16" viewBox="0 0 20 16" xmlns="http://www.w3.org/2000/svg">
<path d="M16.8552 2.10884C15.6307 1.558 14.3184 1.15123 12.9462 0.920521C12.934 0.918187 12.9213 0.91971 12.91 0.924881C12.8987 0.930051 12.8893 0.938612 12.883 0.949379C12.7153 1.24473 12.5285 1.62969 12.3976 1.9338C10.9423 1.71776 9.46298 1.71914 8.0081 1.9379C7.86166 1.60114 7.69657 1.27279 7.5136 0.954392C7.50739 0.943505 7.49802 0.934767 7.48672 0.929346C7.47542 0.923925 7.46274 0.922078 7.45037 0.924052C6.07943 1.15733 4.76785 1.56654 3.5436 2.12047C3.53307 2.1249 3.52414 2.13244 3.51802 2.14209C1.03191 5.80431 0.352862 9.37444 0.691343 12.8988C0.692284 12.9075 0.694971 12.9158 0.699242 12.9234C0.703512 12.9309 0.709276 12.9375 0.716184 12.9428C2.17024 13.9993 3.7917 14.8037 5.51267 15.3223C5.52467 15.3259 5.53749 15.3259 5.54948 15.3222C5.56146 15.3185 5.57205 15.3112 5.57985 15.3014C5.94961 14.8059 6.27719 14.2803 6.55915 13.7301C6.56307 13.7226 6.56532 13.7143 6.56576 13.7059C6.56619 13.6974 6.56481 13.6889 6.56169 13.681C6.55857 13.6731 6.5538 13.666 6.54769 13.6601C6.54158 13.6543 6.53427 13.6498 6.52628 13.647C6.00931 13.4528 5.50837 13.2184 5.02806 12.946C5.01943 12.9411 5.01216 12.9341 5.00689 12.9257C5.00162 12.9172 4.99853 12.9076 4.99789 12.8977C4.99724 12.8878 4.99907 12.8779 5.0032 12.8689C5.00734 12.8598 5.01365 12.852 5.02157 12.846C5.1223 12.7715 5.22302 12.6938 5.31895 12.6161C5.32758 12.6091 5.33799 12.6047 5.349 12.6032C5.36002 12.6018 5.37121 12.6035 5.38134 12.6081C8.52416 14.0163 11.9265 14.0131 15.0299 12.599C15.04 12.5942 15.0513 12.5923 15.0625 12.5935C15.0737 12.5948 15.0843 12.5992 15.0931 12.6062C15.1891 12.6845 15.2892 12.762 15.3909 12.8363C15.3989 12.8421 15.4053 12.8499 15.4096 12.8588C15.4139 12.8678 15.4159 12.8777 15.4154 12.8876C15.4149 12.8975 15.412 12.9071 15.4069 12.9156C15.4018 12.9241 15.3947 12.9312 15.3862 12.9363C14.908 13.2119 14.4107 13.4452 13.8885 13.6393C13.8804 13.6422 13.8731 13.6468 13.867 13.6528C13.8609 13.6587 13.8562 13.6659 13.8531 13.6739C13.85 13.6818 13.8486 13.6904 13.8491 13.6989C13.8495 13.7074 13.8518 13.7157 13.8557 13.7233C14.1442 14.2726 14.4743 14.7955 14.8372 15.2919C14.8447 15.3021 14.8552 15.3097 14.8673 15.3137C14.8793 15.3177 14.8923 15.3179 14.9044 15.3143C16.6273 14.794 18.2499 13.9862 19.7036 12.9251C19.7107 12.9201 19.7167 12.9137 19.7211 12.9062C19.7255 12.8988 19.7282 12.8905 19.7292 12.8818C20.1254 8.80639 19.0517 5.2667 16.88 2.13121C16.8747 2.12102 16.8659 2.11308 16.8552 2.10884ZM7.02595 10.7466C6.08038 10.7475 5.29961 9.893 5.29863 8.84424C5.29765 7.79467 6.06163 6.93958 7.0224 6.93868C7.99037 6.93778 8.76395 7.79863 8.74972 8.84101C8.7507 9.89058 7.98673 10.7457 7.02595 10.7466ZM13.4058 10.7406C12.4594 10.7415 11.6794 9.88705 11.6784 8.83828C11.6775 7.78871 12.4406 6.93362 13.4022 6.93272C14.3702 6.93182 15.1438 7.79267 15.1295 8.83506C15.1305 9.88463 14.3745 10.7397 13.4058 10.7406Z"/>
</svg>
