<svg width="36" height="36" viewBox="0 0 36 36" fill="none" xmlns="http://www.w3.org/2000/svg">
<g id="Frame 1103">
<path id="Union" fill-rule="evenodd" clip-rule="evenodd" d="M22.7371 7H13.0529V9.42105H22.7366V11.8421H25.1576V9.42103H22.7371V7ZM5.78906 14.2632L5.78906 22.7369H8.21011V14.2632H5.78906ZM10.6309 9.42103H13.0519V11.8421H10.6309V9.42103ZM10.6314 25.1579H13.0519V27.5789H10.6309V25.1579H8.21035V22.7369H10.6314V25.1579ZM10.6314 11.8421H8.21035V14.2632H10.6314V11.8421ZM25.1579 11.8421H27.5789V14.2632H25.1579V11.8421ZM17.8945 11.8421H17.8948H19.1052H20.3158V16.6842H19.1052V20.3158H16.6841V16.6842H15.4735V11.8421H16.6841H17.8945ZM19.1052 25.1579H16.6841V22.7368H19.1052V25.1579ZM22.7366 30H13.0524V27.5789L22.7366 27.5789V30ZM30.0005 22.7368V14.2631L27.5794 14.2631L27.5794 22.7368H30.0005ZM25.1579 27.579H22.7368V25.1579H25.1579V27.579ZM25.1574 25.1579H27.5784V22.7368H25.1574V25.1579Z" fill="#FF1F00"/>
</g>
</svg>
