<svg width="21" height="19" viewBox="0 0 21 19" fill="none" xmlns="http://www.w3.org/2000/svg">
<g clip-path="url(#clip0_981_281025)">
<path d="M6.3332 -0.000976562L4.75 -0.000976562L4.75 1.58223L6.3332 1.58223L6.3332 -0.000976562Z" fill="#FFF4BC"/>
<path d="M7.91621 -0.000976562L6.33301 -0.000976562L6.33301 1.58223L7.91621 1.58223L7.91621 -0.000976562Z" fill="white"/>
<path d="M9.49971 -0.000976562L7.9165 -0.000976562L7.9165 1.58223L9.49971 1.58223L9.49971 -0.000976562Z" fill="#FFF4BC"/>
<path d="M11.0832 0L9.5 0L9.5 1.5832L11.0832 1.5832L11.0832 0Z" fill="#FFF4BC"/>
<path d="M12.6662 -0.000976562L11.083 -0.000976562L11.083 1.58223L12.6662 1.58223L12.6662 -0.000976562Z" fill="#FFF4BC"/>
<path d="M14.2497 -0.000976562L12.6665 -0.000976562L12.6665 1.58223L14.2497 1.58223L14.2497 -0.000976562Z" fill="#E85E00"/>
<path d="M15.8332 -0.000976562L14.25 -0.000976562L14.25 1.58223L15.8332 1.58223L15.8332 -0.000976562Z" fill="#E85E00"/>
<path d="M4.74971 1.58301L3.1665 1.58301L3.1665 3.16621L4.74971 3.16621L4.74971 1.58301Z" fill="white"/>
<path d="M6.3332 1.58301L4.75 1.58301L4.75 3.16621L6.3332 3.16621L6.3332 1.58301Z" fill="#E57716"/>
<path d="M7.91621 1.58203L6.33301 1.58203L6.33301 3.16523L7.91621 3.16523L7.91621 1.58203Z" fill="#FFC700"/>
<path d="M9.49971 1.58301L7.9165 1.58301L7.9165 3.16621L9.49971 3.16621L9.49971 1.58301Z" fill="#FFC700"/>
<path d="M11.0832 1.58301L9.5 1.58301L9.5 3.16621L11.0832 3.16621L11.0832 1.58301Z" fill="#FFC700"/>
<path d="M12.6662 1.58301L11.083 1.58301L11.083 3.16621L12.6662 3.16621L12.6662 1.58301Z" fill="#FFC700"/>
<path d="M14.2497 1.58301L12.6665 1.58301L12.6665 3.16621L14.2497 3.16621L14.2497 1.58301Z" fill="#FFF4BC"/>
<path d="M15.8332 1.58203L14.25 1.58203L14.25 3.16523L15.8332 3.16523L15.8332 1.58203Z" fill="#E85E00"/>
<path d="M17.4162 1.58301L15.833 1.58301L15.833 3.16621L17.4162 3.16621L17.4162 1.58301Z" fill="#E85E00"/>
<path d="M3.1667 3.16602L1.5835 3.16602L1.5835 4.74922L3.1667 4.74922L3.1667 3.16602Z" fill="white"/>
<path d="M4.74971 3.16699L3.1665 3.16699L3.1665 4.75019L4.74971 4.75019L4.74971 3.16699Z" fill="#E57716"/>
<path d="M6.3332 3.16602L4.75 3.16602L4.75 4.74922L6.3332 4.74922L6.3332 3.16602Z" fill="#FFC700"/>
<path d="M7.91621 3.16602L6.33301 3.16602L6.33301 4.74922L7.91621 4.74922L7.91621 3.16602Z" fill="#FFC700"/>
<path d="M9.49971 3.16602L7.9165 3.16602L7.9165 4.74922L9.49971 4.74922L9.49971 3.16602Z" fill="#E57716"/>
<path d="M11.0832 3.16602L9.5 3.16602L9.5 4.74922L11.0832 4.74922L11.0832 3.16602Z" fill="#E85E00"/>
<path d="M12.6662 3.16699L11.083 3.16699L11.083 4.75019L12.6662 4.75019L12.6662 3.16699Z" fill="#FFC700"/>
<path d="M14.2497 3.16602L12.6665 3.16602L12.6665 4.74922L14.2497 4.74922L14.2497 3.16602Z" fill="#FFC700"/>
<path d="M15.8332 3.16602L14.25 3.16602L14.25 4.74922L15.8332 4.74922L15.8332 3.16602Z" fill="#FFF4BC"/>
<path d="M17.4162 3.16699L15.833 3.16699L15.833 4.75019L17.4162 4.75019L17.4162 3.16699Z" fill="#E85E00"/>
<path d="M18.9997 3.16602L17.4165 3.16602L17.4165 4.74922L18.9997 4.74922L18.9997 3.16602Z" fill="#E85E00"/>
<path d="M3.16621 4.75L1.58301 4.75L1.58301 6.3332L3.16621 6.3332L3.16621 4.75Z" fill="white"/>
<path d="M4.74971 4.75L3.1665 4.75L3.1665 6.3332L4.74971 6.3332L4.74971 4.75Z" fill="#E57716"/>
<path d="M6.3332 4.75L4.75 4.75L4.75 6.3332L6.3332 6.3332L6.3332 4.75Z" fill="#FFC700"/>
<path d="M7.91621 4.75L6.33301 4.75L6.33301 6.3332L7.91621 6.3332L7.91621 4.75Z" fill="#E57716"/>
<path d="M9.49971 4.74902L7.9165 4.74902L7.9165 6.33223L9.49971 6.33223L9.49971 4.74902Z" fill="#FFC700"/>
<path d="M11.0832 4.75L9.5 4.75L9.5 6.3332L11.0832 6.3332L11.0832 4.75Z" fill="#FFC700"/>
<path d="M12.6662 4.75L11.083 4.75L11.083 6.3332L12.6662 6.3332L12.6662 4.75Z" fill="#E85E00"/>
<path d="M14.2497 4.74902L12.6665 4.74902L12.6665 6.33223L14.2497 6.33223L14.2497 4.74902Z" fill="#FFF4BC"/>
<path d="M15.8332 4.75L14.25 4.75L14.25 6.3332L15.8332 6.3332L15.8332 4.75Z" fill="#FFC700"/>
<path d="M17.4167 4.75L15.8335 4.75L15.8335 6.3332L17.4167 6.3332L17.4167 4.75Z" fill="#E85E00"/>
<path d="M18.9997 4.75L17.4165 4.75L17.4165 6.3332L18.9997 6.3332L18.9997 4.75Z" fill="#E85E00"/>
<path d="M1.5832 6.33203L0 6.33203L0 7.91523L1.5832 7.91523L1.5832 6.33203Z" fill="white"/>
<path d="M3.1667 6.33301L1.5835 6.33301L1.5835 7.91621L3.1667 7.91621L3.1667 6.33301Z" fill="#E57716"/>
<path d="M4.74971 6.33203L3.1665 6.33203L3.1665 7.91523L4.74971 7.91523L4.74971 6.33203Z" fill="#FFC700"/>
<path d="M6.3332 6.33203L4.75 6.33203L4.75 7.91523L6.3332 7.91523L6.3332 6.33203Z" fill="#FFC700"/>
<path d="M7.91621 6.33301L6.33301 6.33301L6.33301 7.91621L7.91621 7.91621L7.91621 6.33301Z" fill="#E57716"/>
<path d="M9.49971 6.33203L7.9165 6.33203L7.9165 7.91523L9.49971 7.91523L9.49971 6.33203Z" fill="#FFC700"/>
<path d="M11.0832 6.33203L9.5 6.33203L9.5 7.91523L11.0832 7.91523L11.0832 6.33203Z" fill="#FFF4BC"/>
<path d="M12.6662 6.33301L11.083 6.33301L11.083 7.91621L12.6662 7.91621L12.6662 6.33301Z" fill="#E85E00"/>
<path d="M14.2497 6.33203L12.6665 6.33203L12.6665 7.91523L14.2497 7.91523L14.2497 6.33203Z" fill="white"/>
<path d="M15.8332 6.33301L14.25 6.33301L14.25 7.91621L15.8332 7.91621L15.8332 6.33301Z" fill="#FFC700"/>
<path d="M17.4162 6.33203L15.833 6.33203L15.833 7.91523L17.4162 7.91523L17.4162 6.33203Z" fill="#FFF4BC"/>
<path d="M18.9997 6.33203L17.4165 6.33203L17.4165 7.91523L18.9997 7.91523L18.9997 6.33203Z" fill="#E85E00"/>
<path d="M20.5832 6.33301L19 6.33301L19 7.91621L20.5832 7.91621L20.5832 6.33301Z" fill="#E85E00"/>
<path d="M1.5832 7.91602L0 7.91602L0 9.49922L1.5832 9.49922L1.5832 7.91602Z" fill="#FFF4BC"/>
<path d="M3.16621 7.91602L1.58301 7.91602L1.58301 9.49922L3.16621 9.49922L3.16621 7.91602Z" fill="#E57716"/>
<path d="M4.74971 7.91699L3.1665 7.91699L3.1665 9.50019L4.74971 9.50019L4.74971 7.91699Z" fill="#FFC700"/>
<path d="M6.3332 7.91602L4.75 7.91602L4.75 9.49922L6.3332 9.49922L6.3332 7.91602Z" fill="#E57716"/>
<path d="M7.91621 7.91699L6.33301 7.91699L6.33301 9.50019L7.91621 9.50019L7.91621 7.91699Z" fill="#FFC700"/>
<path d="M9.49971 7.91699L7.9165 7.91699L7.9165 9.50019L9.49971 9.50019L9.49971 7.91699Z" fill="#FFF4BC"/>
<path d="M11.0832 7.91602L9.5 7.91602L9.5 9.49922L11.0832 9.49922L11.0832 7.91602Z" fill="white"/>
<path d="M12.6662 7.91699L11.083 7.91699L11.083 9.50019L12.6662 9.50019L12.6662 7.91699Z" fill="#FFF4BC"/>
<path d="M14.2497 7.91699L12.6665 7.91699L12.6665 9.50019L14.2497 9.50019L14.2497 7.91699Z" fill="#E85E00"/>
<path d="M15.8332 7.91602L14.25 7.91602L14.25 9.49922L15.8332 9.49922L15.8332 7.91602Z" fill="#FFC700"/>
<path d="M17.4167 7.91699L15.8335 7.91699L15.8335 9.50019L17.4167 9.50019L17.4167 7.91699Z" fill="#FFF4BC"/>
<path d="M18.9997 7.91602L17.4165 7.91602L17.4165 9.49922L18.9997 9.49922L18.9997 7.91602Z" fill="#E85E00"/>
<path d="M20.5832 7.91699L19 7.91699L19 9.50019L20.5832 9.50019L20.5832 7.91699Z" fill="#E85E00"/>
<path d="M1.5832 9.49902L0 9.49902L0 11.0822L1.5832 11.0822L1.5832 9.49902Z" fill="white"/>
<path d="M3.1667 9.49902L1.5835 9.49902L1.5835 11.0822L3.1667 11.0822L3.1667 9.49902Z" fill="#E57716"/>
<path d="M4.74971 9.5L3.1665 9.5L3.1665 11.0832L4.74971 11.0832L4.74971 9.5Z" fill="#FFC700"/>
<path d="M6.3332 9.49902L4.75 9.49902L4.75 11.0822L6.3332 11.0822L6.3332 9.49902Z" fill="#E85E00"/>
<path d="M7.91621 9.49902L6.33301 9.49902L6.33301 11.0822L7.91621 11.0822L7.91621 9.49902Z" fill="#FFF4BC"/>
<path d="M9.49971 9.5L7.9165 9.5L7.9165 11.0832L9.49971 11.0832L9.49971 9.5Z" fill="white"/>
<path d="M11.0832 9.49902L9.5 9.49902L9.5 11.0822L11.0832 11.0822L11.0832 9.49902Z" fill="#FFF4BC"/>
<path d="M12.6662 9.49902L11.083 9.49902L11.083 11.0822L12.6662 11.0822L12.6662 9.49902Z" fill="#FFC700"/>
<path d="M14.2497 9.49902L12.6665 9.49902L12.6665 11.0822L14.2497 11.0822L14.2497 9.49902Z" fill="#E57716"/>
<path d="M15.8332 9.49902L14.25 9.49902L14.25 11.0822L15.8332 11.0822L15.8332 9.49902Z" fill="#FFC700"/>
<path d="M17.4162 9.5L15.833 9.5L15.833 11.0832L17.4162 11.0832L17.4162 9.5Z" fill="white"/>
<path d="M18.9997 9.49902L17.4165 9.49902L17.4165 11.0822L18.9997 11.0822L18.9997 9.49902Z" fill="#E85E00"/>
<path d="M20.5832 9.49902L19 9.49902L19 11.0822L20.5832 11.0822L20.5832 9.49902Z" fill="#E85E00"/>
<path d="M1.5832 11.082L0 11.082L0 12.6652L1.5832 12.6652L1.5832 11.082Z" fill="#FFC700"/>
<path d="M3.16621 11.083L1.58301 11.083L1.58301 12.6662L3.16621 12.6662L3.16621 11.083Z" fill="#E57716"/>
<path d="M4.74971 11.083L3.1665 11.083L3.1665 12.6662L4.74971 12.6662L4.74971 11.083Z" fill="#FFF4BC"/>
<path d="M6.3332 11.082L4.75 11.082L4.75 12.6652L6.3332 12.6652L6.3332 11.082Z" fill="white"/>
<path d="M7.91621 11.083L6.33301 11.083L6.33301 12.6662L7.91621 12.6662L7.91621 11.083Z" fill="#E85E00"/>
<path d="M9.49971 11.083L7.9165 11.083L7.9165 12.6662L9.49971 12.6662L9.49971 11.083Z" fill="#FFF4BC"/>
<path d="M11.0832 11.083L9.5 11.083L9.5 12.6662L11.0832 12.6662L11.0832 11.083Z" fill="#FFC700"/>
<path d="M12.6662 11.083L11.083 11.083L11.083 12.6662L12.6662 12.6662L12.6662 11.083Z" fill="#E57716"/>
<path d="M14.2497 11.082L12.6665 11.082L12.6665 12.6652L14.2497 12.6652L14.2497 11.082Z" fill="#FFC700"/>
<path d="M15.8332 11.083L14.25 11.083L14.25 12.6662L15.8332 12.6662L15.8332 11.083Z" fill="#FFC700"/>
<path d="M17.4167 11.083L15.8335 11.083L15.8335 12.6662L17.4167 12.6662L17.4167 11.083Z" fill="#FFF4BC"/>
<path d="M18.9997 11.082L17.4165 11.082L17.4165 12.6652L18.9997 12.6652L18.9997 11.082Z" fill="#E85E00"/>
<path d="M20.5832 11.083L19 11.083L19 12.6662L20.5832 12.6662L20.5832 11.083Z" fill="#E85E00"/>
<path d="M3.1667 12.665L1.5835 12.665L1.5835 14.2482L3.1667 14.2482L3.1667 12.665Z" fill="#FFF4BC"/>
<path d="M4.74971 12.666L3.1665 12.666L3.1665 14.2492L4.74971 14.2492L4.74971 12.666Z" fill="#E57716"/>
<path d="M6.3332 12.667L4.75 12.667L4.75 14.2502L6.3332 14.2502L6.3332 12.667Z" fill="white"/>
<path d="M7.91621 12.666L6.33301 12.666L6.33301 14.2492L7.91621 14.2492L7.91621 12.666Z" fill="#E85E00"/>
<path d="M9.49971 12.666L7.9165 12.666L7.9165 14.2492L9.49971 14.2492L9.49971 12.666Z" fill="#FFC700"/>
<path d="M11.0832 12.665L9.5 12.665L9.5 14.2482L11.0832 14.2482L11.0832 12.665Z" fill="#FFC700"/>
<path d="M12.6662 12.666L11.083 12.666L11.083 14.2492L12.6662 14.2492L12.6662 12.666Z" fill="#E57716"/>
<path d="M14.2497 12.666L12.6665 12.666L12.6665 14.2492L14.2497 14.2492L14.2497 12.666Z" fill="#FFC700"/>
<path d="M15.8332 12.665L14.25 12.665L14.25 14.2482L15.8332 14.2482L15.8332 12.665Z" fill="white"/>
<path d="M17.4162 12.666L15.833 12.666L15.833 14.2492L17.4162 14.2492L17.4162 12.666Z" fill="#E85E00"/>
<path d="M18.9997 12.666L17.4165 12.666L17.4165 14.2492L18.9997 14.2492L18.9997 12.666Z" fill="#E85E00"/>
<path d="M3.16621 14.249L1.58301 14.249L1.58301 15.8322L3.16621 15.8322L3.16621 14.249Z" fill="#FFC700"/>
<path d="M4.74971 14.25L3.1665 14.25L3.1665 15.8332L4.74971 15.8332L4.74971 14.25Z" fill="#E57716"/>
<path d="M6.3332 14.25L4.75 14.25L4.75 15.8332L6.3332 15.8332L6.3332 14.25Z" fill="#FFF4BC"/>
<path d="M7.91621 14.249L6.33301 14.249L6.33301 15.8322L7.91621 15.8322L7.91621 14.249Z" fill="#FFC700"/>
<path d="M9.49971 14.25L7.9165 14.25L7.9165 15.8332L9.49971 15.8332L9.49971 14.25Z" fill="#E85E00"/>
<path d="M11.0832 14.249L9.5 14.249L9.5 15.8322L11.0832 15.8322L11.0832 14.249Z" fill="#E57716"/>
<path d="M12.6662 14.25L11.083 14.25L11.083 15.8332L12.6662 15.8332L12.6662 14.25Z" fill="#FFC700"/>
<path d="M14.2497 14.25L12.6665 14.25L12.6665 15.8332L14.2497 15.8332L14.2497 14.25Z" fill="#FFC700"/>
<path d="M15.8332 14.249L14.25 14.249L14.25 15.8322L15.8332 15.8322L15.8332 14.249Z" fill="white"/>
<path d="M17.4167 14.25L15.8335 14.25L15.8335 15.8332L17.4167 15.8332L17.4167 14.25Z" fill="#E85E00"/>
<path d="M18.9997 14.25L17.4165 14.25L17.4165 15.8332L18.9997 15.8332L18.9997 14.25Z" fill="#E85E00"/>
<path d="M4.74971 15.832L3.1665 15.832L3.1665 17.4152L4.74971 17.4152L4.74971 15.832Z" fill="#FFC700"/>
<path d="M6.3332 15.833L4.75 15.833L4.75 17.4162L6.3332 17.4162L6.3332 15.833Z" fill="#E57716"/>
<path d="M7.91621 15.833L6.33301 15.833L6.33301 17.4162L7.91621 17.4162L7.91621 15.833Z" fill="#FFC700"/>
<path d="M9.49971 15.833L7.9165 15.833L7.9165 17.4162L9.49971 17.4162L9.49971 15.833Z" fill="#FFC700"/>
<path d="M11.0832 15.833L9.5 15.833L9.5 17.4162L11.0832 17.4162L11.0832 15.833Z" fill="#FFC700"/>
<path d="M12.6662 15.834L11.083 15.834L11.083 17.4172L12.6662 17.4172L12.6662 15.834Z" fill="#FFC700"/>
<path d="M14.2497 15.833L12.6665 15.833L12.6665 17.4162L14.2497 17.4162L14.2497 15.833Z" fill="white"/>
<path d="M15.8332 15.833L14.25 15.833L14.25 17.4162L15.8332 17.4162L15.8332 15.833Z" fill="#E85E00"/>
<path d="M17.4162 15.832L15.833 15.832L15.833 17.4152L17.4162 17.4152L17.4162 15.832Z" fill="#E85E00"/>
<path d="M6.3332 17.417L4.75 17.417L4.75 19.0002L6.3332 19.0002L6.3332 17.417Z" fill="#E57716"/>
<path d="M7.91621 17.417L6.33301 17.417L6.33301 19.0002L7.91621 19.0002L7.91621 17.417Z" fill="#E57716"/>
<path d="M9.49971 17.416L7.9165 17.416L7.9165 18.9992L9.49971 18.9992L9.49971 17.416Z" fill="#E57716"/>
<path d="M11.0832 17.417L9.5 17.417L9.5 19.0002L11.0832 19.0002L11.0832 17.417Z" fill="#E57716"/>
<path d="M12.6662 17.416L11.083 17.416L11.083 18.9992L12.6662 18.9992L12.6662 17.416Z" fill="#E57716"/>
<path d="M14.2497 17.416L12.6665 17.416L12.6665 18.9992L14.2497 18.9992L14.2497 17.416Z" fill="#E85E00"/>
<path d="M15.8332 17.417L14.25 17.417L14.25 19.0002L15.8332 19.0002L15.8332 17.417Z" fill="#E85E00"/>
</g>
<defs>
<clipPath id="clip0_981_281025">
<rect width="20.5835" height="18.9999" fill="white"/>
</clipPath>
</defs>
</svg>
