<svg width="101" height="60" viewBox="0 0 101 60" fill="none" xmlns="http://www.w3.org/2000/svg"  preserveAspectRatio="none">
<rect x="6" y="6" width="89" height="48" fill="#FFC700"/>
<rect x="6" width="89" height="3" fill="#6B001E"/>
<rect x="6" y="3" width="89" height="3" fill="#FF6B00"/>
<rect x="3" y="3" width="3" height="3" fill="#6B001E"/>
<rect width="3" height="3" transform="matrix(-1 0 0 1 98 3)" fill="#6B001E"/>
<rect x="3" y="54" width="3" height="3" fill="#6B001E"/>
<rect width="3" height="3" transform="matrix(-1 0 0 1 98 54)" fill="#6B001E"/>
<rect x="6" y="57" width="89" height="3" fill="#6B001E"/>
<rect x="6" y="54" width="89" height="3" fill="#FF6B00"/>
<rect width="3" height="48" transform="matrix(-1 0 0 1 3 6)" fill="#6B001E"/>
<rect width="3" height="48" transform="matrix(-1 0 0 1 6 6)" fill="#FF6B00"/>
<rect x="95" y="6" width="3" height="48" fill="#FF6B00"/>
<rect width="3" height="48" transform="matrix(-1 0 0 1 101 6)" fill="#6B001E"/>
</svg>
