<svg width="169" height="82" viewBox="0 0 169 82" fill="none" xmlns="http://www.w3.org/2000/svg">
  <rect x="6.71533" width="155.57" height="4.16949" fill="#6B001E" />
  <rect x="6.71533" y="4.16992" width="155.57" height="4.16949" fill="#FF6B00" />
  <rect x="3.35742" y="5.55859" width="3.35762" height="4.16949" fill="#6B001E" />
  <rect width="3.35762" height="4.16949" transform="matrix(-1 0 0 1 165.643 4.16992)" fill="#6B001E" />
  <rect x="3.35742" y="73.6602" width="3.35762" height="4.16949" fill="#6B001E" />
  <rect width="3.35762" height="4.16949" transform="matrix(-1 0 0 1 165.643 73.6602)" fill="#6B001E" />
  <rect x="6.71533" y="77.8301" width="155.57" height="4.16949" fill="#6B001E" />
  <rect x="6.71533" y="73.6602" width="155.57" height="4.16949" fill="#FF6B00" />
  <rect width="3.35762" height="63.9322" transform="matrix(-1 0 0 1 3.35742 9.72852)" fill="#6B001E" />
  <rect width="3.35762" height="63.9322" transform="matrix(-1 0 0 1 6.71533 9.72852)" fill="#FF6B00" />
  <rect x="162.285" y="8.33984" width="3.35762" height="65.322" fill="#FF6B00" />
  <rect width="3.35762" height="65.322" transform="matrix(-1 0 0 1 169 8.33984)" fill="#6B001E" />
</svg>