<svg width="162" height="59" viewBox="0 0 162 59" fill="none" xmlns="http://www.w3.org/2000/svg"  preserveAspectRatio="none">
<rect x="6" y="6" width="150" height="47" fill="currentColor"/>
<rect x="6" width="150" height="3" fill="#6B001E"/>
<rect x="6" y="3" width="150" height="3" fill="#FF6B00"/>
<rect x="3" y="3" width="3" height="3" fill="#6B001E"/>
<rect width="3" height="3" transform="matrix(-1 0 0 1 159 3)" fill="#6B001E"/>
<rect x="3" y="53" width="3" height="3" fill="#6B001E"/>
<rect width="3" height="3" transform="matrix(-1 0 0 1 159 53)" fill="#6B001E"/>
<rect x="6" y="56" width="150" height="3" fill="#6B001E"/>
<rect x="6" y="53" width="150" height="3" fill="#FF6B00"/>
<rect width="3" height="47" transform="matrix(-1 0 0 1 3 6)" fill="#6B001E"/>
<rect width="3" height="47" transform="matrix(-1 0 0 1 6 6)" fill="#FF6B00"/>
<rect x="156" y="6" width="3" height="47" fill="#FF6B00"/>
<rect width="3" height="47" transform="matrix(-1 0 0 1 162 6)" fill="#6B001E"/>
</svg>
