<svg width="21" height="13" viewBox="0 0 21 13" xmlns="http://www.w3.org/2000/svg">
<path d="M11.7404 6.42645C11.7434 9.65695 9.11986 12.2789 5.87896 12.2819C5.10971 12.2837 4.34764 12.1339 3.63627 11.8411C2.92491 11.5483 2.27817 11.1183 1.73299 10.5756C1.18781 10.0329 0.754869 9.38811 0.458878 8.67808C0.162886 7.96804 0.00964515 7.20666 0.0079033 6.43741C0.00488591 3.20561 2.62844 0.584958 5.86804 0.581933C6.6374 0.580019 7.39961 0.729683 8.11113 1.02238C8.82264 1.31507 9.46953 1.74506 10.0149 2.28779C10.5602 2.83053 10.9932 3.47536 11.2893 4.18548C11.5854 4.8956 11.7387 5.65709 11.7404 6.42645ZM18.1754 6.42044C18.1782 9.46244 16.8675 11.9285 15.2477 11.93C13.6279 11.9315 12.3126 9.46662 12.3098 6.42592C12.307 3.38392 13.6177 0.917898 15.2375 0.916385C16.8573 0.914873 18.1726 3.37975 18.1754 6.42044ZM20.8079 6.41799C20.8104 9.14279 20.351 11.3519 19.7803 11.3524C19.2109 11.353 18.7473 9.14341 18.7448 6.41991C18.7423 3.69511 19.2017 1.48598 19.7724 1.48545C20.3418 1.48492 20.8053 3.69319 20.8079 6.41799Z" />
</svg>
