<svg width="26" height="26" viewBox="0 0 26 26" fill="none" xmlns="http://www.w3.org/2000/svg">
<path fill-rule="evenodd" clip-rule="evenodd" d="M23.3849 0.395996H2.98491V2.79597H2.78429H0.584961L0.584961 23.1959H2.78429H2.98491V25.5959H23.3849V23.1959H25.7851V2.79597H23.3849V0.395996Z" fill="none"/>
<path fill-rule="evenodd" clip-rule="evenodd" d="M17.6773 8.50282V5.50781H20.6723V8.50282H17.6773ZM14.6825 11.4977V8.50437H17.6775V11.4994H14.6825V14.4927H17.6775V17.4877H14.6825V14.4927H11.6875V11.4978H8.69273L8.69273 8.50282L11.6877 8.50282V11.4977H14.6825ZM8.69273 17.4893V14.4943H11.6877L11.6877 17.4893H8.69273ZM5.69745 17.4889V20.4839H8.69245V17.4889H5.69745ZM20.6723 17.4893H17.6773V20.4843H20.6723V17.4893ZM8.69245 5.50944L5.69745 5.50944V8.50445H8.69245L8.69245 5.50944Z" fill="currentColor"/>
</svg>