<svg width="73" height="110" viewBox="0 0 73 110" fill="none" xmlns="http://www.w3.org/2000/svg">
<g filter="url(#filter0_dd_1049_617535)">
<path d="M14.857 0H7.42847V7.42857H14.857V0Z" fill="black"/>
<path d="M22.2857 0H14.8572V7.42857H22.2857V0Z" fill="black"/>
<path d="M29.7142 0H22.2856V7.42857H29.7142V0Z" fill="black"/>
<path d="M7.42857 7.42773H0V14.8563H7.42857V7.42773Z" fill="black"/>
<path d="M14.857 7.42773H7.42847V14.8563H14.857V7.42773Z" fill="var(--color2)"/>
<path d="M22.2857 7.42773H14.8572V14.8563H22.2857V7.42773Z" fill="var(--color2)"/>
<path d="M29.7142 7.42773H22.2856V14.8563H29.7142V7.42773Z" fill="var(--color2)"/>
<path d="M37.1429 7.42773H29.7144V14.8563H37.1429V7.42773Z" fill="black"/>
<path d="M7.42857 14.8574H0V22.286H7.42857V14.8574Z" fill="black"/>
<path d="M14.857 14.8574H7.42847V22.286H14.857V14.8574Z" fill="var(--color2)"/>
<path d="M22.2857 14.8574H14.8572V22.286H22.2857V14.8574Z" fill="var(--color1)"/>
<path d="M29.7142 14.8574H22.2856V22.286H29.7142V14.8574Z" fill="var(--color1)"/>
<path d="M37.1429 14.8574H29.7144V22.286H37.1429V14.8574Z" fill="var(--color1)"/>
<path d="M44.5714 14.8574H37.1428V22.286H44.5714V14.8574Z" fill="black"/>
<path d="M7.42857 22.2852H0V29.7137H7.42857V22.2852Z" fill="black"/>
<path d="M14.857 22.2852H7.42847V29.7137H14.857V22.2852Z" fill="var(--color2)"/>
<path d="M22.2857 22.2852H14.8572V29.7137H22.2857V22.2852Z" fill="var(--color1)"/>
<path d="M29.7142 22.2852H22.2856V29.7137H29.7142V22.2852Z" fill="var(--color1)"/>
<path d="M37.1429 22.2852H29.7144V29.7137H37.1429V22.2852Z" fill="var(--color1)"/>
<path d="M44.5714 22.2852H37.1428V29.7137H44.5714V22.2852Z" fill="var(--color1)"/>
<path d="M52.0001 22.2852H44.5715V29.7137H52.0001V22.2852Z" fill="black"/>
<path d="M7.42857 29.7148H0V37.1434H7.42857V29.7148Z" fill="black"/>
<path d="M14.857 29.7148H7.42847V37.1434H14.857V29.7148Z" fill="var(--color2)"/>
<path d="M22.2857 29.7148H14.8572V37.1434H22.2857V29.7148Z" fill="var(--color1)"/>
<path d="M29.7142 29.7148H22.2856V37.1434H29.7142V29.7148Z" fill="var(--color1)"/>
<path d="M37.1429 29.7148H29.7144V37.1434H37.1429V29.7148Z" fill="var(--color1)"/>
<path d="M44.5714 29.7148H37.1428V37.1434H44.5714V29.7148Z" fill="var(--color1)"/>
<path d="M52.0001 29.7148H44.5715V37.1434H52.0001V29.7148Z" fill="var(--color1)"/>
<path d="M59.4286 29.7148H52V37.1434H59.4286V29.7148Z" fill="black"/>
<path d="M7.42857 37.1426H0V44.5711H7.42857V37.1426Z" fill="black"/>
<path d="M14.857 37.1426H7.42847V44.5711H14.857V37.1426Z" fill="var(--color2)"/>
<path d="M22.2857 37.1426H14.8572V44.5711H22.2857V37.1426Z" fill="var(--color1)"/>
<path d="M29.7142 37.1426H22.2856V44.5711H29.7142V37.1426Z" fill="var(--color1)"/>
<path d="M37.1429 37.1426H29.7144V44.5711H37.1429V37.1426Z" fill="var(--color1)"/>
<path d="M44.5714 37.1426H37.1428V44.5711H44.5714V37.1426Z" fill="var(--color1)"/>
<path d="M52.0001 37.1426H44.5715V44.5711H52.0001V37.1426Z" fill="var(--color1)"/>
<path d="M59.4286 37.1426H52V44.5711H59.4286V37.1426Z" fill="var(--color3)"/>
<path d="M66.857 37.1426H59.4285V44.5711H66.857V37.1426Z" fill="black"/>
<path d="M7.42857 44.5723H0V52.0008H7.42857V44.5723Z" fill="black"/>
<path d="M14.857 44.5723H7.42847V52.0008H14.857V44.5723Z" fill="var(--color2)"/>
<path d="M22.2857 44.5723H14.8572V52.0008H22.2857V44.5723Z" fill="var(--color1)"/>
<path d="M29.7142 44.5723H22.2856V52.0008H29.7142V44.5723Z" fill="var(--color1)"/>
<path d="M37.1429 44.5723H29.7144V52.0008H37.1429V44.5723Z" fill="var(--color1)"/>
<path d="M44.5714 44.5723H37.1428V52.0008H44.5714V44.5723Z" fill="var(--color1)"/>
<path d="M52.0001 44.5723H44.5715V52.0008H52.0001V44.5723Z" fill="var(--color1)"/>
<path d="M59.4286 44.5723H52V52.0008H59.4286V44.5723Z" fill="var(--color3)"/>
<path d="M66.857 44.5723H59.4285V52.0008H66.857V44.5723Z" fill="black"/>
<path d="M7.42857 52H0V59.4286H7.42857V52Z" fill="black"/>
<path d="M14.857 52H7.42847V59.4286H14.857V52Z" fill="var(--color2)"/>
<path d="M22.2857 52H14.8572V59.4286H22.2857V52Z" fill="var(--color1)"/>
<path d="M29.7142 52H22.2856V59.4286H29.7142V52Z" fill="var(--color1)"/>
<path d="M37.1429 52H29.7144V59.4286H37.1429V52Z" fill="var(--color1)"/>
<path d="M44.5714 52H37.1428V59.4286H44.5714V52Z" fill="var(--color1)"/>
<path d="M52.0001 52H44.5715V59.4286H52.0001V52Z" fill="var(--color1)"/>
<path d="M59.4286 52H52V59.4286H59.4286V52Z" fill="var(--color3)"/>
<path d="M66.857 52H59.4285V59.4286H66.857V52Z" fill="black"/>
<path d="M7.42857 59.4277H0V66.8563H7.42857V59.4277Z" fill="black"/>
<path d="M14.857 59.4277H7.42847V66.8563H14.857V59.4277Z" fill="var(--color2)"/>
<path d="M22.2857 59.4277H14.8572V66.8563H22.2857V59.4277Z" fill="var(--color1)"/>
<path d="M29.7142 59.4277H22.2856V66.8563H29.7142V59.4277Z" fill="var(--color1)"/>
<path d="M37.1429 59.4277H29.7144V66.8563H37.1429V59.4277Z" fill="var(--color1)"/>
<path d="M44.5714 59.4277H37.1428V66.8563H44.5714V59.4277Z" fill="var(--color1)"/>
<path d="M52.0001 59.4277H44.5715V66.8563H52.0001V59.4277Z" fill="var(--color1)"/>
<path d="M59.4286 59.4277H52V66.8563H59.4286V59.4277Z" fill="var(--color3)"/>
<path d="M66.857 59.4277H59.4285V66.8563H66.857V59.4277Z" fill="black"/>
<path d="M7.42857 66.8574H0V74.286H7.42857V66.8574Z" fill="black"/>
<path d="M14.857 66.8574H7.42847V74.286H14.857V66.8574Z" fill="var(--color2)"/>
<path d="M22.2857 66.8574H14.8572V74.286H22.2857V66.8574Z" fill="var(--color1)"/>
<path d="M29.7142 66.8574H22.2856V74.286H29.7142V66.8574Z" fill="var(--color1)"/>
<path d="M37.1429 66.8574H29.7144V74.286H37.1429V66.8574Z" fill="var(--color1)"/>
<path d="M44.5714 66.8574H37.1428V74.286H44.5714V66.8574Z" fill="var(--color1)"/>
<path d="M52.0001 66.8574H44.5715V74.286H52.0001V66.8574Z" fill="var(--color3)"/>
<path d="M59.4286 66.8574H52V74.286H59.4286V66.8574Z" fill="black"/>
<path d="M7.42857 74.2852H0V81.7137H7.42857V74.2852Z" fill="black"/>
<path d="M14.857 74.2852H7.42847V81.7137H14.857V74.2852Z" fill="var(--color2)"/>
<path d="M22.2857 74.2852H14.8572V81.7137H22.2857V74.2852Z" fill="var(--color1)"/>
<path d="M29.7142 74.2852H22.2856V81.7137H29.7142V74.2852Z" fill="var(--color1)"/>
<path d="M37.1429 74.2852H29.7144V81.7137H37.1429V74.2852Z" fill="var(--color1)"/>
<path d="M44.5714 74.2852H37.1428V81.7137H44.5714V74.2852Z" fill="var(--color3)"/>
<path d="M52.0001 74.2852H44.5715V81.7137H52.0001V74.2852Z" fill="black"/>
<path d="M7.42857 81.7148H0V89.1434H7.42857V81.7148Z" fill="black"/>
<path d="M14.857 81.7148H7.42847V89.1434H14.857V81.7148Z" fill="var(--color2)"/>
<path d="M22.2857 81.7148H14.8572V89.1434H22.2857V81.7148Z" fill="var(--color1)"/>
<path d="M29.7142 81.7148H22.2856V89.1434H29.7142V81.7148Z" fill="var(--color1)"/>
<path d="M37.1429 81.7148H29.7144V89.1434H37.1429V81.7148Z" fill="var(--color3)"/>
<path d="M44.5714 81.7148H37.1428V89.1434H44.5714V81.7148Z" fill="black"/>
<path d="M7.42857 89.1426H0V96.5711H7.42857V89.1426Z" fill="black"/>
<path d="M14.857 89.1426H7.42847V96.5711H14.857V89.1426Z" fill="var(--color1)"/>
<path d="M22.2857 89.1426H14.8572V96.5711H22.2857V89.1426Z" fill="var(--color3)"/>
<path d="M29.7142 89.1426H22.2856V96.5711H29.7142V89.1426Z" fill="var(--color3)"/>
<path d="M37.1429 89.1426H29.7144V96.5711H37.1429V89.1426Z" fill="black"/>
<path d="M14.857 96.5723H7.42847V104.001H14.857V96.5723Z" fill="black"/>
<path d="M22.2857 96.5723H14.8572V104.001H22.2857V96.5723Z" fill="black"/>
<path d="M29.7142 96.5723H22.2856V104.001H29.7142V96.5723Z" fill="black"/>
</g>
<defs>
<filter id="filter0_dd_1049_617535" x="0" y="0" width="72.8569" height="110" filterUnits="userSpaceOnUse" color-interpolation-filters="sRGB">
<feFlood flood-opacity="0" result="BackgroundImageFix"/>
<feColorMatrix in="SourceAlpha" type="matrix" values="0 0 0 0 0 0 0 0 0 0 0 0 0 0 0 0 0 0 127 0" result="hardAlpha"/>
<feOffset dx="3" dy="3"/>
<feComposite in2="hardAlpha" operator="out"/>
<feColorMatrix type="matrix" values="0 0 0 0 0 0 0 0 0 0 0 0 0 0 0 0 0 0 0.1 0"/>
<feBlend mode="normal" in2="BackgroundImageFix" result="effect1_dropShadow_1049_617535"/>
<feColorMatrix in="SourceAlpha" type="matrix" values="0 0 0 0 0 0 0 0 0 0 0 0 0 0 0 0 0 0 127 0" result="hardAlpha"/>
<feOffset dx="6" dy="6"/>
<feComposite in2="hardAlpha" operator="out"/>
<feColorMatrix type="matrix" values="0 0 0 0 0 0 0 0 0 0 0 0 0 0 0 0 0 0 0.1 0"/>
<feBlend mode="normal" in2="effect1_dropShadow_1049_617535" result="effect2_dropShadow_1049_617535"/>
<feBlend mode="normal" in="SourceGraphic" in2="effect2_dropShadow_1049_617535" result="shape"/>
</filter>
</defs>
</svg>
