<svg width="73" height="110" viewBox="0 0 73 110" fill="none" xmlns="http://www.w3.org/2000/svg">
<g filter="url(#filter0_dd_1049_617440)">
<path d="M44.5716 0H37.1431V7.42857H44.5716V0Z" fill="black"/>
<path d="M51.9999 0H44.5713V7.42857H51.9999V0Z" fill="black"/>
<path d="M59.4286 0H52V7.42857H59.4286V0Z" fill="black"/>
<path d="M37.1429 7.42773H29.7144V14.8563H37.1429V7.42773Z" fill="black"/>
<path d="M44.5716 7.42773H37.1431V14.8563H44.5716V7.42773Z" fill="var(--color2)"/>
<path d="M51.9999 7.42773H44.5713V14.8563H51.9999V7.42773Z" fill="var(--color2)"/>
<path d="M59.4286 7.42773H52V14.8563H59.4286V7.42773Z" fill="var(--color1)"/>
<path d="M66.857 7.42773H59.4285V14.8563H66.857V7.42773Z" fill="black"/>
<path d="M29.7142 14.8574H22.2856V22.286H29.7142V14.8574Z" fill="black"/>
<path d="M37.1429 14.8574H29.7144V22.286H37.1429V14.8574Z" fill="var(--color2)"/>
<path d="M44.5716 14.8574H37.1431V22.286H44.5716V14.8574Z" fill="var(--color1)"/>
<path d="M51.9999 14.8574H44.5713V22.286H51.9999V14.8574Z" fill="var(--color1)"/>
<path d="M59.4286 14.8574H52V22.286H59.4286V14.8574Z" fill="var(--color3)"/>
<path d="M66.857 14.8574H59.4285V22.286H66.857V14.8574Z" fill="black"/>
<path d="M22.2857 22.2852H14.8572V29.7137H22.2857V22.2852Z" fill="black"/>
<path d="M29.7142 22.2852H22.2856V29.7137H29.7142V22.2852Z" fill="var(--color2)"/>
<path d="M37.1429 22.2852H29.7144V29.7137H37.1429V22.2852Z" fill="var(--color1)"/>
<path d="M44.5716 22.2852H37.1431V29.7137H44.5716V22.2852Z" fill="var(--color1)"/>
<path d="M51.9999 22.2852H44.5713V29.7137H51.9999V22.2852Z" fill="var(--color1)"/>
<path d="M59.4286 22.2852H52V29.7137H59.4286V22.2852Z" fill="var(--color3)"/>
<path d="M66.857 22.2852H59.4285V29.7137H66.857V22.2852Z" fill="black"/>
<path d="M14.857 29.7148H7.42847V37.1434H14.857V29.7148Z" fill="black"/>
<path d="M22.2857 29.7148H14.8572V37.1434H22.2857V29.7148Z" fill="var(--color2)"/>
<path d="M29.7142 29.7148H22.2856V37.1434H29.7142V29.7148Z" fill="var(--color1)"/>
<path d="M37.1429 29.7148H29.7144V37.1434H37.1429V29.7148Z" fill="var(--color1)"/>
<path d="M44.5716 29.7148H37.1431V37.1434H44.5716V29.7148Z" fill="var(--color1)"/>
<path d="M51.9999 29.7148H44.5713V37.1434H51.9999V29.7148Z" fill="var(--color1)"/>
<path d="M59.4286 29.7148H52V37.1434H59.4286V29.7148Z" fill="var(--color3)"/>
<path d="M66.857 29.7148H59.4285V37.1434H66.857V29.7148Z" fill="black"/>
<path d="M7.42857 37.1426H0V44.5711H7.42857V37.1426Z" fill="black"/>
<path d="M14.857 37.1426H7.42847V44.5711H14.857V37.1426Z" fill="var(--color2)"/>
<path d="M22.2857 37.1426H14.8572V44.5711H22.2857V37.1426Z" fill="var(--color1)"/>
<path d="M29.7142 37.1426H22.2856V44.5711H29.7142V37.1426Z" fill="var(--color1)"/>
<path d="M37.1429 37.1426H29.7144V44.5711H37.1429V37.1426Z" fill="var(--color1)"/>
<path d="M44.5716 37.1426H37.1431V44.5711H44.5716V37.1426Z" fill="var(--color1)"/>
<path d="M51.9999 37.1426H44.5713V44.5711H51.9999V37.1426Z" fill="var(--color1)"/>
<path d="M59.4286 37.1426H52V44.5711H59.4286V37.1426Z" fill="var(--color3)"/>
<path d="M66.857 37.1426H59.4285V44.5711H66.857V37.1426Z" fill="black"/>
<path d="M7.42857 44.5723H0V52.0008H7.42857V44.5723Z" fill="black"/>
<path d="M14.857 44.5723H7.42847V52.0008H14.857V44.5723Z" fill="var(--color1)"/>
<path d="M22.2857 44.5723H14.8572V52.0008H22.2857V44.5723Z" fill="var(--color1)"/>
<path d="M29.7142 44.5723H22.2856V52.0008H29.7142V44.5723Z" fill="var(--color1)"/>
<path d="M37.1429 44.5723H29.7144V52.0008H37.1429V44.5723Z" fill="var(--color1)"/>
<path d="M44.5716 44.5723H37.1431V52.0008H44.5716V44.5723Z" fill="var(--color1)"/>
<path d="M51.9999 44.5723H44.5713V52.0008H51.9999V44.5723Z" fill="var(--color1)"/>
<path d="M59.4286 44.5723H52V52.0008H59.4286V44.5723Z" fill="var(--color3)"/>
<path d="M66.857 44.5723H59.4285V52.0008H66.857V44.5723Z" fill="black"/>
<path d="M7.42857 52H0V59.4286H7.42857V52Z" fill="black"/>
<path d="M14.857 52H7.42847V59.4286H14.857V52Z" fill="var(--color1)"/>
<path d="M22.2857 52H14.8572V59.4286H22.2857V52Z" fill="var(--color1)"/>
<path d="M29.7142 52H22.2856V59.4286H29.7142V52Z" fill="var(--color1)"/>
<path d="M37.1429 52H29.7144V59.4286H37.1429V52Z" fill="var(--color1)"/>
<path d="M44.5716 52H37.1431V59.4286H44.5716V52Z" fill="var(--color1)"/>
<path d="M51.9999 52H44.5713V59.4286H51.9999V52Z" fill="var(--color1)"/>
<path d="M59.4286 52H52V59.4286H59.4286V52Z" fill="var(--color3)"/>
<path d="M66.857 52H59.4285V59.4286H66.857V52Z" fill="black"/>
<path d="M7.42857 59.4277H0V66.8563H7.42857V59.4277Z" fill="black"/>
<path d="M14.857 59.4277H7.42847V66.8563H14.857V59.4277Z" fill="var(--color1)"/>
<path d="M22.2857 59.4277H14.8572V66.8563H22.2857V59.4277Z" fill="var(--color1)"/>
<path d="M29.7142 59.4277H22.2856V66.8563H29.7142V59.4277Z" fill="var(--color1)"/>
<path d="M37.1429 59.4277H29.7144V66.8563H37.1429V59.4277Z" fill="var(--color1)"/>
<path d="M44.5716 59.4277H37.1431V66.8563H44.5716V59.4277Z" fill="var(--color1)"/>
<path d="M51.9999 59.4277H44.5713V66.8563H51.9999V59.4277Z" fill="var(--color1)"/>
<path d="M59.4286 59.4277H52V66.8563H59.4286V59.4277Z" fill="var(--color3)"/>
<path d="M66.857 59.4277H59.4285V66.8563H66.857V59.4277Z" fill="black"/>
<path d="M14.857 66.8574H7.42847V74.286H14.857V66.8574Z" fill="black"/>
<path d="M22.2857 66.8574H14.8572V74.286H22.2857V66.8574Z" fill="var(--color3)"/>
<path d="M29.7142 66.8574H22.2856V74.286H29.7142V66.8574Z" fill="var(--color1)"/>
<path d="M37.1429 66.8574H29.7144V74.286H37.1429V66.8574Z" fill="var(--color1)"/>
<path d="M44.5716 66.8574H37.1431V74.286H44.5716V66.8574Z" fill="var(--color1)"/>
<path d="M51.9999 66.8574H44.5713V74.286H51.9999V66.8574Z" fill="var(--color1)"/>
<path d="M59.4286 66.8574H52V74.286H59.4286V66.8574Z" fill="var(--color3)"/>
<path d="M66.857 66.8574H59.4285V74.286H66.857V66.8574Z" fill="black"/>
<path d="M22.2857 74.2852H14.8572V81.7137H22.2857V74.2852Z" fill="black"/>
<path d="M29.7142 74.2852H22.2856V81.7137H29.7142V74.2852Z" fill="var(--color3)"/>
<path d="M37.1429 74.2852H29.7144V81.7137H37.1429V74.2852Z" fill="var(--color1)"/>
<path d="M44.5716 74.2852H37.1431V81.7137H44.5716V74.2852Z" fill="var(--color1)"/>
<path d="M51.9999 74.2852H44.5713V81.7137H51.9999V74.2852Z" fill="var(--color1)"/>
<path d="M59.4286 74.2852H52V81.7137H59.4286V74.2852Z" fill="var(--color3)"/>
<path d="M66.857 74.2852H59.4285V81.7137H66.857V74.2852Z" fill="black"/>
<path d="M29.7142 81.7148H22.2856V89.1434H29.7142V81.7148Z" fill="black"/>
<path d="M37.1429 81.7148H29.7144V89.1434H37.1429V81.7148Z" fill="var(--color3)"/>
<path d="M44.5716 81.7148H37.1431V89.1434H44.5716V81.7148Z" fill="var(--color1)"/>
<path d="M51.9999 81.7148H44.5713V89.1434H51.9999V81.7148Z" fill="var(--color1)"/>
<path d="M59.4286 81.7148H52V89.1434H59.4286V81.7148Z" fill="var(--color3)"/>
<path d="M66.857 81.7148H59.4285V89.1434H66.857V81.7148Z" fill="black"/>
<path d="M37.1429 89.1426H29.7144V96.5711H37.1429V89.1426Z" fill="black"/>
<path d="M44.5716 89.1426H37.1431V96.5711H44.5716V89.1426Z" fill="var(--color3)"/>
<path d="M51.9999 89.1426H44.5713V96.5711H51.9999V89.1426Z" fill="var(--color3)"/>
<path d="M59.4286 89.1426H52V96.5711H59.4286V89.1426Z" fill="var(--color3)"/>
<path d="M66.857 89.1426H59.4285V96.5711H66.857V89.1426Z" fill="black"/>
<path d="M44.5716 96.5723H37.1431V104.001H44.5716V96.5723Z" fill="black"/>
<path d="M51.9999 96.5723H44.5713V104.001H51.9999V96.5723Z" fill="black"/>
<path d="M59.4286 96.5723H52V104.001H59.4286V96.5723Z" fill="black"/>
</g>
<defs>
<filter id="filter0_dd_1049_617440" x="0" y="0" width="72.8569" height="110" filterUnits="userSpaceOnUse" color-interpolation-filters="sRGB">
<feFlood flood-opacity="0" result="BackgroundImageFix"/>
<feColorMatrix in="SourceAlpha" type="matrix" values="0 0 0 0 0 0 0 0 0 0 0 0 0 0 0 0 0 0 127 0" result="hardAlpha"/>
<feOffset dx="3" dy="3"/>
<feComposite in2="hardAlpha" operator="out"/>
<feColorMatrix type="matrix" values="0 0 0 0 0 0 0 0 0 0 0 0 0 0 0 0 0 0 0.1 0"/>
<feBlend mode="normal" in2="BackgroundImageFix" result="effect1_dropShadow_1049_617440"/>
<feColorMatrix in="SourceAlpha" type="matrix" values="0 0 0 0 0 0 0 0 0 0 0 0 0 0 0 0 0 0 127 0" result="hardAlpha"/>
<feOffset dx="6" dy="6"/>
<feComposite in2="hardAlpha" operator="out"/>
<feColorMatrix type="matrix" values="0 0 0 0 0 0 0 0 0 0 0 0 0 0 0 0 0 0 0.1 0"/>
<feBlend mode="normal" in2="effect1_dropShadow_1049_617440" result="effect2_dropShadow_1049_617440"/>
<feBlend mode="normal" in="SourceGraphic" in2="effect2_dropShadow_1049_617440" result="shape"/>
</filter>
</defs>
</svg>
