<svg width="24" height="24" viewBox="0 0 24 24" xmlns="http://www.w3.org/2000/svg">
<g clip-path="url(#clip0_302_377)">
<path fill-rule="evenodd" clip-rule="evenodd" d="M11 3.84V0H13V3.84H11ZM12 16.24C14.3417 16.24 16.24 14.3417 16.24 12C16.24 9.65831 14.3417 7.76 12 7.76C9.65831 7.76 7.76 9.65831 7.76 12C7.76 14.3417 9.65831 16.24 12 16.24ZM12 18.24C15.4463 18.24 18.24 15.4463 18.24 12C18.24 8.55374 15.4463 5.76 12 5.76C8.55374 5.76 5.76 8.55374 5.76 12C5.76 15.4463 8.55374 18.24 12 18.24ZM11 20V23.84H13V20H11ZM20.16 11.48H24V13.48H20.16V11.48ZM3.84 11.48H0V13.48H3.84V11.48ZM17.5328 5.84818L20.2481 3.13289L21.6623 4.54711L18.9471 7.2624L17.5328 5.84818ZM3.58711 3.13289L6.3024 5.84818L4.88818 7.2624L2.17289 4.54711L3.58711 3.13289ZM7.2624 18.9471L4.54711 21.6624L3.13289 20.2482L5.84818 17.5329L7.2624 18.9471ZM20.2481 21.6624L17.5328 18.9471L18.9471 17.5329L21.6623 20.2482L20.2481 21.6624Z"/>
</g>
<defs>
<clipPath id="clip0_302_377">
<rect width="24" height="24"/>
</clipPath>
</defs>
</svg>
