<svg width="32" height="32" viewBox="0 0 32 32" fill="none" xmlns="http://www.w3.org/2000/svg">
<g clip-path="url(#clip0_1214_25642)">
<circle cx="16" cy="16" r="15.5" stroke="white" stroke-opacity="0.3"/>
<mask id="path-2-outside-1_1214_25642" maskUnits="userSpaceOnUse" x="16" y="6" width="9" height="22" fill="black">
<rect fill="white" x="16" y="6" width="9" height="22"/>
<path fill-rule="evenodd" clip-rule="evenodd" d="M17 24.7943L20.5 21.378L20.5 11.9275L24 14.6161V11.9287L18.5 8L18.5 20.5496L17 22.0067V24.7943Z"/>
</mask>
<path fill-rule="evenodd" clip-rule="evenodd" d="M17 24.7943L20.5 21.378L20.5 11.9275L24 14.6161V11.9287L18.5 8L18.5 20.5496L17 22.0067V24.7943Z" fill="url(#paint0_linear_1214_25642)"/>
<path d="M17 24.7943H16V27.1678L17.6985 25.5099L17 24.7943ZM20.5 21.378L21.1985 22.0936L21.5 21.7993V21.378H20.5ZM20.5 11.9275L21.1091 11.1345L19.5 9.89844L19.5 11.9275L20.5 11.9275ZM24 14.6161L23.3908 15.4091L25 16.6452V14.6161H24ZM24 11.9287H25V11.4141L24.5812 11.1149L24 11.9287ZM18.5 8L19.0812 7.18627L17.5 6.05679L17.5 8L18.5 8ZM18.5 20.5496L19.1968 21.2668L19.5 20.9723V20.5496H18.5ZM17 22.0067L16.3032 21.2894L16 21.5839V22.0067H17ZM17.6985 25.5099L21.1985 22.0936L19.8015 20.6624L16.3015 24.0787L17.6985 25.5099ZM21.5 21.378L21.5 11.9275L19.5 11.9275L19.5 21.378H21.5ZM19.8908 12.7206L23.3908 15.4091L24.6092 13.823L21.1091 11.1345L19.8908 12.7206ZM25 14.6161V11.9287H23V14.6161H25ZM24.5812 11.1149L19.0812 7.18627L17.9187 8.81373L23.4188 12.7424L24.5812 11.1149ZM17.5 8L17.5 20.5496H19.5L19.5 8L17.5 8ZM17.8032 19.8323L16.3032 21.2894L17.6968 22.724L19.1968 21.2668L17.8032 19.8323ZM16 22.0067V24.7943H18V22.0067H16Z" fill="url(#paint1_linear_1214_25642)" mask="url(#path-2-outside-1_1214_25642)"/>
<mask id="path-4-outside-2_1214_25642" maskUnits="userSpaceOnUse" x="6" y="4.79419" width="9" height="22" fill="black">
<rect fill="white" x="6" y="4.79419" width="9" height="22"/>
<path fill-rule="evenodd" clip-rule="evenodd" d="M14 7.99989L10.5 11.4162L10.5 20.8666L7 18.1781L7 20.8655L12.5 24.7942L12.5 12.2446L14 10.7875L14 7.99989Z"/>
</mask>
<path fill-rule="evenodd" clip-rule="evenodd" d="M14 7.99989L10.5 11.4162L10.5 20.8666L7 18.1781L7 20.8655L12.5 24.7942L12.5 12.2446L14 10.7875L14 7.99989Z" fill="url(#paint2_linear_1214_25642)"/>
<path d="M14 7.99989L15 7.99989L15 5.62638L13.3015 7.28429L14 7.99989ZM10.5 11.4162L9.80153 10.7006L9.50003 10.9949L9.50003 11.4162L10.5 11.4162ZM10.5 20.8666L9.89086 21.6597L11.5 22.8957L11.5 20.8666L10.5 20.8666ZM7 18.1781L7.60917 17.3851L6 16.149L6 18.1781L7 18.1781ZM7 20.8655L6 20.8655L6 21.3801L6.41875 21.6792L7 20.8655ZM12.5 24.7942L11.9188 25.6079L13.5 26.7374L13.5 24.7942L12.5 24.7942ZM12.5 12.2446L11.8032 11.5274L11.5 11.8219L11.5 12.2446L12.5 12.2446ZM14 10.7875L14.6968 11.5048L15 11.2102L15 10.7875L14 10.7875ZM13.3015 7.28429L9.80153 10.7006L11.1985 12.1318L14.6985 8.7155L13.3015 7.28429ZM9.50003 11.4162L9.50003 20.8666L11.5 20.8666L11.5 11.4162L9.50003 11.4162ZM11.1092 20.0736L7.60917 17.3851L6.39083 18.9712L9.89086 21.6597L11.1092 20.0736ZM6 18.1781L6 20.8655L8 20.8655L8 18.1781L6 18.1781ZM6.41875 21.6792L11.9188 25.6079L13.0813 23.9805L7.58124 20.0518L6.41875 21.6792ZM13.5 24.7942L13.5 12.2446L11.5 12.2446L11.5 24.7942L13.5 24.7942ZM13.1968 12.9619L14.6968 11.5048L13.3032 10.0702L11.8032 11.5274L13.1968 12.9619ZM15 10.7875L15 7.99989L13 7.99989L13 10.7875L15 10.7875Z" fill="url(#paint3_linear_1214_25642)" mask="url(#path-4-outside-2_1214_25642)"/>
</g>
<defs>
<linearGradient id="paint0_linear_1214_25642" x1="20.5" y1="8.5" x2="20.5" y2="24.7943" gradientUnits="userSpaceOnUse">
<stop stop-color="#B0FF4A" stop-opacity="0.32"/>
<stop offset="1" stop-color="#B0FF4A"/>
</linearGradient>
<linearGradient id="paint1_linear_1214_25642" x1="20.5" y1="8" x2="20.5" y2="23" gradientUnits="userSpaceOnUse">
<stop stop-color="#EFFFDA"/>
<stop offset="0.489821" stop-color="#B0FF4A"/>
<stop offset="1" stop-color="#EFFFDA"/>
</linearGradient>
<linearGradient id="paint2_linear_1214_25642" x1="10.5" y1="24" x2="10.5" y2="7.99989" gradientUnits="userSpaceOnUse">
<stop stop-color="#B0FF4A" stop-opacity="0.32"/>
<stop offset="1" stop-color="#B0FF4A"/>
</linearGradient>
<linearGradient id="paint3_linear_1214_25642" x1="10.5" y1="24.7942" x2="10.5" y2="9.79419" gradientUnits="userSpaceOnUse">
<stop stop-color="#EFFFDA"/>
<stop offset="0.489821" stop-color="#B0FF4A"/>
<stop offset="1" stop-color="#EFFFDA"/>
</linearGradient>
<clipPath id="clip0_1214_25642">
<rect width="32" height="32" fill="white"/>
</clipPath>
</defs>
</svg>
