<svg width="17" height="12" viewBox="0 0 17 12" fill="none" xmlns="http://www.w3.org/2000/svg">
<path d="M16.7819 0.539062V0.389062H16.6319H14.4371H14.2871V0.539062V2.59276H12.2424H12.0924V2.74276V4.78546H10.0476H9.89761V4.93546V6.97816H7.85284H7.70284V7.12816V9.17086H5.80808V7.12816V6.97816H5.65808H3.61332V4.93546V4.78546H3.46332H1.26855H1.11855V4.93546V7.13022V7.28022H1.26855H3.31332V9.32292V9.47292H3.46332H5.50808V11.5156V11.6656H5.65808H7.85284H8.00284V11.5156V9.47292H10.0476H10.1976V9.32292V7.28022H12.2424H12.3924V7.13022V5.08752H14.4371H14.5871V4.93752V2.88383H16.6319H16.7819V2.73383V0.539062Z" fill="#4DD12C" stroke="#4DD12C" stroke-width="0.3"/>
</svg>
