<svg width="12" height="12" viewBox="0 0 12 12" fill="none" xmlns="http://www.w3.org/2000/svg">
<path fill-rule="evenodd" clip-rule="evenodd" d="M7.10598 0.290039H5.4747V1.92104H3.8437V3.55232H5.47498V1.92132H7.10598V0.290039ZM7.10635 1.92104H8.73763V3.55232H7.10635V1.92104ZM3.84333 3.55269H2.21206V5.18396H3.84333V3.55269ZM5.4747 3.55269H7.10598V5.18369V5.18396V6.81497H5.4747V5.18396V5.18369V3.55269ZM10.3686 3.55269H8.73735V5.18396H10.3686V3.55269ZM2.21233 6.81533H0.581055V8.44634V8.44661V10.0776H2.21233V8.44661V8.44634V6.81533ZM5.4747 6.81533H7.10598V8.44661H5.4747V6.81533ZM12.0003 6.81533H10.369V8.44634V8.44661V10.0776H12.0003V8.44661V8.44634V6.81533ZM2.21206 10.078H3.84333V11.7093H2.21206V10.078ZM5.4747 10.078H3.8437V11.7093H5.4747H5.47498H7.10598V10.078H5.47498H5.4747ZM8.73735 10.078H7.10635V11.7093H8.73735H8.73763H10.3686V10.078H8.73763H8.73735Z" fill="#1B7ADB"/>
</svg>
