<svg width="57" height="57" viewBox="0 0 57 57" fill="none" xmlns="http://www.w3.org/2000/svg">
<g filter="url(#filter0_d_1408_40251)">
<path d="M13.75 0H40.25V6.625H46.875V13.25H53.5V39.75H46.875V46.375H40.25V53H13.75V46.375H7.125V39.75H0.5V13.25H7.125V6.625H13.75V0Z" fill="#6B001E"/>
</g>
<path d="M16.2136 13.25H13.6655V15.798H16.2136V13.25Z" fill="#55FFD6"/>
<path d="M18.7609 13.25H16.2129V15.798H18.7609V13.25Z" fill="#55FFD6"/>
<path d="M21.3093 13.25H18.7612V15.798H21.3093V13.25Z" fill="#55FFD6"/>
<path d="M23.8571 13.25H21.3091V15.798H23.8571V13.25Z" fill="#55FFD6"/>
<path d="M26.4055 13.25H23.8574V15.798H26.4055V13.25Z" fill="#55FFD6"/>
<path d="M28.9538 13.25H26.4058V15.798H28.9538V13.25Z" fill="#55FFD6"/>
<path d="M31.5012 13.25H28.9531V15.798H31.5012V13.25Z" fill="#55FFD6"/>
<path d="M34.0495 13.25H31.5015V15.798H34.0495V13.25Z" fill="#55FFD6"/>
<path d="M36.5979 13.25H34.0498V15.798H36.5979V13.25Z" fill="#55FFD6"/>
<path d="M39.1452 13.25H36.5972V15.798H39.1452V13.25Z" fill="#55FFD6"/>
<path d="M41.6936 13.25H39.1455V15.798H41.6936V13.25Z" fill="#55FFD6"/>
<path d="M16.2136 15.7988H13.6655V18.3469H16.2136V15.7988Z" fill="#55FFD6"/>
<path d="M18.7609 15.7988H16.2129V18.3469H18.7609V15.7988Z" fill="#55FFD6"/>
<path d="M21.3093 15.7988H18.7612V18.3469H21.3093V15.7988Z" fill="#55FFD6"/>
<path d="M23.8571 15.7988H21.3091V18.3469H23.8571V15.7988Z" fill="#55FFD6"/>
<path d="M26.4055 15.7988H23.8574V18.3469H26.4055V15.7988Z" fill="#55FFD6"/>
<path d="M28.9538 15.7988H26.4058V18.3469H28.9538V15.7988Z" fill="#55FFD6"/>
<path d="M31.5012 15.7988H28.9531V18.3469H31.5012V15.7988Z" fill="#55FFD6"/>
<path d="M34.0495 15.7988H31.5015V18.3469H34.0495V15.7988Z" fill="#55FFD6"/>
<path d="M36.5979 15.7988H34.0498V18.3469H36.5979V15.7988Z" fill="#55FFD6"/>
<path d="M39.1452 15.7988H36.5972V18.3469H39.1452V15.7988Z" fill="#55FFD6"/>
<path d="M41.6936 15.7988H39.1455V18.3469H41.6936V15.7988Z" fill="#55FFD6"/>
<path d="M16.2136 18.3457H13.6655V20.8938H16.2136V18.3457Z" fill="#128E99"/>
<path d="M18.7609 18.3457H16.2129V20.8938H18.7609V18.3457Z" fill="#128E99"/>
<path d="M21.3093 18.3457H18.7612V20.8938H21.3093V18.3457Z" fill="#128E99"/>
<path d="M23.8571 18.3457H21.3091V20.8938H23.8571V18.3457Z" fill="#128E99"/>
<path d="M26.4055 18.3457H23.8574V20.8938H26.4055V18.3457Z" fill="#55FFD6"/>
<path d="M28.9538 18.3457H26.4058V20.8938H28.9538V18.3457Z" fill="#55FFD6"/>
<path d="M31.5012 18.3457H28.9531V20.8938H31.5012V18.3457Z" fill="#55FFD6"/>
<path d="M34.0495 18.3457H31.5015V20.8938H34.0495V18.3457Z" fill="#128E99"/>
<path d="M36.5979 18.3457H34.0498V20.8938H36.5979V18.3457Z" fill="#128E99"/>
<path d="M39.1452 18.3457H36.5972V20.8938H39.1452V18.3457Z" fill="#128E99"/>
<path d="M41.6936 18.3457H39.1455V20.8938H41.6936V18.3457Z" fill="#128E99"/>
<path d="M26.4055 20.8945H23.8574V23.4426H26.4055V20.8945Z" fill="#55FFD6"/>
<path d="M28.9538 20.8945H26.4058V23.4426H28.9538V20.8945Z" fill="#55FFD6"/>
<path d="M31.5012 20.8945H28.9531V23.4426H31.5012V20.8945Z" fill="#55FFD6"/>
<path d="M26.4055 23.4434H23.8574V25.9914H26.4055V23.4434Z" fill="#55FFD6"/>
<path d="M28.9538 23.4434H26.4058V25.9914H28.9538V23.4434Z" fill="#55FFD6"/>
<path d="M31.5012 23.4434H28.9531V25.9914H31.5012V23.4434Z" fill="#55FFD6"/>
<path d="M16.2136 25.9922H13.6655V28.5402H16.2136V25.9922Z" fill="#55FFD6"/>
<path d="M18.7609 25.9922H16.2129V28.5402H18.7609V25.9922Z" fill="#55FFD6"/>
<path d="M21.3093 25.9922H18.7612V28.5402H21.3093V25.9922Z" fill="#55FFD6"/>
<path d="M26.4055 25.9922H23.8574V28.5402H26.4055V25.9922Z" fill="#55FFD6"/>
<path d="M28.9538 25.9922H26.4058V28.5402H28.9538V25.9922Z" fill="#55FFD6"/>
<path d="M31.5012 25.9922H28.9531V28.5402H31.5012V25.9922Z" fill="#55FFD6"/>
<path d="M36.5979 25.9922H34.0498V28.5402H36.5979V25.9922Z" fill="#55FFD6"/>
<path d="M39.1452 25.9922H36.5972V28.5402H39.1452V25.9922Z" fill="#55FFD6"/>
<path d="M41.6936 25.9922H39.1455V28.5402H41.6936V25.9922Z" fill="#55FFD6"/>
<path d="M11.1169 28.5391H8.56885V31.0871H11.1169V28.5391Z" fill="#55FFD6"/>
<path d="M13.6652 28.5391H11.1172V31.0871H13.6652V28.5391Z" fill="#55FFD6"/>
<path d="M26.4055 28.5391H23.8574V31.0871H26.4055V28.5391Z" fill="#128E99"/>
<path d="M28.9538 28.5391H26.4058V31.0871H28.9538V28.5391Z" fill="#128E99"/>
<path d="M31.5012 28.5391H28.9531V31.0871H31.5012V28.5391Z" fill="#128E99"/>
<path d="M44.2419 28.5391H41.6938V31.0871H44.2419V28.5391Z" fill="#55FFD6"/>
<path d="M46.7893 28.5391H44.2412V31.0871H46.7893V28.5391Z" fill="#55FFD6"/>
<path d="M11.1169 31.0859H8.56885V33.634H11.1169V31.0859Z" fill="#128E99"/>
<path d="M13.6652 31.0859H11.1172V33.634H13.6652V31.0859Z" fill="#128E99"/>
<path d="M16.2136 31.0859H13.6655V33.634H16.2136V31.0859Z" fill="#55FFD6"/>
<path d="M18.7609 31.0859H16.2129V33.634H18.7609V31.0859Z" fill="#55FFD6"/>
<path d="M21.3093 31.0859H18.7612V33.634H21.3093V31.0859Z" fill="#55FFD6"/>
<path d="M23.8571 31.0859H21.3091V33.634H23.8571V31.0859Z" fill="#55FFD6"/>
<path d="M26.4055 31.0859H23.8574V33.634H26.4055V31.0859Z" fill="#55FFD6"/>
<path d="M28.9538 31.0859H26.4058V33.634H28.9538V31.0859Z" fill="#55FFD6"/>
<path d="M31.5012 31.0859H28.9531V33.634H31.5012V31.0859Z" fill="#55FFD6"/>
<path d="M34.0495 31.0859H31.5015V33.634H34.0495V31.0859Z" fill="#55FFD6"/>
<path d="M36.5979 31.0859H34.0498V33.634H36.5979V31.0859Z" fill="#55FFD6"/>
<path d="M39.1452 31.0859H36.5972V33.634H39.1452V31.0859Z" fill="#55FFD6"/>
<path d="M41.6936 31.0859H39.1455V33.634H41.6936V31.0859Z" fill="#55FFD6"/>
<path d="M44.2419 31.0859H41.6938V33.634H44.2419V31.0859Z" fill="#128E99"/>
<path d="M46.7893 31.0859H44.2412V33.634H46.7893V31.0859Z" fill="#128E99"/>
<path d="M16.2136 33.6328H13.6655V36.1809H16.2136V33.6328Z" fill="#128E99"/>
<path d="M18.7609 33.6328H16.2129V36.1809H18.7609V33.6328Z" fill="#128E99"/>
<path d="M21.3093 33.6328H18.7612V36.1809H21.3093V33.6328Z" fill="#128E99"/>
<path d="M23.8571 33.6328H21.3091V36.1809H23.8571V33.6328Z" fill="#128E99"/>
<path d="M26.4055 33.6328H23.8574V36.1809H26.4055V33.6328Z" fill="#55FFD6"/>
<path d="M28.9538 33.6328H26.4058V36.1809H28.9538V33.6328Z" fill="#55FFD6"/>
<path d="M31.5012 33.6328H28.9531V36.1809H31.5012V33.6328Z" fill="#55FFD6"/>
<path d="M34.0495 33.6328H31.5015V36.1809H34.0495V33.6328Z" fill="#128E99"/>
<path d="M36.5979 33.6328H34.0498V36.1809H36.5979V33.6328Z" fill="#128E99"/>
<path d="M39.1452 33.6328H36.5972V36.1809H39.1452V33.6328Z" fill="#128E99"/>
<path d="M41.6936 33.6328H39.1455V36.1809H41.6936V33.6328Z" fill="#128E99"/>
<path d="M26.4055 36.1816H23.8574V38.7297H26.4055V36.1816Z" fill="#55FFD6"/>
<path d="M28.9538 36.1816H26.4058V38.7297H28.9538V36.1816Z" fill="#55FFD6"/>
<path d="M31.5012 36.1816H28.9531V38.7297H31.5012V36.1816Z" fill="#55FFD6"/>
<path d="M26.4055 38.7305H23.8574V41.2785H26.4055V38.7305Z" fill="#55FFD6"/>
<path d="M28.9538 38.7305H26.4058V41.2785H28.9538V38.7305Z" fill="#55FFD6"/>
<path d="M31.5012 38.7305H28.9531V41.2785H31.5012V38.7305Z" fill="#55FFD6"/>
<path d="M26.4055 41.2793H23.8574V43.8273H26.4055V41.2793Z" fill="#55FFD6"/>
<path d="M28.9538 41.2793H26.4058V43.8273H28.9538V41.2793Z" fill="#55FFD6"/>
<path d="M31.5012 41.2793H28.9531V43.8273H31.5012V41.2793Z" fill="#55FFD6"/>
<path d="M26.4055 43.8262H23.8574V46.3742H26.4055V43.8262Z" fill="#128E99"/>
<path d="M28.9538 43.8262H26.4058V46.3742H28.9538V43.8262Z" fill="#128E99"/>
<path d="M31.5012 43.8262H28.9531V46.3742H31.5012V43.8262Z" fill="#128E99"/>
<defs>
<filter id="filter0_d_1408_40251" x="0.5" y="0" width="56.1176" height="56.1176" filterUnits="userSpaceOnUse" color-interpolation-filters="sRGB">
<feFlood flood-opacity="0" result="BackgroundImageFix"/>
<feColorMatrix in="SourceAlpha" type="matrix" values="0 0 0 0 0 0 0 0 0 0 0 0 0 0 0 0 0 0 127 0" result="hardAlpha"/>
<feOffset dx="3.11765" dy="3.11765"/>
<feComposite in2="hardAlpha" operator="out"/>
<feColorMatrix type="matrix" values="0 0 0 0 0 0 0 0 0 0 0 0 0 0 0 0 0 0 0.13 0"/>
<feBlend mode="normal" in2="BackgroundImageFix" result="effect1_dropShadow_1408_40251"/>
<feBlend mode="normal" in="SourceGraphic" in2="effect1_dropShadow_1408_40251" result="shape"/>
</filter>
</defs>
</svg>
