<svg width="388" height="138" viewBox="0 0 388 138" fill="none" xmlns="http://www.w3.org/2000/svg">
<mask id="path-1-outside-1_39_19427" maskUnits="userSpaceOnUse" x="0" y="0" width="388" height="138" fill="black">
<rect fill="white" width="388" height="138"/>
<path fill-rule="evenodd" clip-rule="evenodd" d="M2 22V136H386V22.5059L365.494 2H22L2 22Z"/>
</mask>
<path fill-rule="evenodd" clip-rule="evenodd" d="M2 22V136H386V22.5059L365.494 2H22L2 22Z" fill="url(#paint0_linear_39_19427)"/>
<path d="M2 22L0.585786 20.5858L0 21.1716V22H2ZM2 136H0V138H2V136ZM386 136V138H388V136H386ZM386 22.5059H388V21.6774L387.414 21.0916L386 22.5059ZM365.494 2L366.908 0.585786L366.323 0H365.494V2ZM22 2V0H21.1716L20.5858 0.585786L22 2ZM0 22V136H4V22H0ZM2 138H386V134H2V138ZM388 136V22.5059H384V136H388ZM387.414 21.0916L366.908 0.585786L364.08 3.41421L384.586 23.9201L387.414 21.0916ZM365.494 0H22V4H365.494V0ZM20.5858 0.585786L0.585786 20.5858L3.41421 23.4142L23.4142 3.41421L20.5858 0.585786Z" fill="url(#paint1_linear_39_19427)" mask="url(#path-1-outside-1_39_19427)"/>
<mask id="mask0_39_19427" style="mask-type:alpha" maskUnits="userSpaceOnUse" x="2" y="2" width="384" height="134">
<mask id="path-3-inside-2_39_19427" fill="white">
<path fill-rule="evenodd" clip-rule="evenodd" d="M2 22V136H386V22.5059L365.494 2H22L2 22Z"/>
</mask>
<path fill-rule="evenodd" clip-rule="evenodd" d="M2 22V136H386V22.5059L365.494 2H22L2 22Z" fill="url(#paint2_linear_39_19427)"/>
<path d="M2 22L1.29289 21.2929L1 21.5858V22H2ZM2 136H1V137H2V136ZM386 136V137H387V136H386ZM386 22.5059H387V22.0916L386.707 21.7988L386 22.5059ZM365.494 2L366.201 1.29289L365.908 1H365.494V2ZM22 2V1H21.5858L21.2929 1.29289L22 2ZM1 22V136H3V22H1ZM2 137H386V135H2V137ZM387 136V22.5059H385V136H387ZM386.707 21.7988L366.201 1.29289L364.787 2.70711L385.293 23.213L386.707 21.7988ZM365.494 1H22V3H365.494V1ZM21.2929 1.29289L1.29289 21.2929L2.70711 22.7071L22.7071 2.70711L21.2929 1.29289Z" fill="white" fill-opacity="0.5" mask="url(#path-3-inside-2_39_19427)"/>
</mask>
<g mask="url(#mask0_39_19427)">
<path fill-rule="evenodd" clip-rule="evenodd" d="M14.3731 3.1547L-21 23.5774V64.4226L14.3731 44L49.6269 64.3538V23.5085L14.3731 3.1547ZM48.7461 65L14.3731 45.1547L-20 65L14.3731 84.8453L48.7461 65ZM-21 65.5774V106.423L14.3731 126.845L49.6269 106.491V65.6462L14.3731 86L-21 65.5774ZM-22 65V23L14.3731 2L50.1865 22.6769L86 2L121.687 22.6036L157.373 2L193.187 22.6769L229 2L264.687 22.6036L300.373 2L336.187 22.6769L372 2L408.373 23V65V107L372 128L336.187 107.323L300.373 128L264.687 107.396L229 128L193.187 107.323L157.373 128L121.687 107.396L86 128L50.1865 107.323L14.3731 128L-22 107V65ZM407.373 64.4226V23.5774L372 3.1547L336.746 23.5085V64.3538L372 44L407.373 64.4226ZM337.627 65L372 45.1547L406.373 65L372 84.8453L337.627 65ZM336.746 65.6462L372 86L407.373 65.5774V106.423L372 126.845L336.746 106.491V65.6462ZM335.627 64.3539V23.5085L300.373 3.1547L265.373 23.362V64.2073L300.373 44L335.627 64.3539ZM266 65L300.373 45.1547L334.746 65L300.373 84.8453L266 65ZM265.373 65.7927L300.373 86L335.627 65.6461V106.491L300.373 126.845L265.373 106.638V65.7927ZM264 64.2073V23.362L229 3.1547L193.746 23.5085V64.3538L229 44L264 64.2073ZM194.627 65L229 45.1547L263.373 65L229 84.8453L194.627 65ZM193.746 65.6462L229 86L264 65.7927V106.638L229 126.845L193.746 106.491V65.6462ZM192.627 64.3538V23.5085L157.373 3.1547L122.373 23.362V64.2073L157.373 44L192.627 64.3538ZM123 65L157.373 45.1547L191.746 65L157.373 84.8453L123 65ZM122.373 65.7927L157.373 86L192.627 65.6462V106.491L157.373 126.845L122.373 106.638V65.7927ZM121 65.7927V106.638L86 126.845L50.7461 106.491V65.6462L86 86L121 65.7927ZM120.373 65L86 84.8453L51.6269 65L86 45.1547L120.373 65ZM121 64.2073L86 44L50.7461 64.3538V23.5085L86 3.1547L121 23.362V64.2073Z" fill="white" fill-opacity="0.1"/>
</g>
<g filter="url(#filter0_b_39_19427)">
<path fill-rule="evenodd" clip-rule="evenodd" d="M194 93C200.627 93 206 87.6274 206 81H386V136H2V81H182C182 87.6274 187.373 93 194 93Z" fill="white" fill-opacity="0.3"/>
</g>
<defs>
<filter id="filter0_b_39_19427" x="-28" y="51" width="444" height="115" filterUnits="userSpaceOnUse" color-interpolation-filters="sRGB">
<feFlood flood-opacity="0" result="BackgroundImageFix"/>
<feGaussianBlur in="BackgroundImageFix" stdDeviation="15"/>
<feComposite in2="SourceAlpha" operator="in" result="effect1_backgroundBlur_39_19427"/>
<feBlend mode="normal" in="SourceGraphic" in2="effect1_backgroundBlur_39_19427" result="shape"/>
</filter>
<linearGradient id="paint0_linear_39_19427" x1="1.99999" y1="136" x2="375.5" y2="15" gradientUnits="userSpaceOnUse">
<stop offset="0.00420367" stop-color="#FF6827" stop-opacity="0.5"/>
<stop offset="0.272337" stop-color="#FF6827"/>
<stop offset="0.53606" stop-color="#FF9533"/>
<stop offset="0.745761" stop-color="#FF6827"/>
<stop offset="1" stop-color="#FF6827" stop-opacity="0.5"/>
</linearGradient>
<linearGradient id="paint1_linear_39_19427" x1="9.5" y1="10" x2="386" y2="136" gradientUnits="userSpaceOnUse">
<stop stop-color="#FF6827" stop-opacity="0.07"/>
<stop offset="0.145318" stop-color="#FFB33D"/>
<stop offset="0.504625" stop-color="#FF7539"/>
<stop offset="0.859495" stop-color="#FFB33D"/>
<stop offset="1" stop-color="#FF6827" stop-opacity="0.33"/>
</linearGradient>
<linearGradient id="paint2_linear_39_19427" x1="2.00001" y1="69" x2="181.85" y2="-122.615" gradientUnits="userSpaceOnUse">
<stop stop-color="#B0FF4A"/>
<stop offset="1" stop-color="#70F0E1"/>
</linearGradient>
</defs>
</svg>
