<svg width="384" height="134" viewBox="0 0 384 134" fill="none" xmlns="http://www.w3.org/2000/svg">
<mask id="path-1-inside-1_0_1" fill="white">
<path fill-rule="evenodd" clip-rule="evenodd" d="M0 20V134H384V20.5059L363.494 0H20L0 20Z"/>
</mask>
<path fill-rule="evenodd" clip-rule="evenodd" d="M0 20V134H384V20.5059L363.494 0H20L0 20Z" fill="url(#paint0_linear_0_1)"/>
<path d="M0 20L-0.707107 19.2929L-1 19.5858V20H0ZM0 134H-1V135H0V134ZM384 134V135H385V134H384ZM384 20.5059H385V20.0916L384.707 19.7988L384 20.5059ZM363.494 0L364.201 -0.707107L363.908 -1H363.494V0ZM20 0V-1H19.5858L19.2929 -0.707107L20 0ZM-1 20V134H1V20H-1ZM0 135H384V133H0V135ZM385 134V20.5059H383V134H385ZM384.707 19.7988L364.201 -0.707107L362.787 0.707107L383.293 21.213L384.707 19.7988ZM363.494 -1H20V1H363.494V-1ZM19.2929 -0.707107L-0.707107 19.2929L0.707107 20.7071L20.7071 0.707107L19.2929 -0.707107Z" fill="white" fill-opacity="0.5" mask="url(#path-1-inside-1_0_1)"/>
<mask id="mask0_0_1" style="mask-type:alpha" maskUnits="userSpaceOnUse" x="0" y="0" width="384" height="134">
<mask id="path-3-inside-2_0_1" fill="white">
<path fill-rule="evenodd" clip-rule="evenodd" d="M0 20V134H384V20.5059L363.494 0H20L0 20Z"/>
</mask>
<path fill-rule="evenodd" clip-rule="evenodd" d="M0 20V134H384V20.5059L363.494 0H20L0 20Z" fill="url(#paint1_linear_0_1)"/>
<path d="M0 20L-0.707107 19.2929L-1 19.5858V20H0ZM0 134H-1V135H0V134ZM384 134V135H385V134H384ZM384 20.5059H385V20.0916L384.707 19.7988L384 20.5059ZM363.494 0L364.201 -0.707107L363.908 -1H363.494V0ZM20 0V-1H19.5858L19.2929 -0.707107L20 0ZM-1 20V134H1V20H-1ZM0 135H384V133H0V135ZM385 134V20.5059H383V134H385ZM384.707 19.7988L364.201 -0.707107L362.787 0.707107L383.293 21.213L384.707 19.7988ZM363.494 -1H20V1H363.494V-1ZM19.2929 -0.707107L-0.707107 19.2929L0.707107 20.7071L20.7071 0.707107L19.2929 -0.707107Z" fill="white" fill-opacity="0.5" mask="url(#path-3-inside-2_0_1)"/>
</mask>
<g mask="url(#mask0_0_1)">
<path fill-rule="evenodd" clip-rule="evenodd" d="M12.3731 1.1547L-23 21.5774V62.4226L12.3731 42L47.6269 62.3538V21.5085L12.3731 1.1547ZM46.7461 63L12.3731 43.1547L-22 63L12.3731 82.8453L46.7461 63ZM-23 63.5774V104.423L12.3731 124.845L47.6269 104.491V63.6462L12.3731 84L-23 63.5774ZM-24 63V21L12.3731 0L48.1865 20.6769L84 0L119.687 20.6036L155.373 0L191.187 20.6769L227 0L262.687 20.6036L298.373 0L334.187 20.6769L370 0L406.373 21V63V105L370 126L334.187 105.323L298.373 126L262.687 105.396L227 126L191.187 105.323L155.373 126L119.687 105.396L84 126L48.1865 105.323L12.3731 126L-24 105V63ZM405.373 62.4226V21.5774L370 1.1547L334.746 21.5085V62.3538L370 42L405.373 62.4226ZM335.627 63L370 43.1547L404.373 63L370 82.8453L335.627 63ZM334.746 63.6462L370 84L405.373 63.5774V104.423L370 124.845L334.746 104.491V63.6462ZM333.627 62.3539V21.5085L298.373 1.1547L263.373 21.362V62.2073L298.373 42L333.627 62.3539ZM264 63L298.373 43.1547L332.746 63L298.373 82.8453L264 63ZM263.373 63.7927L298.373 84L333.627 63.6461V104.491L298.373 124.845L263.373 104.638V63.7927ZM262 62.2073V21.362L227 1.1547L191.746 21.5085V62.3538L227 42L262 62.2073ZM192.627 63L227 43.1547L261.373 63L227 82.8453L192.627 63ZM191.746 63.6462L227 84L262 63.7927V104.638L227 124.845L191.746 104.491V63.6462ZM190.627 62.3538V21.5085L155.373 1.1547L120.373 21.362V62.2073L155.373 42L190.627 62.3538ZM121 63L155.373 43.1547L189.746 63L155.373 82.8453L121 63ZM120.373 63.7927L155.373 84L190.627 63.6462V104.491L155.373 124.845L120.373 104.638V63.7927ZM119 63.7927V104.638L84 124.845L48.7461 104.491V63.6462L84 84L119 63.7927ZM118.373 63L84 82.8453L49.6269 63L84 43.1547L118.373 63ZM119 62.2073L84 42L48.7461 62.3538V21.5085L84 1.1547L119 21.362V62.2073Z" fill="white" fill-opacity="0.2"/>
</g>
<g filter="url(#filter0_b_0_1)">
<path fill-rule="evenodd" clip-rule="evenodd" d="M192 91C198.627 91 204 85.6274 204 79H383V133H1V79H180C180 85.6274 185.373 91 192 91Z" fill="white" fill-opacity="0.3"/>
</g>
<defs>
<filter id="filter0_b_0_1" x="-29" y="49" width="442" height="114" filterUnits="userSpaceOnUse" color-interpolation-filters="sRGB">
<feFlood flood-opacity="0" result="BackgroundImageFix"/>
<feGaussianBlur in="BackgroundImageFix" stdDeviation="15"/>
<feComposite in2="SourceAlpha" operator="in" result="effect1_backgroundBlur_0_1"/>
<feBlend mode="normal" in="SourceGraphic" in2="effect1_backgroundBlur_0_1" result="shape"/>
</filter>
<linearGradient id="paint0_linear_0_1" x1="5.47325e-06" y1="67" x2="179.85" y2="-124.615" gradientUnits="userSpaceOnUse">
<stop stop-color="#B0FF4A"/>
<stop offset="1" stop-color="#70F0E1"/>
</linearGradient>
<linearGradient id="paint1_linear_0_1" x1="5.47325e-06" y1="67" x2="179.85" y2="-124.615" gradientUnits="userSpaceOnUse">
<stop stop-color="#B0FF4A"/>
<stop offset="1" stop-color="#70F0E1"/>
</linearGradient>
</defs>
</svg>
